<?xml version="1.0" encoding="utf-8"?>
<!-- Generator: Adobe Illustrator 22.1.0, SVG Export Plug-In . SVG Version: 6.00 Build 0)  -->
<svg version="1.1" id="Capa_1" xmlns="http://www.w3.org/2000/svg" xmlns:xlink="http://www.w3.org/1999/xlink" x="0px" y="0px"
	 viewBox="0 0 20 20" style="enable-background:new 0 0 20 20;" xml:space="preserve">
<style type="text/css">
	.st0{fill:#9d9d9d;}
</style>
<g>
	<path class="st0" d="M12.3,17.5c-0.2,0-0.3,0.1-0.5,0.1c-0.4,0.1-0.7,0.5-0.6,0.9c0,0.2,0.2,0.4,0.3,0.5c0.2,0.1,0.4,0.2,0.6,0.1
		c0.2,0,0.4-0.1,0.6-0.1c0.4-0.1,0.7-0.5,0.5-0.9C13.1,17.6,12.7,17.4,12.3,17.5z"/>
	<path class="st0" d="M17.9,7.4c0.1,0.2,0.2,0.3,0.3,0.4c0.2,0.1,0.4,0.2,0.7,0.1c0.4-0.1,0.6-0.6,0.5-1c-0.1-0.2-0.1-0.4-0.2-0.5
		c-0.2-0.4-0.6-0.6-1-0.4c-0.4,0.2-0.6,0.6-0.4,1C17.8,7,17.8,7.2,17.9,7.4z"/>
	<path class="st0" d="M14.7,16.4c-0.1,0.1-0.3,0.2-0.4,0.3c-0.4,0.2-0.5,0.7-0.3,1c0.1,0.1,0.1,0.2,0.2,0.2c0.2,0.2,0.5,0.2,0.8,0
		c0.2-0.1,0.3-0.2,0.5-0.3c0.3-0.2,0.4-0.7,0.2-1C15.6,16.3,15.1,16.2,14.7,16.4z"/>
	<path class="st0" d="M19.8,9.5c0-0.4-0.4-0.7-0.8-0.7c-0.4,0-0.7,0.4-0.7,0.8c0,0.2,0,0.3,0,0.5c0,0.3,0.1,0.5,0.3,0.6
		c0.1,0.1,0.3,0.1,0.4,0.1c0.4,0,0.8-0.3,0.8-0.7C19.8,9.8,19.8,9.6,19.8,9.5z"/>
	<path class="st0" d="M17.8,14.4c-0.3-0.3-0.8-0.2-1.1,0.2c-0.1,0.1-0.2,0.3-0.3,0.4c-0.3,0.3-0.2,0.8,0.1,1.1c0,0,0,0,0.1,0
		c0.3,0.2,0.8,0.2,1-0.1c0.1-0.1,0.2-0.3,0.4-0.4C18.2,15.1,18.1,14.7,17.8,14.4z"/>
	<path class="st0" d="M18.9,11.7c-0.4-0.1-0.8,0.1-0.9,0.5c0,0.2-0.1,0.3-0.2,0.5c-0.1,0.3,0,0.7,0.3,0.9c0.1,0,0.1,0.1,0.2,0.1
		c0.4,0.1,0.8,0,1-0.4c0.1-0.2,0.1-0.4,0.2-0.5C19.5,12.2,19.3,11.8,18.9,11.7z"/>
	<path class="st0" d="M9,17.6c-0.7-0.1-1.3-0.3-1.9-0.6c0,0,0,0,0,0c-0.1-0.1-0.3-0.1-0.4-0.2c0,0,0,0,0,0c-0.3-0.1-0.5-0.3-0.8-0.5
		C2.3,13.8,1.5,8.8,4,5.3c0.5-0.8,1.2-1.4,1.9-1.9c0,0,0,0,0,0c2.6-1.8,6.1-1.9,8.8-0.1l-0.6,0.9c-0.2,0.2-0.1,0.4,0.2,0.4L17,4.3
		c0.3,0,0.5-0.3,0.4-0.6l-0.7-2.5c-0.1-0.3-0.3-0.3-0.4-0.1L15.6,2c-2-1.4-4.4-1.9-6.8-1.5c-0.2,0-0.5,0.1-0.7,0.2c0,0,0,0,0,0
		c0,0,0,0,0,0C6,1.3,4.2,2.5,2.9,4.2c0,0,0,0,0,0c0,0.1-0.1,0.1-0.1,0.2C2.7,4.5,2.6,4.6,2.5,4.7c0,0,0,0,0,0
		C1.4,6.4,0.9,8.3,1,10.2c0,0,0,0,0,0c0,0.2,0,0.4,0,0.6c0,0,0,0,0,0c0,0.2,0,0.4,0.1,0.6c0.3,1.9,1.3,3.7,2.6,5.1c0,0,0,0,0,0
		c0,0,0,0,0,0c0.4,0.4,0.8,0.7,1.2,1c1.1,0.8,2.4,1.3,3.7,1.6c0.4,0.1,0.8-0.2,0.9-0.6C9.7,18,9.4,17.7,9,17.6z"/>
	<path class="st0" d="M9.9,3.7C9.6,3.7,9.3,4,9.3,4.3v6.1l5.6,2.9c0.1,0,0.2,0.1,0.3,0.1c0.2,0,0.4-0.1,0.5-0.3
		c0.2-0.3,0-0.7-0.3-0.8l-4.9-2.5V4.3C10.5,4,10.3,3.7,9.9,3.7z"/>
</g>
</svg>
