<?xml version="1.0" encoding="utf-8"?>
<!-- Generator: Adobe Illustrator 22.1.0, SVG Export Plug-In . SVG Version: 6.00 Build 0)  -->
<svg version="1.1" id="Capa_1" xmlns="http://www.w3.org/2000/svg" xmlns:xlink="http://www.w3.org/1999/xlink" x="0px" y="0px"
	 viewBox="0 0 60 60" style="enable-background:new 0 0 60 60;" xml:space="preserve">
<style type="text/css">
	.st0{fill:#FFFFFF;}
	.st1{fill:#151515;}
	.st2{fill:#030101;}
	.st3{fill:none;stroke:#000000;stroke-miterlimit:10;}
	.st4{stroke:#000000;stroke-miterlimit:10;}
	.st5{fill:none;stroke:#272525;stroke-width:2;stroke-linecap:round;stroke-linejoin:round;stroke-miterlimit:10;}
	.st6{fill:#272525;stroke:#272525;stroke-width:3;stroke-miterlimit:10;}
	.st7{opacity:0;clip-path:url(#SVGID_2_);fill-rule:evenodd;clip-rule:evenodd;fill:#FFFFFF;}
	.st8{clip-path:url(#SVGID_4_);}
	.st9{clip-path:url(#SVGID_6_);}
	.st10{fill:#211915;}
	.st11{fill:none;}
</style>
<g>
	<path class="st1" d="M42.4,23.6l2-2.8c0.4-0.5,0.2-1.2-0.3-1.6l-3-2.1c-0.5-0.4-1.2-0.2-1.6,0.3l-2,2.8c-1.5-0.7-3.1-1.2-4.7-1.5
		v-1.2c0-0.7,0.6-1.3,1.3-1.3h0.7c0.7,0,1.3-0.6,1.3-1.3v-4.1c0-0.7-0.6-1.3-1.3-1.3h-9.8c-0.7,0-1.3,0.6-1.3,1.3V15
		c0,0.7,0.6,1.3,1.3,1.3h0.7c0.7,0,1.3,0.6,1.3,1.3v1.2c-1.8,0.3-3.5,0.8-5.1,1.6l-2-2.8c-0.4-0.5-1.1-0.6-1.6-0.3l-3,2.1
		c-0.5,0.4-0.6,1.1-0.3,1.6l2,2.8c-3.2,3.2-5.3,7.7-5.3,12.7c0,9.9,8,17.9,17.9,17.9c9.9,0,17.9-8,17.9-17.9
		C47.9,31.5,45.8,26.9,42.4,23.6z M30,50.2c-7.5,0-13.6-6.1-13.6-13.6c0-7.5,6.1-13.6,13.6-13.6c7.5,0,13.6,6.1,13.6,13.6
		C43.6,44.1,37.5,50.2,30,50.2z"/>
	<path class="st1" d="M41.2,36.5c0-6.1-5.1-11.1-11.2-11.1c0,0-0.1,0-0.1,0v11.1H18.8c0,0,0,0.1,0,0.1c0,6.2,5,11.2,11.1,11.2
		c0,0,0.1,0,0.1,0C36.2,47.8,41.2,42.7,41.2,36.5C41.2,36.5,41.2,36.5,41.2,36.5z"/>
</g>
</svg>
