<?xml version="1.0" encoding="utf-8"?>
<!-- Generator: Adobe Illustrator 22.1.0, SVG Export Plug-In . SVG Version: 6.00 Build 0)  -->
<svg version="1.1" id="Capa_1" xmlns="http://www.w3.org/2000/svg" xmlns:xlink="http://www.w3.org/1999/xlink" x="0px" y="0px"
	 viewBox="0 0 60 60" style="enable-background:new 0 0 60 60;" xml:space="preserve">
<style type="text/css">
	.st0{fill:#FFFFFF;}
	.st1{fill:#151515;}
	.st2{fill:#030101;}
	.st3{fill:none;stroke:#000000;stroke-miterlimit:10;}
	.st4{stroke:#000000;stroke-miterlimit:10;}
	.st5{fill:none;stroke:#272525;stroke-width:2;stroke-linecap:round;stroke-linejoin:round;stroke-miterlimit:10;}
	.st6{fill:#272525;stroke:#272525;stroke-width:3;stroke-miterlimit:10;}
	.st7{opacity:0;clip-path:url(#SVGID_2_);fill-rule:evenodd;clip-rule:evenodd;fill:#FFFFFF;}
	.st8{clip-path:url(#SVGID_4_);}
	.st9{clip-path:url(#SVGID_6_);}
	.st10{fill:#211915;}
	.st11{fill:none;}
</style>
<g id="XMLID_4078_">
	<path id="XMLID_4085_" d="M8.5,25c3.9,14.3,16.4,24.8,31.1,26.1c0.3,0,0.7,0,1,0c1.4,0,2.7-0.3,3.9-0.8c0.4-0.2,0.7-0.3,0.9-0.5
		c0.7-0.4,1.2-0.8,1.7-1.4l1.4-1.5c0.3-0.3,0.5-0.6,0.8-1c0.4-0.7,0.7-1.4,0.9-2.1c0.6-2.5-0.2-5.1-2.1-6.9l0,0L45.8,35
		c-0.9-0.8-2-1.4-3.3-1.7c-0.5-0.1-1-0.2-1.5-0.2c-2,0-3.9,0.8-5.2,2.3L34.4,37c-0.5,0.6-1,1.3-1.3,2c-5.5-2.3-9.9-6.4-12.7-11.6
		c1-0.4,1.9-1,2.6-1.8l1.4-1.5c1.3-1.4,1.9-3.2,1.8-5.1c0-0.2,0-0.4-0.1-0.5c-0.2-1.7-1-3.2-2.3-4.3L21.7,12c-1.3-1.2-3-1.8-4.7-1.8
		c-0.4,0-0.8,0-1.2,0.1c-1.3,0.2-2.4,0.8-3.4,1.6c-0.2,0.2-0.4,0.4-0.6,0.6L10.4,14c-0.2,0.2-0.4,0.4-0.5,0.7
		c-1.5,1.3-2.7,4.2-2,7.8C8.1,23.3,8.3,24.1,8.5,25z M11,15.9C11,15.9,11.1,15.9,11,15.9l0.1-0.1c0,0,0-0.1,0.1-0.1
		c0.1-0.2,0.3-0.4,0.4-0.5l1.4-1.5c0.1-0.1,0.3-0.3,0.5-0.5c0.7-0.6,1.6-1.1,2.6-1.2c0.3-0.1,0.6-0.1,0.9-0.1c1.3,0,2.6,0.5,3.6,1.4
		l2.3,2.1c1,0.9,1.6,2,1.7,3.3c0,0.1,0,0.3,0,0.4c0.1,1.4-0.4,2.8-1.4,3.9l-1.4,1.5c-0.7,0.7-1.5,1.3-2.4,1.5L19,26.1
		c-0.2,0.1-0.4,0.2-0.5,0.5c-0.1,0.2-0.1,0.5,0,0.7l0.2,0.4c3,6,8.1,10.6,14.3,13.1l0.4,0.1c0.2,0.1,0.5,0.1,0.7,0
		c0.2-0.1,0.4-0.3,0.4-0.5l0.1-0.4c0.2-0.7,0.6-1.3,1.1-1.9l1.4-1.5c1-1.1,2.5-1.8,4-1.8c0.4,0,0.7,0,1.1,0.1
		c0.9,0.2,1.8,0.6,2.5,1.3l2.3,2.1c1.4,1.3,2.1,3.3,1.6,5.2c-0.1,0.5-0.3,1.1-0.7,1.6c-0.2,0.3-0.4,0.6-0.6,0.8l-1.4,1.5
		c-0.4,0.4-0.8,0.8-1.3,1.1c-0.2,0.1-0.4,0.2-0.7,0.4c-1.2,0.5-2.6,0.8-4.1,0.6c-14-1.3-25.9-11.2-29.6-24.8
		c-0.2-0.9-0.4-1.7-0.6-2.5C9,19,10.1,16.7,11,15.9z"/>
	<path id="XMLID_4082_" d="M53.3,26.9c0-12-9.7-21.7-21.7-21.7c-1,0-1.9,0.8-1.9,1.9c0,1,0.8,1.9,1.9,1.9c9.9,0,18,8.1,18,18
		c0,1,0.8,1.9,1.9,1.9S53.3,27.9,53.3,26.9z M50.4,26.9c0-10.4-8.4-18.8-18.8-18.8c-0.6,0-1-0.5-1-1c0-0.6,0.5-1,1-1
		C43,6,52.4,15.4,52.4,26.9c0,0.6-0.5,1-1,1C50.8,27.9,50.4,27.5,50.4,26.9z"/>
	<path id="XMLID_4079_" d="M42.4,27.1c0,1,0.8,1.9,1.9,1.9c1,0,1.9-0.8,1.9-1.9c0-8.2-6.7-14.9-14.9-14.9c-1,0-1.9,0.8-1.9,1.9
		c0,1,0.8,1.9,1.9,1.9C37.4,16,42.4,21,42.4,27.1z M30.3,14.1c0-0.6,0.5-1,1-1c7.7,0,14,6.3,14,14c0,0.6-0.5,1-1,1c-0.6,0-1-0.5-1-1
		c0-6.6-5.4-12-12-12C30.7,15.2,30.3,14.7,30.3,14.1z"/>
</g>
</svg>
