<?xml version="1.0" encoding="utf-8"?>
<!-- Generator: Adobe Illustrator 22.1.0, SVG Export Plug-In . SVG Version: 6.00 Build 0)  -->
<svg version="1.1" id="Capa_1" xmlns="http://www.w3.org/2000/svg" xmlns:xlink="http://www.w3.org/1999/xlink" x="0px" y="0px"
	 viewBox="0 0 60 60" style="enable-background:new 0 0 60 60;" xml:space="preserve">
<style type="text/css">
	.st0{fill:#FFFFFF;}
	.st1{fill:#151515;}
	.st2{fill:#030101;}
	.st3{fill:none;stroke:#000000;stroke-miterlimit:10;}
	.st4{stroke:#000000;stroke-miterlimit:10;}
	.st5{fill:none;stroke:#272525;stroke-width:2;stroke-linecap:round;stroke-linejoin:round;stroke-miterlimit:10;}
	.st6{fill:#272525;stroke:#272525;stroke-width:3;stroke-miterlimit:10;}
	.st7{opacity:0;clip-path:url(#SVGID_2_);fill-rule:evenodd;clip-rule:evenodd;fill:#FFFFFF;}
	.st8{clip-path:url(#SVGID_4_);}
	.st9{clip-path:url(#SVGID_6_);}
	.st10{fill:#211915;}
	.st11{fill:none;}
</style>
<g id="QOy5Ap_1_">
	<g>
		<path d="M39.7,42.7C39.7,42.7,39.7,42.7,39.7,42.7c1.3,0,2.5,0,3.8,0c4,0.1,7.5-2.2,9.1-5.9c1.6-3.6,1.1-8.2-1.9-10.6
			c-2.1-1.8-2.7-3.6-3.1-6.1c-1.1-6.1-7.3-11.2-13-11.1C30.3,9,26.8,10.8,24,14c-0.4,0.4-0.7,0.7-1.3,0.6c-4-0.5-7.4,2.1-8,6
			c-0.1,0.9-0.5,1.4-1.4,1.7C8.8,24,6.2,28.4,6.6,33.5c0.4,4.5,4.1,8.3,8.7,9c3.3,0.5,6.6,0.2,9.9,0.2c1.2,0,0.5-1.1,0.7-1.7
			c0.1-0.6,0.1-1.1-0.8-1.1c-2.6,0-5.2,0-7.9,0c-4.4,0-7.8-3.2-8-7.5c-0.2-4.2,3.1-7.7,7.4-7.9c0.8,0,1-0.3,0.9-1
			c0-1-0.2-2.1,0.1-3.1c0.6-2.3,2.8-3.4,5.6-2.7c1.2,0.3,1.8,0,2.4-1c3.1-4.8,10.8-7.5,16.6-1.1c2.3,2.5,3.1,5.5,2.8,8.8
			c-0.1,0.7,0,1.3,0.9,1.6c3.4,1.3,5.2,4.7,4.5,8.2c-0.7,3.3-3.8,5.9-7.4,5.7c-2.6-0.2-5.2,0-7.9-0.1c-1.2-0.1-1.2,0.6-1.2,1.4
			c0,0.8-0.2,1.6,1.1,1.5C36.7,42.6,38.2,42.7,39.7,42.7z M31.5,51.9c0-7.5,0-14.6,0-21.8c0-1.1-0.2-1.5-1.5-1.6
			c-1.4,0-1.4,0.6-1.4,1.6c0,6.7,0,13.3,0,20c0,0.4,0.2,0.9-0.2,1.4c-0.2-0.2-0.4-0.3-0.6-0.5c-1.7-1.7-3.4-3.4-5.1-5.1
			c-0.7-0.7-1.6-0.8-2.2-0.3c-0.5,0.4-0.4,1.4,0.2,2c2.9,3,5.9,6,8.8,8.9c0.3,0.3,0.6,0.5,1,0.1c3-3,6-6,8.9-9
			c0.6-0.6,0.5-1.4,0.1-2c-0.4-0.6-1.1-0.3-1.7-0.1c-0.3,0.1-0.6,0.5-0.9,0.7C35.2,48.1,33.5,49.8,31.5,51.9z"/>
		<path d="M39.7,42.7c-1.5,0-3-0.1-4.5,0c-1.3,0.1-1.1-0.7-1.1-1.5c0-0.9,0-1.5,1.2-1.4c2.6,0.1,5.2-0.1,7.9,0.1
			c3.6,0.2,6.7-2.4,7.4-5.7c0.7-3.5-1.1-6.9-4.5-8.2c-0.9-0.3-0.9-0.9-0.9-1.6c0.3-3.3-0.5-6.3-2.8-8.8c-5.8-6.3-13.5-3.7-16.6,1.1
			c-0.6,1-1.2,1.3-2.4,1c-2.8-0.7-4.9,0.4-5.6,2.7c-0.3,1-0.1,2.1-0.1,3.1c0,0.7-0.2,0.9-0.9,1c-4.3,0.2-7.6,3.7-7.4,7.9
			c0.2,4.3,3.6,7.5,8,7.5c2.6,0,5.2,0,7.9,0c0.9,0,0.9,0.5,0.8,1.1c-0.1,0.6,0.6,1.7-0.7,1.7c-3.3,0-6.6,0.3-9.9-0.2
			c-4.6-0.7-8.3-4.5-8.7-9c-0.5-5,2.2-9.5,6.7-11.1c0.9-0.3,1.3-0.8,1.4-1.7c0.6-3.9,4-6.5,8-6c0.6,0.1,0.9-0.2,1.3-0.6
			c2.8-3.3,6.3-5,10.6-5.1c5.8-0.1,12,5,13,11.1c0.4,2.5,1.1,4.4,3.1,6.1c3,2.5,3.4,7.1,1.9,10.6c-1.6,3.7-5.1,5.9-9.1,5.9
			C42.3,42.7,41,42.7,39.7,42.7C39.7,42.7,39.7,42.7,39.7,42.7z"/>
		<path d="M31.5,51.9c2-2,3.8-3.8,5.5-5.5c0.3-0.3,0.6-0.6,0.9-0.7c0.6-0.2,1.3-0.5,1.7,0.1c0.4,0.6,0.4,1.4-0.1,2c-3,3-5.9,6-8.9,9
			c-0.4,0.4-0.7,0.3-1-0.1c-2.9-3-5.9-5.9-8.8-8.9c-0.6-0.6-0.7-1.6-0.2-2c0.6-0.5,1.6-0.4,2.2,0.3c1.7,1.7,3.4,3.4,5.1,5.1
			c0.2,0.2,0.4,0.3,0.6,0.5c0.4-0.5,0.2-1,0.2-1.4c0-6.7,0-13.3,0-20c0-1,0-1.7,1.4-1.6c1.3,0,1.5,0.4,1.5,1.6
			C31.4,37.2,31.5,44.3,31.5,51.9z"/>
	</g>
</g>
</svg>
