<?xml version="1.0" encoding="utf-8"?>
<!-- Generator: Adobe Illustrator 22.1.0, SVG Export Plug-In . SVG Version: 6.00 Build 0)  -->
<svg version="1.1" id="Capa_1" xmlns="http://www.w3.org/2000/svg" xmlns:xlink="http://www.w3.org/1999/xlink" x="0px" y="0px"
	 viewBox="0 0 60 60" style="enable-background:new 0 0 60 60;" xml:space="preserve">
<style type="text/css">
	.st0{fill:#FFFFFF;}
	.st1{fill:#151515;}
	.st2{fill:#030101;}
	.st3{fill:none;stroke:#000000;stroke-miterlimit:10;}
	.st4{stroke:#000000;stroke-miterlimit:10;}
	.st5{fill:none;stroke:#272525;stroke-width:2;stroke-linecap:round;stroke-linejoin:round;stroke-miterlimit:10;}
	.st6{fill:#272525;stroke:#272525;stroke-width:3;stroke-miterlimit:10;}
	.st7{opacity:0;clip-path:url(#SVGID_2_);fill-rule:evenodd;clip-rule:evenodd;fill:#FFFFFF;}
	.st8{clip-path:url(#SVGID_4_);}
	.st9{clip-path:url(#SVGID_6_);}
	.st10{fill:#211915;}
	.st11{fill:none;}
</style>
<path d="M43.1,41.2c-1.5,0-2.9,0.4-4.2,1.1l-8-6.4c0.8-1.8,1.2-3.7,1.2-5.8c0-2.5-0.6-4.8-1.7-6.9l8.3-5.8c1.3,0.8,2.8,1.3,4.4,1.3
	c4.7,0,8.5-3.8,8.5-8.5s-3.8-8.5-8.5-8.5s-8.5,3.8-8.5,8.5c0,0.9,0.1,1.8,0.4,2.6l-8.4,5.9c-2.5-2-5.7-3.3-9.2-3.3
	c-8.1,0-14.7,6.6-14.7,14.7s6.6,14.7,14.7,14.7c3.9,0,7.5-1.5,10.1-4.1l7.6,6.1c-0.3,0.9-0.5,1.9-0.5,2.9c0,4.7,3.8,8.5,8.5,8.5
	s8.5-3.8,8.5-8.5S47.8,41.2,43.1,41.2z"/>
</svg>
