<?xml version="1.0" encoding="utf-8"?>
<!-- Generator: Adobe Illustrator 22.1.0, SVG Export Plug-In . SVG Version: 6.00 Build 0)  -->
<svg version="1.1" id="Capa_1" xmlns="http://www.w3.org/2000/svg" xmlns:xlink="http://www.w3.org/1999/xlink" x="0px" y="0px"
	 viewBox="0 0 60 60" style="enable-background:new 0 0 60 60;" xml:space="preserve">
<style type="text/css">
	.st0{fill:#FFFFFF;}
	.st1{fill:#151515;}
	.st2{fill:#030101;}
	.st3{fill:none;stroke:#000000;stroke-miterlimit:10;}
	.st4{stroke:#000000;stroke-miterlimit:10;}
	.st5{fill:none;stroke:#272525;stroke-width:2;stroke-linecap:round;stroke-linejoin:round;stroke-miterlimit:10;}
	.st6{fill:#272525;stroke:#272525;stroke-width:3;stroke-miterlimit:10;}
	.st7{opacity:0;clip-path:url(#SVGID_2_);fill-rule:evenodd;clip-rule:evenodd;fill:#FFFFFF;}
	.st8{clip-path:url(#SVGID_4_);}
	.st9{clip-path:url(#SVGID_6_);}
	.st10{fill:#211915;}
	.st11{fill:none;}
</style>
<path d="M30.7,1.6C16.4,1.6,4.8,13.2,4.8,27.5c0,14.3,11.6,25.9,25.9,25.9s25.9-11.6,25.9-25.9C56.7,13.2,45.1,1.6,30.7,1.6z
	 M38.4,16.8c0,0-2.6,0-3.6,0c-1.3,0-1.5,0.5-1.5,1.8c0,1.1,0,3.2,0,3.2h5.1l-0.5,5.6h-4.6V44h-6.7V27.4h-3.5v-5.7h3.5
	c0,0,0-0.8,0-4.4c0-4.2,2.2-6.4,7.2-6.4c0.8,0,4.6,0,4.6,0V16.8z"/>
</svg>
