<?xml version="1.0" encoding="utf-8"?>
<!-- Generator: Adobe Illustrator 22.1.0, SVG Export Plug-In . SVG Version: 6.00 Build 0)  -->
<svg version="1.1" id="Capa_1" xmlns="http://www.w3.org/2000/svg" xmlns:xlink="http://www.w3.org/1999/xlink" x="0px" y="0px"
	 viewBox="0 0 60 60" style="enable-background:new 0 0 60 60;" xml:space="preserve">
<style type="text/css">
	.st0{fill:#FFFFFF;}
	.st1{fill:#151515;}
	.st2{fill:#030101;}
	.st3{fill:none;stroke:#000000;stroke-miterlimit:10;}
	.st4{stroke:#000000;stroke-miterlimit:10;}
	.st5{fill:none;stroke:#272525;stroke-width:2;stroke-linecap:round;stroke-linejoin:round;stroke-miterlimit:10;}
	.st6{fill:#272525;stroke:#272525;stroke-width:3;stroke-miterlimit:10;}
	.st7{opacity:0;clip-path:url(#SVGID_2_);fill-rule:evenodd;clip-rule:evenodd;fill:#FFFFFF;}
	.st8{clip-path:url(#SVGID_4_);}
	.st9{clip-path:url(#SVGID_6_);}
	.st10{fill:#211915;}
	.st11{fill:none;}
</style>
<g>
	<path class="st0" d="M31.8,13.8c0,0.1-0.1,0.1-0.1,0.2c-7.6,7.5-15.1,15-22.7,22.5c-0.1,0.1-0.1,0.1-0.2,0.2
		c-0.5,0.3-0.8,0.7-0.9,1.2c-0.2,0.7-0.4,1.5-0.6,2.2c-1.4,4.8-2.8,9.6-4.3,14.5c-0.1,0.4-0.1,0.7,0,1.1c0.3,1.2,1.5,1.8,2.7,1.5
		c4.3-1.3,8.6-2.5,12.8-3.8c1.3-0.4,2.7-0.8,4-1.2c0.6-0.2,1.1-0.6,1.3-1.2c0.1-0.1,0.1-0.2,0.2-0.3c7.4-7.4,14.9-14.8,22.3-22.1
		c0,0,0.1-0.1,0.1-0.1c-1-1-2.1-2.1-3.1-3.1c0,0-0.1,0.1-0.1,0.1c-1.7,1.8-3.5,3.5-5.2,5.3C32,36.6,26.1,42.5,20.2,48.4
		c-0.1,0.1-0.2,0.1-0.3,0.2c-3,0.9-6,1.8-9.1,2.6c-0.1,0-0.2,0-0.3-0.1C10,50.6,9.4,50,8.8,49.4c-0.1-0.1-0.1-0.2-0.1-0.3
		c0.9-3.1,1.8-6.3,2.8-9.4c0-0.1,0.1-0.3,0.2-0.4c7.6-7.5,15.1-15.1,22.7-22.6c0.1-0.1,0.1-0.1,0.2-0.1
		C33.6,15.7,32.7,14.8,31.8,13.8z M36.8,18.9c-7.8,7.8-15.5,15.5-23.3,23.3c0.1,0,0.1,0,0.1,0c1,0.2,2.1,0.4,3.1,0.7
		c0.1,0,0.2,0.1,0.2,0.2c0.1,0.5,0.1,1,0.2,1.5c0.1,0.5,0.1,1,0.2,1.5c7.8-7.8,15.6-15.5,23.3-23.3C39.4,21.5,38.1,20.2,36.8,18.9z
		 M51.9,23c-4.9-4.9-9.8-9.8-14.7-14.7c-1.1,1-2.2,2.1-3.3,3.2c4.9,4.9,9.7,9.7,14.6,14.6C49.7,25,50.8,24,51.9,23z"/>
	<path d="M45.5,2.8c0.2,0,0.5,0.1,0.7,0.1c1,0.2,1.8,0.7,2.5,1.3c2.3,2.3,4.7,4.7,7,7c1.9,2,2,5,0,6.9c-0.7,0.7-1.4,1.4-2.1,2.1
		c0,0-0.1,0.1-0.1,0.1c-4.7-4.7-9.3-9.4-14-14.1c0,0,0,0,0-0.1c0.7-0.8,1.5-1.6,2.3-2.3c0.8-0.7,1.7-1.1,2.7-1.2c0.1,0,0.1,0,0.2,0
		C45.1,2.8,45.3,2.8,45.5,2.8z"/>
	<path d="M31.8,13.8c1,1,1.9,1.9,2.8,2.8c-0.1,0-0.1,0.1-0.2,0.1c-7.6,7.5-15.1,15.1-22.7,22.6c-0.1,0.1-0.2,0.2-0.2,0.4
		c-0.9,3.1-1.8,6.3-2.8,9.4c0,0.1,0,0.2,0.1,0.3c0.6,0.6,1.2,1.2,1.8,1.8c0.1,0.1,0.2,0.1,0.3,0.1c3-0.9,6-1.8,9.1-2.6
		c0.1,0,0.2-0.1,0.3-0.2c5.9-5.9,11.8-11.8,17.7-17.7c1.7-1.8,3.5-3.5,5.2-5.3c0,0,0.1-0.1,0.1-0.1c1,1,2.1,2.1,3.1,3.1
		c0,0-0.1,0.1-0.1,0.1c-7.4,7.4-14.9,14.8-22.3,22.1c-0.1,0.1-0.2,0.2-0.2,0.3c-0.3,0.6-0.7,1-1.3,1.2c-1.3,0.4-2.7,0.8-4,1.2
		c-4.3,1.3-8.6,2.5-12.8,3.8c-1.2,0.4-2.4-0.3-2.7-1.5c-0.1-0.4-0.1-0.7,0-1.1c1.4-4.8,2.8-9.6,4.3-14.5c0.2-0.7,0.4-1.5,0.6-2.2
		c0.2-0.5,0.5-0.9,0.9-1.2c0.1-0.1,0.2-0.1,0.2-0.2c7.6-7.5,15.1-15,22.7-22.5C31.7,13.9,31.7,13.9,31.8,13.8z"/>
	<path d="M36.8,18.9c1.3,1.3,2.6,2.6,3.9,3.9C33,30.6,25.2,38.3,17.4,46.1c-0.1-0.5-0.1-1-0.2-1.5c-0.1-0.5-0.2-1-0.2-1.5
		c0-0.1-0.1-0.2-0.2-0.2c-1-0.2-2.1-0.4-3.1-0.7c0,0-0.1,0-0.1,0C21.3,34.5,29.1,26.7,36.8,18.9z"/>
	<path d="M51.9,23c-1.1,1-2.2,2.1-3.3,3.1c-4.9-4.9-9.7-9.7-14.6-14.6c1.1-1,2.2-2.1,3.3-3.2C42.1,13.2,47,18.1,51.9,23z"/>
</g>
</svg>
