<?xml version="1.0" encoding="utf-8"?>
<!-- Generator: Adobe Illustrator 22.1.0, SVG Export Plug-In . SVG Version: 6.00 Build 0)  -->
<svg version="1.1" id="Capa_1" xmlns="http://www.w3.org/2000/svg" xmlns:xlink="http://www.w3.org/1999/xlink" x="0px" y="0px"
	 viewBox="0 0 60 60" style="enable-background:new 0 0 60 60;" xml:space="preserve">
<style type="text/css">
	.st0{fill:#FFFFFF;}
	.st1{fill:#151515;}
	.st2{fill:#030101;}
	.st3{fill:none;stroke:#000000;stroke-miterlimit:10;}
	.st4{stroke:#000000;stroke-miterlimit:10;}
	.st5{fill:none;stroke:#272525;stroke-width:2;stroke-linecap:round;stroke-linejoin:round;stroke-miterlimit:10;}
	.st6{fill:#272525;stroke:#272525;stroke-width:3;stroke-miterlimit:10;}
	.st7{opacity:0;clip-path:url(#SVGID_2_);fill-rule:evenodd;clip-rule:evenodd;fill:#FFFFFF;}
	.st8{clip-path:url(#SVGID_4_);}
	.st9{clip-path:url(#SVGID_6_);}
	.st10{fill:#211915;}
	.st11{fill:none;}
</style>
<g>
	<g>
		<path d="M30.3,60c-5.3,0-10.6,0-16,0c-4,0-5.7-1.7-5.7-5.6c0-8.1,0-16.2,0-24.3c0-3.8,1.8-5.6,5.6-5.6c3.1,0,3,0,3.1-3.2
			c0-3,0-6,0.1-9c0.3-6.5,5.9-11.9,12.7-12.2C36.6-0.2,42.7,5,43.5,11.4c0.2,2.1,0.4,4.2,0.3,6.3c-0.1,0.8-1,2.2-1.6,2.3
			c-1.3,0.2-1.6-1-1.6-2.2c-0.1-2.2,0-4.5-0.4-6.7c-0.9-4.7-5.4-7.9-10.3-7.6c-4.7,0.2-8.8,4-9.1,8.7c-0.3,3.4-0.2,6.9-0.3,10.3
			c-0.1,1.6,0.6,2,2.1,2c7.9-0.1,15.8,0,23.7,0c4.4,0,6,1.6,6,6c0,8.1,0,16.2,0,24.3c0,3.6-1.7,5.3-5.4,5.3
			C41.3,60.1,35.8,60,30.3,60z M30.4,56.7c5.3,0,10.6-0.1,15.9,0c1.9,0,2.8-0.6,2.8-2.6c-0.1-8,0-15.9,0-23.9c0-1.8-0.6-2.6-2.6-2.6
			c-10.7,0.1-21.4,0.1-32.1,0c-1.8,0-2.6,0.5-2.6,2.5c0.1,8,0.1,16.1,0,24.1c0,1.8,0.6,2.5,2.4,2.5C19.6,56.7,25,56.7,30.4,56.7z"/>
	</g>
</g>
<g>
	<path d="M30.3,52.6c-1.5,0-2.4-0.6-2.9-1.1c-1-1.1-0.9-2.4-0.9-2.8v-3.7c-2-1.3-3.2-3.5-3.2-5.9c0-3.9,3.2-7.1,7.1-7.1
		c1.7,0,3.3,0.6,4.5,1.6c1.4,0.9,2.3,2.3,2.5,4.5c0.1,0.3,0.1,0.7,0.1,1l0,0.2c0,0.2,0,0.3,0,0.5c0,0.7-0.2,1.4-0.5,2
		c-0.6,1.4-1.5,2.5-2.8,3.3v3.9C34.3,50.3,33.2,52.6,30.3,52.6z M30.4,34.3c-2.6,0-4.7,2.1-4.7,4.7c0,1.8,1,3.4,2.5,4.2l0.6,0.3
		l0,5.3c0,0.2,0,0.7,0.3,1c0.2,0.2,0.6,0.3,1.1,0.3c1.5,0,1.6-1,1.6-1.4v-5.3l0.7-0.3c1.1-0.5,1.9-1.4,2.3-2.5l0.1-0.2
		c0.2-0.3,0.2-0.6,0.2-0.9c0-0.1,0-0.3,0-0.4l0,0l0-0.1c0-0.2,0-0.4-0.1-0.7c-0.2-1.4-0.6-2.3-1.4-2.8l-0.2-0.1
		C32.6,34.7,31.6,34.3,30.4,34.3z"/>
</g>
</svg>
