<?xml version="1.0" encoding="utf-8"?>
<!-- Generator: Adobe Illustrator 22.1.0, SVG Export Plug-In . SVG Version: 6.00 Build 0)  -->
<svg version="1.1" id="Capa_1" xmlns="http://www.w3.org/2000/svg" xmlns:xlink="http://www.w3.org/1999/xlink" x="0px" y="0px"
	 viewBox="0 0 60 60" style="enable-background:new 0 0 60 60;" xml:space="preserve" fill="#303030">
<style type="text/css">
	.st0{fill:#FFFFFF;}
	.st1{fill:#151515;}
	.st2{fill:#030101;}
	.st3{fill:none;stroke:#000000;stroke-miterlimit:10;}
	.st4{stroke:#000000;stroke-miterlimit:10;}
	.st5{fill:none;stroke:#272525;stroke-width:2;stroke-linecap:round;stroke-linejoin:round;stroke-miterlimit:10;}
	.st6{fill:#272525;stroke:#272525;stroke-width:3;stroke-miterlimit:10;}
	.st7{opacity:0;clip-path:url(#SVGID_2_);fill-rule:evenodd;clip-rule:evenodd;fill:#FFFFFF;}
	.st8{clip-path:url(#SVGID_4_);}
	.st9{clip-path:url(#SVGID_6_);}
	.st10{fill:#211915;}
	.st11{fill:none;}
</style>
<g id="bchfhC_1_">
	<g>
		<path d="M17.6,10.3c0-1.1,0-2,0-3C17.7,6,18.8,5,20.1,5c6.6,0,13.2,0,19.8,0c1.6,0,2.5,1,2.5,2.7c0.1,2.6,0.1,2.6,2.7,2.6
			c0.9,0,1.8,0,2.7,0c1.6,0,2.6,0.9,2.7,2.4c0.1,2,0,4,0,6.1c0,0.8-0.4,1.2-1.2,1.2C48,20.1,47,21,47,22.3c0,10.8,0,21.5,0,32.3
			c0,3-0.7,3.7-3.6,3.7c-8.9,0-17.9,0-26.8,0c-1.9,0-3.4-1.5-3.4-3.4c0-11.2,0-22.3,0-33.5c0-1.1-0.3-1.4-1.4-1.4
			c-2.2,0.1-2.2,0-2.2-2.2c0-1.6,0-3.1,0-4.7c0-1.6,1.4-2.8,2.9-2.9C14.2,10.3,15.9,10.3,17.6,10.3z M16.7,38.3c0,5,0,9.9,0,14.9
			c0,1.2,0.5,1.7,1.6,1.6c1.2-0.1,2.4,0,3.5,0c1.9,0,2-0.1,2-2.1c0-4.5,0-9,0-13.5c0-5.2,0-5.4,0-10.7c0-1-0.8-1.7-1.7-1.8
			c-1.2,0-2.4,0-3.6,0c-1.8,0-1.9,0.1-1.9,1.8C16.7,33.5,16.7,33.4,16.7,38.3z M43.4,38.3c0-4.9,0-4.8,0-9.8c0-1.6-0.2-1.7-1.8-1.7
			c-1,0-1.9,0-2.9,0c-2.5,0-2.6,0-2.5,2.5c0,3.8,0.1,2.5,0.1,6.3c0,5.9-0.1,11.9-0.1,17.8c0,1,0.4,1.5,1.5,1.4c1.3,0,2.7,0,4,0
			c1.6,0,1.7-0.2,1.7-1.8C43.4,48.1,43.4,43.2,43.4,38.3z M33.6,38.3c0-4.9,0-4.8,0-9.6c0-1.8-0.1-1.9-1.8-1.9c-1.1,0-2.3,0-3.4,0
			c-1.8,0-1.9,0.1-1.9,1.9c0,3.9,0.1,2.8,0.1,6.7c0,5.9-0.1,11.8-0.1,17.7c0,1.5,0.2,1.7,1.8,1.7c1.2,0,2.4,0,3.7,0
			c1,0,1.7-0.8,1.7-1.7C33.6,48.2,33.6,43.2,33.6,38.3z M30.1,10.3c2.9,0,5.8,0,8.7,0c2,0,2,0,2-2.1c0-1.2-0.5-1.7-1.7-1.6
			c-3.7,0.1-7.3-0.2-11,0.3C26.1,7.1,24,7,21.9,6.7c-1.9-0.3-2.7,0-2.6,1.4c0,0.3,0,0.6,0,0.9c-0.2,1.1,0.3,1.4,1.4,1.3
			C23.8,10.3,27,10.3,30.1,10.3z"/>
	</g>
</g>
</svg>
