<?xml version="1.0" encoding="utf-8"?>
<!-- Generator: Adobe Illustrator 22.1.0, SVG Export Plug-In . SVG Version: 6.00 Build 0)  -->
<svg version="1.1" id="Capa_1" xmlns="http://www.w3.org/2000/svg" xmlns:xlink="http://www.w3.org/1999/xlink" x="0px" y="0px"
	 viewBox="0 0 60 60" style="enable-background:new 0 0 60 60;" xml:space="preserve">
<style type="text/css">
	.st0{fill:#FFFFFF;}
	.st1{fill:#151515;}
	.st2{fill:#030101;}
	.st3{fill:none;stroke:#000000;stroke-miterlimit:10;}
	.st4{stroke:#000000;stroke-miterlimit:10;}
	.st5{fill:none;stroke:#272525;stroke-width:2;stroke-linecap:round;stroke-linejoin:round;stroke-miterlimit:10;}
	.st6{fill:#272525;stroke:#272525;stroke-width:3;stroke-miterlimit:10;}
	.st7{opacity:0;clip-path:url(#SVGID_2_);fill-rule:evenodd;clip-rule:evenodd;fill:#FFFFFF;}
	.st8{clip-path:url(#SVGID_4_);}
	.st9{clip-path:url(#SVGID_6_);}
	.st10{fill:#211915;}
	.st11{fill:none;}
</style>
<g>
	<path class="st1" d="M35.4,52.8c-0.5,0.1-0.9,0.2-1.4,0.3c-1.2,0.2-2.1,1.4-1.8,2.7c0.1,0.6,0.5,1.1,0.9,1.4
		c0.5,0.3,1.1,0.5,1.7,0.4c0.6-0.1,1.1-0.2,1.7-0.4c1.2-0.3,2-1.5,1.7-2.8C37.8,53.3,36.6,52.5,35.4,52.8z"/>
	<path class="st1" d="M52.2,22.3c0.2,0.5,0.5,0.9,0.8,1.1c0.6,0.4,1.3,0.5,2,0.3c1.2-0.4,1.8-1.7,1.4-2.9c-0.2-0.5-0.4-1.1-0.6-1.6
		c-0.5-1.2-1.8-1.7-3-1.3c-1.2,0.5-1.7,1.8-1.3,3C51.9,21.4,52.1,21.8,52.2,22.3z"/>
	<path class="st1" d="M42.8,49.6c-0.4,0.3-0.8,0.5-1.2,0.8c-1.1,0.6-1.5,2-0.8,3.1c0.2,0.3,0.4,0.5,0.7,0.7c0.7,0.5,1.7,0.6,2.5,0.1
		c0.5-0.3,1-0.6,1.5-0.9c1-0.7,1.3-2.1,0.6-3.2C45.2,49.2,43.8,48.9,42.8,49.6z"/>
	<path class="st1" d="M58,28.7c0-1.3-1.1-2.2-2.4-2.2c-1.3,0-2.2,1.1-2.2,2.4c0,0.5,0,1,0,1.4c0,0.8,0.4,1.5,1,1.9
		c0.4,0.3,0.8,0.4,1.3,0.4c1.3,0,2.3-1,2.3-2.2C58,29.8,58,29.2,58,28.7z"/>
	<path class="st1" d="M51.8,43.6c-1-0.8-2.4-0.6-3.2,0.5c-0.3,0.4-0.6,0.8-0.9,1.1c-0.8,1-0.7,2.4,0.3,3.2c0.1,0,0.1,0.1,0.2,0.1
		c1,0.7,2.3,0.5,3-0.4c0.4-0.4,0.7-0.9,1.1-1.4C53.1,45.8,52.9,44.3,51.8,43.6z"/>
	<path class="st1" d="M55.2,35.3c-1.2-0.4-2.5,0.3-2.9,1.5c-0.1,0.5-0.3,0.9-0.5,1.4c-0.4,1,0,2.1,0.8,2.7c0.2,0.1,0.3,0.2,0.5,0.3
		c1.2,0.4,2.5-0.1,2.9-1.3c0.2-0.5,0.4-1.1,0.6-1.6C57.1,37,56.4,35.7,55.2,35.3z"/>
	<path class="st1" d="M25.4,53.2c-2-0.4-4-1-5.8-1.9c0,0,0,0-0.1,0c-0.4-0.2-0.9-0.4-1.3-0.7c0,0,0,0,0,0c-0.8-0.4-1.5-0.9-2.3-1.4
		C5.2,41.6,2.6,26.8,10.2,16c1.6-2.3,3.6-4.3,5.8-5.8c0,0,0.1,0,0.1-0.1c7.8-5.4,18.4-5.7,26.7-0.2L41,12.5
		c-0.5,0.7-0.2,1.2,0.7,1.2l7.7-0.7c0.9-0.1,1.4-0.8,1.2-1.7l-2.1-7.5c-0.2-0.8-0.8-0.9-1.3-0.2l-1.8,2.6C39.3,2.1,32,0.6,24.8,1.8
		c-0.7,0.1-1.4,0.3-2.2,0.5c0,0,0,0,0,0c0,0-0.1,0-0.1,0C16.3,3.9,10.8,7.6,6.9,12.8c0,0-0.1,0.1-0.1,0.1c-0.1,0.2-0.3,0.4-0.4,0.5
		c-0.2,0.3-0.4,0.6-0.6,0.9c0,0,0,0.1-0.1,0.1C2.6,19.4,1,25.1,1.3,31c0,0,0,0,0,0.1c0,0.6,0.1,1.2,0.1,1.7c0,0,0,0.1,0,0.1
		c0.1,0.6,0.1,1.1,0.2,1.7c1,5.9,3.8,11.1,7.9,15.3c0,0,0,0,0,0c0,0,0,0,0,0c1.1,1.1,2.3,2.1,3.6,3c3.4,2.4,7.2,4,11.3,4.7
		c1.2,0.2,2.4-0.6,2.6-1.8C27.5,54.6,26.7,53.4,25.4,53.2z"/>
	<path class="st1" d="M28.2,11.3c-1,0-1.8,0.8-1.8,1.8v18.4l16.8,8.7c0.3,0.1,0.6,0.2,0.8,0.2c0.7,0,1.3-0.4,1.6-1
		c0.5-0.9,0.1-2-0.8-2.5l-14.8-7.7V13.2C30.1,12.2,29.3,11.3,28.2,11.3z"/>
</g>
</svg>
