<?xml version="1.0" encoding="utf-8"?>
<!-- Generator: Adobe Illustrator 22.1.0, SVG Export Plug-In . SVG Version: 6.00 Build 0)  -->
<svg version="1.1" id="Capa_1" xmlns="http://www.w3.org/2000/svg" xmlns:xlink="http://www.w3.org/1999/xlink" x="0px" y="0px"
	 viewBox="0 0 60 60" style="enable-background:new 0 0 60 60;" xml:space="preserve">
<style type="text/css">
	.st0{fill:#FFFFFF;}
	.st1{fill:#151515;}
	.st2{fill:#030101;}
	.st3{fill:none;stroke:#000000;stroke-miterlimit:10;}
	.st4{stroke:#000000;stroke-miterlimit:10;}
	.st5{fill:none;stroke:#272525;stroke-width:2;stroke-linecap:round;stroke-linejoin:round;stroke-miterlimit:10;}
	.st6{fill:#272525;stroke:#272525;stroke-width:3;stroke-miterlimit:10;}
	.st7{opacity:0;clip-path:url(#SVGID_2_);fill-rule:evenodd;clip-rule:evenodd;fill:#FFFFFF;}
	.st8{clip-path:url(#SVGID_4_);}
	.st9{clip-path:url(#SVGID_6_);}
	.st10{fill:#211915;}
	.st11{fill:none;}
</style>
<path class="st3" d="M49.8,55.3H10.3c-3.3,0-6-2.7-6-6V15.6c0-3.3,2.7-6,6-6h39.5c3.3,0,6,2.7,6,6v33.7
	C55.8,52.6,53.1,55.3,49.8,55.3z"/>
<rect x="10.7" y="25.9" class="st3" width="9.1" height="9.1"/>
<rect x="26.5" y="25.9" class="st3" width="9.1" height="9.1"/>
<rect x="41.1" y="25.9" class="st3" width="9.1" height="9.1"/>
<rect x="10.7" y="40.3" class="st3" width="9.1" height="9.1"/>
<rect x="26.5" y="40.3" class="st3" width="9.1" height="9.1"/>
<rect x="41.1" y="40.3" class="st3" width="9.1" height="9.1"/>
<line class="st3" x1="4.3" y1="21.2" x2="55.8" y2="21.2"/>
<path class="st3" d="M18.7,15.6L18.7,15.6c-1.9,0-3.4-1.5-3.4-3.4V6.5c0-1.9,1.5-3.4,3.4-3.4h0c1.9,0,3.4,1.5,3.4,3.4v5.7
	C22.1,14.1,20.6,15.6,18.7,15.6z"/>
<path class="st3" d="M31,15.6L31,15.6c-1.9,0-3.4-1.5-3.4-3.4V6.5c0-1.9,1.5-3.4,3.4-3.4h0c1.9,0,3.4,1.5,3.4,3.4v5.7
	C34.4,14.1,32.9,15.6,31,15.6z"/>
<path class="st3" d="M43.3,15.6L43.3,15.6c-1.9,0-3.4-1.5-3.4-3.4V6.5c0-1.9,1.5-3.4,3.4-3.4h0c1.9,0,3.4,1.5,3.4,3.4v5.7
	C46.7,14.1,45.2,15.6,43.3,15.6z"/>
</svg>
