<?xml version="1.0" encoding="utf-8"?>
<!-- Generator: Adobe Illustrator 22.1.0, SVG Export Plug-In . SVG Version: 6.00 Build 0)  -->
<svg version="1.1" id="Capa_1" xmlns="http://www.w3.org/2000/svg" xmlns:xlink="http://www.w3.org/1999/xlink" x="0px" y="0px"
	 viewBox="0 0 60 60" style="enable-background:new 0 0 60 60;" xml:space="preserve">
<style type="text/css">
	.st0{fill:#FFFFFF;}
	.st1{fill:#151515;}
	.st2{fill:#030101;}
	.st3{fill:none;stroke:#000000;stroke-miterlimit:10;}
	.st4{stroke:#000000;stroke-miterlimit:10;}
	.st5{fill:none;stroke:#272525;stroke-width:2;stroke-linecap:round;stroke-linejoin:round;stroke-miterlimit:10;}
	.st6{fill:#272525;stroke:#272525;stroke-width:3;stroke-miterlimit:10;}
	.st7{opacity:0;clip-path:url(#SVGID_2_);fill-rule:evenodd;clip-rule:evenodd;fill:#FFFFFF;}
	.st8{clip-path:url(#SVGID_4_);}
	.st9{clip-path:url(#SVGID_6_);}
	.st10{fill:#211915;}
	.st11{fill:none;}
</style>
<g id="XMLID_1_">
	<path id="XMLID_11_" d="M4.4,29.3c-0.5,0-1,0.3-1.1,0.9c-0.1,0.5,0.3,1,0.8,1.1c3.8,0.8,7.2,1.2,10.3,1.2
		c14.6,0,22.2-8.4,27.6-17.3l3.3,2c0.3,0.2,0.8,0.2,1.1,0c0.3-0.2,0.5-0.6,0.4-1L44.6,3.7c-0.1-0.3-0.2-0.6-0.5-0.7
		c-0.3-0.1-0.6-0.2-0.9,0L32.1,7.7c-0.4,0.2-0.6,0.5-0.6,0.9c0,0.4,0.2,0.8,0.6,0.9l3.3,1.6C26.5,30.8,5.3,29.4,4.4,29.3z"/>
	<path id="XMLID_8_" d="M13.9,46.6v7.6c0,1.2-0.7,2.3-1.5,2.3H7.6c-0.8,0-1.5-1.1-1.5-2.3v-7.6c0-1.2,0.7-2.3,1.5-2.3h4.8
		C13.2,44.3,13.9,45.4,13.9,46.6z"/>
	<path id="XMLID_5_" d="M28.3,39.4v14.8c0,1.2-0.7,2.3-1.5,2.3h-4.8c-0.8,0-1.5-1.1-1.5-2.3V39.4c0-1.2,0.7-2.3,1.5-2.3h4.8
		C27.6,37.1,28.3,38.2,28.3,39.4z"/>
	<path id="XMLID_2_" d="M44.2,54.2c0,1.2-0.7,2.3-1.5,2.3h-4.8c-0.8,0-1.5-1.1-1.5-2.3V30.9c0-1.2,0.7-2.3,1.5-2.3h4.8
		c0.8,0,1.5,1.1,1.5,2.3V54.2z"/>
</g>
</svg>
