<?xml version="1.0" encoding="utf-8"?>
<!-- Generator: Adobe Illustrator 22.1.0, SVG Export Plug-In . SVG Version: 6.00 Build 0)  -->
<svg version="1.1" id="Capa_1" xmlns="http://www.w3.org/2000/svg" xmlns:xlink="http://www.w3.org/1999/xlink" x="0px" y="0px"
	 viewBox="0 0 60 60" style="enable-background:new 0 0 60 60;" xml:space="preserve">
<style type="text/css">
	.st0{fill:#FFFFFF;}
	.st1{fill:#151515;}
	.st2{fill:#030101;}
	.st3{fill:none;stroke:#000000;stroke-miterlimit:10;}
	.st4{stroke:#000000;stroke-miterlimit:10;}
	.st5{fill:none;stroke:#272525;stroke-width:2;stroke-linecap:round;stroke-linejoin:round;stroke-miterlimit:10;}
	.st6{fill:#272525;stroke:#272525;stroke-width:3;stroke-miterlimit:10;}
	.st7{opacity:0;clip-path:url(#SVGID_2_);fill-rule:evenodd;clip-rule:evenodd;fill:#FFFFFF;}
	.st8{clip-path:url(#SVGID_4_);}
	.st9{clip-path:url(#SVGID_6_);}
	.st10{fill:#211915;}
	.st11{fill:none;}
</style>
<g>
	<path d="M30,20.1c2.2,0,3.9-1.8,3.9-3.9s-1.8-3.9-3.9-3.9c-2.2,0-3.9,1.8-3.9,3.9S27.9,20.1,30,20.1z"/>
	<path d="M6.2,5.1c-0.9,0-1.7,0.7-1.7,1.7v4.9c0,0.9,0.7,1.7,1.7,1.7s1.7-0.7,1.7-1.7V6.8C7.8,5.9,7.1,5.1,6.2,5.1z"/>
	<path d="M48.4,2.3c-0.9,0-1.7,0.7-1.7,1.7v3.3H12.4V3.9c0-0.9-0.7-1.7-1.7-1.7C9.8,2.3,9,3,9,3.9v10.6c0,0.9,0.7,1.7,1.7,1.7
		c0.9,0,1.7-0.7,1.7-1.7v-3h3c0.2,3,1.2,8.5,4.8,12.2c1.7,1.7,3.7,2.9,6,3.4v9.4c0,0.8-5.8,18.5-5.8,18.5c-0.4,1.1,0.1,2.3,1.2,2.7
		c0.3,0.1,0.5,0.1,0.8,0.1c0.8,0,1.6-0.5,2-1.3L30,42.4l5.3,14c0.4,1.1,1.6,1.6,2.7,1.2c1.1-0.4,1.6-1.6,1.2-2.7
		c0,0-5.3-17.5-5.3-18.4v-9.5c0,0,0-0.1,0-0.1c1.4-0.5,2.9-1.2,4.4-2.5c3.2-2.8,5-7.2,5.5-13h3v3c0,0.9,0.7,1.7,1.7,1.7
		c0.9,0,1.7-0.7,1.7-1.7V3.9C50.1,3,49.3,2.3,48.4,2.3z M31.8,22.5c-1.1,0.5-2.4,0.6-3.6,0.3c-1.7-0.4-4.1-1.1-5.1-2.1
		c-2.6-2.7-3.4-6.8-3.6-9.3h20C38.9,18.3,34.4,21.3,31.8,22.5z"/>
	<path d="M52.9,5.1c-0.9,0-1.7,0.7-1.7,1.7v4.9c0,0.9,0.7,1.7,1.7,1.7c0.9,0,1.7-0.7,1.7-1.7V6.8C54.6,5.9,53.8,5.1,52.9,5.1z"/>
</g>
</svg>
