<?xml version="1.0" encoding="utf-8"?>
<!-- Generator: Adobe Illustrator 22.1.0, SVG Export Plug-In . SVG Version: 6.00 Build 0)  -->
<svg version="1.1" id="Capa_1" xmlns="http://www.w3.org/2000/svg" xmlns:xlink="http://www.w3.org/1999/xlink" x="0px" y="0px"
	 viewBox="0 0 60 60" style="enable-background:new 0 0 60 60;" xml:space="preserve">
<style type="text/css">
	.st0{fill:#FFFFFF;}
	.st1{fill:#151515;}
	.st2{fill:#030101;}
	.st3{fill:none;stroke:#000000;stroke-miterlimit:10;}
	.st4{stroke:#000000;stroke-miterlimit:10;}
	.st5{fill:none;stroke:#272525;stroke-width:2;stroke-linecap:round;stroke-linejoin:round;stroke-miterlimit:10;}
	.st6{fill:#272525;stroke:#272525;stroke-width:3;stroke-miterlimit:10;}
	.st7{opacity:0;clip-path:url(#SVGID_2_);fill-rule:evenodd;clip-rule:evenodd;fill:#FFFFFF;}
	.st8{clip-path:url(#SVGID_4_);}
	.st9{clip-path:url(#SVGID_6_);}
	.st10{fill:#211915;}
	.st11{fill:none;}
</style>
<path d="M30.7,3.8C15.6,3.8,3.3,16.1,3.3,31.2c0,15.1,12.3,27.4,27.4,27.4s27.4-12.3,27.4-27.4C58.1,16.1,45.8,3.8,30.7,3.8z
	 M32,49.2c-2.8,0-4.8-2-4.8-4.5c0-2.5,2-4.4,4.8-4.4c2.8,0,4.8,1.9,4.8,4.4C36.8,47.1,34.8,49.2,32,49.2z M35.7,36.6h-7.5
	c0-7,7.8-8.5,7.8-12.9c0-2.4-2.1-4-5.4-4c-3.2,0-5.6,1.4-7.2,3.7l-6-3.5c2.7-4.1,7.4-6.7,14.1-6.7c7.5,0,12.7,3.3,12.7,9.2
	C44.1,30.4,35.7,31.3,35.7,36.6z"/>
</svg>
