<?xml version="1.0" encoding="utf-8"?>
<!-- Generator: Adobe Illustrator 22.1.0, SVG Export Plug-In . SVG Version: 6.00 Build 0)  -->
<svg version="1.1" id="Capa_1" xmlns="http://www.w3.org/2000/svg" xmlns:xlink="http://www.w3.org/1999/xlink" x="0px" y="0px"
	 viewBox="0 0 60 60" style="enable-background:new 0 0 60 60;" xml:space="preserve">
<style type="text/css">
	.st0{fill:#FFFFFF;}
	.st1{fill:#151515;}
	.st2{fill:#030101;}
	.st3{fill:none;stroke:#000000;stroke-miterlimit:10;}
	.st4{stroke:#000000;stroke-miterlimit:10;}
	.st5{fill:none;stroke:#272525;stroke-width:2;stroke-linecap:round;stroke-linejoin:round;stroke-miterlimit:10;}
	.st6{fill:#272525;stroke:#272525;stroke-width:3;stroke-miterlimit:10;}
	.st7{opacity:0;clip-path:url(#SVGID_2_);fill-rule:evenodd;clip-rule:evenodd;fill:#FFFFFF;}
	.st8{clip-path:url(#SVGID_4_);}
	.st9{clip-path:url(#SVGID_6_);}
	.st10{fill:#211915;}
	.st11{fill:none;}
</style>
<path d="M55.6,45.1h-3.8c0.2-1.1-0.4-2-1-2.6c-3.6-3.5-7.3-7.2-11.4-11.3c-0.9-1-2.5-1.8-4.4-0.1c-2,1.7-4,3.3-6,5L27,37.6
	c-0.9,0.8-1.9,1.5-2.9,2.4l-0.5,0.4L16,25.9c0.3-0.2,0.6-0.4,0.9-0.5l1.1-0.6c2.7-1.6,5.4-3.2,8.1-4.8c0.7-0.4,2.8-1.6,1.7-3.6
	c-0.5-1-1.9-1.7-3-1.8c-3-0.2-6.1-0.2-8.7-0.3c-0.8,0-1.1-0.2-1.5-0.8c-0.1-0.1-0.1-0.1-0.6-0.7c-0.2-0.2-0.3-0.3-0.4-0.4
	c-1.1-1.8-3.1-3-5.2-3c-3.4,0-6.1,2.7-6.1,6.1c0,3.8,3.4,6.8,7.4,6c1.2-0.1,2.3-0.7,3.1-1.6c0.8-0.9,1.8-0.8,3.5-0.4
	c-0.9,0.6-1.8,1.1-2.6,1.6c-4.3,2.5-4.5,3.1-2.2,7.5l1.3,2.4c2.5,4.7,5,9.4,7.5,14.1h-8.3c-1.4,0-2.6,1.2-2.6,2.6v0.8
	c0,1.4,1.2,2.6,2.6,2.6h0.3c0.4,0.1,0.7,0.1,1,0.1c0,0,0,0,0.1,0c4.2,0,8.5,0,12.7,0c9.2,0,18.7,0,28.1,0h1.7c1.4,0,2.6-1.2,2.6-2.6
	v-0.8C58.2,46.3,57,45.1,55.6,45.1z M36.8,36.5l8.4,8.6H26.3L36.8,36.5z"/>
</svg>
