<?xml version="1.0" encoding="utf-8"?>
<!-- Generator: Adobe Illustrator 22.1.0, SVG Export Plug-In . SVG Version: 6.00 Build 0)  -->
<svg version="1.1" id="Capa_1" xmlns="http://www.w3.org/2000/svg" xmlns:xlink="http://www.w3.org/1999/xlink" x="0px" y="0px"
	 viewBox="0 0 60 60" style="enable-background:new 0 0 60 60;" xml:space="preserve">
<style type="text/css">
	.st0{fill:#FFFFFF;}
	.st1{fill:#151515;}
	.st2{fill:#030101;}
	.st3{fill:none;stroke:#000000;stroke-miterlimit:10;}
	.st4{stroke:#000000;stroke-miterlimit:10;}
	.st5{fill:none;stroke:#272525;stroke-width:2;stroke-linecap:round;stroke-linejoin:round;stroke-miterlimit:10;}
	.st6{fill:#272525;stroke:#272525;stroke-width:3;stroke-miterlimit:10;}
	.st7{opacity:0;clip-path:url(#SVGID_2_);fill-rule:evenodd;clip-rule:evenodd;fill:#FFFFFF;}
	.st8{clip-path:url(#SVGID_4_);}
	.st9{clip-path:url(#SVGID_6_);}
	.st10{fill:#211915;}
	.st11{fill:none;}
</style>
<g>
	<g id="_x33_56._Play_2_">
		<g>
			<path d="M50.6,18.7C44.4,7.9,30.5,4.2,19.7,10.4C8.9,16.7,5.2,30.5,11.4,41.3c6.2,10.8,20.1,14.5,30.9,8.3
				C53.2,43.3,56.9,29.5,50.6,18.7z M40.1,45.7c-8.7,5-19.7,2-24.7-6.6c-5-8.7-2-19.7,6.6-24.7c8.7-5,19.7-2,24.7,6.6
				C51.7,29.6,48.7,40.7,40.1,45.7z M39.2,29.1l-11.8-6.9c-1.1-0.6-1.9-0.1-1.9,1.1L25.4,37c0,1.2,0.9,1.8,2,1.1l11.8-6.8
				C40.3,30.7,40.3,29.7,39.2,29.1z"/>
		</g>
	</g>
</g>
</svg>
