<?xml version="1.0" encoding="utf-8"?>
<!-- Generator: Adobe Illustrator 22.1.0, SVG Export Plug-In . SVG Version: 6.00 Build 0)  -->
<svg version="1.1" id="Capa_1" xmlns="http://www.w3.org/2000/svg" xmlns:xlink="http://www.w3.org/1999/xlink" x="0px" y="0px"
	 viewBox="0 0 60 60" style="enable-background:new 0 0 60 60;" xml:space="preserve">
<style type="text/css">
	.st0{fill:#FFFFFF;}
	.st1{fill:#151515;}
	.st2{fill:#030101;}
	.st3{fill:none;stroke:#000000;stroke-miterlimit:10;}
	.st4{stroke:#000000;stroke-miterlimit:10;}
	.st5{fill:none;stroke:#272525;stroke-width:2;stroke-linecap:round;stroke-linejoin:round;stroke-miterlimit:10;}
	.st6{fill:#272525;stroke:#272525;stroke-width:3;stroke-miterlimit:10;}
	.st7{opacity:0;clip-path:url(#SVGID_2_);fill-rule:evenodd;clip-rule:evenodd;fill:#FFFFFF;}
	.st8{clip-path:url(#SVGID_4_);}
	.st9{clip-path:url(#SVGID_6_);}
	.st10{fill:#211915;}
	.st11{fill:none;}
</style>
<path d="M30.1,2.4C14.4,2.4,1.6,15.2,1.6,31c0,15.8,12.8,28.6,28.6,28.6S58.7,46.8,58.7,31C58.7,15.2,45.9,2.4,30.1,2.4z"/>
<path class="st0" d="M35.6,23.2c0-2.6-2.2-4.2-5.6-4.2c-3.3,0-5.9,1.5-7.6,3.9l-6.3-3.7c2.8-4.3,7.7-7,14.7-7
	c7.8,0,13.2,3.5,13.2,9.6c0,8.3-8.7,9.3-8.7,14.8h-7.9C27.5,29.4,35.6,27.8,35.6,23.2z M26.5,45c0-2.7,2.1-4.6,5-4.6
	c2.9,0,5,2,5,4.6c0,2.6-2.1,4.7-5,4.7C28.6,49.8,26.5,47.6,26.5,45z"/>
</svg>
