<?xml version="1.0" encoding="utf-8"?>
<!-- Generator: Adobe Illustrator 22.1.0, SVG Export Plug-In . SVG Version: 6.00 Build 0)  -->
<svg version="1.1" id="Capa_1" xmlns="http://www.w3.org/2000/svg" xmlns:xlink="http://www.w3.org/1999/xlink" x="0px" y="0px"
	 viewBox="0 0 60 60" style="enable-background:new 0 0 60 60;" xml:space="preserve">
<style type="text/css">
	.st0{fill:#FFFFFF;}
	.st1{fill:#151515;}
	.st2{fill:#030101;}
	.st3{fill:none;stroke:#000000;stroke-miterlimit:10;}
	.st4{stroke:#000000;stroke-miterlimit:10;}
	.st5{fill:none;stroke:#272525;stroke-width:2;stroke-linecap:round;stroke-linejoin:round;stroke-miterlimit:10;}
	.st6{fill:#272525;stroke:#272525;stroke-width:3;stroke-miterlimit:10;}
	.st7{opacity:0;clip-path:url(#SVGID_2_);fill-rule:evenodd;clip-rule:evenodd;fill:#FFFFFF;}
	.st8{clip-path:url(#SVGID_4_);}
	.st9{clip-path:url(#SVGID_6_);}
	.st10{fill:#211915;}
	.st11{fill:none;}
</style>
<g id="VSECqQ_2_">
	<g>
		<path d="M8.3,44.4c0-4.2,0-8.4,0-12.5c0.5-1.6,1.3-3,2.8-3.8c-1.6-1.5-2.4-3.2-2.8-5.2c0-0.6,0-1.3,0-1.9c0.1-0.1,0.1-0.2,0.1-0.3
			c1-5.3,6.5-8.3,11.4-6c2.5,1.1,4,3.2,4.5,5.6c0.4-1.3,0.8-2.8,1.5-4.2c0.7-1.5,1.8-2.7,3.3-3.4c1.4-0.6,2.9-1.2,4.4-1.4
			c3.6-0.5,7.5,1.9,9,5.4c2.2,5,0.6,9-3.3,12c0.6,1.4,1.3,2.7,1.9,4c2.3-1.5,4.7-3.1,7.1-4.7c1-0.7,1.8-0.6,2.6,0.3
			c0.3,0.4,0.6,0.8,0.8,1.2c0,5.8,0,11.7,0,17.5c-0.1,0.3-0.3,0.6-0.4,0.8c-0.8,1.3-2,1.5-3.2,0.5c-0.4-0.4-0.8-0.7-1.3-1
			c-1.9-1.6-3.9-3.2-6-4.9c0,0.5,0,0.8,0,1.1c-0.1,3.3-2.3,5.6-5.6,5.6c-7.1,0-14.2,0-21.3,0c-1.5,0-3-0.4-4-1.6
			C9.2,46.5,8.8,45.4,8.3,44.4z M24.5,46.3c3.5,0,7.1,0,10.6,0c1.9,0,3-1.1,3.1-3c0-3.4,0-6.8,0-10.2c0-1.9-1.1-3-3-3.1
			c-7.1,0-14.2,0-21.3,0c-1.8,0-2.9,1.2-2.9,3c0,3.4,0,6.8,0,10.2c0,2,1.1,3.1,3.1,3.1C17.6,46.3,21,46.3,24.5,46.3z M34.1,13.7
			c-3.8,0-6.9,3.1-6.9,6.9c0,3.7,3.2,6.8,6.8,6.8c3.8,0,6.8-3.2,6.8-6.9C40.8,16.7,37.8,13.7,34.1,13.7z M21.9,21.9
			c0-3-2.4-5.5-5.4-5.5c-3,0-5.4,2.4-5.5,5.3c0,3,2.3,5.5,5.3,5.5C19.4,27.3,21.8,24.9,21.9,21.9z M48.9,30
			c-2.7,1.8-5.3,3.5-7.8,5.2c-0.1,0.1-0.3,0.3-0.3,0.5c0,2-0.6,4.1,1.8,5.4c0.6,0.3,1.1,0.9,1.6,1.3c1.5,1.3,3,2.5,4.7,3.9
			C48.9,40.8,48.9,35.5,48.9,30z M27,27.2c-0.9-1.7-1.7-3.4-2.5-4.9c0,1.6-0.7,3.3-2,4.9C24.2,27.2,25.7,27.2,27,27.2z"/>
	</g>
</g>
</svg>
