<?xml version="1.0" encoding="utf-8"?>
<!-- Generator: Adobe Illustrator 22.1.0, SVG Export Plug-In . SVG Version: 6.00 Build 0)  -->
<svg version="1.1" id="Capa_1" xmlns="http://www.w3.org/2000/svg" xmlns:xlink="http://www.w3.org/1999/xlink" x="0px" y="0px"
	 viewBox="0 0 60 60" style="enable-background:new 0 0 60 60;" xml:space="preserve">
<style type="text/css">
	.st0{fill:#FFFFFF;}
	.st1{fill:#151515;}
	.st2{fill:#030101;}
	.st3{fill:none;stroke:#000000;stroke-miterlimit:10;}
	.st4{stroke:#000000;stroke-miterlimit:10;}
	.st5{fill:none;stroke:#272525;stroke-width:2;stroke-linecap:round;stroke-linejoin:round;stroke-miterlimit:10;}
	.st6{fill:#272525;stroke:#272525;stroke-width:3;stroke-miterlimit:10;}
	.st7{opacity:0;clip-path:url(#SVGID_2_);fill-rule:evenodd;clip-rule:evenodd;fill:#FFFFFF;}
	.st8{clip-path:url(#SVGID_4_);}
	.st9{clip-path:url(#SVGID_6_);}
	.st10{fill:#211915;}
	.st11{fill:none;}
</style>
<path d="M12.5,26.3h22.7L21.8,12.9c-1.8-1.8-1.8-4.8,0-6.7c1.8-1.8,4.8-1.8,6.7,0L50.2,28c0,0,0,0,0,0.1c0.1,0.1,0.2,0.1,0.2,0.1
	c1.8,1.8,1.8,4.8,0,6.7L28.7,56.5c-1.8,1.8-4.8,1.8-6.7,0c-1.8-1.8-1.8-4.8,0-6.7l13.5-13.5H12.5c-2.8,0-5-2.3-5-5
	C7.5,28.6,9.7,26.3,12.5,26.3z"/>
</svg>
