<?xml version="1.0" encoding="utf-8"?>
<!-- Generator: Adobe Illustrator 22.1.0, SVG Export Plug-In . SVG Version: 6.00 Build 0)  -->
<svg version="1.1" id="Capa_1" xmlns="http://www.w3.org/2000/svg" xmlns:xlink="http://www.w3.org/1999/xlink" x="0px" y="0px"
	 viewBox="0 0 60 60" style="enable-background:new 0 0 60 60;" xml:space="preserve">
<style type="text/css">
	.st0{fill:#FFFFFF;}
	.st1{fill:#151515;}
	.st2{fill:#030101;}
	.st3{fill:none;stroke:#000000;stroke-miterlimit:10;}
	.st4{stroke:#000000;stroke-miterlimit:10;}
	.st5{fill:none;stroke:#272525;stroke-width:2;stroke-linecap:round;stroke-linejoin:round;stroke-miterlimit:10;}
	.st6{fill:#272525;stroke:#272525;stroke-width:3;stroke-miterlimit:10;}
	.st7{opacity:0;clip-path:url(#SVGID_2_);fill-rule:evenodd;clip-rule:evenodd;fill:#FFFFFF;}
	.st8{clip-path:url(#SVGID_4_);}
	.st9{clip-path:url(#SVGID_6_);}
	.st10{fill:#211915;}
	.st11{fill:none;}
</style>
<g>
	<path d="M25.2,24.4c0,1.3,1.1,2,2.7,2.5v-5.2C26,22.2,25.2,23.2,25.2,24.4z"/>
	<path d="M31.6,33.3v5.1c1.8-0.4,2.6-1.4,2.6-2.5C34.2,34.5,33.2,33.8,31.6,33.3z"/>
	<path d="M29.5,2.6C14.3,2.6,2.1,14.9,2.1,30c0,15.1,12.3,27.4,27.4,27.4S56.8,45.2,56.8,30C56.8,14.9,44.6,2.6,29.5,2.6z
		 M31.6,43.2v4.1h-3.7v-4c-3.6-0.2-7.1-1.4-9.1-2.9l2-4.5c1.8,1.4,4.5,2.3,7.1,2.6v-6.1c-4.1-1-8.6-2.3-8.6-7.6
		c0-3.9,2.8-7.2,8.6-7.9v-4.1h3.7v4c2.8,0.2,5.4,1,7.4,2.2l-1.8,4.5c-1.9-1.1-3.8-1.7-5.6-1.9v6.2c4.1,1,8.6,2.3,8.6,7.5
		C40.1,39.2,37.3,42.5,31.6,43.2z"/>
</g>
</svg>
