<?xml version="1.0" encoding="utf-8"?>
<!-- Generator: Adobe Illustrator 22.1.0, SVG Export Plug-In . SVG Version: 6.00 Build 0)  -->
<svg version="1.1" id="Capa_1" xmlns="http://www.w3.org/2000/svg" xmlns:xlink="http://www.w3.org/1999/xlink" x="0px" y="0px"
	 viewBox="0 0 20 20" style="enable-background:new 0 0 20 20;" xml:space="preserve">
<style type="text/css">
	.st0{fill:#151515;}
</style>
<g>
	<path class="st0" d="M15.6,6.3l0.9-1.2c0.2-0.2,0.1-0.5-0.1-0.7L15,3.5c-0.2-0.2-0.5-0.1-0.7,0.1l-0.9,1.3
		c-0.7-0.3-1.4-0.5-2.1-0.6V3.7c0-0.3,0.3-0.6,0.6-0.6h0.3c0.3,0,0.6-0.3,0.6-0.6V0.7c0-0.3-0.3-0.6-0.6-0.6H7.9
		c-0.3,0-0.6,0.3-0.6,0.6v1.8c0,0.3,0.3,0.6,0.6,0.6h0.3c0.3,0,0.6,0.3,0.6,0.6v0.5C8.1,4.4,7.3,4.6,6.6,4.9L5.8,3.7
		C5.6,3.5,5.3,3.4,5.1,3.6L3.8,4.5C3.5,4.7,3.5,5,3.6,5.2l0.9,1.3C3.1,7.9,2.2,9.8,2.2,12c0,4.4,3.5,7.9,7.9,7.9
		c4.4,0,7.9-3.5,7.9-7.9C18,9.8,17.1,7.8,15.6,6.3z M10.1,18c-3.3,0-6-2.7-6-6c0-3.3,2.7-6,6-6c3.3,0,6,2.7,6,6
		C16.1,15.3,13.4,18,10.1,18z"/>
	<path class="st0" d="M15.1,12c0-2.7-2.2-4.9-4.9-4.9c0,0,0,0,0,0V12H5.2c0,0,0,0,0,0c0,2.7,2.2,4.9,4.9,4.9c0,0,0,0,0,0
		C12.8,17,15.1,14.8,15.1,12C15.1,12,15.1,12,15.1,12z"/>
</g>
</svg>
