<?xml version="1.0" encoding="utf-8"?>
<!-- Generator: Adobe Illustrator 22.1.0, SVG Export Plug-In . SVG Version: 6.00 Build 0)  -->
<svg version="1.1" id="Capa_1" xmlns="http://www.w3.org/2000/svg" xmlns:xlink="http://www.w3.org/1999/xlink" x="0px" y="0px"
	 viewBox="0 0 60 60" style="enable-background:new 0 0 60 60;" xml:space="preserve">
<style type="text/css">
	.st0{fill:#FFFFFF;}
	.st1{fill:#151515;}
	.st2{fill:#030101;}
	.st3{fill:none;stroke:#000000;stroke-miterlimit:10;}
	.st4{stroke:#000000;stroke-miterlimit:10;}
	.st5{fill:none;stroke:#272525;stroke-width:2;stroke-linecap:round;stroke-linejoin:round;stroke-miterlimit:10;}
	.st6{fill:#272525;stroke:#272525;stroke-width:3;stroke-miterlimit:10;}
	.st7{opacity:0;clip-path:url(#SVGID_2_);fill-rule:evenodd;clip-rule:evenodd;fill:#FFFFFF;}
	.st8{clip-path:url(#SVGID_4_);}
	.st9{clip-path:url(#SVGID_6_);}
	.st10{fill:#211915;}
	.st11{fill:none;}
</style>
<g id="_x33_jZSIk_1_">
	<g>
		<path d="M55.3,6.3c0.3,0.3,0.5,0.5,0.8,0.8c0.7,0.7,1.3,1.3,2,2c0.4,0.4,0.5,0.9,0.3,1.4c-0.2,0.5-0.6,0.8-1.2,0.8
			c-2.8,0-5.6,0-8.4,0c-0.1,0-0.2,0-0.3,0c0,0.1,0,0.2,0,0.2c0,2,0,4,0,6c0,0.2,0,0.2,0.2,0.3c1.6,0.7,2.5,2.3,2.3,3.9
			c-0.2,1.4-1.3,2.7-2.8,3.1c-0.4,0.1-0.8,0.1-1.2,0.2l-11.9,0c-0.1-0.1-0.2,0-0.3,0c0,0.1,0,0.2,0,0.3c0,9.6,0,19.1,0,28.7
			c0,1.6-0.6,2.9-2,3.9c-1.5,1.1-3.7,0.9-5.2-0.3c-0.1-0.1-0.2-0.2-0.3-0.3c-0.6,0.6-1.3,1-2.1,1.2c-2.4,0.6-4.9-1-5.3-3.4
			C20,54.6,20,54.3,20,54c0-3.9,0-7.8,0-11.7c0-0.1,0-0.2,0-0.2c-0.3,0.1-0.5,0.1-0.8,0.2C17,42.5,15,40.8,15,38.6
			c0-4.8,0-9.5,0-14.3c0-3.2,2.3-6.1,5.5-6.7c0.5-0.1,0.9-0.1,1.4-0.1c7.9,0,15.9,0,23.8,0c0.1,0,0.2,0,0.3,0c0-0.1,0-0.2,0-0.3
			c0-4.8,0-9.6,0-14.4c0-0.2,0-0.4,0.1-0.5c0.1-0.5,0.5-0.8,1.1-0.9c0.1,0,0.2,0,0.3,0c3.2,0,6.4,0,9.6,0c0.2,0,0.5,0,0.7,0.1
			c0.8,0.3,1,1.4,0.4,2c-0.9,0.9-1.8,1.8-2.7,2.7C55.4,6.2,55.4,6.2,55.3,6.3z M54.3,8.7c-0.1-0.1-0.1-0.1-0.2-0.2
			c-0.5-0.5-0.9-0.9-1.4-1.4c-0.6-0.6-0.6-1.3,0-1.9c0.5-0.5,0.9-0.9,1.4-1.4c0,0,0.1-0.1,0.1-0.1c-1.9,0-3.8,0-5.7,0
			c0,1.7,0,3.3,0,4.9C50.5,8.7,52.3,8.7,54.3,8.7z"/>
		<path d="M27.5,1.3c4.1,0,7.5,3.4,7.5,7.5c0,4.1-3.4,7.5-7.5,7.5c-4.1,0-7.4-3.3-7.5-7.4C20,4.7,23.3,1.3,27.5,1.3z"/>
	</g>
</g>
</svg>
