<?xml version="1.0" encoding="utf-8"?>
<!-- Generator: Adobe Illustrator 22.1.0, SVG Export Plug-In . SVG Version: 6.00 Build 0)  -->
<svg version="1.1" id="Capa_1" xmlns="http://www.w3.org/2000/svg" xmlns:xlink="http://www.w3.org/1999/xlink" x="0px" y="0px"
	 viewBox="0 0 60 60" style="enable-background:new 0 0 60 60;" xml:space="preserve">
<style type="text/css">
	.st0{fill:#FFFFFF;}
	.st1{fill:#151515;}
	.st2{fill:#030101;}
	.st3{fill:none;stroke:#000000;stroke-miterlimit:10;}
	.st4{stroke:#000000;stroke-miterlimit:10;}
	.st5{fill:none;stroke:#272525;stroke-width:2;stroke-linecap:round;stroke-linejoin:round;stroke-miterlimit:10;}
	.st6{fill:#272525;stroke:#272525;stroke-width:3;stroke-miterlimit:10;}
	.st7{opacity:0;clip-path:url(#SVGID_2_);fill-rule:evenodd;clip-rule:evenodd;fill:#FFFFFF;}
	.st8{clip-path:url(#SVGID_4_);}
	.st9{clip-path:url(#SVGID_6_);}
	.st10{fill:#211915;}
	.st11{fill:none;}
</style>
<g>
	<path class="st2" d="M15.2,30.1c0,4.1,0,8.2-0.1,12.3c0,0.5,0.2,1-0.6,1.1c-0.7,0-1.1-0.1-1.1-1c0-4.3,0-8.6,0-12.9
		c0-3.6,0-7.2,0-10.8c0-0.7,0-1.1,0.9-1.1c1,0,0.8,0.6,0.8,1.1C15.2,22.5,15.2,26.3,15.2,30.1z"/>
	<path class="st2" d="M49.2,31c0,3.7,0,7.5,0,11.2c0,0.6,0,1.1-0.9,1c-0.7,0-0.8-0.3-0.8-0.9c0-2.5,0-5,0-7.5c0-4.4,0-8.7,0-13.1
		c0-1,0-1.9,0.1-2.9c0-0.5-0.4-1.3,0.8-1.3c1.1,0,0.9,0.7,0.9,1.3C49.1,22.9,49.1,27,49.2,31z"/>
	<path class="st2" d="M17.9,28.2c0,4,0,8-0.1,11.9c0,0.4,0.1,1-0.5,1.1c-0.7,0.1-1.2,0.2-1.2-0.9c0-3.4,0-6.9,0-10.3
		c0-3.1,0-6.1,0-9.2c0-0.7-0.1-1.2,0.9-1.1c1,0,0.8,0.6,0.8,1.1C17.8,23.3,17.8,25.8,17.9,28.2z"/>
	<path class="st2" d="M23,21.4c0,5.7,0,11.5,0,17.2c0,0.4,0.3,1.1-0.5,1.2c-0.7,0.1-1.2,0.1-1.2-1c0.1-3.8,0-7.7,0-11.5
		c0-1.5,0-2.9,0.1-4.4C21.3,21.2,21.3,21.2,23,21.4z"/>
	<path class="st2" d="M51.7,22.5c0,5.7,0,11.3-0.1,17c0,0.5,0.2,1.1-0.7,1.1c-0.7,0-1-0.2-1-1c0-2.9,0-5.7,0-8.6c0-3.2,0-6.4,0-9.5
		c0-0.6-0.2-1.1,0.8-1.1c1,0,0.9,0.5,0.9,1.1C51.7,21.8,51.7,22.1,51.7,22.5z"/>
	<path class="st2" d="M10,30.8c0,2.8,0,5.6,0,8.4c0,0.7,0,1-0.9,1c-0.9,0-0.8-0.5-0.8-1c0-4.1,0-8.2,0-12.3c0-1.8,0.1-3.5,0-5.3
		c0-0.7,0.2-0.8,0.9-0.8c0.6,0,0.9,0.2,0.9,0.9C10,24.6,10,27.7,10,30.8z"/>
	<path class="st2" d="M38.3,22.2c0.5,0.2,0.4,0.6,0.4,1c0,4.9,0,9.7,0,14.6c0,0.6,0,1.1-0.9,1.1c-0.8,0-0.8-0.4-0.8-1
		c0-4.9,0-9.7,0-14.6c0-0.4-0.2-0.9,0.4-1C37.6,22.2,38,22.2,38.3,22.2z"/>
	<path class="st2" d="M12.6,29.6c0,2.8,0,5.7,0,8.5c0,0.6,0.1,1.1-0.9,1.1c-0.9,0-0.8-0.5-0.8-1.1c0-2.4,0-4.9,0-7.3
		c0-2.7,0-5.4,0-8.1c0-0.6,0-1,0.8-1c0.8,0,0.9,0.4,0.9,1C12.5,25,12.6,27.3,12.6,29.6z"/>
	<path class="st2" d="M20.4,27.3c0,3.3,0,6.7,0,10c0,0.7,0,1.1-0.9,1.1c-1,0-0.8-0.6-0.8-1.1c0-3,0-6,0-9.1c0-1.6,0.1-3.3,0-4.9
		c0-0.6,0.1-0.9,0.8-0.9c0.7,0,1,0.1,0.9,0.9C20.3,24.6,20.4,26,20.4,27.3z"/>
	<path class="st2" d="M7.5,26.9c0,2.7-0.1,5.4,0,8.1c0,0.7-0.1,1-0.9,1c-0.8,0-0.8-0.5-0.8-1c0-3.1,0-6.1,0-9.2c0-0.8,0.2-1,1.1-1
		c0.9,0,0.6,0.6,0.7,1.1C7.5,26.2,7.5,26.5,7.5,26.9z"/>
	<path class="st2" d="M46.6,30.4c0,2.1,0,4.3,0,6.4c0,0.6-0.1,0.9-0.8,0.9c-0.6,0-0.9-0.1-0.9-0.8c0-4.3,0-8.7,0-13
		c0-0.7,0.3-0.8,0.9-0.8c0.7,0,0.8,0.3,0.8,0.9C46.5,26.1,46.6,28.3,46.6,30.4z"/>
	<path class="st2" d="M52.6,30.5c0-1.5,0-3.1,0-4.6c0-0.7,0.3-0.7,0.8-0.7c0.5,0,0.9,0,0.9,0.7c0,3.1,0,6.1,0,9.2
		c0,0.7-0.5,0.6-0.9,0.7c-0.5,0-0.8-0.1-0.8-0.7C52.6,33.4,52.6,32,52.6,30.5z"/>
	<path class="st2" d="M41.3,30.5c0,1.6,0,3.1,0,4.7c0,0.8-0.3,1-1,1c-0.9,0-0.7-0.5-0.7-1c0-3.2,0-6.4,0-9.6c0-0.6,0.1-1,0.8-1
		c0.8,0,0.9,0.3,0.9,0.9C41.3,27.3,41.3,28.9,41.3,30.5z"/>
	<path class="st2" d="M36,30.4c0,1.2,0,2.4,0,3.6c0,0.6-0.2,0.8-0.8,0.8c-0.6,0-0.9,0-0.9-0.8c0-2.4,0-4.7,0-7.1
		c0-0.7,0.4-0.8,0.9-0.8c0.6,0,0.8,0.2,0.8,0.8C35.9,28,36,29.2,36,30.4z"/>
	<path class="st2" d="M25.6,30.6c0,0.9,0,1.8,0,2.8c0,0.7-0.3,0.9-0.9,0.9c-0.8,0-0.8-0.4-0.8-0.9c0-1.8,0-3.6,0-5.4
		c0-0.8,0.3-0.9,1-0.9c0.7,0,0.8,0.4,0.8,0.9C25.5,28.8,25.6,29.7,25.6,30.6z"/>
	<path class="st2" d="M43.9,30.5c0,0.7-0.1,1.4,0,2.1c0.1,1-0.4,1.1-1.2,1.1c-1,0-0.8-0.7-0.7-1.2c0.3-1.4,0.1-2.8,0.1-4.2
		c0-0.7,0.2-0.9,0.9-0.9c0.7,0,0.8,0.3,0.8,0.9C43.8,28.9,43.9,29.7,43.9,30.5z"/>
	<path class="st2" d="M3.2,30.4c0-0.8,0-1.6,0-2.4c0-0.6,0.3-0.7,0.8-0.6c0.4,0,0.8-0.1,0.8,0.6c0,1.6,0,3.2,0,4.8
		c0,0.7-0.4,0.6-0.9,0.7c-0.5,0-0.8-0.1-0.7-0.7C3.2,32,3.2,31.2,3.2,30.4z"/>
	<path class="st2" d="M56.9,30.5c0,0.3,0,0.7,0,1c0.1,0.7-0.2,1-0.9,1c-0.8,0-0.9-0.3-0.8-0.9c0.1-0.7,0-1.4,0-2.1
		c0-0.6-0.1-1.2,0.9-1.2c1,0,0.9,0.5,0.9,1.1C56.9,29.8,56.9,30.2,56.9,30.5z"/>
	<path class="st2" d="M30.7,30.5c0,0.5,0,0.9,0,1.4c0,0.6,0,1-0.9,1c-0.8,0-0.8-0.4-0.8-1c0-1.1,0-2.1,0-3.2c0-0.7,0.3-0.8,0.9-0.8
		c0.5,0,0.9,0.1,0.8,0.8C30.7,29.3,30.7,29.9,30.7,30.5z"/>
	<path class="st2" d="M26.5,30.3c0.2-0.4-0.5-1.2,0.6-1.3c0.7-0.1,1.2,0.1,1.1,1c0,0.3,0,0.5,0,0.8c0,0.6,0.1,1.2-0.9,1.2
		c-1.1,0-0.8-0.7-0.8-1.2C26.4,30.6,26.5,30.5,26.5,30.3z"/>
	<path class="st2" d="M33.3,30.4c-0.1,0.5,0.3,1.3-0.8,1.3c-1.2,0-0.9-0.8-0.9-1.4c0-0.6-0.3-1.3,0.9-1.3
		C33.6,29.1,33.2,29.9,33.3,30.4z"/>
</g>
</svg>
