<?xml version="1.0" encoding="utf-8"?>
<!-- Generator: Adobe Illustrator 22.1.0, SVG Export Plug-In . SVG Version: 6.00 Build 0)  -->
<svg version="1.1" id="Capa_1" xmlns="http://www.w3.org/2000/svg" xmlns:xlink="http://www.w3.org/1999/xlink" x="0px" y="0px"
	 viewBox="0 0 60 60" style="enable-background:new 0 0 60 60;" xml:space="preserve">
<style type="text/css">
	.st0{fill:#FFFFFF;}
	.st1{fill:#151515;}
	.st2{fill:#030101;}
	.st3{fill:none;stroke:#000000;stroke-miterlimit:10;}
	.st4{stroke:#000000;stroke-miterlimit:10;}
	.st5{fill:none;stroke:#272525;stroke-width:2;stroke-linecap:round;stroke-linejoin:round;stroke-miterlimit:10;}
	.st6{fill:#272525;stroke:#272525;stroke-width:3;stroke-miterlimit:10;}
	.st7{opacity:0;clip-path:url(#SVGID_2_);fill-rule:evenodd;clip-rule:evenodd;fill:#FFFFFF;}
	.st8{clip-path:url(#SVGID_4_);}
	.st9{clip-path:url(#SVGID_6_);}
	.st10{fill:#211915;}
	.st11{fill:none;}
</style>
<path class="st5" d="M45.8,58.2H10.3c-1.8,0-3.3-1.5-3.3-3.3V10.4C7,8.5,8.5,7,10.3,7h35.5c1.8,0,3.3,1.5,3.3,3.3v44.5
	C49.1,56.7,47.6,58.2,45.8,58.2z"/>
<rect x="14.9" y="7" class="st5" width="27.5" height="41.6"/>
<line class="st5" x1="19.4" y1="19.8" x2="38.3" y2="19.8"/>
<line class="st5" x1="19.4" y1="32.6" x2="38.3" y2="32.6"/>
<line class="st5" x1="19.4" y1="26.6" x2="32.8" y2="26.6"/>
<line class="st5" x1="19.4" y1="39.5" x2="32.8" y2="39.5"/>
<path class="st6" d="M36.2,5.2h-4.4c-0.5-1.3-1.7-2.3-3.2-2.3s-2.7,1-3.2,2.3h-4c-0.9,0-1.7,0.8-1.7,1.7s0.8,1.7,1.7,1.7h14.8
	c0.9,0,1.7-0.8,1.7-1.7S37.2,5.2,36.2,5.2z"/>
</svg>
