<?xml version="1.0" encoding="utf-8"?>
<!-- Generator: Adobe Illustrator 22.1.0, SVG Export Plug-In . SVG Version: 6.00 Build 0)  -->
<svg version="1.1" id="Capa_1" xmlns="http://www.w3.org/2000/svg" xmlns:xlink="http://www.w3.org/1999/xlink" x="0px" y="0px"
	 viewBox="0 0 60 60" style="enable-background:new 0 0 60 60;" xml:space="preserve">
<style type="text/css">
	.st0{fill:#FFFFFF;}
	.st1{fill:#151515;}
	.st2{fill:#030101;}
	.st3{fill:none;stroke:#000000;stroke-miterlimit:10;}
	.st4{stroke:#000000;stroke-miterlimit:10;}
	.st5{fill:none;stroke:#272525;stroke-width:2;stroke-linecap:round;stroke-linejoin:round;stroke-miterlimit:10;}
	.st6{fill:#272525;stroke:#272525;stroke-width:3;stroke-miterlimit:10;}
	.st7{opacity:0;clip-path:url(#SVGID_2_);fill-rule:evenodd;clip-rule:evenodd;fill:#FFFFFF;}
	.st8{clip-path:url(#SVGID_4_);}
	.st9{clip-path:url(#SVGID_6_);}
	.st10{fill:#211915;}
	.st11{fill:none;}
</style>
<g id="yOXAor_2_">
	<g>
		<path d="M21.8,53.2c-0.3,0.2-0.9,0.5-1.3,1c-1.8,1.9-1.9,1.9-4.2,0.6c-0.8-0.4-1.5-0.9-2.3-1.3c-1-0.6-1.2-1.4-0.9-2.4
			c0.1-0.2,0.1-0.4,0.2-0.7c0.5-1.8-0.4-3.7-2.2-4.3c-0.5-0.2-1.3,0-1.9,0.2c-2.2,0.6-2.4,0.6-3.6-1.4c-0.5-0.9-1-1.8-1.6-2.7
			c-0.5-0.8-0.3-1.5,0.3-2.2c0.1-0.1,0.3-0.3,0.4-0.4c1.7-1.6,1.9-2.7,0.8-4.7c-0.2-0.4-0.8-0.7-1.2-0.9c-0.6-0.2-1.2-0.3-1.8-0.5
			c-0.8-0.2-1.3-0.8-1.3-1.7c0-1.4,0-2.8,0-4.2c0-1,0.5-1.6,1.4-1.8c0.5-0.1,1-0.2,1.6-0.3c0.9-0.2,1.3-0.7,1.5-1.5
			C6,23.5,6,23,6.2,22.6c0.3-0.9,0.1-1.6-0.6-2.2c-0.4-0.3-0.7-0.7-1.1-1c-0.7-0.7-0.9-1.4-0.4-2.3c0.7-1.2,1.3-2.5,2.2-3.7
			c0.4-0.5,1.2-0.6,1.9-0.8c0.2-0.1,0.5,0.1,0.8,0.2c2.1,0.6,3.4,0.1,4.5-1.8c0.2-0.4,0.2-1,0.1-1.4C13.4,9.1,13.2,8.6,13,8
			c-0.3-0.9,0-1.7,0.8-2.2c1.2-0.7,2.3-1.4,3.5-2c0.8-0.5,1.6-0.4,2.3,0.4c0.1,0.1,0.3,0.3,0.4,0.4c1.6,1.7,2.6,1.9,4.7,0.7
			c0.5-0.3,0.9-1,1-1.5C26.5,1,26.5,1,29.4,1c0.9,0,1.8,0,2.7,0c0.9,0,1.5,0.4,1.7,1.3c0,0.2,0.1,0.4,0.1,0.6
			C34.4,5.2,35.3,6,37.6,6c0.4,0,0.9-0.3,1.3-0.6c0.5-0.4,0.9-0.9,1.3-1.3c0.7-0.7,1.5-0.8,2.3-0.3c1.1,0.6,2.3,1.3,3.4,2
			C46.8,6.3,47.2,7,46.8,8c0,0.1-0.1,0.3-0.1,0.4c-0.7,2.3-0.4,3.2,1.7,4.5c0.4,0.3,1,0.3,1.5,0.2c0.6-0.1,1.2-0.3,1.8-0.5
			c0.8-0.2,1.5,0,2,0.8c0.7,1.2,1.4,2.5,2.1,3.7c0.5,0.8,0.3,1.6-0.3,2.2c-0.1,0.1-0.3,0.3-0.4,0.4c-1.6,1.5-1.9,2.6-0.9,4.5
			c0.3,0.6,1.1,1.1,1.8,1.2c2.3,0.5,2.6,0.8,2.6,3.1c0,1,0,2,0,3c0,1.1-0.5,1.7-1.6,1.9c-0.2,0-0.3,0.1-0.4,0.1
			c-2.1,0.5-3.1,1.6-3,3.8c0,0.4,0.3,0.9,0.6,1.3c0.4,0.5,0.9,0.8,1.3,1.3c0.7,0.6,0.8,1.4,0.3,2.2c-0.7,1.2-1.4,2.4-2.1,3.6
			c-0.4,0.7-1.1,1-2,0.8c-0.3-0.1-0.5-0.2-0.8-0.2c-2-0.6-3.6,0-4.5,2c-0.2,0.5-0.1,1.3,0.1,1.9c0.7,2.5,0.7,2.6-1.6,3.8
			c-0.8,0.5-1.6,0.9-2.4,1.4c-1,0.5-1.8,0.4-2.6-0.5c-1.8-2.1-1.6-2-4.7-1.1c-0.5,0.2-1.1,1-1.2,1.6c-0.8,2.7-0.7,2.7-3.5,2.7
			c-0.9,0-1.8,0-2.7,0c-1.1,0-1.6-0.5-1.9-1.5c0-0.2-0.1-0.3-0.1-0.5C25.5,54.1,24.5,53.3,21.8,53.2z M14,29.6
			c0,8.7,7.1,15.9,15.8,15.9c8.7,0,15.9-7,16-15.5C46,20.8,38.5,14,30.4,13.7C21.7,13.5,14,20.7,14,29.6z"/>
	</g>
</g>
</svg>
