<?xml version="1.0" encoding="utf-8"?>
<!-- Generator: Adobe Illustrator 22.1.0, SVG Export Plug-In . SVG Version: 6.00 Build 0)  -->
<svg version="1.1" id="Capa_1" xmlns="http://www.w3.org/2000/svg" xmlns:xlink="http://www.w3.org/1999/xlink" x="0px" y="0px"
	 viewBox="0 0 60 60" style="enable-background:new 0 0 60 60;" xml:space="preserve">
<style type="text/css">
	.st0{fill:#FFFFFF;}
	.st1{fill:#151515;}
	.st2{fill:#030101;}
	.st3{fill:none;stroke:#000000;stroke-miterlimit:10;}
	.st4{stroke:#000000;stroke-miterlimit:10;}
	.st5{fill:none;stroke:#272525;stroke-width:2;stroke-linecap:round;stroke-linejoin:round;stroke-miterlimit:10;}
	.st6{fill:#272525;stroke:#272525;stroke-width:3;stroke-miterlimit:10;}
	.st7{opacity:0;clip-path:url(#SVGID_2_);fill-rule:evenodd;clip-rule:evenodd;fill:#FFFFFF;}
	.st8{clip-path:url(#SVGID_4_);}
	.st9{clip-path:url(#SVGID_6_);}
	.st10{fill:#211915;}
	.st11{fill:none;}
</style>
<path d="M52.6,59.2H6.7c-3.3,0-6-2.7-6-6V7.3c0-3.3,2.7-6,6-6h45.9c3.3,0,6,2.7,6,6v45.9C58.6,56.5,55.9,59.2,52.6,59.2z"/>
<g id="bLLZ3t.tif">
	<g>
		<path class="st0" d="M14.2,53.3c-0.5-0.1-1-0.2-1.6-0.3c-3.7-0.9-6.4-4.1-6.5-7.9c-0.1-2.7-0.1-5.3,0-8c0.2-4.3,3.9-7.9,8.3-7.9
			c5.1-0.1,10.3,0,15.4,0c4.8,0,9.7,0,14.5,0c4.4,0,8,2.9,8.6,7.3c0.4,3.4,0.5,6.9-0.1,10.3c-0.7,3.6-3.8,6.1-7.4,6.5
			c-0.1,0-0.3,0.1-0.4,0.1C34.7,53.3,24.5,53.3,14.2,53.3z M33,47.5c0.2,0.2,0.3,0.3,0.4,0.4c0.8,0.6,1.7,0.8,2.7,0.4
			c0.9-0.3,1.2-1.2,1.2-2c0-1.3,0-2.5,0-3.8c0-1.3,0-2.7-0.1-4c-0.2-2-2.2-2.8-3.8-1.6c-0.2,0.1-0.3,0.3-0.6,0.5c0-1.8,0-3.4,0-5.1
			c-0.8,0-1.6,0-2.4,0c0,5.4,0,10.7,0,16.1c0.8,0,1.6,0,2.4,0C33,48,33,47.8,33,47.5z M45.6,42.7c0-1.3,0.1-2.6,0-3.8
			c-0.1-0.9-0.5-1.7-1.3-2.2c-1.2-0.7-2.6-0.8-3.9-0.1c-1.2,0.6-1.8,1.7-1.8,3c0,1.9,0,3.7,0,5.6c0.1,2.4,1.4,3.6,3.8,3.5
			c2.3-0.1,3.7-2,3.1-4.2c-0.8,0-1.5,0-2.3,0c0,0.5,0,0.9-0.1,1.4c-0.1,0.6-0.4,0.8-1,0.8c-0.5,0-1-0.2-1-0.8c-0.1-1,0-2.1,0-3.1
			C42.6,42.7,44.1,42.7,45.6,42.7z M26.4,36.4c0,0.3,0,0.4,0,0.6c0,2.6,0,5.1,0,7.7c0,0.7-0.2,1.1-0.8,1.3c-0.3,0.1-0.7,0.3-1,0.2
			c-0.2-0.1-0.3-0.6-0.3-0.9c0-2.8,0-5.6,0-8.3c0-0.2,0-0.4,0-0.6c-0.8,0-1.6,0-2.4,0c0,0.2,0,0.3,0,0.4c0,3.2,0,6.3,0,9.5
			c0,0.2,0,0.5,0.1,0.7c0.2,1,0.9,1.6,1.9,1.4c0.7-0.2,1.3-0.6,2-1c0.2-0.1,0.3-0.2,0.5-0.4c0,0.5,0,0.9,0,1.2c0.8,0,1.5,0,2.3,0
			c0-4,0-7.9,0-11.8C27.9,36.4,27.2,36.4,26.4,36.4z M18.2,48.3c0-0.3,0-0.5,0-0.7c0-4.1,0-8.3,0-12.4c0-0.5,0.1-0.7,0.7-0.7
			c0.7,0,1.4,0,2.1,0c0-0.7,0-1.2,0-1.8c0-0.4-0.1-0.6-0.6-0.6c-2.4,0-4.8,0-7.2,0c-0.2,0-0.3,0-0.5,0c0,0.8,0,1.5,0,2.3
			c0.9,0,1.8,0,2.8,0c0,4.6,0,9.2,0,13.7C16.4,48.3,17.2,48.3,18.2,48.3z"/>
		<path class="st0" d="M21.6,25c-1,0-2,0-3,0c0-0.2,0-0.4,0-0.6c0-2,0-4,0-5.9c0-0.3-0.1-0.7-0.2-1c-1.1-3.2-2.1-6.4-3.2-9.6
			c-0.1-0.2-0.1-0.3-0.2-0.6c1,0,1.9,0,2.9,0c0.1,0,0.2,0.3,0.2,0.4c0.6,2,1.1,4.1,1.7,6.1c0,0.2,0.1,0.4,0.2,0.5c0,0,0.1,0,0.1,0
			c0.1-0.2,0.1-0.4,0.2-0.7c0.5-2,1.1-4,1.6-6c0.1-0.3,0.2-0.5,0.6-0.4c0.8,0,1.7,0,2.6,0C25,7.5,25,7.6,24.9,7.8
			c-1,3.1-2.1,6.2-3.1,9.2c-0.1,0.4-0.2,0.8-0.2,1.1c0,2.1,0,4.1,0,6.2C21.6,24.6,21.6,24.8,21.6,25z"/>
		<path class="st0" d="M25.3,18.3c0-1.1,0-2.2,0-3.2c0-1.8,0.9-3,2.7-3.4c1-0.2,2-0.2,2.9,0.1c1.4,0.5,2.2,1.6,2.2,3.1
			c0,2.2,0,4.5,0,6.7c0,2.1-1.1,3.4-3.2,3.7c-0.7,0.1-1.5,0-2.1-0.2c-1.5-0.4-2.4-1.6-2.4-3.1c0-0.1,0-0.1,0-0.2
			C25.3,20.6,25.3,19.5,25.3,18.3C25.3,18.3,25.3,18.3,25.3,18.3z M28.1,18.4c0,1.1,0,2.3,0,3.4c0,0.8,0.4,1.2,1.1,1.2
			c0.7,0,1.2-0.4,1.2-1.2c0-2.3,0-4.6,0-6.9c0-0.7-0.4-1.1-1.1-1.1c-0.8,0-1.1,0.3-1.1,1.1C28.1,16.1,28.1,17.3,28.1,18.4z"/>
		<path class="st0" d="M42.9,25c-0.9,0-1.7,0-2.6,0c0-0.4,0-0.8,0-1.4c-0.3,0.3-0.6,0.6-0.9,0.7c-0.7,0.3-1.3,0.7-2,0.8
			c-1,0.2-1.8-0.4-2-1.5c0-0.3-0.1-0.6-0.1-0.8c0-3.5,0-7,0-10.5c0-0.1,0-0.2,0-0.4c0.9,0,1.7,0,2.7,0c0,0.2,0,0.4,0,0.6
			c0,3,0,6,0,9c0,0.2,0,0.4,0,0.5c0,0.6,0.4,0.8,0.9,0.7c0.8-0.2,1.3-0.8,1.3-1.7c0-2.8,0-5.7,0-8.5c0-0.2,0-0.4,0-0.6
			c0.9,0,1.7,0,2.6,0C42.9,16.3,42.9,20.6,42.9,25z"/>
		<path d="M33,47.5c0,0.3,0,0.5,0,0.8c-0.8,0-1.6,0-2.4,0c0-5.3,0-10.7,0-16.1c0.8,0,1.5,0,2.4,0c0,1.6,0,3.3,0,5.1
			c0.3-0.2,0.4-0.4,0.6-0.5c1.6-1.2,3.6-0.4,3.8,1.6c0.1,1.3,0.1,2.7,0.1,4c0,1.3,0,2.5,0,3.8c0,0.9-0.3,1.7-1.2,2
			c-1,0.4-1.9,0.2-2.7-0.4C33.3,47.8,33.2,47.7,33,47.5z M33,42.3c0,1.1,0,2.2,0,3.3c0,0.2,0,0.4,0.1,0.5c0.4,0.4,0.8,0.5,1.3,0.4
			c0.5-0.1,0.5-0.6,0.5-1c0-0.1,0-0.2,0-0.3c0-1.9,0-3.8,0-5.7c0-0.2,0-0.5-0.1-0.7c-0.1-0.6-0.5-0.8-1.1-0.8
			c-0.6,0.1-0.8,0.4-0.8,0.9C33,40.2,33,41.3,33,42.3z"/>
		<path d="M45.6,42.7c-1.5,0-3,0-4.4,0c0,1.1,0,2.1,0,3.1c0,0.5,0.4,0.8,1,0.8c0.6,0,0.9-0.2,1-0.8c0.1-0.4,0.1-0.9,0.1-1.4
			c0.8,0,1.6,0,2.3,0c0.6,2.2-0.8,4.1-3.1,4.2c-2.4,0.1-3.8-1.1-3.8-3.5c0-1.9,0-3.7,0-5.6c0-1.3,0.6-2.4,1.8-3
			c1.3-0.6,2.6-0.6,3.9,0.1c0.8,0.5,1.2,1.3,1.3,2.2C45.7,40.1,45.6,41.3,45.6,42.7z M43.2,40.8c0-0.6,0-1.2,0-1.7
			c0-0.5-0.4-0.8-0.9-0.9c-0.6,0-1,0.2-1.1,0.7c-0.1,0.6-0.1,1.2-0.1,1.9C41.8,40.8,42.5,40.8,43.2,40.8z"/>
		<path d="M26.4,36.4c0.8,0,1.5,0,2.3,0c0,3.9,0,7.9,0,11.8c-0.8,0-1.5,0-2.3,0c0-0.4,0-0.7,0-1.2c-0.2,0.2-0.3,0.3-0.5,0.4
			c-0.6,0.3-1.3,0.8-2,1c-1,0.3-1.8-0.3-1.9-1.4c0-0.2-0.1-0.5-0.1-0.7c0-3.2,0-6.3,0-9.5c0-0.1,0-0.2,0-0.4c0.8,0,1.5,0,2.4,0
			c0,0.2,0,0.4,0,0.6c0,2.8,0,5.6,0,8.3c0,0.3,0.1,0.8,0.3,0.9c0.3,0.1,0.7,0,1-0.2c0.5-0.2,0.8-0.6,0.8-1.3c-0.1-2.6,0-5.1,0-7.7
			C26.4,36.9,26.4,36.7,26.4,36.4z"/>
		<path d="M18.2,48.3c-0.9,0-1.8,0-2.7,0c0-4.6,0-9.1,0-13.7c-0.9,0-1.8,0-2.8,0c0-0.8,0-1.6,0-2.3c0.2,0,0.3,0,0.5,0
			c2.4,0,4.8,0,7.2,0c0.4,0,0.6,0.1,0.6,0.6c0,0.6,0,1.1,0,1.8c-0.7,0-1.4,0-2.1,0c-0.5,0-0.7,0.1-0.7,0.7c0,4.1,0,8.3,0,12.4
			C18.2,47.8,18.2,48,18.2,48.3z"/>
		<path class="st0" d="M33,42.3c0-1.1,0-2.2,0-3.2c0-0.6,0.3-0.9,0.8-0.9c0.6-0.1,1,0.2,1.1,0.8c0,0.2,0.1,0.5,0.1,0.7
			c0,1.9,0,3.8,0,5.7c0,0.1,0,0.2,0,0.3c0,0.4,0,0.9-0.5,1c-0.5,0.1-1,0-1.3-0.4C33,46.1,33,45.8,33,45.7C33,44.6,33,43.5,33,42.3z"
			/>
		<path class="st0" d="M43.2,40.8c-0.7,0-1.3,0-2.1,0c0-0.7,0-1.3,0.1-1.9c0.1-0.5,0.5-0.7,1.1-0.7c0.5,0,0.9,0.3,0.9,0.9
			C43.2,39.6,43.2,40.2,43.2,40.8z"/>
	</g>
</g>
</svg>
