<?xml version="1.0" encoding="utf-8"?>
<!-- Generator: Adobe Illustrator 22.1.0, SVG Export Plug-In . SVG Version: 6.00 Build 0)  -->
<svg version="1.1" id="Capa_1" xmlns="http://www.w3.org/2000/svg" xmlns:xlink="http://www.w3.org/1999/xlink" x="0px" y="0px"
	 viewBox="0 0 60 60" style="enable-background:new 0 0 60 60;" xml:space="preserve">
<style type="text/css">
	.st0{fill:#FFFFFF;}
	.st1{fill:#151515;}
	.st2{fill:#030101;}
	.st3{fill:none;stroke:#000000;stroke-miterlimit:10;}
	.st4{stroke:#000000;stroke-miterlimit:10;}
	.st5{fill:none;stroke:#272525;stroke-width:2;stroke-linecap:round;stroke-linejoin:round;stroke-miterlimit:10;}
	.st6{fill:#272525;stroke:#272525;stroke-width:3;stroke-miterlimit:10;}
	.st7{opacity:0;clip-path:url(#SVGID_2_);fill-rule:evenodd;clip-rule:evenodd;fill:#FFFFFF;}
	.st8{clip-path:url(#SVGID_4_);}
	.st9{clip-path:url(#SVGID_6_);}
	.st10{fill:#211915;}
	.st11{fill:none;}
</style>
<g id="XMLID_4002_">
	<path id="XMLID_4009_" d="M14.7,24.5C5.5,24.5-2.1,32-2.1,41.2c0,9.3,7.5,16.8,16.8,16.8c7.3,0,13.5-4.7,15.8-11.2
		c1.1,0,2.2,0.1,3,0.1c5.2,0,17.1-0.5,17.1-5.6c0,0,0,0,0,0c0,0,0,0,0,0v-6.4v-0.3c0-0.1,0-0.3,0-0.5c0-0.2,0-0.3,0-0.4V28
		c0-0.1,0-0.3,0-0.5c0-0.2,0-0.3,0-0.4v-6.2c0-0.1,0-0.3,0-0.5c0-0.3-0.1-0.5-0.1-0.8c0.1-0.2,0.1-0.5,0.1-0.7c0,0,0,0,0,0
		c0,0,0,0,0,0v-6.7c0-0.2,0-0.3,0-0.5c0-0.1,0-0.3,0-0.4V5.1c0-0.1,0-0.3,0-0.5c0-0.3-0.1-0.5-0.1-0.8c-0.1-0.5-0.5-1-0.9-1.2
		c-3.5-3-14.7-3.1-16.1-3.1c-1.5,0-12.6,0.1-16.1,3.1c-0.4,0.3-0.8,0.7-0.9,1.2c-0.1,0.2-0.1,0.5-0.1,0.8c0,0.2,0,0.3,0,0.5v6.2
		c0,0.1,0,0.3,0,0.4c0,0.2,0,0.3,0,0.5v6.7c0,0,0,0,0,0c0,0,0,0,0,0c0,0.2,0,0.5,0.1,0.7c-0.1,0.2-0.1,0.5-0.1,0.8
		c0,0.2,0,0.3,0,0.5v3.7C15.9,24.5,15.3,24.5,14.7,24.5z M48.8,41.1c0,0,0,0.1,0,0.1c0,0,0,0,0,0.1c-0.1,1.9-6.9,3.4-15.2,3.4
		c-0.8,0-1.6,0-2.4,0c0.2-1.1,0.3-2.2,0.3-3.4c0-0.3,0-0.6,0-0.9c0.8,0,1.5,0,2.1,0c3.9,0,11.6-0.3,15.2-2.6V41.1z M48.8,34.6
		c0,0,0,0.1,0,0.1c0,0,0,0,0,0.1c-0.1,1.9-6.9,3.4-15.2,3.4c-0.8,0-1.6,0-2.4,0c-0.3-1.8-0.9-3.5-1.8-5c1.6,0.1,3,0.1,4.1,0.1
		c3.9,0,11.6-0.3,15.2-2.6V34.6z M48.8,18.8c0,0,0,0.1,0,0.1c0,0,0,0,0,0.1c-0.1,1.9-6.9,3.4-15.2,3.4c-8.3,0-15.1-1.5-15.2-3.4
		c0,0,0-0.1,0-0.1c0,0,0,0,0-0.1l0-3.9c3.6,2.3,11.3,2.6,15.2,2.6c3.9,0,11.6-0.3,15.2-2.6V18.8z M33.6,2c8.6,0,14,1.6,14.9,2.6
		c-0.9,1-6.2,2.6-14.9,2.6c-8.6,0-14-1.6-14.9-2.6C19.6,3.6,25,2,33.6,2z M33.6,9.7c1.4,0,10.9-0.1,15.2-2.4v4.5c0,0,0,0.1,0,0.1
		c0,0,0,0,0,0.1c-0.1,1.9-6.9,3.4-15.2,3.4c-8.3,0-15.1-1.5-15.2-3.4c0,0,0-0.1,0-0.1c0,0,0,0,0-0.1l0-4.5
		C22.6,9.6,32.2,9.7,33.6,9.7z M33.6,25.5c1.4,0,10.9-0.1,15.2-2.4v4.5c0,0,0,0.1,0,0.1c0,0,0,0,0,0.1c-0.1,1.9-6.9,3.4-15.2,3.4
		c-2,0-3.9-0.1-5.6-0.2c-2.4-3-5.7-5.2-9.5-6l0-1.8C22.6,25.4,32.2,25.5,33.6,25.5z M29.3,41.2c0,8.1-6.6,14.6-14.6,14.6
		c-8.1,0-14.6-6.6-14.6-14.6c0-8.1,6.6-14.6,14.6-14.6C22.8,26.6,29.3,33.2,29.3,41.2z"/>
	<path id="XMLID_4006_" d="M3.4,41.2c0,6.2,5.1,11.3,11.3,11.3C21,52.5,26,47.5,26,41.2C26,35,21,29.9,14.7,29.9
		C8.5,29.9,3.4,35,3.4,41.2z M24.6,41.2c0,5.4-4.4,9.9-9.9,9.9c-5.4,0-9.9-4.4-9.9-9.9c0-5.4,4.4-9.9,9.9-9.9
		C20.2,31.4,24.6,35.8,24.6,41.2z"/>
	<path id="XMLID_4003_" d="M13.3,34.1v1.2c-0.6,0.2-1.1,0.6-1.5,1c-0.6,0.7-1,1.6-1,2.5c0,0.5,0.1,1,0.3,1.4
		c0.3,0.6,0.7,1.1,1.3,1.5c0.5,0.3,1.1,0.6,1.8,0.9c0.6,0.3,0.9,0.5,1,0.6c0.1,0.1,0.1,0.1,0.1,0.2c0,0,0,0.1,0,0.2
		c0,0.1,0,0.2-0.1,0.3c-0.2,0.1-0.4,0.2-0.7,0.2c-0.7,0-1.4-0.3-1.8-0.5l-0.4-0.3c-0.2-0.1-0.4-0.2-0.6-0.1
		c-0.2,0.1-0.4,0.2-0.4,0.4l-0.7,1.9c-0.1,0.3,0,0.6,0.3,0.8l0.2,0.2c0.4,0.3,0.9,0.5,1.5,0.7c0.2,0.1,0.4,0.1,0.6,0.1v1.1
		c0,0.4,0.3,0.7,0.7,0.7h1.8c0.4,0,0.7-0.3,0.7-0.7v-1.3c0.7-0.2,1.2-0.6,1.7-1.1c0.6-0.7,0.9-1.6,0.9-2.5c0-0.5-0.1-1-0.2-1.4
		c-0.2-0.6-0.6-1.2-1.2-1.6c-0.5-0.4-1-0.7-1.8-1c0,0,0,0-0.1,0c-0.8-0.3-1.1-0.5-1.2-0.6c0,0-0.1-0.1-0.1-0.1c0,0,0,0,0-0.1
		c0,0,0-0.1,0.1-0.2c0.1-0.1,0.3-0.1,0.6-0.1c0.3,0,0.7,0,0.9,0.1c0.2,0.1,0.4,0.2,0.6,0.3l0.4,0.2c0.2,0.1,0.4,0.1,0.6,0.1
		c0.2-0.1,0.4-0.2,0.4-0.4l0.7-1.8c0.1-0.3,0-0.7-0.3-0.9l-0.3-0.2c-0.5-0.3-1-0.5-1.6-0.6v-1c0-0.4-0.3-0.7-0.7-0.7h-1.8
		C13.7,33.4,13.3,33.7,13.3,34.1z M14.8,35.8v-1h0.4v0.9c0,0.4,0.3,0.7,0.6,0.7c0.5,0.1,1,0.2,1.4,0.4L17,37.3
		c-0.1-0.1-0.3-0.1-0.5-0.2c-0.4-0.1-0.9-0.2-1.4-0.2c-0.7,0-1.2,0.2-1.6,0.6c-0.3,0.3-0.5,0.7-0.5,1.2c0,0.3,0,0.5,0.1,0.7
		c0.1,0.2,0.2,0.4,0.4,0.6c0.3,0.3,0.8,0.6,1.6,0.9l0,0c0.6,0.3,1.1,0.5,1.5,0.8c0.4,0.3,0.6,0.6,0.7,1c0.1,0.3,0.1,0.6,0.1,0.9
		c0,0.6-0.2,1.1-0.6,1.6c0,0,0,0,0,0c-0.4,0.4-0.9,0.7-1.5,0.9c-0.3,0.1-0.5,0.4-0.5,0.7v1.1h-0.4v-1c0-0.4-0.3-0.7-0.7-0.7
		c-0.3,0-0.7-0.1-1-0.2c-0.3-0.1-0.6-0.2-0.8-0.3l0.2-0.5c0.7,0.4,1.5,0.6,2.2,0.6c0.7,0,1.2-0.2,1.6-0.5c0.4-0.4,0.6-0.8,0.7-1.4
		c0-0.3,0-0.5-0.1-0.7c-0.1-0.2-0.2-0.4-0.4-0.6c-0.3-0.3-0.8-0.6-1.5-0.9c-0.7-0.3-1.2-0.5-1.5-0.8c-0.4-0.3-0.7-0.6-0.8-0.9
		c-0.1-0.2-0.2-0.5-0.2-0.8c0-0.6,0.2-1.1,0.6-1.5c0.3-0.4,0.8-0.6,1.4-0.8C14.5,36.5,14.8,36.2,14.8,35.8z"/>
</g>
</svg>
