<?xml version="1.0" encoding="utf-8"?>
<!-- Generator: Adobe Illustrator 22.1.0, SVG Export Plug-In . SVG Version: 6.00 Build 0)  -->
<svg version="1.1" id="Capa_1" xmlns="http://www.w3.org/2000/svg" xmlns:xlink="http://www.w3.org/1999/xlink" x="0px" y="0px"
	 viewBox="0 0 60 60" style="enable-background:new 0 0 60 60;" xml:space="preserve">
<style type="text/css">
	.st0{fill:#FFFFFF;}
	.st1{fill:#151515;}
	.st2{fill:#030101;}
	.st3{fill:none;stroke:#000000;stroke-miterlimit:10;}
	.st4{stroke:#000000;stroke-miterlimit:10;}
	.st5{fill:none;stroke:#272525;stroke-width:2;stroke-linecap:round;stroke-linejoin:round;stroke-miterlimit:10;}
	.st6{fill:#272525;stroke:#272525;stroke-width:3;stroke-miterlimit:10;}
	.st7{opacity:0;clip-path:url(#SVGID_2_);fill-rule:evenodd;clip-rule:evenodd;fill:#FFFFFF;}
	.st8{clip-path:url(#SVGID_4_);}
	.st9{clip-path:url(#SVGID_6_);}
	.st10{fill:#211915;}
	.st11{fill:none;}
</style>
<path d="M16.3,15c0.4-3.5,0.9-7.2,1.4-10.7C20.8,7.2,20.4,11.2,16.3,15z"/>
<path d="M43.2,20.8c0-3.6,0-7.3,0-11.7c4.4,4.2,2,7.9,1.3,11.6C44,20.7,43.6,20.8,43.2,20.8z"/>
<path d="M39.9,58.1c2.1-12.5,1.9-13.6-3.4-17.3c0,2.3,0,4.3,0,7.1c-7.6-5.2-6.6-12.8-7.5-20.6c-5.9,5.8-6.1,12.7-8.2,19.6
	c-0.2-1.1-0.3-2.1-0.5-3.2C16,50.5,21,54.2,22.6,59.4c-7-1.8-10.5-6.5-12.5-12.6c-2.8-8.7-2.5-16.9,3.5-24.3
	c0.7,3.9,1.3,7.6,2.1,11.9c2.7-7.5,5.7-13.8,7.2-20.4c1-4.2-0.3-8.9-0.5-13.5c6.4,3.7,8.8,11,13,18.5c0.7-3,1.2-5,1.9-7.7
	c4.9,5.1,3.2,11.3,3.7,16.9c0.4,0.1,0.9,0.3,1.3,0.4c1.1-2.8,2.2-5.6,3.2-8.1C54.2,28.9,51.4,51,39.9,58.1z"/>
</svg>
