<?xml version="1.0" encoding="utf-8"?>
<!-- Generator: Adobe Illustrator 22.1.0, SVG Export Plug-In . SVG Version: 6.00 Build 0)  -->
<svg version="1.1" id="Capa_1" xmlns="http://www.w3.org/2000/svg" xmlns:xlink="http://www.w3.org/1999/xlink" x="0px" y="0px"
	 viewBox="0 0 60 60" style="enable-background:new 0 0 60 60;" xml:space="preserve">
<style type="text/css">
	.st0{fill:#FFFFFF;}
	.st1{fill:#151515;}
	.st2{fill:#030101;}
	.st3{fill:none;stroke:#000000;stroke-miterlimit:10;}
	.st4{stroke:#000000;stroke-miterlimit:10;}
	.st5{fill:none;stroke:#9d9d9d !important;stroke-width:2;stroke-linecap:round;stroke-linejoin:round;stroke-miterlimit:10;}
	.st6{fill:#9d9d9d !important;stroke:#9d9d9d !important;stroke-width:3;stroke-miterlimit:10;}
	.st7{opacity:0;clip-path:url(#SVGID_2_);fill-rule:evenodd;clip-rule:evenodd;fill:#FFFFFF;}
	.st8{clip-path:url(#SVGID_4_);}
	.st9{clip-path:url(#SVGID_6_);}
	.st10{fill:#211915;}
	.st11{fill:none;}
</style>
<g>
	<g>
		<circle cx="28.6" cy="21.6" r="2.5"/>
		<path d="M29.5,25.3c-0.6-0.1-1.3-0.1-1.9,0c-4.2,0.5-5.6,5.4-5.2,9.1c0.2,1.6,2.7,1.6,2.5,0c-0.1-1.4-0.1-3.4,0.6-4.9
			c0,1.8,0,3.6,0,5.3c0,0.1,0,0.1,0,0.2c0,0,0,0.1,0,0.1c0,4.2,0,8.5-0.2,12.7c-0.1,1.9,2.8,1.9,2.9,0c0.1-3.3,0.2-6.6,0.2-9.9
			c0.1,0,0.3,0,0.4,0c0,3.3,0,6.6,0.2,9.9c0.1,1.9,3,1.9,2.9,0c-0.2-4.2-0.2-8.5-0.2-12.7c0-0.1,0-0.3,0-0.4c0-1.8-0.1-3.7-0.1-5.5
			c0.9,1.5,0.9,3.7,0.8,5.2c-0.2,1.6,2.4,1.6,2.5,0C35.4,30.7,34,25.7,29.5,25.3z"/>
	</g>
</g>
<path class="st5" d="M45.8,58.2H10.3c-1.8,0-3.3-1.5-3.3-3.3V10.4C7,8.5,8.5,7,10.3,7h35.5c1.8,0,3.3,1.5,3.3,3.3v44.5
	C49.1,56.7,47.6,58.2,45.8,58.2z"/>
<path class="st6" d="M36.2,5.2h-4.4c-0.5-1.3-1.7-2.3-3.2-2.3s-2.7,1-3.2,2.3h-4c-0.9,0-1.7,0.8-1.7,1.7s0.8,1.7,1.7,1.7h14.8
	c0.9,0,1.7-0.8,1.7-1.7S37.2,5.2,36.2,5.2z"/>
</svg>
