<?xml version="1.0" encoding="utf-8"?>
<!-- Generator: Adobe Illustrator 22.1.0, SVG Export Plug-In . SVG Version: 6.00 Build 0)  -->
<svg version="1.1" id="Capa_1" xmlns="http://www.w3.org/2000/svg" xmlns:xlink="http://www.w3.org/1999/xlink" x="0px" y="0px"
	 viewBox="0 0 60 60" style="enable-background:new 0 0 60 60;" xml:space="preserve">
<style type="text/css">
	.st0{fill:#FFFFFF;}
	.st1{fill:#151515;}
	.st2{fill:#030101;}
	.st3{fill:none;stroke:#000000;stroke-miterlimit:10;}
	.st4{stroke:#000000;stroke-miterlimit:10;}
	.st5{fill:none;stroke:#272525;stroke-width:2;stroke-linecap:round;stroke-linejoin:round;stroke-miterlimit:10;}
	.st6{fill:#272525;stroke:#272525;stroke-width:3;stroke-miterlimit:10;}
	.st7{opacity:0;clip-path:url(#SVGID_2_);fill-rule:evenodd;clip-rule:evenodd;fill:#FFFFFF;}
	.st8{clip-path:url(#SVGID_4_);}
	.st9{clip-path:url(#SVGID_6_);}
	.st10{fill:#211915;}
	.st11{fill:none;}
</style>
<g>
	<path d="M47.4,27.2h-1.1v-5.1c0-9.4-7.5-17.3-16.8-17.5c-0.3,0-0.8,0-1,0c-9.3,0.2-16.8,8-16.8,17.5v5.1h-1.1c-1.7,0-3,1.7-3,3.9
		v25.6c0,2.1,1.4,3.9,3,3.9h36.8c1.7,0,3-1.7,3-3.9V31C50.5,28.9,49.1,27.2,47.4,27.2z M32.4,43.8v7.7c0,0.9-0.7,1.6-1.6,1.6h-3.7
		c-0.9,0-1.6-0.7-1.6-1.6v-7.7c-0.9-0.8-1.4-2-1.4-3.3c0-2.4,1.9-4.6,4.3-4.7c0.3,0,0.8,0,1,0c2.4,0.1,4.3,2.2,4.3,4.7
		C33.8,41.8,33.3,43,32.4,43.8z M39.1,27.2h-9.6h-1h-9.6v-5.1c0-5.6,4.6-10.3,10.2-10.3s10.2,4.6,10.2,10.3L39.1,27.2L39.1,27.2z"/>
</g>
</svg>
