<?xml version="1.0" encoding="utf-8"?>
<!-- Generator: Adobe Illustrator 22.1.0, SVG Export Plug-In . SVG Version: 6.00 Build 0)  -->
<svg version="1.1" id="Capa_1" xmlns="http://www.w3.org/2000/svg" xmlns:xlink="http://www.w3.org/1999/xlink" x="0px" y="0px"
	 viewBox="0 0 60 60" style="enable-background:new 0 0 60 60;" xml:space="preserve">
<style type="text/css">
	.st0{fill:#FFFFFF;}
	.st1{fill:#151515;}
	.st2{fill:#030101;}
	.st3{fill:none;stroke:#000000;stroke-miterlimit:10;}
	.st4{stroke:#000000;stroke-miterlimit:10;}
	.st5{fill:none;stroke:#272525;stroke-width:2;stroke-linecap:round;stroke-linejoin:round;stroke-miterlimit:10;}
	.st6{fill:#272525;stroke:#272525;stroke-width:3;stroke-miterlimit:10;}
	.st7{opacity:0;clip-path:url(#SVGID_2_);fill-rule:evenodd;clip-rule:evenodd;fill:#FFFFFF;}
	.st8{clip-path:url(#SVGID_4_);}
	.st9{clip-path:url(#SVGID_6_);}
	.st10{fill:#211915;}
	.st11{fill:none;}
</style>
<g>
	<path d="M58.5,20.8C58.5,20.8,58.5,20.8,58.5,20.8C58.5,20.7,58.5,20.7,58.5,20.8c0-0.1,0-0.1,0-0.1c0,0,0,0,0,0c0,0,0,0,0,0
		c0,0,0,0,0,0c0,0,0,0,0,0c0,0,0,0,0-0.1c0,0,0,0,0,0L53,5.5c0,0,0,0,0,0c0,0,0,0,0,0c0,0,0,0,0,0c0,0,0,0,0,0c0,0,0,0,0,0
		c0,0,0,0,0,0c0,0,0,0,0,0c0,0,0,0,0,0c0,0,0,0,0,0c0,0,0,0,0,0c0,0,0,0,0,0c0,0,0,0,0,0c0,0,0,0,0,0c0,0,0,0,0,0c0,0,0,0,0,0
		c0,0,0,0,0,0c0,0,0,0,0,0c0,0,0,0,0,0c0,0,0,0,0,0c0,0,0,0,0,0c0,0,0,0,0,0c0,0,0,0,0,0c0,0,0,0,0,0c0,0,0,0,0,0c0,0,0,0-0.1,0
		c0,0,0,0,0,0H45c0,0,0,0,0,0H30H15c0,0,0,0,0,0H7.8c0,0,0,0,0,0c0,0,0,0-0.1,0c0,0,0,0,0,0c0,0,0,0,0,0c0,0,0,0,0,0c0,0,0,0,0,0
		c0,0,0,0,0,0c0,0,0,0,0,0c0,0,0,0,0,0c0,0,0,0,0,0c0,0,0,0,0,0c0,0,0,0,0,0c0,0,0,0,0,0c0,0,0,0,0,0c0,0,0,0,0,0c0,0,0,0,0,0
		c0,0,0,0,0,0c0,0,0,0,0,0c0,0,0,0,0,0c0,0,0,0,0,0c0,0,0,0,0,0c0,0,0,0,0,0c0,0,0,0,0,0c0,0,0,0,0,0c0,0,0,0,0,0.1c0,0,0,0,0,0
		L1.5,20.4c0,0,0,0,0,0c0,0,0,0,0,0.1c0,0,0,0,0,0c0,0,0,0,0,0c0,0,0,0,0,0c0,0,0,0,0,0c0,0,0,0,0,0.1c0,0,0,0,0,0c0,0,0,0,0,0
		c0,0,0,0,0,0c0,3,2.5,5.4,5.5,5.4c1.9,0,3.6-1,4.6-2.5c1,1.5,2.7,2.5,4.6,2.5c1.9,0,3.6-1,4.6-2.5c1,1.5,2.7,2.5,4.6,2.5
		c1.9,0,3.6-1,4.6-2.5c1,1.5,2.7,2.5,4.6,2.5c1.9,0,3.6-1,4.6-2.5c1,1.5,2.7,2.5,4.6,2.5c1.9,0,3.6-1,4.6-2.5c1,1.5,2.7,2.5,4.6,2.5
		C56.1,26.2,58.5,23.8,58.5,20.8C58.5,20.8,58.5,20.8,58.5,20.8z M7,24.5c-2,0-3.6-1.6-3.7-3.6L8.4,6.7h5.5l-3.2,13.9c0,0,0,0,0,0
		c0,0,0,0,0,0.1c0,0,0,0,0,0c0,0,0,0,0,0c0,0,0,0,0,0.1c0,0,0,0,0,0C10.7,22.8,9,24.5,7,24.5z M16.2,24.5c-2,0-3.7-1.6-3.7-3.6
		l3.2-14.1h5.2l-1,14c0,0,0,0,0,0c0,0,0,0,0,0C19.9,22.8,18.2,24.5,16.2,24.5z M25.4,24.5c-2,0-3.7-1.7-3.7-3.7l1-14.1h6.4v14.1
		C29.1,22.8,27.4,24.5,25.4,24.5z M34.6,24.5c-2.1,0-3.7-1.7-3.7-3.7c0,0,0,0,0,0v-14h6.4l1,14.1C38.3,22.8,36.7,24.5,34.6,24.5z
		 M43.8,24.5c-2.1,0-3.7-1.7-3.7-3.7c0,0,0,0,0,0c0,0,0,0,0,0l-1-14h5.3l3.2,14.1C47.5,22.9,45.8,24.5,43.8,24.5z M53,24.5
		c-2.1,0-3.7-1.7-3.7-3.7c0,0,0,0,0,0c0,0,0,0,0-0.1c0,0,0,0,0,0c0,0,0,0,0,0c0,0,0,0,0-0.1c0,0,0,0,0,0L46.1,6.7h5.5l5.2,14.2
		C56.7,22.9,55,24.5,53,24.5z"/>
	<path d="M53,27.5c-0.5,0-0.9,0.4-0.9,0.9v19.2H7.8V28.3c0-0.5-0.4-0.9-0.9-0.9s-0.9,0.4-0.9,0.9v21h47.9V28.4
		C53.9,27.9,53.5,27.5,53,27.5z"/>
</g>
</svg>
