<?xml version="1.0" encoding="utf-8"?>
<!-- Generator: Adobe Illustrator 22.1.0, SVG Export Plug-In . SVG Version: 6.00 Build 0)  -->
<svg version="1.1" id="Capa_1" xmlns="http://www.w3.org/2000/svg" xmlns:xlink="http://www.w3.org/1999/xlink" x="0px" y="0px"
	 viewBox="0 0 60 60" style="enable-background:new 0 0 60 60;" xml:space="preserve">
<style type="text/css">
	.st0{fill:#FFFFFF;}
	.st1{fill:#151515;}
	.st2{fill:#030101;}
	.st3{fill:none;stroke:#000000;stroke-miterlimit:10;}
	.st4{stroke:#000000;stroke-miterlimit:10;}
	.st5{fill:none;stroke:#272525;stroke-width:2;stroke-linecap:round;stroke-linejoin:round;stroke-miterlimit:10;}
	.st6{fill:#272525;stroke:#272525;stroke-width:3;stroke-miterlimit:10;}
	.st7{opacity:0;clip-path:url(#SVGID_2_);fill-rule:evenodd;clip-rule:evenodd;fill:#FFFFFF;}
	.st8{clip-path:url(#SVGID_4_);}
	.st9{clip-path:url(#SVGID_6_);}
	.st10{fill:#211915;}
	.st11{fill:none;}
</style>
<g>
	<g>
		<g>
			<path d="M21.1,15.9h19.5c0.6,0,1.1-0.5,1.1-1.1V6.3H20.1v8.6C20.1,15.5,20.6,15.9,21.1,15.9z"/>
			<path d="M56.2,19.4l-11-11v6.5c0,2.5-2,4.5-4.5,4.5H21.1c-2.5,0-4.5-2-4.5-4.5V6.3h-7c-2.6,0-4.8,2.1-4.8,4.8v42.6
				c0,2.6,2.1,4.8,4.8,4.8h42.6c2.6,0,4.8-2.1,4.8-4.8V21.4C57,20.7,56.7,20,56.2,19.4z M48.9,47.5c0,1.5-1.3,2.8-2.8,2.8H15.7
				c-1.5,0-2.8-1.3-2.8-2.8V32.9c0-1.5,1.3-2.8,2.8-2.8h30.4c1.5,0,2.8,1.3,2.8,2.8V47.5z"/>
			<path d="M42.9,34.6h-24c-1,0-1.7,0.8-1.7,1.7c0,1,0.8,1.7,1.7,1.7h24c1,0,1.7-0.8,1.7-1.7C44.6,35.4,43.8,34.6,42.9,34.6z"/>
			<path d="M39.4,41.6h-17c-1,0-1.7,0.8-1.7,1.7c0,1,0.8,1.7,1.7,1.7h17c1,0,1.7-0.8,1.7-1.7C41.1,42.4,40.4,41.6,39.4,41.6z"/>
		</g>
	</g>
</g>
</svg>
