<?xml version="1.0" encoding="utf-8"?>
<!-- Generator: Adobe Illustrator 22.1.0, SVG Export Plug-In . SVG Version: 6.00 Build 0)  -->
<svg version="1.1" id="Capa_1" xmlns="http://www.w3.org/2000/svg" xmlns:xlink="http://www.w3.org/1999/xlink" x="0px" y="0px"
	 viewBox="0 0 60 60" style="enable-background:new 0 0 60 60;" xml:space="preserve">
<style type="text/css">
	.st0{fill:#FFFFFF;}
	.st1{fill:#151515;}
	.st2{fill:#030101;}
	.st3{fill:none;stroke:#000000;stroke-miterlimit:10;}
	.st4{stroke:#000000;stroke-miterlimit:10;}
	.st5{fill:none;stroke:#272525;stroke-width:2;stroke-linecap:round;stroke-linejoin:round;stroke-miterlimit:10;}
	.st6{fill:#272525;stroke:#272525;stroke-width:3;stroke-miterlimit:10;}
	.st7{opacity:0;clip-path:url(#SVGID_2_);fill-rule:evenodd;clip-rule:evenodd;fill:#FFFFFF;}
	.st8{clip-path:url(#SVGID_4_);}
	.st9{clip-path:url(#SVGID_6_);}
	.st10{fill:#211915;}
	.st11{fill:none;}
</style>
<path d="M5,28l9.3,8c0.9,0.8,1.3,2.1,1.1,3.3l-2.9,11.9c-0.7,2.8,2.4,5.1,4.9,3.6L28,48.4c1.1-0.6,2.4-0.6,3.4,0l10.5,6.4
	c2.5,1.5,5.6-0.7,4.9-3.6L44,39.3c-0.3-1.2,0.1-2.5,1.1-3.3l9.3-8c2.2-1.9,1-5.5-1.9-5.8l-12.2-1c-1.2-0.1-2.3-0.9-2.8-2L32.7,7.9
	c-1.1-2.7-5-2.7-6.1,0l-4.7,11.3c-0.5,1.1-1.5,1.9-2.8,2l-12.2,1C4,22.5,2.8,26.1,5,28z"/>
</svg>
