<?xml version="1.0" encoding="utf-8"?>
<!-- Generator: Adobe Illustrator 22.1.0, SVG Export Plug-In . SVG Version: 6.00 Build 0)  -->
<svg version="1.1" id="Capa_1" xmlns="http://www.w3.org/2000/svg" xmlns:xlink="http://www.w3.org/1999/xlink" x="0px" y="0px"
	 viewBox="0 0 60 60" style="enable-background:new 0 0 60 60;" xml:space="preserve">
<style type="text/css">
	.st0{fill:#FFFFFF;}
	.st1{fill:#151515;}
	.st2{fill:#030101;}
	.st3{fill:none;stroke:#000000;stroke-miterlimit:10;}
	.st4{stroke:#000000;stroke-miterlimit:10;}
	.st5{fill:none;stroke:#272525;stroke-width:2;stroke-linecap:round;stroke-linejoin:round;stroke-miterlimit:10;}
	.st6{fill:#272525;stroke:#272525;stroke-width:3;stroke-miterlimit:10;}
	.st7{opacity:0;clip-path:url(#SVGID_2_);fill-rule:evenodd;clip-rule:evenodd;fill:#FFFFFF;}
	.st8{clip-path:url(#SVGID_4_);}
	.st9{clip-path:url(#SVGID_6_);}
	.st10{fill:#211915;}
	.st11{fill:none;}
</style>
<path d="M50.8,1.1h-43c-3.7,0-6.7,3-6.7,6.7v44.3c0,3.8,3.1,6.9,6.9,6.9h22.6V37.3h-7.3v-9.1h7.3v-5.5c0-7.5,4.2-12.7,10.9-12.7
	c3.2,0,5.5,0,7.3,0v9.1h-3.6c-3.6,0-5.5,1.8-5.5,5.5v3.6h9.1l-1.8,9.1h-7.3v21.6h12.5c3.7,0,6.7-3,6.7-6.7V15
	C58.9,5.7,60.1,1.1,50.8,1.1z"/>
</svg>
