<?xml version="1.0" encoding="utf-8"?>
<!-- Generator: Adobe Illustrator 22.1.0, SVG Export Plug-In . SVG Version: 6.00 Build 0)  -->
<svg version="1.1" id="Capa_1" xmlns="http://www.w3.org/2000/svg" xmlns:xlink="http://www.w3.org/1999/xlink" x="0px" y="0px"
	 viewBox="0 0 60 60" style="enable-background:new 0 0 60 60;" xml:space="preserve">
<style type="text/css">
	.st0{fill:#FFFFFF;}
	.st1{fill:#151515;}
	.st2{fill:#030101;}
	.st3{fill:none;stroke:#000000;stroke-miterlimit:10;}
	.st4{stroke:#000000;stroke-miterlimit:10;}
	.st5{fill:none;stroke:#272525;stroke-width:2;stroke-linecap:round;stroke-linejoin:round;stroke-miterlimit:10;}
	.st6{fill:#272525;stroke:#272525;stroke-width:3;stroke-miterlimit:10;}
	.st7{opacity:0;clip-path:url(#SVGID_2_);fill-rule:evenodd;clip-rule:evenodd;fill:#FFFFFF;}
	.st8{clip-path:url(#SVGID_4_);}
	.st9{clip-path:url(#SVGID_6_);}
	.st10{fill:#211915;}
	.st11{fill:none;}
</style>
<path d="M29.7,1.8C13.9,1.8,1.2,14.6,1.2,30.4c0,15.8,12.8,28.6,28.6,28.6s28.6-12.8,28.6-28.6C58.3,14.6,45.5,1.8,29.7,1.8z
	 M38.4,38.5c-0.8,0.8-2,0.8-2.8,0l-5.5-5.3l-5.3,5.5c-0.8,0.8-2,0.8-2.8,0c-0.8-0.8-0.8-2,0-2.8l5.3-5.5l-5.5-5.3
	c-0.8-0.8-0.8-2,0-2.8c0.8-0.8,2-0.8,2.8,0l5.5,5.3l5.3-5.5c0.8-0.8,2-0.8,2.8,0c0.8,0.8,0.8,2,0,2.8L33,30.3l5.5,5.3
	C39.2,36.4,39.2,37.7,38.4,38.5z"/>
</svg>
