<?xml version="1.0" encoding="utf-8"?>
<!-- Generator: Adobe Illustrator 22.1.0, SVG Export Plug-In . SVG Version: 6.00 Build 0)  -->
<svg version="1.1" id="Capa_1" xmlns="http://www.w3.org/2000/svg" xmlns:xlink="http://www.w3.org/1999/xlink" x="0px" y="0px"
	 viewBox="0 0 60 60" style="enable-background:new 0 0 60 60;" xml:space="preserve">
<style type="text/css">
	.st0{fill:#FFFFFF;}
	.st1{fill:#151515;}
	.st2{fill:#030101;}
	.st3{fill:none;stroke:#000000;stroke-miterlimit:10;}
	.st4{stroke:#000000;stroke-miterlimit:10;}
	.st5{fill:none;stroke:#272525;stroke-width:2;stroke-linecap:round;stroke-linejoin:round;stroke-miterlimit:10;}
	.st6{fill:#272525;stroke:#272525;stroke-width:3;stroke-miterlimit:10;}
	.st7{opacity:0;clip-path:url(#SVGID_2_);fill-rule:evenodd;clip-rule:evenodd;fill:#FFFFFF;}
	.st8{clip-path:url(#SVGID_4_);}
	.st9{clip-path:url(#SVGID_6_);}
	.st10{fill:#211915;}
	.st11{fill:none;}
</style>
<g>
	<path d="M6.6,11.5h7.1c5.1,0,8.6,3.1,8.6,7.8c0,4.7-3.5,7.8-8.6,7.8H6.6V11.5z M13.5,24.1c3.1,0,5.1-1.9,5.1-4.8c0-3-2-4.8-5.1-4.8
		h-3.3v9.7H13.5z"/>
	<path d="M35.1,23.8h-7.3l-1.4,3.3h-3.7l7-15.6h3.6l7,15.6h-3.8L35.1,23.8z M33.9,21l-2.5-6L29,21H33.9z"/>
	<path d="M48.4,21.6v5.5h-3.6v-5.6l-6-10h3.8l4.2,6.9l4.2-6.9h3.5L48.4,21.6z"/>
	<path d="M5.6,40.5c0-4.6,3.6-8.1,8.5-8.1c4.9,0,8.5,3.4,8.5,8.1c0,4.7-3.6,8.1-8.5,8.1C9.2,48.6,5.6,45.1,5.6,40.5z M19,40.5
		c0-3-2.1-5-4.9-5s-4.9,2-4.9,5c0,3,2.1,5,4.9,5S19,43.5,19,40.5z"/>
	<path d="M29,35.6v4.1h7.2v2.9H29v5.7h-3.6V32.7h11.8v2.9H29z"/>
	<path d="M43.3,35.6v4.1h7.2v2.9h-7.2v5.7h-3.6V32.7h11.8v2.9H43.3z"/>
</g>
</svg>
