<?xml version="1.0" encoding="utf-8"?>
<!-- Generator: Adobe Illustrator 22.1.0, SVG Export Plug-In . SVG Version: 6.00 Build 0)  -->
<svg version="1.1" id="Capa_1" xmlns="http://www.w3.org/2000/svg" xmlns:xlink="http://www.w3.org/1999/xlink" x="0px" y="0px"
	 viewBox="0 0 60 60" style="enable-background:new 0 0 60 60;" xml:space="preserve">
<style type="text/css">
	.st0{fill:#FFFFFF;}
	.st1{fill:#151515;}
	.st2{fill:#030101;}
	.st3{fill:none;stroke:#000000;stroke-miterlimit:10;}
	.st4{stroke:#000000;stroke-miterlimit:10;}
	.st5{fill:none;stroke:#272525;stroke-width:2;stroke-linecap:round;stroke-linejoin:round;stroke-miterlimit:10;}
	.st6{fill:#272525;stroke:#272525;stroke-width:3;stroke-miterlimit:10;}
	.st7{opacity:0;clip-path:url(#SVGID_2_);fill-rule:evenodd;clip-rule:evenodd;fill:#FFFFFF;}
	.st8{clip-path:url(#SVGID_4_);}
	.st9{clip-path:url(#SVGID_6_);}
	.st10{fill:#211915;}
	.st11{fill:none;}
</style>
<g>
	<path d="M26.7,5.6c-2.8,0.3-5.4,1-7.9,2.1l2.7,4.7c1.6-0.7,3.4-1.2,5.2-1.4V5.6z"/>
	<path d="M4.3,27.9h5.5c0.2-1.8,0.7-3.5,1.4-5.2L6.4,20C5.3,22.5,4.6,25.1,4.3,27.9z"/>
	<path d="M51.7,20L47,22.8c0.7,1.6,1.2,3.4,1.4,5.2h5.5C53.6,25.1,52.8,22.5,51.7,20z"/>
	<path d="M13.6,18.6c1.1-1.4,2.3-2.7,3.8-3.8l-2.7-4.7c-2.2,1.6-4.2,3.6-5.8,5.8L13.6,18.6z"/>
	<path d="M39.4,7.7c-2.4-1.1-5.1-1.9-7.9-2.1v5.5c1.8,0.2,3.5,0.7,5.2,1.4L39.4,7.7z"/>
	<path d="M48.4,32.7c-1.2,9.6-9.4,17-19.3,17c-9.9,0-18.1-7.4-19.3-17H4.3c1.2,12.6,11.9,22.5,24.8,22.5c12.9,0,23.6-9.9,24.8-22.5
		H48.4z"/>
	<path d="M40.8,14.8c1.4,1.1,2.7,2.3,3.8,3.8l4.7-2.7c-1.6-2.2-3.6-4.2-5.8-5.8L40.8,14.8z"/>
	<path d="M40.8,18.6l-10,7.4c-0.5-0.2-1.1-0.3-1.7-0.3c-2.6,0-4.7,2.1-4.7,4.7c0,2.6,2.1,4.7,4.7,4.7c2.6,0,4.7-2.1,4.7-4.7
		c0-0.6-0.1-1.2-0.3-1.7L40.8,18.6z"/>
</g>
</svg>
