<?xml version="1.0" encoding="utf-8"?>
<!-- Generator: Adobe Illustrator 22.1.0, SVG Export Plug-In . SVG Version: 6.00 Build 0)  -->
<svg version="1.1" id="Capa_1" xmlns="http://www.w3.org/2000/svg" xmlns:xlink="http://www.w3.org/1999/xlink" x="0px" y="0px"
	 viewBox="0 0 60 60" style="enable-background:new 0 0 60 60;" xml:space="preserve">
<style type="text/css">
	.st0{fill:#FFFFFF;}
	.st1{fill:#151515;}
	.st2{fill:#030101;}
	.st3{fill:none;stroke:#000000;stroke-miterlimit:10;}
	.st4{stroke:#000000;stroke-miterlimit:10;}
	.st5{fill:none;stroke:#272525;stroke-width:2;stroke-linecap:round;stroke-linejoin:round;stroke-miterlimit:10;}
	.st6{fill:#272525;stroke:#272525;stroke-width:3;stroke-miterlimit:10;}
	.st7{opacity:0;clip-path:url(#SVGID_2_);fill-rule:evenodd;clip-rule:evenodd;fill:#FFFFFF;}
	.st8{clip-path:url(#SVGID_4_);}
	.st9{clip-path:url(#SVGID_6_);}
	.st10{fill:#211915;}
	.st11{fill:none;}
</style>
<path d="M12.7,39.6c-1.6,0-3.2,0-4.7,0c-1.2,0-1.7-0.5-1.7-1.7c0-4.8,0-9.5,0-14.3c0-1.5,0.4-1.9,1.9-1.9c1.4,0,2.9,0,4.4,0
	c0-0.4,0-0.7,0-1c0-3.8,0-7.7,0-11.5c0-4.6,3.3-8,7.9-8c6.9,0,13.8,0,20.7,0c2.4,0,4.5,0.7,6.2,2.5c1.3,1.4,2,3.2,2,5.1
	c0,9,0,17.9,0,26.9c0,5.4,0,10.9,0,16.3c0,4.4-3.3,7.8-7.8,7.8c-4.5,0-9,0-13.6,0c-2.6,0-5.1,0-7.7,0c-3.7,0-6.6-2.3-7.6-5.9
	c-0.2-0.6-0.2-1.3-0.2-2c0-3.8,0-7.6,0-11.4C12.7,40.2,12.7,40,12.7,39.6z M46.6,11.2c0.2,0,0.4,0,0.7,0c0-0.8,0-1.6,0-2.4
	c-0.1-3-2.4-5.3-5.4-5.4c-0.9,0-1.8,0-2.7,0c-5,0-18.7-0.2-19.9,0.1c-3.8,0.8-4.8,4-4.2,7.6c0.1,0,0.2,0,0.3,0
	C20.5,11.2,41.6,11.2,46.6,11.2z M24.7,39.6c0,1,0,1.9,0,2.8c0,0.7-0.2,1.3-0.9,1.6c-0.7,0.3-1.3,0-1.9-0.5
	c-1.2-1.2-2.4-2.4-3.6-3.6c-0.2-0.1-0.3-0.3-0.5-0.4c-0.9,0-1.9,0-2.9,0c0,2.7,0,5.3,0,7.9c0.3,0,0.5,0,0.7,0c10.3,0,20.5,0,30.8,0
	c0.7,0,0.8-0.2,0.8-0.8c0-10.8,0-21.7,0-32.5c0-0.3,0-0.5-0.1-0.8c-10.8,0-21.5,0-32.2,0c0,2.8,0,5.5,0,8.3c0.4,0,0.7,0,0.9,0
	c4,0,8.1,0,12.1,0c1.4,0,1.9,0.5,1.9,1.9c0,2.4,0,4.7,0,7.1c0,2.4,0,4.8,0,7.2c0,1.2-0.5,1.7-1.8,1.7C27.1,39.7,26,39.6,24.7,39.6z
	 M8.6,23.9c0,0.3,0,0.6,0,0.9c0,4,0,8,0,11.9c0,0.6,0.2,0.7,0.7,0.7c2.8,0,5.6,0,8.4,0c0.9,0,1.6,0.2,2.1,0.9
	c0.8,0.9,1.6,1.7,2.4,2.6c0.1,0,0.2-0.1,0.2-0.1c0-0.7,0-1.3,0-2c0-0.8,0.5-1.3,1.3-1.3c0.9-0.1,1.8,0,2.7-0.1c0.4,0,0.8,0,1.2,0
	c0-4.6,0-9.1,0-13.6C21.4,23.9,15.1,23.9,8.6,23.9z M15,49.9c0,0.8,0,1.5,0,2.2c0,3.1,2.4,5.5,5.5,5.5c1.5,0,3,0,4.5,0
	c5.7,0,11.3,0,17,0c0.7,0,1.4-0.1,2-0.4c3.2-1.5,3.7-4,3.2-7.3C36.5,49.9,25.8,49.9,15,49.9z"/>
<path d="M14.1,29.4c0.8,0,1.4,0.4,1.4,1.1c0,0.7-0.6,1.1-1.4,1.1c-0.8,0-1.3-0.5-1.3-1.1C12.7,29.9,13.3,29.4,14.1,29.4z"/>
<path d="M18.2,29.4c0.8,0,1.3,0.5,1.3,1.1c0,0.7-0.6,1.1-1.3,1.1c-0.8,0-1.3-0.4-1.3-1.1C16.9,29.8,17.4,29.4,18.2,29.4z"/>
<path d="M22.3,29.4c0.8,0,1.3,0.4,1.3,1.1c0,0.7-0.5,1.1-1.3,1.1c-0.8,0-1.3-0.4-1.3-1.1C21,29.8,21.4,29.4,22.3,29.4z"/>
<path d="M28.7,8.5c-0.4-0.3-0.7-0.6-1.1-1c0.1-0.1,0.2-0.2,0.2-0.3c0.1-0.7,0.5-1,1.1-1c1.5,0,3,0,4.5,0c0.7,0,1.1,0.5,1.1,1.1
	c0,0.6-0.4,1.1-1.1,1.1c-1.3,0-2.5,0-3.8,0C29.3,8.4,29,8.5,28.7,8.5z"/>
</svg>
