<?xml version="1.0" encoding="utf-8"?>
<!-- Generator: Adobe Illustrator 22.1.0, SVG Export Plug-In . SVG Version: 6.00 Build 0)  -->
<svg version="1.1" id="Capa_1" xmlns="http://www.w3.org/2000/svg" xmlns:xlink="http://www.w3.org/1999/xlink" x="0px" y="0px"
	 viewBox="0 0 60 60" style="enable-background:new 0 0 60 60;" xml:space="preserve">
<style type="text/css">
	.st0{fill:#FFFFFF;}
	.st1{fill:#151515;}
	.st2{fill:#030101;}
	.st3{fill:none;stroke:#000000;stroke-miterlimit:10;}
	.st4{stroke:#000000;stroke-miterlimit:10;}
	.st5{fill:none;stroke:#272525;stroke-width:2;stroke-linecap:round;stroke-linejoin:round;stroke-miterlimit:10;}
	.st6{fill:#272525;stroke:#272525;stroke-width:3;stroke-miterlimit:10;}
	.st7{opacity:0;clip-path:url(#SVGID_2_);fill-rule:evenodd;clip-rule:evenodd;fill:#FFFFFF;}
	.st8{clip-path:url(#SVGID_4_);}
	.st9{clip-path:url(#SVGID_6_);}
	.st10{fill:#211915;}
	.st11{fill:none;}
</style>
<path d="M11.2,53.4c0.8-3.8,1.4-7.8,2.3-11.7c0.7-2.9,0.2-5-2.2-7c-3-2.4-5.7-5.1-8.4-7.8c-2.5-2.7-1.9-4.9,1.7-5.7
	c4.1-0.8,8.3-0.9,12.3-1.8c1.7-0.4,3.7-1.9,4.6-3.4c2-3.2,3.2-6.9,5.1-10.3c0.7-1.3,2.2-2.7,3.5-2.9c0.9-0.1,2.4,1.5,3,2.7
	c1.8,3.4,3,7.1,5.1,10.3c1,1.6,3.2,3.1,5.1,3.6c3.8,1,7.9,1,11.8,1.7c3.7,0.7,4.4,2.8,1.9,5.5c-2.8,3-6.2,5.6-8.9,8.7
	c-1.2,1.4-1.9,3.7-1.8,5.6c0.4,4,1.6,7.8,2.1,11.8c0.6,4-1.3,5.4-4.9,3.7c-3.7-1.8-7.2-4.2-11-5.8c-1.5-0.7-3.8-0.6-5.4,0
	c-3.8,1.7-7.3,4-11,5.9C13.1,58.2,11.6,56.8,11.2,53.4z"/>
</svg>
