<?xml version="1.0" encoding="utf-8"?>
<!-- Generator: Adobe Illustrator 22.1.0, SVG Export Plug-In . SVG Version: 6.00 Build 0)  -->
<svg version="1.1" id="Capa_1" xmlns="http://www.w3.org/2000/svg" xmlns:xlink="http://www.w3.org/1999/xlink" x="0px" y="0px"
	 viewBox="0 0 60 60" style="enable-background:new 0 0 60 60;" xml:space="preserve">
<style type="text/css">
	.st0{fill:#FFFFFF;}
	.st1{fill:#151515;}
	.st2{fill:#030101;}
	.st3{fill:none;stroke:#000000;stroke-miterlimit:10;}
	.st4{stroke:#000000;stroke-miterlimit:10;}
	.st5{fill:none;stroke:#272525;stroke-width:2;stroke-linecap:round;stroke-linejoin:round;stroke-miterlimit:10;}
	.st6{fill:#272525;stroke:#272525;stroke-width:3;stroke-miterlimit:10;}
	.st7{opacity:0;clip-path:url(#SVGID_2_);fill-rule:evenodd;clip-rule:evenodd;fill:#FFFFFF;}
	.st8{clip-path:url(#SVGID_4_);}
	.st9{clip-path:url(#SVGID_6_);}
	.st10{fill:#211915;}
	.st11{fill:none;}
</style>
<g>
	<path d="M33,17.2c2.2,2.6,4.5,4.9,6.3,7.6c1.3,1.8,2.2,4,2.9,6.1c0.7,2.2-0.3,3.3-2.6,3.8c-3.8,0.7-7.5,1.4-11.6,2.2
		c0.3,0.8,0.6,1.6,1,2.4c2,4.4,4.1,8.7,6.1,13.1c1.1,2.4,0.5,4.4-1.5,5.4c-1.9,0.9-3.4,0.2-4.6-2.3c-1.2-2.3-2.3-4.7-3.4-7.1
		c-1.1-2.3-2.2-4.7-3.6-7.7c-1.8,4.6-3.4,8.5-5,12.5c-0.3,0.8-0.6,1.7-0.9,2.6c-0.9,2.5-2.3,3.4-4.4,2.7c-2.1-0.7-3-2.6-2.1-5
		c1.7-4.6,3.2-9.3,5.3-13.7c4.1-8.5,8.4-16.9,13.1-25.2c4-7,10.7-10.3,18.6-11.3c2-0.3,3.4,0.6,3.8,2.6c0.4,2.3-1.2,2.7-3,2.9
		C41.5,9.5,36.4,11.9,33,17.2z M30.6,30.8c2.3-0.5,3.7-0.8,5.5-1.1c-0.9-1.2-1.5-2-2.3-3C32.8,28,31.9,29.1,30.6,30.8z"/>
	<path d="M41.3,21.9c-2.6-0.1-4.6-2.2-4.5-4.8c0.1-2.6,2.2-4.6,4.8-4.5c2.7,0.1,4.7,2.2,4.6,5C46,20.2,44,22,41.3,21.9z"/>
</g>
</svg>
