<?xml version="1.0" encoding="utf-8"?>
<!-- Generator: Adobe Illustrator 22.1.0, SVG Export Plug-In . SVG Version: 6.00 Build 0)  -->
<svg version="1.1" id="Capa_1" xmlns="http://www.w3.org/2000/svg" xmlns:xlink="http://www.w3.org/1999/xlink" x="0px" y="0px"
	 viewBox="0 0 60 60" style="enable-background:new 0 0 60 60;" xml:space="preserve">
<style type="text/css">
	.st0{fill:#FFFFFF;}
	.st1{fill:#151515;}
	.st2{fill:#030101;}
	.st3{fill:none;stroke:#000000;stroke-miterlimit:10;}
	.st4{stroke:#000000;stroke-miterlimit:10;}
	.st5{fill:none;stroke:#272525;stroke-width:2;stroke-linecap:round;stroke-linejoin:round;stroke-miterlimit:10;}
	.st6{fill:#272525;stroke:#272525;stroke-width:3;stroke-miterlimit:10;}
	.st7{opacity:0;clip-path:url(#SVGID_2_);fill-rule:evenodd;clip-rule:evenodd;fill:#FFFFFF;}
	.st8{clip-path:url(#SVGID_4_);}
	.st9{clip-path:url(#SVGID_6_);}
	.st10{fill:#211915;}
	.st11{fill:none;}
</style>
<g>
	<path d="M1.2,28c4.5,0,8.9,0,13.3,0C11.9,36.7,14,43.8,22,48.4c6,3.4,12.2,2.9,17.7-1.4c6.2-4.9,7.7-11.4,5.3-18.9
		c4.4,0,8.8,0,13.3,0c0,0.4,0,0.7,0,1.1c0,7.4,0,14.7,0,22.1c0,4.4-3,7.4-7.3,7.4c-14.2,0-28.3,0-42.5,0c-4.4,0-7.3-3-7.3-7.4
		c0-7.4,0-14.8,0-22.2C1.2,28.8,1.2,28.5,1.2,28z"/>
	<path d="M58.3,23.9c-1.1,0-2.1,0-3.1,0c-4,0-7.9,0-11.9,0c-0.5,0-1.1-0.3-1.5-0.7c-6.6-7.2-17.6-7.2-24.1,0
		c-0.3,0.3-0.8,0.6-1.2,0.7c-4.9,0-9.9,0-14.8,0c-0.1,0-0.3,0-0.4-0.1c0-0.2-0.1-0.5-0.1-0.7c0-4.8,0-9.7,0-14.5c0-2.9,1.3-5,4-6.5
		c0,3.9,0,7.7,0,11.5c1.4,0,2.7,0,4.1,0c0-4,0-8,0-12.1c1.4,0,2.6,0,4,0c0,4,0,8,0,12.1c1.4,0,2.7,0,4.1,0c0-4,0-8,0-12.1
		c1.4,0,2.6,0,4.1,0c0,4,0,8,0,12.1c1.4,0,2.7,0,4.1,0c0-4,0-8,0-12.2c0.5,0,0.9,0,1.2,0c8,0,16,0,24,0c4.5,0,7.4,2.9,7.5,7.5
		c0,4.6,0,9.3,0,13.9C58.3,23.1,58.3,23.4,58.3,23.9z M54.2,11.7c0-1.3,0-2.7,0-4c0-1.3-0.8-2.1-2.1-2.1c-2.6,0-5.2,0-7.9,0
		c-1.4,0-2.2,0.8-2.2,2.2c0,2.6,0,5.2,0,7.9c0,1.3,0.8,2.2,2.1,2.2c2.7,0,5.3,0,8,0c1.3,0,2.1-0.8,2.1-2.1
		C54.2,14.4,54.2,13.1,54.2,11.7z"/>
	<path d="M29.8,21.9c6.7,0,12.1,5.5,12.1,12.2c0,6.8-5.5,12.3-12.2,12.3c-6.7,0-12.2-5.5-12.2-12.1C17.5,27.3,22.9,21.9,29.8,21.9z
		 M37.9,34.2c0-4.5-3.6-8.2-8-8.2c-4.5,0-8.2,3.6-8.2,8.2c0,4.4,3.6,8.1,8.1,8.1C34.2,42.3,37.9,38.7,37.9,34.2z"/>
	<path d="M50.1,9.7c0,1.3,0,2.6,0,3.9c-1.3,0-2.6,0-3.9,0c0-1.3,0-2.6,0-3.9C47.4,9.7,48.7,9.7,50.1,9.7z"/>
	<path d="M29.7,38.2c-2.3,0-4.1-1.8-4.1-4.1c0-2.3,1.8-4.1,4.1-4.1c2.3,0,4.1,1.8,4.1,4.1C33.8,36.4,32,38.2,29.7,38.2z"/>
</g>
</svg>
