<?xml version="1.0" encoding="utf-8"?>
<!-- Generator: Adobe Illustrator 22.1.0, SVG Export Plug-In . SVG Version: 6.00 Build 0)  -->
<svg version="1.1" id="Capa_1" xmlns="http://www.w3.org/2000/svg" xmlns:xlink="http://www.w3.org/1999/xlink" x="0px" y="0px"
	 viewBox="0 0 60 60" style="enable-background:new 0 0 60 60;" xml:space="preserve">
<style type="text/css">
	.st0{fill:#FFFFFF;}
	.st1{fill:#151515;}
	.st2{fill:#030101;}
	.st3{fill:none;stroke:#000000;stroke-miterlimit:10;}
	.st4{stroke:#000000;stroke-miterlimit:10;}
	.st5{fill:none;stroke:#272525;stroke-width:2;stroke-linecap:round;stroke-linejoin:round;stroke-miterlimit:10;}
	.st6{fill:#272525;stroke:#272525;stroke-width:3;stroke-miterlimit:10;}
	.st7{opacity:0;clip-path:url(#SVGID_2_);fill-rule:evenodd;clip-rule:evenodd;fill:#FFFFFF;}
	.st8{clip-path:url(#SVGID_4_);}
	.st9{clip-path:url(#SVGID_6_);}
	.st10{fill:#211915;}
	.st11{fill:none;}
</style>
<g>
	<path class="st0" d="M47.3,43.6c0-3.5-2.8-6.4-6.4-6.4c-3.5,0-6.4,2.8-6.4,6.3c0,3.5,2.9,6.4,6.4,6.4C44.4,50,47.3,47.1,47.3,43.6z
		"/>
	<path d="M27.2,1.2c1.2,0.3,2.3,0.7,3.4,1.4c1.7,1.1,3.1,2.5,4.3,4.1c0.6,0.8,1.2,1.4,1.8,2.2c1.4,1.7,2.6,3.7,3.6,5.7
		c1.3,2.7,2.3,5.5,2.9,8.4c0.6,2.4,0.8,4.9,0.9,7.4c0.1,2.6-1,4.5-3.4,5.4c-1.6,0.7-3.3,0.6-5-0.1c-0.4-0.2-0.8-0.4-1.1-0.6
		c-0.1-0.1-0.2-0.1-0.3-0.2c-1.8-0.3-3.7-0.7-5.5-1c-2.9-0.3-5.8-0.1-8.7,0.9c-1.7,0.6-3.3,1.4-4.8,2.4c-0.5,0.3-1,0.6-1.6,0.7
		c-1.1,0.2-2.2-0.5-2.8-1.6c-0.9-1.7-0.5-3.5,1.1-4.6c4.5-3.1,9.5-4.5,14.9-4.3c1.5,0.1,3,0.3,4.4,0.4c0.1,0,0.2,0,0.4,0
		c-0.4-3.6-1.7-6.8-3.6-9.8c0,0.2,0,0.3,0,0.5c0,2.2-0.1,4.5-0.1,6.7c0,0.4-0.1,0.5-0.5,0.5c-2.4-0.1-4.8,0.2-7.2,0.7
		c-0.1,0-0.1,0-0.2,0c0-0.2,0-0.4,0-0.6c0-3.6,0-7.2,0-10.8c0-1.7-0.1-3.5-0.1-5.2c0-1.5,0.1-3,0.6-4.4c0.7-2.3,2.3-3.8,4.7-4.3
		c0.1,0,0.1,0,0.2-0.1C26.3,1.2,26.8,1.2,27.2,1.2z"/>
	<path d="M21.7,57c-1.2-0.8-1.6-2-1.6-3.4c0-4.5,0.1-9,0.2-13.4c0-1,0-2.1,0.1-3.1c0-0.2,0.1-0.4,0.3-0.4c2.2-0.9,4.5-1.3,6.9-1.3
		c0.2,0.2,0.3,0.3,0.5,0.5c0,5.9,0.1,11.8,0.1,17.7c0,1.1-0.2,2.1-1,2.9c-0.8,0.8-1.8,1.1-1.8,1.1C23.4,57.8,22,57.2,21.7,57z"/>
	<path d="M47.3,43.6c0,3.5-2.8,6.3-6.3,6.4c-3.5,0-6.4-2.9-6.4-6.4c0-3.5,2.9-6.3,6.4-6.3C44.4,37.3,47.3,40.1,47.3,43.6z"/>
</g>
</svg>
