<?xml version="1.0" encoding="utf-8"?>
<!-- Generator: Adobe Illustrator 22.1.0, SVG Export Plug-In . SVG Version: 6.00 Build 0)  -->
<svg version="1.1" id="Capa_1" xmlns="http://www.w3.org/2000/svg" xmlns:xlink="http://www.w3.org/1999/xlink" x="0px" y="0px"
	 viewBox="0 0 60 60" style="enable-background:new 0 0 60 60;" xml:space="preserve">
<style type="text/css">
	.st0{fill:#FFFFFF;}
	.st1{fill:#151515;}
	.st2{fill:#030101;}
	.st3{fill:none;stroke:#000000;stroke-miterlimit:10;}
	.st4{stroke:#000000;stroke-miterlimit:10;}
	.st5{fill:none;stroke:#272525;stroke-width:2;stroke-linecap:round;stroke-linejoin:round;stroke-miterlimit:10;}
	.st6{fill:#272525;stroke:#272525;stroke-width:3;stroke-miterlimit:10;}
	.st7{opacity:0;clip-path:url(#SVGID_2_);fill-rule:evenodd;clip-rule:evenodd;fill:#FFFFFF;}
	.st8{clip-path:url(#SVGID_4_);}
	.st9{clip-path:url(#SVGID_6_);}
	.st10{fill:#211915;}
	.st11{fill:none;}
</style>
<g>
	<path d="M56.2,51.2H5.3c-0.8,0-1.5-0.6-1.5-1.5V8.6c0-0.8,0.6-1.5,1.5-1.5h50.9c0.8,0,1.5,0.6,1.5,1.5v41.1
		C57.6,50.5,57,51.2,56.2,51.2z M6.7,48.3h48V10.1h-48V48.3z"/>
</g>
<g>
	<path d="M30.7,30.6c-0.3,0-0.6-0.1-0.9-0.3L4.4,9.8c-0.6-0.5-0.7-1.4-0.2-2s1.4-0.7,2-0.2l24.6,19.8L55.3,7.5
		c0.6-0.5,1.5-0.4,2,0.2c0.5,0.6,0.4,1.5-0.2,2L31.6,30.3C31.4,30.5,31,30.6,30.7,30.6z"/>
</g>
</svg>
