<?xml version="1.0" encoding="utf-8"?>
<!-- Generator: Adobe Illustrator 22.1.0, SVG Export Plug-In . SVG Version: 6.00 Build 0)  -->
<svg version="1.1" id="Capa_1" xmlns="http://www.w3.org/2000/svg" xmlns:xlink="http://www.w3.org/1999/xlink" x="0px" y="0px"
	 viewBox="0 0 60 60" style="enable-background:new 0 0 60 60;" xml:space="preserve">
<style type="text/css">
	.st0{fill:#FFFFFF;}
	.st1{fill:#151515;}
	.st2{fill:#030101;}
	.st3{fill:none;stroke:#000000;stroke-miterlimit:10;}
	.st4{stroke:#000000;stroke-miterlimit:10;}
	.st5{fill:none;stroke:#272525;stroke-width:2;stroke-linecap:round;stroke-linejoin:round;stroke-miterlimit:10;}
	.st6{fill:#272525;stroke:#272525;stroke-width:3;stroke-miterlimit:10;}
	.st7{opacity:0;clip-path:url(#SVGID_2_);fill-rule:evenodd;clip-rule:evenodd;fill:#FFFFFF;}
	.st8{clip-path:url(#SVGID_4_);}
	.st9{clip-path:url(#SVGID_6_);}
	.st10{fill:#211915;}
	.st11{fill:none;}
</style>
<g id="PRfRhM_2_">
	<g>
		<path class="st0" d="M38.1,44.3c-1.2-0.2-2.1-0.2-3-0.5c-1.4-0.4-2.7-1-4-1.6c-0.7-0.3-1.4-0.3-2.1,0c-2.3,0.9-4.5,2.5-7.3,1.7
			c-0.5,4.2-1.1,8.3-1.6,12.7c3.2-2.1,6.2-4.1,9.1-6.1c0.6-0.4,1-0.4,1.7,0c2.6,1.8,5.3,3.5,7.9,5.3c0.3,0.2,0.7,0.4,1.2,0.8
			C39.3,52.3,38.7,48.2,38.1,44.3z"/>
		<path d="M37.3,3.3c1,0.5,1.6,1.4,1.9,2.4C39.5,6.9,40,8,40.4,9.1c0.5,1.3,1.3,2.1,2.6,2.6c1.2,0.4,2.5,0.9,3.6,1.4
			c1.9,0.8,2.4,2.2,1.5,4.1c-0.3,0.6-0.6,1.3-1,1.9c-1.2,1.8-1.3,3.6-0.3,5.5c0.4,0.9,0.7,1.9,1.1,2.9c0.6,1.8,0,3.3-1.8,4
			c-1.2,0.5-2.4,0.9-3.5,1.4c-1.2,0.4-2,1.2-2.5,2.4c-0.4,1.1-0.8,2.1-1.2,3.2c-0.8,2.1-2.4,2.7-4.3,1.7c-1.4-0.7-2.7-1.3-4.1-1.9
			c-0.4-0.2-0.9-0.2-1.3,0c-1.6,0.6-3.1,1.3-4.7,2.1c-1.5,0.7-2.7,0.3-3.3-1.3c-0.5-1.4-1-2.7-1.6-4.1c-0.4-1.2-1.2-2-2.4-2.4
			c-1.2-0.4-2.4-0.9-3.6-1.4c-2-0.8-2.5-2.3-1.6-4.2c0.5-1.1,1.1-2.2,1.6-3.3c0.5-0.9,0.5-1.8,0-2.7c-0.6-1.3-1.2-2.5-1.7-3.8
			c-0.8-1.7-0.7-3.8,1.9-4.3c3.6-0.7,5.9-2.7,6.5-6.5c0.2-1.5,1.3-2.4,2.5-3.1c0.4,0,0.8,0,1.2,0c1.9,0.8,3.7,1.6,5.6,2.3
			c0.5,0.2,1.3,0.1,1.8-0.1c1.6-0.7,3.2-1.5,4.7-2.2C36.5,3.3,36.9,3.3,37.3,3.3z M30,35.5c7.4,0,13.5-6.1,13.5-13.4
			c0-7.4-6.2-13.5-13.5-13.4C22.6,8.7,16.6,14.7,16.6,22C16.5,29.4,22.6,35.5,30,35.5z"/>
		<path d="M38.1,42.3c0.6,3.9,1.2,8,1.9,12.4c-0.5-0.3-0.9-0.6-1.2-0.8c-2.6-1.8-5.3-3.5-7.9-5.3c-0.6-0.4-1-0.5-1.7,0
			c-2.9,2-5.9,4-9.1,6.1c0.6-4.4,1.1-8.5,1.6-12.7c2.8,0.8,5-0.8,7.3-1.7c0.8-0.3,1.4-0.3,2.1,0c1.3,0.6,2.6,1.1,4,1.6
			C35.9,42.1,36.9,42.1,38.1,42.3z"/>
		<path d="M40,22c0,5.5-4.4,10-9.9,10c-5.5,0-10-4.4-10-10c0-5.6,4.4-10,9.9-10C35.5,12.1,39.9,16.5,40,22z"/>
	</g>
</g>
</svg>
