<?xml version="1.0" encoding="utf-8"?>
<!-- Generator: Adobe Illustrator 22.1.0, SVG Export Plug-In . SVG Version: 6.00 Build 0)  -->
<svg version="1.1" id="Capa_1" xmlns="http://www.w3.org/2000/svg" xmlns:xlink="http://www.w3.org/1999/xlink" x="0px" y="0px"
	 viewBox="0 0 60 60" style="enable-background:new 0 0 60 60;" xml:space="preserve">
<style type="text/css">
	.st0{fill:#FFFFFF;}
	.st1{fill:#151515;}
	.st2{fill:#030101;}
	.st3{fill:none;stroke:#000000;stroke-miterlimit:10;}
	.st4{stroke:#000000;stroke-miterlimit:10;}
	.st5{fill:none;stroke:#272525;stroke-width:2;stroke-linecap:round;stroke-linejoin:round;stroke-miterlimit:10;}
	.st6{fill:#272525;stroke:#272525;stroke-width:3;stroke-miterlimit:10;}
	.st7{opacity:0;clip-path:url(#SVGID_2_);fill-rule:evenodd;clip-rule:evenodd;fill:#FFFFFF;}
	.st8{clip-path:url(#SVGID_4_);}
	.st9{clip-path:url(#SVGID_6_);}
	.st10{fill:#211915;}
	.st11{fill:none;}
</style>
<g>
	<path d="M54.2,21.2h-1.6v17.3c0,2.7-1.6,5.1-4.7,5.1H17.2v0.8c0,2.4,2.7,4.8,5.5,4.8h23.5l9,5.3l-1.3-5.3h0.3c2.8,0,4-2.4,4-4.8
		V25.3C58.3,22.9,57,21.2,54.2,21.2z"/>
	<path d="M43.4,9.2H7.6c-3.1,0-6.8,2.8-6.8,5.5v21.7c0,2.5,3.1,4.3,6,4.5l-1.9,7.3L17.2,41h26.2c3.1,0,6.1-1.9,6.1-4.6V18.8v-4.1
		C49.4,12,46.5,9.2,43.4,9.2z M13,27.5c-1.8,0-3.2-1.4-3.2-3.2c0-1.8,1.4-3.2,3.2-3.2c1.8,0,3.2,1.4,3.2,3.2
		C16.3,26,14.8,27.5,13,27.5z M25.1,27.5c-1.8,0-3.2-1.4-3.2-3.2c0-1.8,1.4-3.2,3.2-3.2s3.2,1.4,3.2,3.2
		C28.3,26,26.9,27.5,25.1,27.5z M37.2,27.5c-1.8,0-3.2-1.4-3.2-3.2c0-1.8,1.4-3.2,3.2-3.2c1.8,0,3.2,1.4,3.2,3.2
		C40.4,26,39,27.5,37.2,27.5z"/>
</g>
</svg>
