<?xml version="1.0" encoding="utf-8"?>
<!-- Generator: Adobe Illustrator 22.1.0, SVG Export Plug-In . SVG Version: 6.00 Build 0)  -->
<svg version="1.1" id="Capa_1" xmlns="http://www.w3.org/2000/svg" xmlns:xlink="http://www.w3.org/1999/xlink" x="0px" y="0px"
	 viewBox="0 0 60 60" style="enable-background:new 0 0 60 60;" xml:space="preserve">
<style type="text/css">
	.st0{fill:#FFFFFF;}
	.st1{fill:#151515;}
	.st2{fill:#030101;}
	.st3{fill:none;stroke:#000000;stroke-miterlimit:10;}
	.st4{stroke:#000000;stroke-miterlimit:10;}
	.st5{fill:none;stroke:#272525;stroke-width:2;stroke-linecap:round;stroke-linejoin:round;stroke-miterlimit:10;}
	.st6{fill:#272525;stroke:#272525;stroke-width:3;stroke-miterlimit:10;}
	.st7{opacity:0;clip-path:url(#SVGID_2_);fill-rule:evenodd;clip-rule:evenodd;fill:#FFFFFF;}
	.st8{clip-path:url(#SVGID_4_);}
	.st9{clip-path:url(#SVGID_6_);}
	.st10{fill:#211915;}
	.st11{fill:none;}
</style>
<g id="XMLID_3928_">
	<path id="XMLID_3934_" d="M0.3,51.5c0.2,0.2,0.4,0.3,0.7,0.3l15.5,0c-0.2,1-0.3,2.1-0.3,3.3c0,0.3,0.1,0.5,0.3,0.7
		c0.2,0.2,0.4,0.3,0.7,0.3l21.4,0c0.5,0,0.9-0.4,1-0.9c0-0.1,0-1.5-0.2-3.4l15.6,0c0.5,0,0.9-0.4,1-0.9c0-0.3,0.2-8.2-4.7-12.7
		c-0.3-0.3-0.9-0.3-1.2-0.1c-0.1,0-5.8,4.3-11.1,0c-0.4-0.3-0.9-0.3-1.2,0c-0.1,0.1-1.7,1.5-3,4.2c-0.3-0.1-0.7-0.1-1,0.1
		c-0.2,0.2-5.8,4.3-11.1,0c-0.3-0.2-0.6-0.3-0.9-0.2c-0.7-1.5-1.6-2.9-2.9-4.1c-0.3-0.3-0.9-0.3-1.2-0.1c-0.1,0-5.8,4.3-11.1,0
		c-0.4-0.3-0.9-0.3-1.2,0C4.8,38.4,0.1,42.6,0,50.8C0,51.1,0.1,51.4,0.3,51.5z M38.3,40.2c5.1,3.5,10.2,1.1,12.1,0
		c2.9,3.1,3.4,7.8,3.5,9.7l-15,0c-0.5-2-1.4-4.2-2.9-6.1C36.8,42.1,37.7,40.8,38.3,40.2z M22,44.5c5.1,3.5,10.2,1.1,12.1,0
		c2.9,3.1,3.4,7.8,3.5,9.7l-19.4,0C18.5,49,20.9,45.7,22,44.5z M5.8,40.2c5.1,3.5,10.2,1.1,12.1,0c1,1.1,1.7,2.3,2.2,3.6
		c-1,1.2-2.3,3.2-3.1,6.1l-15,0C2.3,44.7,4.7,41.4,5.8,40.2z"/>
	<path id="XMLID_3929_" d="M11.7,37.4L11.7,37.4c2.4,0,4.7-1,6.5-2.7c0.2-0.2,0.5-0.5,0.7-0.8c0.7,4.4,4.5,7.8,9,7.8h0
		c2.4,0,4.7-1,6.5-2.7c1.4-1.4,2.3-3.3,2.6-5.3c1.7,2.2,4.3,3.6,7.3,3.6h0c2.4,0,4.7-1,6.5-2.7c1.7-1.7,2.7-4,2.7-6.5
		c0-5-4.1-9.2-9.2-9.2c-2.4,0-4.7,1-6.5,2.7c-1.4,1.4-2.3,3.3-2.6,5.3c-1.7-2.2-4.3-3.6-7.3-3.6c-2.4,0-4.7,1-6.5,2.7
		c-0.2,0.2-0.5,0.5-0.7,0.8c-0.7-4.4-4.5-7.8-9-7.8c-2.4,0-4.7,1-6.5,2.7c-1.7,1.7-2.7,4-2.7,6.5C2.5,33.3,6.6,37.4,11.7,37.4z
		 M39.1,23.1c1.4-1.4,3.2-2.1,5.1-2.1c4,0,7.2,3.2,7.2,7.2c0,1.9-0.8,3.7-2.1,5.1c-1.4,1.4-3.2,2.1-5.1,2.1h0c-4,0-7.2-3.2-7.2-7.2
		C37,26.3,37.7,24.5,39.1,23.1z M22.7,27.5c1.4-1.4,3.2-2.1,5.1-2.1c4,0,7.2,3.2,7.2,7.2c0,1.9-0.8,3.7-2.1,5.1
		c-1.4,1.4-3.2,2.1-5.1,2.1h0c-4,0-7.2-3.2-7.2-7.2C20.6,30.6,21.4,28.8,22.7,27.5z M6.6,23.1c1.4-1.4,3.2-2.1,5.1-2.1
		c4,0,7.2,3.2,7.2,7.2c0,1.9-0.8,3.7-2.1,5.1c-1.4,1.4-3.2,2.1-5.1,2.1h0c-4,0-7.2-3.2-7.2-7.2C4.5,26.3,5.2,24.5,6.6,23.1z"/>
</g>
</svg>
