<?xml version="1.0" encoding="utf-8"?>
<!-- Generator: Adobe Illustrator 22.1.0, SVG Export Plug-In . SVG Version: 6.00 Build 0)  -->
<svg version="1.1" id="Capa_1" xmlns="http://www.w3.org/2000/svg" xmlns:xlink="http://www.w3.org/1999/xlink" x="0px" y="0px"
	 viewBox="0 0 20 20" style="enable-background:new 0 0 20 20;" xml:space="preserve">
<style type="text/css">
	.st0{fill:#fff !important;}
</style>
<path class="st0" d="M17.9,6.7H1.7C0.9,6.7,0.2,6,0.2,5.1v0c0-0.9,0.7-1.6,1.6-1.6h16.2c0.9,0,1.6,0.7,1.6,1.6v0
	C19.5,6,18.8,6.7,17.9,6.7z"/>
<path class="st0" d="M17.9,11.5H1.7c-0.9,0-1.6-0.7-1.6-1.6v0c0-0.9,0.7-1.6,1.6-1.6h16.2c0.9,0,1.6,0.7,1.6,1.6v0
	C19.5,10.8,18.8,11.5,17.9,11.5z"/>
<path class="st0" d="M17.9,16.3H1.7c-0.9,0-1.6-0.7-1.6-1.6v0c0-0.9,0.7-1.6,1.6-1.6h16.2c0.9,0,1.6,0.7,1.6,1.6v0
	C19.5,15.6,18.8,16.3,17.9,16.3z"/>
</svg>
