<?xml version="1.0" encoding="utf-8"?>
<!-- Generator: Adobe Illustrator 22.1.0, SVG Export Plug-In . SVG Version: 6.00 Build 0)  -->
<svg version="1.1" id="Capa_1" xmlns="http://www.w3.org/2000/svg" xmlns:xlink="http://www.w3.org/1999/xlink" x="0px" y="0px"
	 viewBox="0 0 60 60" style="enable-background:new 0 0 60 60;" xml:space="preserve">
<style type="text/css">
	.st0{fill:#FFFFFF;}
	.st1{fill:#151515;}
	.st2{fill:#030101;}
	.st3{fill:none;stroke:#000000;stroke-miterlimit:10;}
	.st4{stroke:#000000;stroke-miterlimit:10;}
	.st5{fill:none;stroke:#272525;stroke-width:2;stroke-linecap:round;stroke-linejoin:round;stroke-miterlimit:10;}
	.st6{fill:#272525;stroke:#272525;stroke-width:3;stroke-miterlimit:10;}
	.st7{opacity:0;clip-path:url(#SVGID_2_);fill-rule:evenodd;clip-rule:evenodd;fill:#FFFFFF;}
	.st8{clip-path:url(#SVGID_4_);}
	.st9{clip-path:url(#SVGID_6_);}
	.st10{fill:#211915;}
	.st11{fill:none;}
</style>
<g>
	<path d="M5,23.8c0.2-1.1,0.9-1.8,1.6-2.5c0.4-0.4,0.8-0.8,1.2-1.2c1-1.1,2.1-1.8,3.7-1.5c0-0.2,0-0.3,0-0.4c-0.1-1,0.2-1.9,0.9-2.7
		c1.8-1.8,3.6-3.6,5.4-5.4c0.4-0.4,1-0.6,1.5-0.9c0.1-0.1,0.3-0.2,0.4-0.4c0.4-0.6,0.7-1.1,1-1.7c0.3-0.4,0.6-0.6,0.9-0.9
		c0.7-0.7,1.5-1.3,2.5-1.6c0.3,0,0.7,0,1,0c1,0.2,1.8,0.9,2.5,1.7c2.4,2.5,4.9,4.9,7.3,7.4c2.9,2.9,5.8,5.8,8.7,8.7
		c0.6,0.6,1.1,1.3,1.2,2.2c0.1,1.1-0.3,2-1.1,2.8c-1.1,1.1-2.2,2.2-3.3,3.3c-0.9,0.9-0.7,1.9,0.3,2.6c0.1,0.1,0.2,0.1,0.3,0.2
		c3.6,2.4,7.3,4.8,10.9,7.3c2.5,1.7,3.4,4.2,3.1,7.2c-0.7,5.7-7.4,8.5-12,5.1c-1.2-0.9-2-2.1-2.8-3.3c-2.1-3.1-4.2-6.3-6.3-9.5
		C33,39.3,32,39.2,31,40.2c-1.1,1.1-2.1,2.2-3.2,3.2c-0.4,0.4-0.9,0.8-1.4,1c-1.4,0.5-2.6,0.1-3.6-1C17.4,38,12,32.7,6.7,27.3
		c-0.7-0.7-1.4-1.5-1.7-2.5C5,24.5,5,24.2,5,23.8z M36.5,20c-4-4-7.9-7.9-12-12c-0.4,0.5-0.9,1-1.4,1.5c-0.1,0.1-0.1,0.4,0,0.5
		c0.5,1.2,1.1,2.3,1.6,3.5c0.1,0.2,0.1,0.5,0.1,0.7c-0.3,0-0.5,0-0.8-0.1c-1.3-0.6-2.5-1.2-3.7-1.8c-1.8,1.8-3.6,3.6-5.4,5.4
		c0.1,0.1,0.2,0.3,0.3,0.4c2.2,3.3,4.4,6.6,6.6,9.9c0.1,0.1,0.2,0.2,0.2,0.4c0,0.1,0,0.4,0,0.4c-0.1,0.1-0.3,0.1-0.5,0.1
		c-0.1,0-0.3-0.2-0.4-0.3c-3.3-2.2-6.5-4.4-9.8-6.7c-0.1-0.1-0.3-0.2-0.4-0.3c-0.8,0.8-1.7,1.7-2.4,2.4c3.9,3.9,7.9,7.9,11.9,11.9
		C25.7,30.8,31.1,25.4,36.5,20z M25.3,41.2c1.1-1.1,2.2-2.2,3.4-3.4c0.8-0.8,1.6-1.3,2.7-1.5c2-0.3,3.7,0.3,4.8,1.9
		c1.5,2.1,2.8,4.3,4.2,6.4c1.1,1.6,2.1,3.2,3.3,4.7c1.3,1.8,3,2.4,5,1.8c1.6-0.5,2.6-1.6,2.9-3.2c0.3-1.6-0.1-3.1-1.4-4.1
		c-1.4-1.2-3-2.2-4.5-3.2c-2.3-1.5-4.6-2.9-6.8-4.4c-2.3-1.5-3-4.3-1.7-6.7c0.3-0.4,0.6-0.8,1-1.2c1.1-1.1,2.2-2.2,3.3-3.3
		c-0.9-0.9-1.7-1.7-2.6-2.6c-5.4,5.4-10.8,10.8-16.2,16.2C23.6,39.5,24.4,40.3,25.3,41.2z"/>
	<path d="M46.7,48.6c1.1,0,1.9-0.9,1.9-2c0-1.1-0.9-1.9-2-1.9c-1.1,0-1.9,0.9-1.9,1.9C44.8,47.7,45.6,48.6,46.7,48.6z"/>
</g>
</svg>
