<?xml version="1.0" encoding="utf-8"?>
<!-- Generator: Adobe Illustrator 22.1.0, SVG Export Plug-In . SVG Version: 6.00 Build 0)  -->
<svg version="1.1" id="Capa_1" xmlns="http://www.w3.org/2000/svg" xmlns:xlink="http://www.w3.org/1999/xlink" x="0px" y="0px"
	 viewBox="0 0 125.1 60" style="enable-background:new 0 0 125.1 60;" xml:space="preserve">
<style type="text/css">
	.st0{fill:#FFFFFF;}
	.st1{fill:#151515;}
	.st2{fill:#030101;}
	.st3{fill:none;stroke:#000000;stroke-miterlimit:10;}
	.st4{stroke:#000000;stroke-miterlimit:10;}
	.st5{fill:none;stroke:#272525;stroke-width:2;stroke-linecap:round;stroke-linejoin:round;stroke-miterlimit:10;}
	.st6{fill:#272525;stroke:#272525;stroke-width:3;stroke-miterlimit:10;}
	.st7{opacity:0;clip-path:url(#SVGID_2_);fill-rule:evenodd;clip-rule:evenodd;fill:#FFFFFF;}
	.st8{clip-path:url(#SVGID_4_);}
	.st9{clip-path:url(#SVGID_6_);}
	.st10{fill:#211915;}
	.st11{fill:none;}
</style>
<g>
	<path class="st0" d="M86.7,37.8c-4.5,0-9,0-13.5,0c-1.1,0-2.7-0.3-2.5,1.5c0.1,0.6,1.5,1.4,2.4,1.4c9,0.1,18,0.1,26.9,0
		c0.8,0,1.6-1,2.4-1.5c-0.8-0.5-1.7-1.4-2.5-1.4C95.5,37.8,91.1,37.8,86.7,37.8z M89.1,28C89.1,28,89.1,28,89.1,28
		c-3.1,0-6.3,0-9.4,0c-2.5,0-4.9-0.1-7.4,0.1c-0.6,0-1.2,0.9-1.8,1.3c0.5,0.5,1,1.2,1.7,1.5c0.5,0.2,1.2,0.1,1.8,0.1
		c10.3,0,20.7,0,31,0c1.2,0,2.7,0.2,2.5-1.5c-0.1-0.6-1.6-1.3-2.4-1.4C99.8,28,94.5,28,89.1,28z M79.7,21.1
		C79.7,21.1,79.7,21.1,79.7,21.1c2.5,0,4.9,0.1,7.4-0.1c0.7,0,1.3-0.9,2-1.4c-0.7-0.6-1.3-1.6-2-1.6c-4.8-0.1-9.7-0.1-14.5,0
		c-0.7,0-1.4,1.1-2,1.7c0.7,0.5,1.3,1.3,2.1,1.3C75,21.2,77.3,21.1,79.7,21.1z"/>
	<path d="M36.6,51c-8.6,0-17.3,0-25.9,0c-4.8,0-5.8-1.1-5.8-5.9c0-10.8,0-21.6,0-32.4c0-4.1,1.4-5.6,5.5-5.6c17.4,0,34.8,0,52.3,0
		c3.8,0,5.4,1.6,5.4,5.5c0.1,10.9,0.1,21.7,0.1,32.6c0,4.4-1.3,5.7-5.8,5.7C53.7,51,45.2,51,36.6,51C36.6,51,36.6,51,36.6,51z
		 M65.4,10.9c-1.5-0.3-2.5-0.8-3.5-0.8c-16.9,0-33.8,0-50.7,0c-0.4,0-0.9-0.1-1.3,0.1c-0.6,0.3-1.5,0.6-1.7,1.1
		C8,11.6,8.5,12.6,8.9,13c8.7,8.5,17.4,16.9,26.1,25.4c1.1,1.1,1.9,1,3,0c8.6-8.4,17.3-16.8,25.9-25.3
		C64.3,12.7,64.6,12.1,65.4,10.9z M50.3,31.2c-0.5,0-1.1,0-1.6-0.1c-2.5,2.8-5,5.7-7.7,8.5c-3.5,3.7-5.6,3.6-9.3-0.1
		c-2.7-2.7-5.5-5.3-8.5-8.3c-4.7,4.7-9.2,9.3-13.7,13.9c-0.5,0.6-0.9,1.3-1.3,2c0.8,0.3,1.7,0.7,2.5,0.8c4.3,0.1,8.7,0.1,13,0.1
		c12.2,0,24.4,0,36.7,0c1.4,0,2.7-0.4,4.1-0.6c-0.7-1.1-1.3-2.3-2.2-3.3C58.3,39.7,54.3,35.5,50.3,31.2z M8.1,41.9
		c4.5-4.6,8.5-8.8,11.7-12c-3.7-4.2-7.5-8.5-11.7-13.3C8.1,25.3,8.1,33.3,8.1,41.9z M64.2,41.7c0.2-0.1,0.4-0.3,0.6-0.4
		c0-8,0-16.1,0-24.8c-4.4,4.7-8.3,9-11.6,12.6C56.5,33,60.4,37.3,64.2,41.7z"/>
	<path d="M86.7,37.8c4.4,0,8.8-0.1,13.2,0.1c0.9,0,1.7,0.9,2.5,1.4c-0.8,0.5-1.6,1.5-2.4,1.5c-9,0.1-18,0.1-26.9,0
		c-0.8,0-2.3-0.8-2.4-1.4c-0.2-1.8,1.4-1.5,2.5-1.5C77.7,37.8,82.2,37.8,86.7,37.8z"/>
	<path d="M89.1,28c5.3,0,10.7-0.1,16,0.1c0.9,0,2.3,0.8,2.4,1.4c0.2,1.7-1.3,1.5-2.5,1.5c-10.3,0-20.7,0-31,0
		c-0.6,0-1.3,0.2-1.8-0.1c-0.6-0.3-1.1-1-1.7-1.5c0.6-0.5,1.1-1.3,1.8-1.3c2.4-0.2,4.9-0.1,7.4-0.1C82.8,28,86,28,89.1,28
		C89.1,28,89.1,28,89.1,28z"/>
	<path d="M79.7,21.1c-2.4,0-4.8,0.1-7.1-0.1c-0.7-0.1-1.4-0.9-2.1-1.3c0.7-0.6,1.3-1.6,2-1.7c4.8-0.1,9.7-0.1,14.5,0
		c0.7,0,1.3,1,2,1.6c-0.7,0.5-1.3,1.3-2,1.4C84.6,21.2,82.2,21.1,79.7,21.1C79.7,21.1,79.7,21.1,79.7,21.1z"/>
</g>
</svg>
