<?xml version="1.0" encoding="utf-8"?>
<!-- Generator: Adobe Illustrator 22.1.0, SVG Export Plug-In . SVG Version: 6.00 Build 0)  -->
<svg version="1.1" id="Capa_1" xmlns="http://www.w3.org/2000/svg" xmlns:xlink="http://www.w3.org/1999/xlink" x="0px" y="0px"
	 viewBox="0 0 60 60" style="enable-background:new 0 0 60 60;" xml:space="preserve">
<path d="M51,8.9h-4.3V2.3h-6.3v6.5H18V2.3h-6.3v6.5H9c-2.5,0-4.5,2-4.5,4.5v39.8c0,2.5,2,4.5,4.5,4.5H51c2.5,0,4.5-2,4.5-4.5V13.3
	C55.5,10.9,53.5,8.9,51,8.9z M50.5,50.8H9.5V15.2h41.1V50.8z"/>
<g>
	<path d="M18.2,38.7l1.9-2.2c1.3,1.1,2.6,1.7,4.3,1.7c1.3,0,2.1-0.5,2.1-1.3v0c0-0.8-0.5-1.2-2.9-1.8c-2.9-0.7-4.7-1.5-4.7-4.4v0
		c0-2.6,2.1-4.3,5-4.3c2.1,0,3.9,0.7,5.3,1.8l-1.6,2.4c-1.3-0.9-2.5-1.4-3.7-1.4c-1.2,0-1.8,0.6-1.8,1.2v0c0,0.9,0.6,1.2,3.1,1.9
		c2.9,0.8,4.5,1.8,4.5,4.3v0c0,2.8-2.2,4.4-5.2,4.4C22.1,41,20,40.2,18.2,38.7z"/>
	<path d="M31.1,38.7l1.9-2.2c1.3,1.1,2.6,1.7,4.3,1.7c1.3,0,2.1-0.5,2.1-1.3v0c0-0.8-0.5-1.2-2.9-1.8c-2.9-0.7-4.7-1.5-4.7-4.4v0
		c0-2.6,2.1-4.3,5-4.3c2.1,0,3.9,0.7,5.3,1.8l-1.6,2.4c-1.3-0.9-2.5-1.4-3.7-1.4c-1.2,0-1.8,0.6-1.8,1.2v0c0,0.9,0.6,1.2,3.1,1.9
		c2.9,0.8,4.5,1.8,4.5,4.3v0c0,2.8-2.2,4.4-5.2,4.4C35,41,32.8,40.2,31.1,38.7z"/>
</g>
</svg>
