<?xml version="1.0" encoding="utf-8"?>
<!-- Generator: Adobe Illustrator 22.1.0, SVG Export Plug-In . SVG Version: 6.00 Build 0)  -->
<svg version="1.1" id="Capa_1" xmlns="http://www.w3.org/2000/svg" xmlns:xlink="http://www.w3.org/1999/xlink" x="0px" y="0px"
	 viewBox="0 0 60 60" style="enable-background:new 0 0 60 60;" xml:space="preserve">
<style type="text/css">
	.st0{fill:#FFFFFF;}
	.st1{fill:#151515;}
	.st2{fill:#030101;}
	.st3{fill:none;stroke:#000000;stroke-miterlimit:10;}
	.st4{stroke:#000000;stroke-miterlimit:10;}
	.st5{fill:none;stroke:#272525;stroke-width:2;stroke-linecap:round;stroke-linejoin:round;stroke-miterlimit:10;}
	.st6{fill:#272525;stroke:#272525;stroke-width:3;stroke-miterlimit:10;}
	.st7{opacity:0;clip-path:url(#SVGID_2_);fill-rule:evenodd;clip-rule:evenodd;fill:#FFFFFF;}
	.st8{clip-path:url(#SVGID_4_);}
	.st9{clip-path:url(#SVGID_6_);}
	.st10{fill:#211915;}
	.st11{fill:none;}
</style>
<path d="M52,7.8h-4.3V1.3h-6.3v6.5H19V1.3h-6.3v6.5H10c-2.5,0-4.5,2-4.5,4.5v39.8c0,2.5,2,4.5,4.5,4.5H52c2.5,0,4.5-2,4.5-4.5V12.3
	C56.5,9.8,54.5,7.8,52,7.8z M51.5,49.7H10.5V14.1h41.1V49.7z"/>
<g>
	<path d="M24.8,37.7h-6.5l-1.2,3h-3.3L20,26.6h3.2l6.3,14.1h-3.4L24.8,37.7z M23.8,35.2l-2.2-5.4l-2.2,5.4H23.8z"/>
</g>
<g>
	<path d="M42.2,37.7h-6.5l-1.2,3h-3.3l6.3-14.1h3.2l6.3,14.1h-3.4L42.2,37.7z M41.1,35.2l-2.2-5.4l-2.2,5.4H41.1z"/>
</g>
</svg>
