<?xml version="1.0" encoding="utf-8"?>
<!-- Generator: Adobe Illustrator 22.1.0, SVG Export Plug-In . SVG Version: 6.00 Build 0)  -->
<svg version="1.1" id="Capa_1" xmlns="http://www.w3.org/2000/svg" xmlns:xlink="http://www.w3.org/1999/xlink" x="0px" y="0px"
	 viewBox="0 0 60 60" style="enable-background:new 0 0 60 60;" xml:space="preserve">
<style type="text/css">
	.st0{fill:#FFFFFF;}
	.st1{fill:#151515;}
	.st2{fill:#030101;}
	.st3{fill:none;stroke:#000000;stroke-miterlimit:10;}
	.st4{stroke:#000000;stroke-miterlimit:10;}
	.st5{fill:none;stroke:#272525;stroke-width:2;stroke-linecap:round;stroke-linejoin:round;stroke-miterlimit:10;}
	.st6{fill:#272525;stroke:#272525;stroke-width:3;stroke-miterlimit:10;}
	.st7{opacity:0;clip-path:url(#SVGID_2_);fill-rule:evenodd;clip-rule:evenodd;fill:#FFFFFF;}
	.st8{clip-path:url(#SVGID_4_);}
	.st9{clip-path:url(#SVGID_6_);}
	.st10{fill:#211915;}
	.st11{fill:none;}
</style>
<g>
	<g>
		<path d="M44.6,22.5c-0.6-0.9-1.7-1.3-2.6-0.8l-11.5,5.6c-1.4-0.6-3.1-0.5-4.5,0.3c-2.4,1.4-3.2,4.5-1.8,6.9
			c1.4,2.4,4.5,3.2,6.9,1.8c1.4-0.8,2.3-2.3,2.4-3.8L44,25.2C44.9,24.6,45.2,23.5,44.6,22.5z M30.7,32.5c-0.3,1.2-1.5,1.9-2.7,1.6
			c-1.2-0.3-1.9-1.5-1.6-2.7c0.3-1.2,1.5-1.9,2.7-1.6C30.3,30.2,31,31.4,30.7,32.5z"/>
		<path d="M35.8,19.4c1,0.6,2.3,0.2,2.8-0.8c0.6-1,0.2-2.3-0.8-2.8c-1-0.6-2.2-0.2-2.8,0.8c-0.4,0.7-0.3,1.5,0,2.1
			C35.2,18.9,35.5,19.2,35.8,19.4z"/>
		<path d="M28.5,17.5c1.1,0,2.1-0.9,2.1-2.1c0-1.1-0.9-2.1-2.1-2.1s-2.1,0.9-2.1,2.1c0,0.4,0.1,0.7,0.3,1
			C27.1,17.1,27.7,17.5,28.5,17.5z"/>
		<path d="M28.8,46.6L28.8,46.6c-1.1,0-2.1,1-2.1,2.1c0,0.4,0.1,0.7,0.3,1c0.4,0.6,1,1,1.8,1c1.1,0,2.1-1,2-2.1
			C30.9,47.5,29.9,46.6,28.8,46.6z"/>
		<path d="M36,44.6c-1,0.6-1.3,1.8-0.7,2.8l0,0c0.6,1,1.8,1.3,2.8,0.7c1-0.6,1.3-1.8,0.7-2.8C38.3,44.3,37,44,36,44.6z"/>
		<path d="M44.1,38.4c-1-0.6-2.3-0.2-2.8,0.8c-0.4,0.7-0.3,1.4,0,2.1c0.2,0.3,0.4,0.6,0.8,0.7c1,0.6,2.3,0.2,2.8-0.8
			C45.4,40.2,45.1,39,44.1,38.4z"/>
		<path d="M14.1,32.2c0-1.1-1-2.1-2.1-2.1c-1.1,0-2.1,1-2.1,2.1c0,0.4,0.1,0.7,0.3,1c0.4,0.6,1,1,1.8,1
			C13.2,34.3,14.1,33.3,14.1,32.2z"/>
		<path d="M13.3,38.7c-1,0.6-1.3,1.8-0.7,2.8l0,0c0.6,1,1.8,1.3,2.8,0.7c1-0.6,1.3-1.8,0.7-2.8C15.5,38.5,14.3,38.1,13.3,38.7z"/>
		<path d="M43.2,31.9c0,0.4,0.1,0.7,0.3,1c0.4,0.6,1,1,1.8,1c1.1,0,2.1-1,2.1-2.1c0-1.1-0.9-2.1-2.1-2.1
			C44.1,29.8,43.2,30.8,43.2,31.9z"/>
		<path d="M13.1,25.7c1,0.6,2.3,0.2,2.8-0.8l0,0c0.6-1,0.2-2.2-0.8-2.8c-1-0.6-2.2-0.2-2.8,0.8c-0.4,0.7-0.3,1.4,0,2.1
			C12.5,25.2,12.8,25.5,13.1,25.7z"/>
		<path d="M21.2,19.5C21.2,19.5,21.2,19.5,21.2,19.5C21.2,19.5,21.2,19.5,21.2,19.5C21.2,19.5,21.2,19.5,21.2,19.5
			c1-0.6,1.4-1.9,0.8-2.9c-0.6-1-1.8-1.3-2.8-0.7c0,0,0,0,0,0c0,0,0,0,0,0c-1,0.6-1.3,1.8-0.7,2.8l0,0C19,19.8,20.2,20.1,21.2,19.5z
			"/>
		<path d="M21.5,44.7c-1-0.6-2.3-0.2-2.8,0.8c-0.4,0.7-0.3,1.5,0,2.1c0.2,0.3,0.4,0.6,0.8,0.8c1,0.6,2.3,0.2,2.8-0.8
			C22.8,46.5,22.5,45.3,21.5,44.7z"/>
	</g>
</g>
</svg>
