<?xml version="1.0" encoding="utf-8"?>
<!-- Generator: Adobe Illustrator 22.1.0, SVG Export Plug-In . SVG Version: 6.00 Build 0)  -->
<svg version="1.1" id="Capa_1" xmlns="http://www.w3.org/2000/svg" xmlns:xlink="http://www.w3.org/1999/xlink" x="0px" y="0px"
	 viewBox="0 0 60 60" style="enable-background:new 0 0 60 60;" xml:space="preserve">
<style type="text/css">
	.st0{fill:#FFFFFF;}
	.st1{fill:#151515;}
	.st2{fill:#030101;}
	.st3{fill:none;stroke:#000000;stroke-miterlimit:10;}
	.st4{stroke:#000000;stroke-miterlimit:10;}
	.st5{fill:none;stroke:#272525;stroke-width:2;stroke-linecap:round;stroke-linejoin:round;stroke-miterlimit:10;}
	.st6{fill:#272525;stroke:#272525;stroke-width:3;stroke-miterlimit:10;}
	.st7{opacity:0;clip-path:url(#SVGID_2_);fill-rule:evenodd;clip-rule:evenodd;fill:#FFFFFF;}
	.st8{clip-path:url(#SVGID_4_);}
	.st9{clip-path:url(#SVGID_6_);}
	.st10{fill:#211915;}
	.st11{fill:none;}
</style>
<path d="M30.1,1.9C14.3,1.9,1.5,14.7,1.5,30.5c0,15.8,12.8,28.6,28.6,28.6s28.6-12.8,28.6-28.6C58.6,14.7,45.9,1.9,30.1,1.9z"/>
<path class="st0" d="M32.3,44.2v4.3h-3.8v-4.2c-3.8-0.2-7.4-1.4-9.5-3.1l2.1-4.7c1.9,1.4,4.7,2.4,7.4,2.7v-6.4c-4.2-1-9-2.4-9-7.9
	c0-4.1,2.9-7.5,9-8.2v-4.3h3.8v4.2c2.9,0.2,5.7,1,7.8,2.3l-1.9,4.7c-2-1.1-3.9-1.8-5.9-2v6.5c4.2,1,8.9,2.4,8.9,7.8
	C41.2,40,38.3,43.5,32.3,44.2z M28.5,27.3v-5.4c-2,0.5-2.8,1.6-2.8,2.8C25.6,26,26.8,26.8,28.5,27.3z M35,36.5
	c0-1.3-1.1-2.1-2.8-2.6v5.3C34.2,38.7,35,37.7,35,36.5z"/>
</svg>
