<?xml version="1.0" encoding="utf-8"?>
<!-- Generator: Adobe Illustrator 22.1.0, SVG Export Plug-In . SVG Version: 6.00 Build 0)  -->
<svg version="1.1" id="Capa_1" xmlns="http://www.w3.org/2000/svg" xmlns:xlink="http://www.w3.org/1999/xlink" x="0px" y="0px"
	 viewBox="0 0 20 20" style="enable-background:new 0 0 20 20;" xml:space="preserve">
<style type="text/css">
	.st0{fill:#151515;}
</style>
<path d="M17.8,2.4h-1.6V0.1h-2.3v2.4H5.9V0.1H3.6v2.4h-1C1.7,2.4,1,3.2,1,4v14.4c0,0.9,0.7,1.6,1.6,1.6h15.2c0.9,0,1.6-0.7,1.6-1.6
	V4C19.4,3.2,18.7,2.4,17.8,2.4z M17.6,17.6H2.8V4.7h14.8V17.6z"/>
<g>
	<path d="M8.9,14.3l0-3l-1.5,2.5H6.9l-1.5-2.4v3H4.3V9.2h1l1.9,3.2L9,9.2h1l0,5.1H8.9z"/>
</g>
<g>
	<path d="M15.4,14.3l0-3l-1.5,2.5h-0.5l-1.5-2.4v3h-1.1V9.2h1l1.9,3.2l1.9-3.2h1l0,5.1H15.4z"/>
</g>
</svg>
