<?xml version="1.0" encoding="utf-8"?>
<!-- Generator: Adobe Illustrator 22.1.0, SVG Export Plug-In . SVG Version: 6.00 Build 0)  -->
<svg version="1.1" id="Capa_1" xmlns="http://www.w3.org/2000/svg" xmlns:xlink="http://www.w3.org/1999/xlink" x="0px" y="0px"
	 viewBox="0 0 60 60" style="enable-background:new 0 0 60 60;" xml:space="preserve">
<style type="text/css">
	.st0{fill:#FFFFFF;}
	.st1{fill:#151515;}
	.st2{fill:#030101;}
	.st3{fill:none;stroke:#000000;stroke-miterlimit:10;}
	.st4{stroke:#000000;stroke-miterlimit:10;}
	.st5{fill:none;stroke:#272525;stroke-width:2;stroke-linecap:round;stroke-linejoin:round;stroke-miterlimit:10;}
	.st6{fill:#272525;stroke:#272525;stroke-width:3;stroke-miterlimit:10;}
	.st7{opacity:0;clip-path:url(#SVGID_2_);fill-rule:evenodd;clip-rule:evenodd;fill:#FFFFFF;}
	.st8{clip-path:url(#SVGID_4_);}
	.st9{clip-path:url(#SVGID_6_);}
	.st10{fill:#211915;}
	.st11{fill:none;}
</style>
<path d="M49.7,29.5l3.6-3.6c1.5-1.5,1.5-4,0-5.6c-0.1-0.1-0.1-0.1-0.2-0.2c-0.5-0.5-1.1-0.7-1.8-0.9c0.9-1.6,0.7-3.7-0.6-5.1
	l-0.1-0.1C50,13.4,49,13,48.1,12.9c0.5-1.5,0.1-3.1-1-4.3c-1.3-1.3-3.3-1.6-4.8-0.8C42.1,7,41.7,6.1,41,5.5c-1.7-1.7-4.3-1.7-6,0
	l0.3-0.3c-0.8-0.6-1.8-1-2.9-1l-7.9,0c-1.3,0-2.5,0.6-3.3,1.5l-0.1-0.1c-1.7-1.7-4.3-1.7-6,0c-0.8,0.8-1.2,1.8-1.2,2.9
	c-1.4-0.3-2.9,0-4,1.1c-1,1-1.4,2.4-1.2,3.8c-1.1,0-2.2,0.4-3,1.2c-1.1,1.1-1.4,2.6-1.1,4c-0.9,0.1-1.7,0.5-2.4,1.1
	c-1.5,1.5-1.5,4,0,5.6l6.5,6.5l-7.1,7.1L3,40.2l7.1-7.1c1.5,1.4,3.9,1.3,5.4-0.1c0.7-0.7,1.1-1.6,1.1-2.6c1.3,0.2,2.8-0.1,3.8-1.2
	c0.9-0.9,1.3-2.2,1.2-3.4c1.2,0.1,2.5-0.3,3.4-1.2c1-1,1.4-2.4,1.2-3.7c1.1,0,2.2-0.4,3.1-1.2c1.6-1.6,1.6-4.2,0.1-5.9l7-7
	c0.9-0.9,2.3-0.9,3.2,0c0.9,0.9,0.9,2.3,0,3.2l-0.7,0.7L38,11.7l-0.4,0.4c-0.4,0.4-0.4,1,0,1.4c0.4,0.4,1,0.4,1.4,0l0.4-0.4l0.9-0.9
	l2.1-2.1c0.9-0.9,2.3-0.9,3.2,0h0c0.9,0.9,0.9,2.3,0,3.2l-2.4,2.4l-0.9,0.9l-0.2,0.2c-0.4,0.4-0.4,1,0,1.4c0.4,0.4,1,0.4,1.4,0
	l2.5-2.5c0.9-0.9,2.4-0.9,3.2,0c0.9,0.9,0.8,2.3-0.1,3.2l-1.6,1.6l-0.9,0.9l-0.8,0.8c-0.4,0.4-0.4,1,0,1.4l0,0c0.4,0.4,1,0.4,1.4,0
	l0.8-0.8l0.9-0.9l0,0c0.7-0.7,1.9-0.8,2.7-0.1c0.9,0.8,0.9,2.1,0.1,2.9L34.1,42.3c-2.9,2.9-7.1,3.8-10.9,2.5v0l-7.8,7.8l1.4,1.4l7-7
	c3.7,0.9,7.6,0,10.6-2.4l9.4,9.4l1.4-1.4l-9.3-9.4l12.4-12.4l9.3,9.3l1.4-1.4L49.7,29.5z M14.1,31.6L14.1,31.6c-0.8,0.8-2,0.8-2.8,0
	l-7.7-7.7c-0.8-0.8-0.8-2,0-2.8c0.8-0.8,2-0.8,2.8,0l7.7,7.7C14.9,29.6,14.9,30.8,14.1,31.6z M19,27.9c-0.9,0.9-2.3,0.9-3.2,0
	l-8.7-8.7c-0.9-0.9-0.9-2.3,0-3.2c0.9-0.9,2.3-0.9,3.2,0l8.7,8.7C19.9,25.6,19.9,27,19,27.9z M23.6,23.3L23.6,23.3
	c-0.9,0.9-2.3,0.9-3.2,0l-9.1-9.1c-0.9-0.9-0.9-2.3,0-3.2h0c0.9-0.9,2.3-0.9,3.2,0l9.1,9.1C24.5,21,24.5,22.4,23.6,23.3z M27.9,18.4
	c-0.9,0.9-2.3,0.9-3.2,0l-8.2-8.2c-0.9-0.9-0.9-2.3,0-3.2l0,0c0.9-0.9,2.3-0.9,3.2,0l0.5,0.5C20.1,7.8,20,8.3,20,8.7
	c0,1.2,0.5,2.3,1.3,3.2c0.9,0.9,2,1.3,3.2,1.3l1.5,0l1.9,1.9C28.8,16,28.8,17.5,27.9,18.4z M29.2,11.3l-4.7,0
	c-0.7,0-1.3-0.3-1.8-0.7c-0.3-0.3-0.6-0.8-0.7-1.2l0,0C22,9.1,22,8.9,22,8.7v0c0-0.6,0.2-1.2,0.6-1.7l0,0c0.5-0.5,1.2-0.9,1.9-0.9
	l7.9,0c0.5,0,1.1,0.2,1.5,0.5l0,0v0L29.2,11.3z"/>
</svg>
