<?xml version="1.0" encoding="utf-8"?>
<!-- Generator: Adobe Illustrator 22.1.0, SVG Export Plug-In . SVG Version: 6.00 Build 0)  -->
<svg version="1.1" id="Capa_1" xmlns="http://www.w3.org/2000/svg" xmlns:xlink="http://www.w3.org/1999/xlink" x="0px" y="0px"
	 viewBox="0 0 60 60" style="enable-background:new 0 0 60 60;" xml:space="preserve">
<style type="text/css">
	.st0{fill:#FFFFFF;}
	.st1{fill:#151515;}
	.st2{fill:#030101;}
	.st3{fill:none;stroke:#000000;stroke-miterlimit:10;}
	.st4{stroke:#000000;stroke-miterlimit:10;}
	.st5{fill:none;stroke:#272525;stroke-width:2;stroke-linecap:round;stroke-linejoin:round;stroke-miterlimit:10;}
	.st6{fill:#272525;stroke:#272525;stroke-width:3;stroke-miterlimit:10;}
	.st7{opacity:0;clip-path:url(#SVGID_2_);fill-rule:evenodd;clip-rule:evenodd;fill:#FFFFFF;}
	.st8{clip-path:url(#SVGID_4_);}
	.st9{clip-path:url(#SVGID_6_);}
	.st10{fill:#211915;}
	.st11{fill:none;}
</style>
<path d="M29.1,1.4C13.3,1.4,0.5,14.2,0.5,29.9c0,15.8,12.8,28.6,28.6,28.6s28.6-12.8,28.6-28.6C57.7,14.2,44.9,1.4,29.1,1.4z
	 M41,32.4h-9.4v9.4c0,1.4-1.1,2.5-2.5,2.5s-2.5-1.1-2.5-2.5v-9.4h-9.4c-1.4,0-2.5-1.1-2.5-2.5s1.1-2.5,2.5-2.5h9.4v-9.4
	c0-1.4,1.1-2.5,2.5-2.5s2.5,1.1,2.5,2.5v9.4H41c1.4,0,2.5,1.1,2.5,2.5S42.3,32.4,41,32.4z"/>
</svg>
