<?xml version="1.0" encoding="utf-8"?>
<!-- Generator: Adobe Illustrator 22.1.0, SVG Export Plug-In . SVG Version: 6.00 Build 0)  -->
<svg version="1.1" id="Capa_1" xmlns="http://www.w3.org/2000/svg" xmlns:xlink="http://www.w3.org/1999/xlink" x="0px" y="0px"
	 viewBox="0 0 60 60" style="enable-background:new 0 0 60 60;" xml:space="preserve">
<style type="text/css">
	.st0{fill:#FFFFFF;}
	.st1{fill:#151515;}
	.st2{fill:#030101;}
	.st3{fill:none;stroke:#000000;stroke-miterlimit:10;}
	.st4{stroke:#000000;stroke-miterlimit:10;}
	.st5{fill:none;stroke:#272525;stroke-width:2;stroke-linecap:round;stroke-linejoin:round;stroke-miterlimit:10;}
	.st6{fill:#272525;stroke:#272525;stroke-width:3;stroke-miterlimit:10;}
	.st7{opacity:0;clip-path:url(#SVGID_2_);fill-rule:evenodd;clip-rule:evenodd;fill:#FFFFFF;}
	.st8{clip-path:url(#SVGID_4_);}
	.st9{clip-path:url(#SVGID_6_);}
	.st10{fill:#211915;}
	.st11{fill:none;}
</style>
<g>
	<path d="M29.8,44.4C27.9,44.8,26,45,24,45c-2.7,0-5.2-0.4-7.6-1c-2.7,1.8-6.8,3.9-12.3,5c0,0,2.3-3.9,3.5-9.4
		c-4.6-3.6-7.5-8.8-7.5-14.4c0-11,10.7-19.9,23.9-19.9c8.4,0,15.8,3.6,20,9c-0.7,0-1.4-0.1-2.1-0.1C31,14.2,22,21.8,22,31.1
		C22,36.5,25.1,41.4,29.8,44.4z"/>
	<path d="M59.8,31.1c0-7.2-6.1-13.2-14.3-14.6c-1.2-0.2-2.3-0.3-3.6-0.3C32,16.2,24,22.9,24,31.1c0,5.3,3.3,10,8.4,12.7
		c2.7,1.4,6,2.3,9.5,2.3c2,0,3.9-0.3,5.7-0.8c2,1.4,5.1,3,9.2,3.8c0,0-1.8-2.9-2.6-7C57.7,39.2,59.8,35.3,59.8,31.1z M34,33.1
		c-1.1,0-2-0.9-2-2s0.9-2,2-2s2,0.9,2,2S35.1,33.1,34,33.1z M41.9,33.1c-1.1,0-2-0.9-2-2s0.9-2,2-2c1.1,0,2,0.9,2,2
		S43,33.1,41.9,33.1z M49.9,33.1c-1.1,0-2-0.9-2-2s0.9-2,2-2c1.1,0,2,0.9,2,2S51,33.1,49.9,33.1z"/>
</g>
</svg>
