<?xml version="1.0" encoding="utf-8"?>
<!-- Generator: Adobe Illustrator 22.1.0, SVG Export Plug-In . SVG Version: 6.00 Build 0)  -->
<svg version="1.1" id="Capa_1" xmlns="http://www.w3.org/2000/svg" xmlns:xlink="http://www.w3.org/1999/xlink" x="0px" y="0px"
	 viewBox="0 0 60 60" style="enable-background:new 0 0 60 60;" xml:space="preserve">
<style type="text/css">
	.st0{fill:#FFFFFF;}
	.st1{fill:#151515;}
	.st2{fill:#030101;}
	.st3{fill:none;stroke:#000000;stroke-miterlimit:10;}
	.st4{stroke:#000000;stroke-miterlimit:10;}
	.st5{fill:none;stroke:#272525;stroke-width:2;stroke-linecap:round;stroke-linejoin:round;stroke-miterlimit:10;}
	.st6{fill:#272525;stroke:#272525;stroke-width:3;stroke-miterlimit:10;}
	.st7{opacity:0;clip-path:url(#SVGID_2_);fill-rule:evenodd;clip-rule:evenodd;fill:#FFFFFF;}
	.st8{clip-path:url(#SVGID_4_);}
	.st9{clip-path:url(#SVGID_6_);}
	.st10{fill:#211915;}
	.st11{fill:none;}
</style>
<path d="M47.3,8.5H6c-2.3,0-4.1,1.8-4.1,4.1v26.7c0,2.3,1.8,4.1,4.1,4.1h12.4c0.2,0,0.5,0.1,0.7,0.3l6.9,7c0.4,0.4,0.9,0.4,1.3,0
	l6.9-7c0.2-0.2,0.4-0.3,0.7-0.3h12.4c2.3,0,4.1-1.8,4.1-4.1V12.6C51.4,10.3,49.6,8.5,47.3,8.5z M39.9,17.4c-1.5,3-3,6-4.5,9
	c-1,2-2,5.5-3.7,6.9c-0.3,0.3-0.9,0.4-1.2,0c-2.4-3-5-5.8-7.8-8.4c-1.4,3.4-2.5,7-3.2,10.7c-0.1,0.7-1.1,0.7-1.4,0.2
	c-0.8-1.4-1.5-2.8-2-4.3c-0.4,0.4-0.7,0.9-1.1,1.3c0.2,0.2,0.3,0.6,0.3,0.9c0,0.8-0.6,1.4-1.4,1.4c-0.8,0-1.4-0.6-1.4-1.4
	s0.6-1.4,1.4-1.4c0,0,0,0,0.1,0c0.6-0.9,1.2-1.7,1.8-2.6c0.4-0.5,1.1-0.4,1.3,0.2c0.4,1.2,0.8,2.2,1.4,3.3c0.7-3.2,1.7-6.3,3-9.3
	c-0.2-0.2-0.3-0.5-0.3-0.8c0-0.8,0.6-1.4,1.4-1.4c0.8,0,1.4,0.6,1.4,1.4c0,0.3-0.1,0.5-0.2,0.7c2.7,2.4,5.1,4.9,7.4,7.7
	c0.6-0.9,0.9-2,1.3-2.8c0.7-1.3,1.3-2.7,2-4c1.2-2.5,2.4-5,3.7-7.4c-0.2-0.3-0.3-0.6-0.3-0.9c0-0.8,0.6-1.4,1.4-1.4
	c0.8,0,1.4,0.6,1.4,1.4C40.6,16.7,40.3,17.2,39.9,17.4z"/>
</svg>
