<?xml version="1.0" encoding="utf-8"?>
<!-- Generator: Adobe Illustrator 22.1.0, SVG Export Plug-In . SVG Version: 6.00 Build 0)  -->
<svg version="1.1" id="Capa_1" xmlns="http://www.w3.org/2000/svg" xmlns:xlink="http://www.w3.org/1999/xlink" x="0px" y="0px"
	 viewBox="0 0 60 60" style="enable-background:new 0 0 60 60;" xml:space="preserve">
<style type="text/css">
	.st0{fill:#FFFFFF;}
	.st1{fill:#151515;}
	.st2{fill:#030101;}
	.st3{fill:none;stroke:#000000;stroke-miterlimit:10;}
	.st4{stroke:#000000;stroke-miterlimit:10;}
	.st5{fill:none;stroke:#272525;stroke-width:2;stroke-linecap:round;stroke-linejoin:round;stroke-miterlimit:10;}
	.st6{fill:#272525;stroke:#272525;stroke-width:3;stroke-miterlimit:10;}
	.st7{opacity:0;clip-path:url(#SVGID_2_);fill-rule:evenodd;clip-rule:evenodd;fill:#FFFFFF;}
	.st8{clip-path:url(#SVGID_4_);}
	.st9{clip-path:url(#SVGID_6_);}
	.st10{fill:#211915;}
	.st11{fill:none;}
</style>
<g>
	<path class="st4" d="M22.2,9L22.2,9c0,0.1,0,0.2,0,0.3h5.4v-1H22C22.1,8.5,22.2,8.8,22.2,9C22.2,9,22.2,9,22.2,9z"/>
	<rect x="34.6" y="8.3" class="st4" width="5.6" height="1"/>
	<path class="st4" d="M50.1,8.3h-3.4c0.1,0.2,0.2,0.4,0.2,0.6C47,9,47,9.1,47.1,9.2c0.1,0.3-0.1-0.3-0.1-0.3C47,9,47,9.2,47.1,9.3h3
		c3,0,5.5,2.5,5.5,5.5v33.7c0,3-2.5,5.5-5.5,5.5H10.6c-3,0-5.5-2.5-5.5-5.5V14.8c0-3,2.5-5.5,5.5-5.5h5.3c-0.1-0.3-0.1-0.7,0-1h-5.3
		c-3.6,0-6.5,2.9-6.5,6.5v33.7c0,3.6,2.9,6.5,6.5,6.5h39.5c3.6,0,6.5-2.9,6.5-6.5V14.8C56.6,11.2,53.7,8.3,50.1,8.3z"/>
</g>
<g>
	<path class="st4" d="M20.7,34.7H10.6V24.6h10.1V34.7z M11.6,33.7h8.1v-8.1h-8.1V33.7z"/>
</g>
<g>
	<path class="st4" d="M36.4,34.7H26.3V24.6h10.1V34.7z M27.3,33.7h8.1v-8.1h-8.1V33.7z"/>
</g>
<g>
	<path class="st4" d="M51.1,34.7H40.9V24.6h10.1V34.7z M41.9,33.7h8.1v-8.1h-8.1V33.7z"/>
</g>
<g>
	<path class="st4" d="M20.7,49.2H10.6V39.1h10.1V49.2z M11.6,48.2h8.1v-8.1h-8.1V48.2z"/>
</g>
<g>
	<path class="st4" d="M36.4,49.2H26.3V39.1h10.1V49.2z M27.3,48.2h8.1v-8.1h-8.1V48.2z"/>
</g>
<g>
	<path class="st4" d="M51.1,49.2H40.9V39.1h10.1V49.2z M41.9,48.2h8.1v-8.1h-8.1V48.2z"/>
</g>
<g>
	<rect x="4.6" y="19.9" class="st4" width="51.5" height="1"/>
</g>
<g>
	<path class="st4" d="M19.1,15.3c-2.2,0-3.9-1.7-3.9-3.9V5.7c0-2.2,1.7-3.9,3.9-3.9S23,3.6,23,5.7v5.7C23,13.6,21.2,15.3,19.1,15.3z
		 M19.1,2.8c-1.6,0-2.9,1.3-2.9,2.9v5.7c0,1.6,1.3,2.9,2.9,2.9S22,13,22,11.4V5.7C22,4.1,20.7,2.8,19.1,2.8z"/>
</g>
<g>
	<path class="st4" d="M31.4,15.3c-2.2,0-3.9-1.7-3.9-3.9V5.7c0-2.2,1.8-3.9,3.9-3.9s3.9,1.7,3.9,3.9v5.7
		C35.3,13.6,33.5,15.3,31.4,15.3z M31.4,2.8c-1.6,0-2.9,1.3-2.9,2.9v5.7c0,1.6,1.3,2.9,2.9,2.9s2.9-1.3,2.9-2.9V5.7
		C34.3,4.1,33,2.8,31.4,2.8z"/>
</g>
<g>
	<path class="st4" d="M43.7,15.3c-2.2,0-3.9-1.7-3.9-3.9V5.7c0-2.2,1.8-3.9,3.9-3.9s3.9,1.7,3.9,3.9v5.7
		C47.6,13.6,45.8,15.3,43.7,15.3z M43.7,2.8c-1.6,0-2.9,1.3-2.9,2.9v5.7c0,1.6,1.3,2.9,2.9,2.9c1.6,0,2.9-1.3,2.9-2.9V5.7
		C46.6,4.1,45.3,2.8,43.7,2.8z"/>
</g>
</svg>
