<?xml version="1.0" encoding="utf-8"?>
<!-- Generator: Adobe Illustrator 22.1.0, SVG Export Plug-In . SVG Version: 6.00 Build 0)  -->
<svg version="1.1" id="Capa_1" xmlns="http://www.w3.org/2000/svg" xmlns:xlink="http://www.w3.org/1999/xlink" x="0px" y="0px"
	 viewBox="0 0 60 60" style="enable-background:new 0 0 60 60;" xml:space="preserve">
<style type="text/css">
	.st0{fill:#FFFFFF;}
	.st1{fill:#151515;}
	.st2{fill:#030101;}
	.st3{fill:none;stroke:#000000;stroke-miterlimit:10;}
	.st4{stroke:#000000;stroke-miterlimit:10;}
	.st5{fill:none;stroke:#272525;stroke-width:2;stroke-linecap:round;stroke-linejoin:round;stroke-miterlimit:10;}
	.st6{fill:#272525;stroke:#272525;stroke-width:3;stroke-miterlimit:10;}
	.st7{opacity:0;clip-path:url(#SVGID_2_);fill-rule:evenodd;clip-rule:evenodd;fill:#FFFFFF;}
	.st8{clip-path:url(#SVGID_4_);}
	.st9{clip-path:url(#SVGID_6_);}
	.st10{fill:#211915;}
	.st11{fill:none;}
</style>
<g>
	<path d="M27.2,25c-2.8,0-5,2.2-5,5s2.2,5,5,5s5-2.2,5-5S29.9,25,27.2,25z"/>
	<path d="M38.8,21.2c-0.3-0.7-0.6-1.2-1.1-1.7c-0.5-0.5-1-0.8-1.7-1.1c-0.5-0.2-1.3-0.4-2.8-0.5c-1.6-0.1-2.1-0.1-6.1-0.1
		c-4,0-4.5,0-6.1,0.1c-1.5,0.1-2.3,0.3-2.8,0.5c-0.7,0.3-1.2,0.6-1.7,1.1c-0.5,0.5-0.8,1-1.1,1.7c-0.2,0.5-0.4,1.3-0.5,2.8
		c-0.1,1.6-0.1,2.1-0.1,6.1c0,4,0,4.5,0.1,6.1c0.1,1.5,0.3,2.3,0.5,2.8c0.3,0.7,0.6,1.2,1.1,1.7c0.5,0.5,1,0.8,1.7,1.1
		c0.5,0.2,1.3,0.4,2.8,0.5c1.6,0.1,2.1,0.1,6.1,0.1c4,0,4.5,0,6.1-0.1c1.5-0.1,2.3-0.3,2.8-0.5c0.7-0.3,1.2-0.6,1.7-1.1
		c0.5-0.5,0.8-1,1.1-1.7c0.2-0.5,0.4-1.3,0.5-2.8c0.1-1.6,0.1-2.1,0.1-6.1c0-4,0-4.5-0.1-6.1C39.3,22.5,39,21.7,38.8,21.2z
		 M27.2,37.7c-4.3,0-7.7-3.4-7.7-7.7c0-4.3,3.4-7.7,7.7-7.7c4.3,0,7.7,3.4,7.7,7.7C34.9,34.3,31.4,37.7,27.2,37.7z M35.2,23.8
		c-1,0-1.8-0.8-1.8-1.8c0-1,0.8-1.8,1.8-1.8c1,0,1.8,0.8,1.8,1.8C37,23,36.1,23.8,35.2,23.8z"/>
	<path d="M27.2,4.1C12.8,4.1,1.2,15.7,1.2,30c0,14.3,11.6,25.9,25.9,25.9c14.3,0,25.9-11.6,25.9-25.9C53.1,15.7,41.5,4.1,27.2,4.1z
		 M42.1,36.2c-0.1,1.6-0.3,2.7-0.7,3.6c-0.4,1-0.9,1.8-1.7,2.7c-0.8,0.8-1.7,1.3-2.7,1.7c-1,0.4-2,0.6-3.6,0.7
		C31.7,45,31.2,45,27.2,45c-4.1,0-4.6,0-6.2-0.1c-1.6-0.1-2.7-0.3-3.6-0.7c-1-0.4-1.8-0.9-2.7-1.7c-0.8-0.8-1.3-1.7-1.7-2.7
		c-0.4-1-0.6-2-0.7-3.6c-0.1-1.6-0.1-2.1-0.1-6.2c0-4.1,0-4.6,0.1-6.2c0.1-1.6,0.3-2.7,0.7-3.6c0.4-1,0.9-1.8,1.7-2.7
		c0.8-0.8,1.7-1.3,2.7-1.7c1-0.4,2-0.6,3.6-0.7c1.6-0.1,2.1-0.1,6.2-0.1c4.1,0,4.6,0,6.2,0.1c1.6,0.1,2.7,0.3,3.6,0.7
		c1,0.4,1.8,0.9,2.7,1.7c0.8,0.8,1.3,1.7,1.7,2.7c0.4,1,0.6,2,0.7,3.6c0.1,1.6,0.1,2.1,0.1,6.2C42.1,34.1,42.1,34.6,42.1,36.2z"/>
</g>
</svg>
