<?xml version="1.0" encoding="utf-8"?>
<!-- Generator: Adobe Illustrator 22.1.0, SVG Export Plug-In . SVG Version: 6.00 Build 0)  -->
<svg version="1.1" id="Capa_1" xmlns="http://www.w3.org/2000/svg" xmlns:xlink="http://www.w3.org/1999/xlink" x="0px" y="0px"
	 viewBox="0 0 60 60" style="enable-background:new 0 0 60 60;" xml:space="preserve">
<style type="text/css">
	.st0{fill:#FFFFFF;}
	.st1{fill:#151515;}
	.st2{fill:#030101;}
	.st3{fill:none;stroke:#000000;stroke-miterlimit:10;}
	.st4{stroke:#000000;stroke-miterlimit:10;}
	.st5{fill:none;stroke:#272525;stroke-width:2;stroke-linecap:round;stroke-linejoin:round;stroke-miterlimit:10;}
	.st6{fill:#272525;stroke:#272525;stroke-width:3;stroke-miterlimit:10;}
	.st7{opacity:0;clip-path:url(#SVGID_2_);fill-rule:evenodd;clip-rule:evenodd;fill:#FFFFFF;}
	.st8{clip-path:url(#SVGID_4_);}
	.st9{clip-path:url(#SVGID_6_);}
	.st10{fill:#211915;}
	.st11{fill:none;}
</style>
<g id="WinnpX_2_">
	<g>
		<path d="M24.4,60c0-1.3,0-2.6,0-3.9c1.2,0,2.3,0,3.4,0c0-1.1,0-2.1,0-3c-1.3-0.4-2.6-0.8-3.8-1.3c-3.8-1.6-6.1-4.3-6.8-7.9
			c-0.4-1.8-0.3-3.6-0.3-5.5c0-1,1.1-1.9,2.3-1.9c0.9,0,2.3,0.7,2.3,1.8c0,1.2,0.2,2.3,0.1,3.5c-0.1,3.4,2.6,6.4,6.5,7.2
			c4.8,1,9.6-1.5,10.5-6c0.3-1.4,0.2-3,0.2-4.4c0-1.1,0.9-2,2.1-2c1.1-0.1,2.4,0.8,2.4,1.9c0.1,2.7,0.3,5.5-1.2,8.1
			c-0.8,1.5-1.9,2.7-3.3,3.8c-1.9,1.4-4,2.3-6.5,2.8c0,1,0,2,0,3.1c1.1,0,2.2,0,3.4,0c0,1.4,0,2.6,0,3.9C32.1,60,28.3,60,24.4,60z"
			/>
		<path d="M48.4,10.4c-1.2,1.2-2.3,1.1-3.3-0.2c-1.8-2.4-4.1-4.2-7-5.5c-1.8-0.8-3.7-1.3-5.7-1.5c-3.5-0.4-6.8,0.1-9.9,1.3
			c-2.3,0.9-4.3,2.1-5.8,3.9c-0.5,0.6-1.1,1.2-1.6,1.8c-0.9,1.1-2.3,1.1-3.2-0.1c0-0.4,0-0.7,0-1.1c0.6-0.8,1.2-1.5,1.9-2.3
			c2.9-3.1,6.6-5.1,11.1-6c0.8-0.2,1.7-0.3,2.5-0.5c1.7,0,3.4,0,5.1,0c0.7,0.1,1.5,0.3,2.2,0.4c4,0.8,7.6,2.4,10.4,5
			c1.2,1.1,2.1,2.3,3.2,3.5C48.4,9.6,48.4,10,48.4,10.4z"/>
		<path d="M37,34.1c0,2,0,4,0,6.1c0,0.7-0.1,1.5-0.3,2.2c-0.7,2.6-4,4.6-7.5,4.2c-2.8-0.3-5.7-2.7-5.7-5.3c0-4.4-0.1-8.9-0.1-13.3
			c0-3.2,2-5.3,5-6c3.8-0.9,7.6,1.2,8.4,4.5C37,27,37,27.6,37,28.2C37,30.2,37,32.1,37,34.1z"/>
		<path d="M29.2,6.3c5.4,0,9.2,1.5,12.2,4.5c0.5,0.4,0.8,1,1.2,1.5c0.5,0.7,0.4,1.5-0.3,1.9c-0.8,0.5-1.9,0.4-2.4-0.4
			c-1-1.2-2.1-2.3-3.7-3.1c-4-2-8-2-12-0.1c-1.3,0.7-2.4,1.6-3.3,2.7c-0.5,0.6-1,1.2-2,1c-1.3-0.2-1.9-1.4-1-2.3
			c1.1-1.2,2.2-2.3,3.6-3.2C23.9,7.1,26.9,6.3,29.2,6.3z"/>
		<path d="M30,12.9c3.9,0.1,6.6,1.6,8.3,4.5c0.6,1.2-0.2,2.2-1.7,2.2c-0.7,0-1.1-0.5-1.4-1c-0.9-1.4-2.2-2.3-4-2.7
			c-2.3-0.4-4.9,0.6-6,2.3c-0.3,0.5-0.7,0.9-1.2,1.2c-0.6,0.3-1.3,0.1-1.8-0.3c-0.5-0.3-0.6-1.2-0.2-1.8c1.3-2.3,3.4-3.7,6.3-4.2
			C28.8,13,29.5,13,30,12.9z"/>
	</g>
</g>
</svg>
