<?xml version="1.0" encoding="utf-8"?>
<!-- Generator: Adobe Illustrator 22.1.0, SVG Export Plug-In . SVG Version: 6.00 Build 0)  -->
<svg version="1.1" id="Capa_1" xmlns="http://www.w3.org/2000/svg" xmlns:xlink="http://www.w3.org/1999/xlink" x="0px" y="0px"
	 viewBox="0 0 60 60" style="enable-background:new 0 0 60 60;" xml:space="preserve">
<style type="text/css">
	.st0{fill:#FFFFFF;}
	.st1{fill:#151515;}
	.st2{fill:#030101;}
	.st3{fill:none;stroke:#000000;stroke-miterlimit:10;}
	.st4{stroke:#000000;stroke-miterlimit:10;}
	.st5{fill:none;stroke:#272525;stroke-width:2;stroke-linecap:round;stroke-linejoin:round;stroke-miterlimit:10;}
	.st6{fill:#272525;stroke:#272525;stroke-width:3;stroke-miterlimit:10;}
	.st7{opacity:0;clip-path:url(#SVGID_2_);fill-rule:evenodd;clip-rule:evenodd;fill:#FFFFFF;}
	.st8{clip-path:url(#SVGID_4_);}
	.st9{clip-path:url(#SVGID_6_);}
	.st10{fill:#211915;}
	.st11{fill:none;}
</style>
<g id="PRmPTY_2_">
	<g>
		<path d="M52.2,29.6c0,5.7,0.1,11.3,0,17c-0.1,7-4.2,11-11.3,11c-6,0-12,0.1-17.9-0.1c-1.5,0-3.1-0.9-4.3-1.8
			c-1.7-1.3-3-3.3-4.8-4.6c-5.3-3.7-6.7-8.7-6.5-14.9c0.3-8.4,0.1-16.7,0.4-25.1c0.2-5.9,4.4-10,10.3-10.1C25.9,1,33.8,1,41.7,1.1
			C47.8,1.2,52,5.2,52.2,11.4C52.3,17.4,52.2,23.5,52.2,29.6C52.2,29.6,52.2,29.6,52.2,29.6z M22.3,54.9c7.1,0,13.8,0.2,20.5-0.1
			c4.2-0.2,6.8-3.5,6.8-8c0.1-11.5,0.1-23.1,0-34.6c0-5.4-2.9-8.4-8.4-8.5c-7.4-0.1-14.9-0.1-22.3,0c-5.6,0.1-8.5,3.1-8.5,8.6
			c0,5.1,0,10.3,0,15.4c0,5,0,10,0,15.3c2.2,0,4,0,5.7,0c6,0,6.3,0.3,6.3,6.1C22.3,51,22.3,52.7,22.3,54.9z M19.4,52.3
			c0-2.3,0-4.3,0-6.4c-2.2,0-4.3,0-6.6,0C15.2,48.1,17.2,50.1,19.4,52.3z"/>
	</g>
</g>
<g>
	<path d="M32.6,26.8H29v-3.6c0-0.5-0.4-1-1-1c-0.5,0-1,0.4-1,1v3.6h-3.6c-0.5,0-1,0.4-1,1v0c0,0.5,0.4,1,1,1h3.6v3.6
		c0,0.5,0.4,1,1,1c0.5,0,1-0.4,1-1v-3.6h3.6c0.5,0,1-0.4,1-1v0C33.6,27.2,33.2,26.8,32.6,26.8z"/>
	<path d="M43.6,41.3l-5.4-6.4c0,0,0,0,0,0c1.6-2.1,2.5-4.7,2.5-7.5c0-6.8-5.6-12.4-12.4-12.4c-6.8,0-12.4,5.6-12.4,12.4
		s5.6,12.4,12.4,12.4c2.8,0,5.4-1,7.5-2.6l5.3,6.2c0.5,0.6,1.3,0.6,1.9,0.2l0.5-0.4C44,42.7,44,41.8,43.6,41.3z M17.9,27.4
		c0-5.7,4.7-10.4,10.4-10.4c5.7,0,10.4,4.7,10.4,10.4S34,37.7,28.2,37.7C22.5,37.7,17.9,33.1,17.9,27.4z"/>
</g>
</svg>
