<?xml version="1.0" encoding="utf-8"?>
<!-- Generator: Adobe Illustrator 22.1.0, SVG Export Plug-In . SVG Version: 6.00 Build 0)  -->
<svg version="1.1" id="Capa_1" xmlns="http://www.w3.org/2000/svg" xmlns:xlink="http://www.w3.org/1999/xlink" x="0px" y="0px"
	 viewBox="0 0 60 60" style="enable-background:new 0 0 60 60;" xml:space="preserve">
<style type="text/css">
	.st0{fill:#FFFFFF;}
	.st1{fill:#151515;}
	.st2{fill:#030101;}
	.st3{fill:none;stroke:#000000;stroke-miterlimit:10;}
	.st4{stroke:#000000;stroke-miterlimit:10;}
	.st5{fill:none;stroke:#272525;stroke-width:2;stroke-linecap:round;stroke-linejoin:round;stroke-miterlimit:10;}
	.st6{fill:#272525;stroke:#272525;stroke-width:3;stroke-miterlimit:10;}
	.st7{opacity:0;clip-path:url(#SVGID_2_);fill-rule:evenodd;clip-rule:evenodd;fill:#FFFFFF;}
	.st8{clip-path:url(#SVGID_4_);}
	.st9{clip-path:url(#SVGID_6_);}
	.st10{fill:#211915;}
	.st11{fill:none;}
</style>
<path d="M52.2,7.8h-4.3V1.3h-6.3v6.5H19.2V1.3h-6.3v6.5h-2.7c-2.5,0-4.5,2-4.5,4.5v39.8c0,2.5,2,4.5,4.5,4.5h42.1
	c2.5,0,4.5-2,4.5-4.5V12.3C56.7,9.8,54.7,7.8,52.2,7.8z M51.7,49.7H10.6V14.1h41.1V49.7z"/>
<g>
	<path d="M16.2,26.6h6.4c4.6,0,7.8,2.8,7.8,7s-3.2,7-7.8,7h-6.4V26.6z M22.5,38c2.8,0,4.6-1.7,4.6-4.4c0-2.7-1.8-4.4-4.6-4.4h-3V38
		H22.5z"/>
</g>
<g>
	<path d="M32.1,26.6h6.4c4.6,0,7.8,2.8,7.8,7s-3.2,7-7.8,7h-6.4V26.6z M38.4,38c2.8,0,4.6-1.7,4.6-4.4c0-2.7-1.8-4.4-4.6-4.4h-3V38
		H38.4z"/>
</g>
</svg>
