<?xml version="1.0" encoding="utf-8"?>
<!-- Generator: Adobe Illustrator 22.1.0, SVG Export Plug-In . SVG Version: 6.00 Build 0)  -->
<svg version="1.1" id="Capa_1" xmlns="http://www.w3.org/2000/svg" xmlns:xlink="http://www.w3.org/1999/xlink" x="0px" y="0px"
	 viewBox="0 0 60 60" style="enable-background:new 0 0 60 60;" xml:space="preserve">
<style type="text/css">
	.st0{fill:#FFFFFF;}
	.st1{fill:#151515;}
	.st2{fill:#030101;}
	.st3{fill:none;stroke:#000000;stroke-miterlimit:10;}
	.st4{stroke:#000000;stroke-miterlimit:10;}
	.st5{fill:none;stroke:#272525;stroke-width:2;stroke-linecap:round;stroke-linejoin:round;stroke-miterlimit:10;}
	.st6{fill:#272525;stroke:#272525;stroke-width:3;stroke-miterlimit:10;}
	.st7{opacity:0;clip-path:url(#SVGID_2_);fill-rule:evenodd;clip-rule:evenodd;fill:#FFFFFF;}
	.st8{clip-path:url(#SVGID_4_);}
	.st9{clip-path:url(#SVGID_6_);}
	.st10{fill:#211915;}
	.st11{fill:none;}
</style>
<g>
	<path d="M31.5,41.9c2.4,0.8,4.6,1.4,7.7,2.3C38,59.2,23.8,53.3,31.5,41.9z M44.2,28.1c-0.2-4.5-1-10.4-7.3-9.5
		c-3,0.8-5.2,4-6.2,9.6c-0.6,3.1-0.2,7.4,0.4,10c0.6,1.8,0.4,1.7,1.1,2.1c2.5,0.6,5,1.2,7.6,1.8C42.4,40.4,44.5,30.6,44.2,28.1z
		 M24.7,27.8c0.7-2.6,1-6.9,0.4-10c-1-5.6-3.2-8.9-6.2-9.6c-6.3-0.9-7.1,5-7.3,9.5c-0.4,2.5,1.8,12.3,4.4,14.1
		c2.6-0.6,5.1-1.3,7.6-1.8C24.3,29.5,24.1,29.6,24.7,27.8z M16.6,33.7c1.2,15,15.4,9.1,7.7-2.3C21.9,32.2,19.7,32.7,16.6,33.7z"/>
</g>
</svg>
