<?xml version="1.0" encoding="utf-8"?>
<!-- Generator: Adobe Illustrator 22.1.0, SVG Export Plug-In . SVG Version: 6.00 Build 0)  -->
<svg version="1.1" id="Capa_1" xmlns="http://www.w3.org/2000/svg" xmlns:xlink="http://www.w3.org/1999/xlink" x="0px" y="0px"
	 viewBox="0 0 60 60" style="enable-background:new 0 0 60 60;" xml:space="preserve">
<style type="text/css">
	.st0{fill:#FFFFFF;}
	.st1{fill:#151515;}
	.st2{fill:#030101;}
	.st3{fill:none;stroke:#000000;stroke-miterlimit:10;}
	.st4{stroke:#000000;stroke-miterlimit:10;}
	.st5{fill:none;stroke:#272525;stroke-width:2;stroke-linecap:round;stroke-linejoin:round;stroke-miterlimit:10;}
	.st6{fill:#272525;stroke:#272525;stroke-width:3;stroke-miterlimit:10;}
	.st7{opacity:0;clip-path:url(#SVGID_2_);fill-rule:evenodd;clip-rule:evenodd;fill:#FFFFFF;}
	.st8{clip-path:url(#SVGID_4_);}
	.st9{clip-path:url(#SVGID_6_);}
	.st10{fill:#211915;}
	.st11{fill:none;}
</style>
<g>
	<path class="st0" d="M44.4,38.2C44.4,38.2,44.4,38.3,44.4,38.2c-3.6,3.6-7.2,7.2-10.8,10.7c0,0-0.1,0.1-0.1,0.1
		c-0.2,0.1-0.4,0.3-0.4,0.6c-0.1,0.3-0.2,0.7-0.3,1c-0.7,2.3-1.3,4.6-2,6.9c-0.1,0.2-0.1,0.3,0,0.5c0.1,0.6,0.7,0.9,1.3,0.7
		c2-0.6,4.1-1.2,6.1-1.8c0.6-0.2,1.3-0.4,1.9-0.5c0.3-0.1,0.5-0.3,0.6-0.6c0-0.1,0.1-0.1,0.1-0.2c3.5-3.5,7.1-7,10.6-10.5
		c0,0,0,0,0,0c-0.5-0.5-1-1-1.5-1.5c0,0,0,0-0.1,0.1c-0.8,0.8-1.7,1.7-2.5,2.5c-2.8,2.8-5.6,5.6-8.4,8.4c0,0-0.1,0.1-0.1,0.1
		c-1.4,0.4-2.9,0.8-4.3,1.3c-0.1,0-0.1,0-0.1,0c-0.3-0.3-0.6-0.6-0.8-0.8c0,0,0-0.1,0-0.1c0.4-1.5,0.9-3,1.3-4.4
		c0-0.1,0.1-0.1,0.1-0.2c3.6-3.6,7.2-7.2,10.8-10.7c0,0,0.1,0,0.1-0.1C45.3,39.1,44.9,38.6,44.4,38.2z M46.8,40.6
		c-3.7,3.7-7.4,7.4-11,11.1c0,0,0,0,0.1,0c0.5,0.1,1,0.2,1.5,0.3c0.1,0,0.1,0,0.1,0.1c0,0.2,0.1,0.5,0.1,0.7c0,0.2,0.1,0.5,0.1,0.7
		c3.7-3.7,7.4-7.4,11.1-11C48.1,41.9,47.4,41.2,46.8,40.6z M54,42.5c-2.3-2.3-4.6-4.6-7-7c-0.5,0.5-1,1-1.6,1.5
		c2.3,2.3,4.6,4.6,6.9,6.9C52.9,43.5,53.4,43,54,42.5z"/>
	<path d="M50.9,33c0.1,0,0.2,0,0.3,0.1c0.5,0.1,0.8,0.3,1.2,0.6c1.1,1.1,2.2,2.2,3.3,3.3c0.9,0.9,0.9,2.4,0,3.3
		c-0.3,0.3-0.7,0.7-1,1c0,0,0,0,0,0c-2.2-2.2-4.4-4.4-6.6-6.7c0,0,0,0,0,0c0.4-0.4,0.7-0.7,1.1-1.1c0.4-0.3,0.8-0.5,1.3-0.6
		c0,0,0,0,0.1,0C50.7,33,50.8,33,50.9,33z"/>
	<path d="M44.4,38.2c0.5,0.5,0.9,0.9,1.3,1.3c0,0-0.1,0-0.1,0.1c-3.6,3.6-7.2,7.2-10.8,10.7c0,0-0.1,0.1-0.1,0.2
		c-0.4,1.5-0.9,3-1.3,4.4c0,0.1,0,0.1,0,0.1c0.3,0.3,0.6,0.6,0.8,0.8c0,0,0.1,0,0.1,0c1.4-0.4,2.9-0.8,4.3-1.3c0,0,0.1,0,0.1-0.1
		c2.8-2.8,5.6-5.6,8.4-8.4c0.8-0.8,1.7-1.7,2.5-2.5c0,0,0,0,0.1-0.1c0.5,0.5,1,1,1.5,1.5c0,0,0,0,0,0c-3.5,3.5-7.1,7-10.6,10.5
		c0,0-0.1,0.1-0.1,0.2c-0.1,0.3-0.3,0.5-0.6,0.6c-0.6,0.2-1.3,0.4-1.9,0.5c-2,0.6-4.1,1.2-6.1,1.8c-0.6,0.2-1.1-0.1-1.3-0.7
		c0-0.2,0-0.4,0-0.5c0.7-2.3,1.3-4.6,2-6.9c0.1-0.3,0.2-0.7,0.3-1c0.1-0.3,0.2-0.4,0.4-0.6c0,0,0.1-0.1,0.1-0.1
		C37.2,45.4,40.8,41.8,44.4,38.2C44.4,38.3,44.4,38.2,44.4,38.2z"/>
	<path d="M46.8,40.6c0.6,0.6,1.2,1.2,1.9,1.9c-3.7,3.7-7.4,7.3-11.1,11c0-0.2-0.1-0.5-0.1-0.7c0-0.2-0.1-0.5-0.1-0.7
		c0-0.1,0-0.1-0.1-0.1c-0.5-0.1-1-0.2-1.5-0.3c0,0,0,0-0.1,0C39.5,48,43.1,44.3,46.8,40.6z"/>
	<path d="M54,42.5c-0.5,0.5-1.1,1-1.6,1.5c-2.3-2.3-4.6-4.6-6.9-6.9c0.5-0.5,1-1,1.6-1.5C49.3,37.9,51.6,40.2,54,42.5z"/>
</g>
<path d="M29.5,55.4c0-0.4,0.1-0.8,0.1-1.2c-2.5,0-5-0.1-7.6-0.1c0-3.1-0.1-5.9,0-8.7c0.1-1.8-0.7-2.5-2.4-2.5c-2.8,0.1-5.7,0-8.7,0
	c-0.1-1.1-0.2-1.9-0.2-2.7c0-8.8,0-17.6,0-26.5c0-5,2.7-7.9,7.6-8c7.3-0.1,14.7-0.1,22,0c4.6,0.1,7.4,3.1,7.4,7.6c0,6,0,12,0,18.1
	c0.8-0.5,1.6-0.8,2.5-1.1c0-0.1,0-0.2,0-0.3c0-5.3,0-10.7,0-16c0-6.9-3.9-10.7-10.7-10.7c-6.9,0-13.9,0-20.8,0
	C12.2,3.5,8.4,7.3,8.3,14c-0.1,5.5,0,11.1,0,16.6c0,4.7-1.1,10,0.6,14.1c1.7,4.1,6.2,7,9.7,10.3c1.1,1,2.9,1.7,4.4,1.8
	c2.4,0.1,4.7,0.1,7.1,0.1C29.6,56.4,29.5,55.8,29.5,55.4z M19.4,51.8c-2-2.2-3.8-4.2-5.5-6.2h5.5V51.8z"/>
<path d="M42.5,13.9H16.5c-0.6,0-1-0.5-1-1v-0.4c0-0.6,0.5-1,1-1h26.1c0.6,0,1,0.5,1,1v0.4C43.6,13.4,43.1,13.9,42.5,13.9z"/>
<path d="M42.5,22.4H16.5c-0.6,0-1-0.5-1-1V21c0-0.6,0.5-1,1-1h26.1c0.6,0,1,0.5,1,1v0.4C43.6,22,43.1,22.4,42.5,22.4z"/>
<path d="M42.5,30.9H16.5c-0.6,0-1-0.5-1-1v-0.4c0-0.6,0.5-1,1-1h26.1c0.6,0,1,0.5,1,1v0.4C43.6,30.5,43.1,30.9,42.5,30.9z"/>
<path d="M42.5,37.6H28.4c-0.6,0-1-0.5-1-1v-0.4c0-0.6,0.5-1,1-1h14.1c0.6,0,1,0.5,1,1v0.4C43.6,37.1,43.1,37.6,42.5,37.6z"/>
</svg>
