<?xml version="1.0" encoding="utf-8"?>
<!-- Generator: Adobe Illustrator 22.1.0, SVG Export Plug-In . SVG Version: 6.00 Build 0)  -->
<svg version="1.1" id="Capa_1" xmlns="http://www.w3.org/2000/svg" xmlns:xlink="http://www.w3.org/1999/xlink" x="0px" y="0px"
	 viewBox="0 0 60 60" style="enable-background:new 0 0 60 60;" xml:space="preserve">
<style type="text/css">
	.st0{fill:#FFFFFF;}
	.st1{fill:#151515;}
	.st2{fill:#030101;}
	.st3{fill:none;stroke:#000000;stroke-miterlimit:10;}
	.st4{stroke:#000000;stroke-miterlimit:10;}
	.st5{fill:none;stroke:#272525;stroke-width:2;stroke-linecap:round;stroke-linejoin:round;stroke-miterlimit:10;}
	.st6{fill:#272525;stroke:#272525;stroke-width:3;stroke-miterlimit:10;}
	.st7{opacity:0;clip-path:url(#SVGID_2_);fill-rule:evenodd;clip-rule:evenodd;fill:#FFFFFF;}
	.st8{clip-path:url(#SVGID_4_);}
	.st9{clip-path:url(#SVGID_6_);}
	.st10{fill:#211915;}
	.st11{fill:none;}
</style>
<path d="M39.9,23.6c2.8-2,8.3-4.2,8.3-7.5c0-11.5-18.8-9.3-18.8-9.3s-18.8-2.1-18.8,9.3c0,3.3,5.4,5.5,8.3,7.5
	c-5,3.4-8.3,9.1-8.3,15.5c0,7.6,4.6,14.2,11.1,17.1l15.2,0c6.6-2.9,11.1-9.5,11.1-17.1C48.1,32.6,44.9,26.9,39.9,23.6z M22.6,21.7
	c-2.4-1.5-7-3-7-6c0-5.9,13.8-5.1,13.8-5.1s13.8-0.7,13.8,5.1c0,3-4.6,4.4-7,6c-2.1-0.8-4.4-1.3-6.8-1.3
	C27,20.4,24.7,20.8,22.6,21.7z"/>
<path class="st0" d="M44.1,32c-0.3,0-0.5-0.2-0.6-0.4c0,0-0.9-2.5-3.2-3.9c-0.3-0.2-0.4-0.6-0.2-0.9c0.2-0.3,0.6-0.4,0.9-0.2
	c2.6,1.7,3.6,4.4,3.6,4.5c0.1,0.3-0.1,0.7-0.4,0.9C44.3,32,44.2,32,44.1,32z"/>
</svg>
