<?xml version="1.0" encoding="utf-8"?>
<!-- Generator: Adobe Illustrator 22.1.0, SVG Export Plug-In . SVG Version: 6.00 Build 0)  -->
<svg version="1.1" id="Capa_1" xmlns="http://www.w3.org/2000/svg" xmlns:xlink="http://www.w3.org/1999/xlink" x="0px" y="0px"
	 viewBox="0 0 60 60" style="enable-background:new 0 0 60 60;" xml:space="preserve">
<style type="text/css">
	.st0{fill:#FFFFFF;}
	.st1{fill:#151515;}
	.st2{fill:#030101;}
	.st3{fill:none;stroke:#000000;stroke-miterlimit:10;}
	.st4{stroke:#000000;stroke-miterlimit:10;}
	.st5{fill:none;stroke:#272525;stroke-width:2;stroke-linecap:round;stroke-linejoin:round;stroke-miterlimit:10;}
	.st6{fill:#272525;stroke:#272525;stroke-width:3;stroke-miterlimit:10;}
	.st7{opacity:0;clip-path:url(#SVGID_2_);fill-rule:evenodd;clip-rule:evenodd;fill:#FFFFFF;}
	.st8{clip-path:url(#SVGID_4_);}
	.st9{clip-path:url(#SVGID_6_);}
	.st10{fill:#211915;}
	.st11{fill:none;}
</style>
<g>
	<path d="M15.9,28.7c0.9,0,1.5,0.4,1.8,1.3c0.5,1.4,1.1,2.8,1.8,4.4c0.2-0.6,0.4-1,0.5-1.4c1.1-3,2.2-6.1,3.2-9.1
		c0.3-0.7,0.6-1.3,1.4-1.3c0.9,0,1.3,0.6,1.5,1.4c1.2,3.2,2.3,6.3,3.5,9.5c0.1,0.2,0.1,0.3,0.3,0.7c0.9-2.6,1.8-5.1,2.6-7.6
		c0.3-0.9,0.6-1.8,1-2.7c0.2-0.7,0.6-1.2,1.4-1.3c0.8,0,1.2,0.5,1.5,1.2c1.4,3.3,2.8,6.5,4.2,9.8c0.1,0.2,0.2,0.4,0.4,0.8
		c0.5-1.5,0.9-2.8,1.3-4.2c0.3-0.9,0.8-1.4,1.8-1.4c1.9,0,6.4,0,9.8,0c0.7-1.6,1.1-3.4,1.1-5.3c0-7.5-6-13.5-13.5-13.5
		c-4.9,0-9.1,2.6-11.5,6.4c-2.4-3.9-6.6-6.4-11.5-6.4C11.1,9.9,5,16,5,23.4c0,1.9,0.4,3.7,1.1,5.3C9.6,28.7,14.1,28.7,15.9,28.7z"/>
	<path d="M45.8,31.5c-0.8,0-1.1,0.3-1.3,1c-0.5,1.9-1.2,3.8-1.8,5.7c-0.2,0.8-0.5,1.5-1.5,1.6c-1,0-1.3-0.7-1.6-1.4
		c-1.5-3.4-2.9-6.8-4.5-10.5c-0.7,2-1.3,3.8-1.9,5.5c-0.6,1.7-1.2,3.3-1.7,5c-0.3,0.8-0.6,1.4-1.5,1.4c-0.8,0-1.2-0.6-1.4-1.3
		c-1.1-3.1-2.3-6.3-3.5-9.4c-0.1-0.2-0.2-0.5-0.3-0.9c-0.8,2.1-1.5,4.1-2.2,6c-0.5,1.5-1,2.9-1.5,4.4c-0.2,0.7-0.6,1.2-1.4,1.2
		c-0.8,0-1.2-0.5-1.5-1.2c-0.8-2-1.6-4-2.4-6c-0.3-0.8-0.6-1.1-1.5-1.1c-1.1,0-3.9,0-6.5,0c0.6,0.8,1.2,1.5,2,2.1l19.1,19.1
		c0.3,0.3,0.8,0.5,1.2,0.5c0.5,0,0.9-0.2,1.2-0.5l19.1-19.1c0.7-0.6,1.4-1.3,2-2.1C49.8,31.5,46.9,31.5,45.8,31.5z"/>
</g>
</svg>
