<?xml version="1.0" encoding="utf-8"?>
<!-- Generator: Adobe Illustrator 22.1.0, SVG Export Plug-In . SVG Version: 6.00 Build 0)  -->
<svg version="1.1" id="Capa_1" xmlns="http://www.w3.org/2000/svg" xmlns:xlink="http://www.w3.org/1999/xlink" x="0px" y="0px"
	 viewBox="0 0 60 60" style="enable-background:new 0 0 60 60;" xml:space="preserve">
<style type="text/css">
	.st0{fill:#FFFFFF;}
	.st1{fill:#151515;}
	.st2{fill:#030101;}
	.st3{fill:none;stroke:#000000;stroke-miterlimit:10;}
	.st4{stroke:#000000;stroke-miterlimit:10;}
	.st5{fill:none;stroke:#272525;stroke-width:2;stroke-linecap:round;stroke-linejoin:round;stroke-miterlimit:10;}
	.st6{fill:#272525;stroke:#272525;stroke-width:3;stroke-miterlimit:10;}
	.st7{opacity:0;clip-path:url(#SVGID_2_);fill-rule:evenodd;clip-rule:evenodd;fill:#FFFFFF;}
	.st8{clip-path:url(#SVGID_4_);}
	.st9{clip-path:url(#SVGID_6_);}
	.st10{fill:#211915;}
	.st11{fill:none;}
</style>
<g>
	<path d="M55.5,23.7c-0.2-2-2-3.5-4-3.3L45.1,21l-6.2-2.9l-0.1,0c-2.2-1.3-4.4-2.7-6.2-2.7l-8-0.5c-0.7,0-1.3,0.1-1.9,0.4l-6.6,3.4
		c-0.9,0.5-1.5,1.2-1.8,2.2c-0.3,0.9-0.2,1.9,0.2,2.8c0.6,1.2,1.9,2,3.3,2c0.6,0,1.2-0.1,1.7-0.4l5.7-2.9l2.8,0.2L24.4,33
		c-0.1,0.2-0.1,0.4-0.2,0.6l-4.7,5.3l-7.7,0.4c-1.1,0.1-2.2,0.6-2.9,1.4c-0.8,0.8-1.1,1.9-1.1,3.1c0.1,2.2,2,4,4.2,4
		c0.1,0,0.2,0,0.2,0l9.5-0.5c1.1-0.1,2.2-0.6,2.9-1.4l4.7-5.2l4.1,4l2.8,8.3c0.6,1.7,2.2,2.9,4,2.9c0,0,0,0,0,0
		c0.5,0,0.9-0.1,1.4-0.2c1.1-0.4,1.9-1.1,2.5-2.1c0.5-1,0.6-2.2,0.2-3.2L41.1,41c-0.2-0.6-0.6-1.2-1-1.7l-5-4.9l2.9-8.5l4.9,2.3
		c0.5,0.2,1,0.3,1.6,0.3c0.1,0,0.2,0,0.4,0l7.4-0.8C54.2,27.5,55.7,25.7,55.5,23.7z"/>
	<path d="M38.8,16c0.2,0,0.4,0,0.6,0c1.7-0.2,3.2-1,4.3-2.3c1.1-1.3,1.6-3,1.4-4.7c-0.3-3.5-3.4-6.1-7-5.7c-3.5,0.3-6,3.5-5.7,7
		C32.8,13.5,35.5,16,38.8,16z"/>
</g>
</svg>
