<?xml version="1.0" encoding="utf-8"?>
<!-- Generator: Adobe Illustrator 22.1.0, SVG Export Plug-In . SVG Version: 6.00 Build 0)  -->
<svg version="1.1" id="Capa_1" xmlns="http://www.w3.org/2000/svg" xmlns:xlink="http://www.w3.org/1999/xlink" x="0px" y="0px"
	 viewBox="0 0 60 60" style="enable-background:new 0 0 60 60;" xml:space="preserve">
<style type="text/css">
	.st0{fill:#FFFFFF;}
	.st1{fill:#151515;}
	.st2{fill:#030101;}
	.st3{fill:none;stroke:#000000;stroke-miterlimit:10;}
	.st4{stroke:#000000;stroke-miterlimit:10;}
	.st5{fill:none;stroke:#272525;stroke-width:2;stroke-linecap:round;stroke-linejoin:round;stroke-miterlimit:10;}
	.st6{fill:#272525;stroke:#272525;stroke-width:3;stroke-miterlimit:10;}
	.st7{opacity:0;clip-path:url(#SVGID_2_);fill-rule:evenodd;clip-rule:evenodd;fill:#FFFFFF;}
	.st8{clip-path:url(#SVGID_4_);}
	.st9{clip-path:url(#SVGID_6_);}
	.st10{fill:#211915;}
	.st11{fill:none;}
</style>
<path d="M50.8,30.2c0,5.2,0,10.5,0,15.7C50.8,53,47,56.8,40,56.8c-5.5,0-11.1,0.1-16.6-0.1c-1.5-0.1-3.3-0.8-4.4-1.8
	c-3.5-3.2-8-6.2-9.7-10.3c-1.7-4.1-0.5-9.3-0.6-14.1c0-5.5-0.1-11.1,0-16.6C8.9,7.3,12.7,3.5,19.3,3.4c6.9,0,13.9,0,20.8,0
	c6.8,0,10.6,3.8,10.7,10.7C50.8,19.5,50.8,24.8,50.8,30.2z M22.6,54.1c6.8,0,13.2,0.2,19.6-0.1c3.7-0.2,6-3.3,6.1-7.2
	c0.1-11.1,0.1-22.2,0-33.3C48.3,9,45.4,6,40.9,6c-7.3-0.1-14.7-0.1-22,0c-4.9,0.1-7.6,3-7.6,8c0,8.8,0,17.6,0,26.5
	c0,0.8,0.1,1.5,0.2,2.7c3,0,5.8,0.1,8.7,0c1.8,0,2.5,0.7,2.4,2.5C22.5,48.2,22.6,51,22.6,54.1z M14.4,45.7c1.7,1.9,3.5,3.9,5.5,6.1
	c0-2.2,0-4.1,0-6.1C17.8,45.7,15.9,45.7,14.4,45.7z"/>
<path d="M43.1,13.9H17c-0.6,0-1-0.5-1-1v-0.4c0-0.6,0.5-1,1-1h26.1c0.6,0,1,0.5,1,1v0.4C44.1,13.4,43.6,13.9,43.1,13.9z"/>
<path d="M43.1,22.4H17c-0.6,0-1-0.5-1-1V21c0-0.6,0.5-1,1-1h26.1c0.6,0,1,0.5,1,1v0.4C44.1,22,43.6,22.4,43.1,22.4z"/>
<path d="M43.1,30.9H17c-0.6,0-1-0.5-1-1v-0.4c0-0.6,0.5-1,1-1h26.1c0.6,0,1,0.5,1,1v0.4C44.1,30.5,43.6,30.9,43.1,30.9z"/>
<path d="M43.1,44.2H28.9c-0.6,0-1-0.5-1-1v-0.4c0-0.6,0.5-1,1-1h14.1c0.6,0,1,0.5,1,1v0.4C44.1,43.8,43.6,44.2,43.1,44.2z"/>
</svg>
