<?xml version="1.0" encoding="utf-8"?>
<!-- Generator: Adobe Illustrator 22.1.0, SVG Export Plug-In . SVG Version: 6.00 Build 0)  -->
<svg version="1.1" id="Capa_1" xmlns="http://www.w3.org/2000/svg" xmlns:xlink="http://www.w3.org/1999/xlink" x="0px" y="0px"
	 viewBox="0 0 60 60" style="enable-background:new 0 0 60 60;" xml:space="preserve">
<style type="text/css">
	.st0{fill:#FFFFFF;}
	.st1{fill:#151515;}
	.st2{fill:#030101;}
	.st3{fill:none;stroke:#000000;stroke-miterlimit:10;}
	.st4{stroke:#000000;stroke-miterlimit:10;}
	.st5{fill:none;stroke:#272525;stroke-width:2;stroke-linecap:round;stroke-linejoin:round;stroke-miterlimit:10;}
	.st6{fill:#272525;stroke:#272525;stroke-width:3;stroke-miterlimit:10;}
	.st7{opacity:0;clip-path:url(#SVGID_2_);fill-rule:evenodd;clip-rule:evenodd;fill:#FFFFFF;}
	.st8{clip-path:url(#SVGID_4_);}
	.st9{clip-path:url(#SVGID_6_);}
	.st10{fill:#211915;}
	.st11{fill:none;}
</style>
<g id="VAgG4i_1_">
	<g>
		<path class="st0" d="M50.1,24.9c0-1.2,0-2.4,0-3.6c0-2.5-1.6-4.1-4.1-4.1c-3.4,0-6.7,0-10.1,0c-2.3,0-4.2-0.8-5.7-2.4
			c-1.1-1.1-2.1-2.1-3.2-3.2c-1.5-1.5-3.3-2.2-5.4-2.2c-4.8,0-9.5,0-14.3,0c-2.3,0-4,1.7-4,4c0,12.3,0,24.6,0,36.9
			c0,3.3,2.6,5.9,5.9,5.9c11.9,0,23.8,0,35.6,0c3.4,0,5.9-1.6,7.2-4.8c2.6-6.4,5.1-12.8,7.7-19.2c0.2-0.6,0.3-1.3,0.3-1.9
			c-0.3-2.1-1.9-3.4-4-3.4c-10.6,0-21.1,0-31.7,0c-2.2,0-3.3,0.8-4.1,2.8c-2.6,6.6-5.3,13.2-7.9,19.9c-0.4,0.9-0.9,1.7-1.8,2.2
			c-1.7,0.9-3.2,0-3.2-1.9c0-12,0-24,0-36c0-0.2,0-0.4,0-0.7c0.2,0,0.3,0,0.4,0c4.7,0,9.4,0,14,0c1.1,0,1.9,0.4,2.7,1.2
			c1.1,1.1,2.2,2.2,3.3,3.3c2.3,2.3,5.1,3.4,8.3,3.4c3.2,0,6.5,0,9.7,0c0.2,0,0.4,0,0.7,0c0,1.3,0,2.6,0,3.9
			C47.6,24.9,48.8,24.9,50.1,24.9z"/>
		<path d="M50.1,24.9c-1.3,0-2.6,0-3.9,0c0-1.3,0-2.5,0-3.9c-0.3,0-0.5,0-0.7,0c-3.2,0-6.5,0-9.7,0c-3.2,0-6-1.1-8.3-3.4
			c-1.1-1.1-2.2-2.2-3.3-3.3c-0.7-0.7-1.6-1.2-2.7-1.2c-4.7,0-9.4,0-14,0c-0.1,0-0.2,0-0.4,0c0,0.2,0,0.5,0,0.7c0,12,0,24,0,36
			c0,1.9,1.5,2.8,3.2,1.9c0.9-0.5,1.4-1.3,1.8-2.2c2.6-6.6,5.3-13.2,7.9-19.9c0.8-2,2-2.8,4.1-2.8c10.6,0,21.1,0,31.7,0
			c2.1,0,3.7,1.3,4,3.4c0.1,0.6,0,1.3-0.3,1.9c-2.5,6.4-5,12.8-7.7,19.2c-1.3,3.1-3.8,4.7-7.2,4.8c-11.9,0-23.8,0-35.6,0
			c-3.3,0-5.9-2.6-5.9-5.9c0-12.3,0-24.6,0-36.9c0-2.3,1.7-4,4-4c4.8,0,9.5,0,14.3,0c2.1,0,3.9,0.8,5.4,2.2c1.1,1.1,2.1,2.1,3.2,3.2
			c1.6,1.6,3.5,2.4,5.7,2.4c3.4,0,6.7,0,10.1,0c2.5,0,4.1,1.7,4.1,4.1C50.1,22.5,50.1,23.7,50.1,24.9z"/>
	</g>
</g>
</svg>
