<?xml version="1.0" encoding="utf-8"?>
<!-- Generator: Adobe Illustrator 22.1.0, SVG Export Plug-In . SVG Version: 6.00 Build 0)  -->
<svg version="1.1" id="Capa_1" xmlns="http://www.w3.org/2000/svg" xmlns:xlink="http://www.w3.org/1999/xlink" x="0px" y="0px"
	 viewBox="0 0 60 60" style="enable-background:new 0 0 60 60;" xml:space="preserve">
<style type="text/css">
	.st0{fill:#FFFFFF;}
	.st1{fill:#151515;}
	.st2{fill:#030101;}
	.st3{fill:none;stroke:#000000;stroke-miterlimit:10;}
	.st4{stroke:#000000;stroke-miterlimit:10;}
	.st5{fill:none;stroke:#272525;stroke-width:2;stroke-linecap:round;stroke-linejoin:round;stroke-miterlimit:10;}
	.st6{fill:#272525;stroke:#272525;stroke-width:3;stroke-miterlimit:10;}
	.st7{opacity:0;clip-path:url(#SVGID_2_);fill-rule:evenodd;clip-rule:evenodd;fill:#FFFFFF;}
	.st8{clip-path:url(#SVGID_4_);}
	.st9{clip-path:url(#SVGID_6_);}
	.st10{fill:#211915;}
	.st11{fill:none;}
</style>
<g>
	<path class="st0" d="M48.7,37C48.7,37,48.7,37.1,48.7,37c-2.3,2.3-4.6,4.5-6.8,6.8c0,0,0,0-0.1,0.1c-0.1,0.1-0.2,0.2-0.3,0.4
		c-0.1,0.2-0.1,0.4-0.2,0.7c-0.4,1.4-0.9,2.9-1.3,4.3c0,0.1,0,0.2,0,0.3c0.1,0.4,0.4,0.6,0.8,0.4c1.3-0.4,2.6-0.8,3.9-1.1
		c0.4-0.1,0.8-0.2,1.2-0.3c0.2-0.1,0.3-0.2,0.4-0.3c0,0,0-0.1,0.1-0.1c2.2-2.2,4.5-4.4,6.7-6.6c0,0,0,0,0,0
		c-0.3-0.3-0.6-0.6-0.9-0.9c0,0,0,0,0,0c-0.5,0.5-1,1.1-1.6,1.6c-1.8,1.8-3.5,3.5-5.3,5.3c0,0-0.1,0-0.1,0.1
		c-0.9,0.3-1.8,0.5-2.7,0.8c0,0-0.1,0-0.1,0c-0.2-0.2-0.4-0.4-0.5-0.5c0,0,0,0,0-0.1c0.3-0.9,0.5-1.9,0.8-2.8c0,0,0-0.1,0.1-0.1
		c2.3-2.3,4.5-4.5,6.8-6.8c0,0,0,0,0.1,0C49.2,37.6,49,37.3,48.7,37z M50.2,38.6c-2.3,2.3-4.7,4.7-7,7c0,0,0,0,0,0
		c0.3,0.1,0.6,0.1,0.9,0.2c0,0,0.1,0,0.1,0.1c0,0.2,0,0.3,0.1,0.5c0,0.1,0,0.3,0.1,0.4c2.3-2.3,4.7-4.7,7-7
		C51,39.3,50.6,39,50.2,38.6z M54.7,39.8c-1.5-1.5-2.9-2.9-4.4-4.4c-0.3,0.3-0.7,0.6-1,0.9c1.5,1.5,2.9,2.9,4.4,4.4
		C54.1,40.4,54.4,40.1,54.7,39.8z"/>
	<path d="M52.8,33.7c0.1,0,0.1,0,0.2,0c0.3,0.1,0.5,0.2,0.7,0.4c0.7,0.7,1.4,1.4,2.1,2.1c0.6,0.6,0.6,1.5,0,2.1
		c-0.2,0.2-0.4,0.4-0.6,0.6c0,0,0,0,0,0c-1.4-1.4-2.8-2.8-4.2-4.2c0,0,0,0,0,0c0.2-0.2,0.4-0.5,0.7-0.7c0.2-0.2,0.5-0.3,0.8-0.4
		c0,0,0,0,0,0C52.7,33.7,52.7,33.7,52.8,33.7z"/>
	<path d="M48.7,37c0.3,0.3,0.6,0.6,0.9,0.9c0,0,0,0-0.1,0c-2.3,2.3-4.5,4.5-6.8,6.8c0,0-0.1,0.1-0.1,0.1c-0.3,0.9-0.6,1.9-0.8,2.8
		c0,0,0,0.1,0,0.1c0.2,0.2,0.4,0.4,0.5,0.5c0,0,0,0,0.1,0c0.9-0.3,1.8-0.5,2.7-0.8c0,0,0.1,0,0.1-0.1c1.8-1.8,3.5-3.5,5.3-5.3
		c0.5-0.5,1-1.1,1.6-1.6c0,0,0,0,0,0c0.3,0.3,0.6,0.6,0.9,0.9c0,0,0,0,0,0c-2.2,2.2-4.5,4.4-6.7,6.6c0,0-0.1,0.1-0.1,0.1
		c-0.1,0.2-0.2,0.3-0.4,0.3c-0.4,0.1-0.8,0.2-1.2,0.3c-1.3,0.4-2.6,0.8-3.9,1.1c-0.4,0.1-0.7-0.1-0.8-0.4c0-0.1,0-0.2,0-0.3
		c0.4-1.4,0.9-2.9,1.3-4.3c0.1-0.2,0.1-0.4,0.2-0.7c0-0.2,0.1-0.3,0.3-0.4c0,0,0,0,0.1-0.1C44.1,41.6,46.4,39.3,48.7,37
		C48.7,37.1,48.7,37,48.7,37z"/>
	<path d="M50.2,38.6c0.4,0.4,0.8,0.8,1.2,1.2c-2.3,2.3-4.7,4.6-7,7c0-0.2,0-0.3-0.1-0.4c0-0.2,0-0.3-0.1-0.5c0,0,0,0-0.1-0.1
		c-0.3-0.1-0.6-0.1-0.9-0.2c0,0,0,0,0,0C45.6,43.2,47.9,40.9,50.2,38.6z"/>
	<path d="M54.7,39.8c-0.3,0.3-0.7,0.6-1,0.9c-1.5-1.5-2.9-2.9-4.4-4.4c0.3-0.3,0.7-0.6,1-0.9C51.8,36.8,53.3,38.3,54.7,39.8z"/>
</g>
<path d="M8.3,8.6c-0.1-2.8,2-5.2,4.9-5.2C24,3.3,34.9,3.2,45.7,3.1c4.4,0,6.1,1.7,6.1,6.1c0,6.9,0,13.9,0,20.8c0,0.5,0.1,1-0.1,1.4
	C51.7,31.7,51.2,32,51,32c-0.3,0-0.6-0.4-0.7-0.7c-0.1-0.5-0.1-1-0.1-1.5c0-6.9,0-13.9,0-20.8c0-3-1.1-4-4-4c-7.2,0-14.4,0-21.6,0
	c-3,0-5.9-0.2-8.9-0.2c-0.9,0-1.8,0-2.7,0.2c-2.1,0.5-2.8,1.3-2.8,3.5c-0.1,3.7,0,7.4,0,11.1c0,10.3,0,20.6,0,30.9
	c0,3.3,0.9,4.2,4.1,4.2c7.8,0,15.6,0,23.4,0c0.5,0,1-0.1,1.4,0.1c0.3,0.1,0.7,0.6,0.7,0.9c0,0.2-0.4,0.6-0.7,0.7
	c-0.4,0.1-0.9,0.1-1.4,0.1c-7.9,0-15.8,0-23.7,0c-3.7,0-5.6-2-5.6-5.6C8.3,45.5,8.4,11.4,8.3,8.6z"/>
<path d="M22.9,16.9c-2.1,1.5-4,2.9-6,4.3c-0.4,0.3-1.1,0.2-1.6,0.3c0.2-0.6,0.3-1.3,0.7-1.6c1.9-1.5,4-2.9,5.9-4.4
	c1-0.8,1.7-0.5,2.5,0.4c2.3,2.6,2.3,2.6,5,0.5c2-1.5,3.9-3,6-4.3c0.4-0.3,1.2-0.1,1.8-0.2c-0.3,0.5-0.4,1.2-0.8,1.6
	c-3,2.2-6,4.4-9,6.6c-0.9,0.7-1.5,0.6-2.1-0.3C24.5,18.8,23.7,17.9,22.9,16.9z"/>
<path d="M24.6,39.5c2.4,0,4.8-0.1,7.2,0c0.6,0,1.1,0.6,1.7,0.9c-0.6,0.3-1.1,0.8-1.7,0.8c-4.7,0.1-9.5,0.1-14.2,0
	c-0.6,0-1.2-0.6-1.8-0.9c0.6-0.3,1.2-0.8,1.8-0.9C20,39.4,22.3,39.5,24.6,39.5C24.6,39.5,24.6,39.5,24.6,39.5z"/>
<path d="M24.7,37.4c-2.5,0-4.9,0-7.4,0c-0.5,0-1-0.5-1.5-0.8c0.5-0.3,0.9-0.8,1.4-0.8c4.9-0.1,9.8-0.1,14.7,0c0.5,0,1,0.6,1.5,0.9
	c-0.5,0.3-1.1,0.7-1.6,0.8C29.5,37.4,27.1,37.4,24.7,37.4z"/>
<path d="M36.9,23.3c0,1.8,0.1,3.6,0,5.3c0,0.5-0.6,0.9-0.9,1.4c-0.3-0.5-0.9-0.9-0.9-1.4c-0.1-3.5-0.1-7.1,0-10.6
	c0-0.5,0.5-1,0.8-1.5c0.3,0.5,0.9,1,0.9,1.5C37,19.8,36.9,21.5,36.9,23.3z"/>
<path d="M42.7,30.1c-2.1,0-2.2-0.2-2.2-2.4c0-1.9,0.4-2.2,2.4-2.2c1.9,0,2.2,0.4,2.2,2.5C45,29.9,44.8,30.1,42.7,30.1z"/>
<path d="M43.1,18.5c1.6-0.3,2,0.6,2,2.1c0,2.1-0.2,2.4-2.3,2.4c-2,0-2.3-0.2-2.3-2.2C40.5,18.5,40.5,18.5,43.1,18.5z"/>
<path d="M43.1,11.4c1.6-0.3,2,0.6,2,2.1c0,2.1-0.2,2.4-2.3,2.4c-2,0-2.3-0.2-2.3-2.2C40.5,11.5,40.5,11.4,43.1,11.4z"/>
<path d="M33.6,24.5c0,1.4,0.1,2.9,0,4.3c0,0.4-0.5,0.8-0.8,1.2c-0.3-0.4-0.7-0.8-0.7-1.2c-0.1-3,0-5.9,0-8.9c0-0.4,0.5-0.7,0.7-1.1
	c0.3,0.4,0.8,0.8,0.8,1.2C33.7,21.6,33.6,23.1,33.6,24.5z"/>
<path d="M23.9,24.8c0,1.3,0.1,2.6,0,3.9c0,0.4-0.5,0.8-0.8,1.2c-0.3-0.4-0.8-0.7-0.8-1.1c-0.1-2.7-0.1-5.5,0-8.2
	c0-0.4,0.5-0.7,0.8-1.1c0.3,0.4,0.8,0.7,0.8,1.1C24,22.1,23.9,23.4,23.9,24.8z"/>
<path d="M19.9,45.1c-1,0-2.1,0.1-3.1,0c-0.3,0-0.6-0.5-0.9-0.8c0.3-0.3,0.6-0.8,0.9-0.8c2.1-0.1,4.2-0.1,6.3,0
	c0.3,0,0.6,0.6,0.8,0.9c-0.3,0.3-0.6,0.7-0.9,0.8C21.9,45.2,20.9,45.1,19.9,45.1C19.9,45.1,19.9,45.1,19.9,45.1z"/>
<path d="M30.5,25.7c0,1,0.1,2.1,0,3.1c-0.1,0.4-0.6,0.8-0.9,1.2c-0.3-0.4-0.8-0.7-0.8-1.1c-0.1-2.2-0.1-4.4,0-6.7
	c0-0.4,0.5-0.7,0.8-1c0.3,0.4,0.8,0.7,0.8,1.1C30.5,23.4,30.5,24.6,30.5,25.7z"/>
<path d="M20.6,26.1c0,1,0.1,1.9,0,2.9c0,0.4-0.6,0.7-0.8,1c-0.3-0.3-0.8-0.6-0.8-0.9c-0.1-2-0.1-4.1,0-6.1c0-0.3,0.5-0.6,0.8-1
	c0.3,0.3,0.8,0.7,0.9,1C20.7,24,20.7,25.1,20.6,26.1C20.7,26.1,20.7,26.1,20.6,26.1z"/>
<path d="M25.5,26.5c0-0.8-0.1-1.6,0-2.4c0.1-0.3,0.5-0.6,0.8-0.9c0.3,0.3,0.8,0.6,0.8,0.9c0.1,1.6,0.1,3.3,0,4.9
	c0,0.3-0.5,0.6-0.7,1c-0.3-0.3-0.8-0.6-0.9-1C25.4,28.2,25.5,27.3,25.5,26.5C25.5,26.5,25.5,26.5,25.5,26.5z"/>
<path d="M17.4,27.2c0,0.6,0.1,1.2,0,1.7c-0.1,0.4-0.5,0.8-0.7,1.1c-0.3-0.3-0.8-0.7-0.8-1c-0.1-1.2-0.1-2.4,0-3.6
	c0-0.4,0.5-0.7,0.8-1c0.3,0.4,0.6,0.7,0.7,1.1C17.5,26,17.4,26.6,17.4,27.2C17.4,27.2,17.4,27.2,17.4,27.2z"/>
</svg>
