<?xml version="1.0" encoding="utf-8"?>
<!-- Generator: Adobe Illustrator 22.1.0, SVG Export Plug-In . SVG Version: 6.00 Build 0)  -->
<svg version="1.1" id="Capa_1" xmlns="http://www.w3.org/2000/svg" xmlns:xlink="http://www.w3.org/1999/xlink" x="0px" y="0px"
	 viewBox="0 0 60 60" style="enable-background:new 0 0 60 60;" xml:space="preserve">
<style type="text/css">
	.st0{fill:#FFFFFF;}
	.st1{fill:#151515;}
	.st2{fill:#030101;}
	.st3{fill:none;stroke:#000000;stroke-miterlimit:10;}
	.st4{stroke:#000000;stroke-miterlimit:10;}
	.st5{fill:none;stroke:#272525;stroke-width:2;stroke-linecap:round;stroke-linejoin:round;stroke-miterlimit:10;}
	.st6{fill:#272525;stroke:#272525;stroke-width:3;stroke-miterlimit:10;}
	.st7{opacity:0;clip-path:url(#SVGID_2_);fill-rule:evenodd;clip-rule:evenodd;fill:#FFFFFF;}
	.st8{clip-path:url(#SVGID_4_);}
	.st9{clip-path:url(#SVGID_6_);}
	.st10{fill:#211915;}
	.st11{fill:none;}
</style>
<g>
	<path d="M30.6,2.6C15.4,2.6,3.2,14.9,3.2,30c0,8.9,4.2,16.7,10.7,21.7c-0.9-3.2,0.4-7.2,2.8-9.7c2.1-2.1,5.6-3.3,7.8-3.9
		c-3.1-2.4-5.1-6.5-5.1-11.1c0-7.4,5.2-13.5,11.6-13.5c6.4,0,11.6,6.1,11.6,13.5c0,4.6-2,8.7-5.1,11.1c2.2,0.6,5.7,1.8,7.8,3.9
		c2.2,2.2,3.5,5.7,3,8.8c5.9-5,9.6-12.5,9.6-20.8C58,14.9,45.7,2.6,30.6,2.6z"/>
	<path d="M30.5,57.4C30.5,57.4,30.5,57.4,30.5,57.4c0.1,0,0.2,0,0.2,0C30.6,57.4,30.6,57.4,30.5,57.4z"/>
</g>
</svg>
