<?xml version="1.0" encoding="utf-8"?>
<!-- Generator: Adobe Illustrator 22.1.0, SVG Export Plug-In . SVG Version: 6.00 Build 0)  -->
<svg version="1.1" id="Capa_1" xmlns="http://www.w3.org/2000/svg" xmlns:xlink="http://www.w3.org/1999/xlink" x="0px" y="0px"
	 viewBox="0 0 60 60" style="enable-background:new 0 0 60 60;" xml:space="preserve">
<style type="text/css">
	.st0{fill:#FFFFFF;}
	.st1{fill:#151515;}
	.st2{fill:#030101;}
	.st3{fill:none;stroke:#000000;stroke-miterlimit:10;}
	.st4{stroke:#000000;stroke-miterlimit:10;}
	.st5{fill:none;stroke:#272525;stroke-width:2;stroke-linecap:round;stroke-linejoin:round;stroke-miterlimit:10;}
	.st6{fill:#272525;stroke:#272525;stroke-width:3;stroke-miterlimit:10;}
	.st7{opacity:0;clip-path:url(#SVGID_2_);fill-rule:evenodd;clip-rule:evenodd;fill:#FFFFFF;}
	.st8{clip-path:url(#SVGID_4_);}
	.st9{clip-path:url(#SVGID_6_);}
	.st10{fill:#211915;}
	.st11{fill:none;}
</style>
<g>
	<g>
		<circle cx="29.9" cy="7.7" r="4.5"/>
		<path d="M31.5,14.4c-1.1-0.2-2.3-0.2-3.4,0c-7.5,0.9-9.9,9.6-9.2,16.2c0.3,2.9,4.8,2.9,4.5,0c-0.2-2.4-0.1-6,1.1-8.6
			c0,3.1,0,6.3,0,9.4c0,0.1,0,0.2,0,0.3c0,0.1,0,0.1,0,0.1c0,7.5,0,15-0.3,22.4c-0.1,3.3,5,3.3,5.1,0c0.2-5.9,0.3-11.7,0.3-17.6
			c0.2,0,0.5,0,0.7,0c0,5.9,0.1,11.7,0.3,17.6c0.1,3.3,5.3,3.3,5.2,0c-0.3-7.5-0.3-14.9-0.3-22.4c0-0.2,0-0.4-0.1-0.6
			c0-3.2-0.1-6.5-0.1-9.7c1.5,2.6,1.7,6.6,1.4,9.1c-0.3,2.9,4.2,2.9,4.5,0C41.9,23.8,39.4,14.9,31.5,14.4z"/>
	</g>
</g>
</svg>
