<svg id="Capa_1" data-name="Capa 1" xmlns="http://www.w3.org/2000/svg" viewBox="0 0 44.1 57.8"><defs><style>.cls-1{fill:none;stroke-linecap:round;stroke-linejoin:round;stroke-width:2px;}.cls-1,.cls-2{stroke:#272525;}.cls-2{fill:#272525;stroke-miterlimit:10;stroke-width:3px;}</style></defs><title>icon_suscripcion</title><circle cx="22.6" cy="20.2" r="2.5"/><path d="M29.5,25.3a6.05,6.05,0,0,0-1.9,0c-4.2.5-5.6,5.4-5.2,9.1.2,1.6,2.7,1.6,2.5,0a10.53,10.53,0,0,1,.6-4.9v5.6c0,4.2,0,8.5-.2,12.7-.1,1.9,2.8,1.9,2.9,0,.1-3.3.2-6.6.2-9.9h.4c0,3.3,0,6.6.2,9.9.1,1.9,3,1.9,2.9,0-.2-4.2-.2-8.5-.2-12.7v-.4c0-1.8-.1-3.7-.1-5.5a9.52,9.52,0,0,1,.8,5.2c-.2,1.6,2.4,1.6,2.5,0C35.4,30.7,34,25.7,29.5,25.3Z" transform="translate(-6 -1.4)"/><path class="cls-1" d="M45.8,58.2H10.3A3.33,3.33,0,0,1,7,54.9V10.4A3.35,3.35,0,0,1,10.3,7H45.8a3.33,3.33,0,0,1,3.3,3.3V54.8A3.35,3.35,0,0,1,45.8,58.2Z" transform="translate(-6 -1.4)"/><path class="cls-2" d="M36.2,5.2H31.8a3.38,3.38,0,0,0-6.4,0h-4a1.75,1.75,0,0,0-1.7,1.7,1.75,1.75,0,0,0,1.7,1.7H36.2a1.75,1.75,0,0,0,1.7-1.7A1.69,1.69,0,0,0,36.2,5.2Z" transform="translate(-6 -1.4)"/></svg>