<?xml version="1.0" encoding="utf-8"?>
<!-- Generator: Adobe Illustrator 22.1.0, SVG Export Plug-In . SVG Version: 6.00 Build 0)  -->
<svg version="1.1" id="Capa_1" xmlns="http://www.w3.org/2000/svg" xmlns:xlink="http://www.w3.org/1999/xlink" x="0px" y="0px"
	 viewBox="0 0 60 60" style="enable-background:new 0 0 60 60;" xml:space="preserve">
<style type="text/css">
	.st0{fill:#FFFFFF;}
	.st1{fill:#151515;}
	.st2{fill:#030101;}
	.st3{fill:none;stroke:#000000;stroke-miterlimit:10;}
	.st4{stroke:#000000;stroke-miterlimit:10;}
	.st5{fill:none;stroke:#272525;stroke-width:2;stroke-linecap:round;stroke-linejoin:round;stroke-miterlimit:10;}
	.st6{fill:#272525;stroke:#272525;stroke-width:3;stroke-miterlimit:10;}
	.st7{opacity:0;clip-path:url(#SVGID_2_);fill-rule:evenodd;clip-rule:evenodd;fill:#FFFFFF;}
	.st8{clip-path:url(#SVGID_4_);}
	.st9{clip-path:url(#SVGID_6_);}
	.st10{fill:#211915;}
	.st11{fill:none;}
</style>
<g>
	<path d="M56.7,46.2c0-0.1,0-0.1,0-0.2V12.8c0-0.5-0.4-1-1-1h-5c-0.5,0-1,0.4-1,1v33.3c0,0.1,0,0.1,0,0.2h-8.5c0-0.1,0-0.1,0-0.2
		v-18c0-0.5-0.4-1-1-1h-5c-0.5,0-1,0.4-1,1v18c0,0.1,0,0.1,0,0.2h-8.5c0-0.1,0-0.1,0-0.2V19.7c0-0.5-0.4-1-1-1h-5c-0.5,0-1,0.4-1,1
		v26.3c0,0.1,0,0.1,0,0.2h-8.5c0-0.1,0-0.1,0-0.2V32.2c0-0.5-0.4-1-1-1h-5c-0.5,0-1,0.4-1,1v13.8c0,0.1,0,0.1,0,0.2H0.2v2h59.6v-2
		H56.7z"/>
</g>
</svg>
