<?xml version="1.0" encoding="utf-8"?>
<!-- Generator: Adobe Illustrator 22.1.0, SVG Export Plug-In . SVG Version: 6.00 Build 0)  -->
<svg version="1.1" id="Capa_1" xmlns="http://www.w3.org/2000/svg" xmlns:xlink="http://www.w3.org/1999/xlink" x="0px" y="0px"
	 viewBox="0 0 60 60" style="enable-background:new 0 0 60 60;" xml:space="preserve">
<style type="text/css">
	.st0{fill:#FFFFFF;}
	.st1{fill:#151515;}
	.st2{fill:#030101;}
	.st3{fill:none;stroke:#000000;stroke-miterlimit:10;}
	.st4{stroke:#000000;stroke-miterlimit:10;}
	.st5{fill:none;stroke:#272525;stroke-width:2;stroke-linecap:round;stroke-linejoin:round;stroke-miterlimit:10;}
	.st6{fill:#272525;stroke:#272525;stroke-width:3;stroke-miterlimit:10;}
	.st7{opacity:0;clip-path:url(#SVGID_2_);fill-rule:evenodd;clip-rule:evenodd;fill:#FFFFFF;}
	.st8{clip-path:url(#SVGID_4_);}
	.st9{clip-path:url(#SVGID_6_);}
	.st10{fill:#211915;}
	.st11{fill:none;}
</style>
<g id="RDRhNp_2_">
	<g>
		<path class="st0" d="M40.1,23.3c-2.8,2.5-5.4,4.8-8.1,7c-1.3,1-1.8,2.2-1.5,3.8c0.3,1.6,1.3,2.4,2.8,2.9c3.2,1.2,6.3,2.4,9.5,3.7
			c-1.4,3.6-2.8,7-4.1,10.4c-0.2,0.5-0.3,1.1-0.3,1.6c0.2,1.1,0.9,1.8,2,1.9c1.3,0.2,2.2-0.4,2.7-1.6c1.4-3.6,2.9-7.1,4.2-10.7
			c0.3-0.7,0.3-1.5,0.3-2.3c-0.2-2.7-2.2-3.7-4.4-4.5c-2.2-0.8-4.3-1.7-6.7-2.6c0.6-0.5,0.9-0.8,1.2-1.1c2.3-2,4.5-3.9,6.8-5.9
			c2.2-2,1.9-4.8-0.7-6.3c-2.2-1.2-4.4-2.4-6.6-3.7c-1.8-1-3.6-1.2-5.5-0.6c-2.6,0.8-5.3,1.5-7.9,2.3c-1.8,0.5-2.5,1.7-2.1,3.1
			c0.4,1.5,1.7,2,3.5,1.5c2.6-0.7,5.2-1.5,7.8-2.2c0.5-0.1,1.2-0.2,1.6,0C36.3,21.2,38.1,22.2,40.1,23.3z M29.3,35.6
			c-1,2.3-2,4.8-3.1,7.2c-0.3,0.7-0.9,1.4-1.6,1.7c-3.9,2-7.9-7-11.9-5.1c-1.4,0.7-2,2-1.3,3.3c0.6,1.3,2,1.6,3.5,0.9
			c4.2-2,8.5,6.9,12.7,4.8c0.9-0.4,1.8-1.1,2.2-1.9c1.3-2.6,2.4-5.3,3.5-7.7C31.8,37.6,30.6,36.7,29.3,35.6z M43.5,28.6
			c1.4,0.8,2.6,1.5,3.8,2.2c2.5,1.4,4.6,1.1,6.5-1.1c1.7-1.9,3.4-3.9,5.1-5.9c1.1-1.3,1.1-2.8,0.1-3.7c-1.1-1-2.6-0.7-3.8,0.6
			c-1.7,2-3.5,4-5.2,5.9c-1.1-0.6-2.1-1.1-3.2-1.7c0.1,0.2,0.3,0.4,0.4,0.6C46.1,26.5,44.9,27.5,43.5,28.6z M49.2,20.5
			c2.8,0,5-2.2,5-4.9c0-2.7-2.2-4.9-4.9-4.9c-2.9,0-5,2-5.1,4.8C44.2,18.4,46.4,20.5,49.2,20.5z"/>
		<path d="M40.1,23.3c-2-1.1-3.8-2.2-5.7-3.1c-0.4-0.2-1.1-0.2-1.6,0c-2.6,0.7-5.2,1.5-7.8,2.2c-1.8,0.5-3.1,0-3.5-1.5
			c-0.4-1.5,0.3-2.6,2.1-3.1c2.6-0.8,5.3-1.5,7.9-2.3c1.9-0.6,3.8-0.4,5.5,0.6c2.2,1.3,4.4,2.5,6.6,3.7c2.6,1.5,2.9,4.2,0.7,6.3
			c-2.2,2-4.5,3.9-6.8,5.9c-0.3,0.3-0.6,0.6-1.2,1.1c2.4,0.9,4.6,1.8,6.7,2.6c2.2,0.8,4.2,1.9,4.4,4.5c0.1,0.8,0,1.6-0.3,2.3
			c-1.4,3.6-2.8,7.1-4.2,10.7c-0.5,1.2-1.4,1.7-2.7,1.6c-1.1-0.1-1.8-0.9-2-1.9c-0.1-0.5,0.1-1.1,0.3-1.6c1.3-3.4,2.7-6.9,4.1-10.4
			c-3.2-1.3-6.4-2.5-9.5-3.7c-1.5-0.5-2.5-1.3-2.8-2.9c-0.3-1.5,0.3-2.7,1.5-3.8C34.7,28.2,37.3,25.8,40.1,23.3z"/>
		<path d="M29.3,35.6c1.3,1.1,2.6,2,4,3.2c-1.1,2.4-2.2,5.1-3.5,7.7c-0.4,0.8-1.3,1.5-2.2,1.9c-4.2,2.1-15.5-4.5-16.2-5.7
			c-0.7-1.3-0.1-2.6,1.3-3.3c4-1.9,7.9,7.1,11.9,5.1c0.7-0.3,1.3-1,1.6-1.7C27.3,40.4,28.3,37.9,29.3,35.6z"/>
		<path d="M43.5,28.6c1.3-1.1,2.6-2.1,3.8-3c-0.1-0.2-0.3-0.4-0.4-0.6c1,0.5,2,1.1,3.2,1.7c1.7-2,3.5-4,5.2-5.9
			c1.1-1.3,2.7-1.5,3.8-0.6c1,0.9,1,2.4-0.1,3.7c-1.7,2-3.4,3.9-5.1,5.9c-1.9,2.2-4,2.5-6.5,1.1C46.1,30.1,44.9,29.4,43.5,28.6z"/>
		<path d="M49.2,20.5c-2.8,0-5-2.2-4.9-5c0-2.8,2.2-4.9,5.1-4.8c2.7,0,4.9,2.2,4.9,4.9C54.2,18.4,52,20.6,49.2,20.5z"/>
	</g>
</g>
<path d="M25.9,14.3h-14c-0.3,0-0.6-0.3-0.6-0.6v0c0-0.3,0.3-0.6,0.6-0.6h14c0.3,0,0.6,0.3,0.6,0.6v0C26.4,14.1,26.2,14.3,25.9,14.3z
	"/>
<path d="M17.1,19.8H1.6c-0.3,0-0.6-0.3-0.6-0.6l0,0c0-0.3,0.3-0.6,0.6-0.6h15.5c0.3,0,0.6,0.3,0.6,0.6l0,0
	C17.6,19.6,17.4,19.8,17.1,19.8z"/>
<path d="M28.4,30.7H8.1c-0.3,0-0.6-0.3-0.6-0.6v0c0-0.3,0.3-0.6,0.6-0.6h20.3c0.3,0,0.6,0.3,0.6,0.6v0C29,30.5,28.7,30.7,28.4,30.7z
	"/>
<path d="M16.7,25.3H9c-0.3,0-0.6-0.3-0.6-0.6v0c0-0.3,0.3-0.6,0.6-0.6h7.7c0.3,0,0.6,0.3,0.6,0.6v0C17.2,25,17,25.3,16.7,25.3z"/>
</svg>
