<?xml version="1.0" encoding="utf-8"?>
<!-- Generator: Adobe Illustrator 22.1.0, SVG Export Plug-In . SVG Version: 6.00 Build 0)  -->
<svg version="1.1" id="Capa_1" xmlns="http://www.w3.org/2000/svg" xmlns:xlink="http://www.w3.org/1999/xlink" x="0px" y="0px"
	 viewBox="0 0 60 60" style="enable-background:new 0 0 60 60;" xml:space="preserve">
<style type="text/css">
	.st0{fill:#FFFFFF;}
	.st1{fill:#151515;}
	.st2{fill:#030101;}
	.st3{fill:none;stroke:#000000;stroke-miterlimit:10;}
	.st4{stroke:#000000;stroke-miterlimit:10;}
	.st5{fill:none;stroke:#272525;stroke-width:2;stroke-linecap:round;stroke-linejoin:round;stroke-miterlimit:10;}
	.st6{fill:#272525;stroke:#272525;stroke-width:3;stroke-miterlimit:10;}
	.st7{opacity:0;clip-path:url(#SVGID_2_);fill-rule:evenodd;clip-rule:evenodd;fill:#FFFFFF;}
	.st8{clip-path:url(#SVGID_4_);}
	.st9{clip-path:url(#SVGID_6_);}
	.st10{fill:#211915;}
	.st11{fill:none;}
</style>
<g>
	<path class="st1" d="M34.1,50.8c-0.4,0.1-0.8,0.2-1.3,0.3c-1.1,0.2-1.8,1.3-1.6,2.4c0.1,0.5,0.4,1,0.8,1.3c0.4,0.3,1,0.4,1.5,0.3
		c0.5-0.1,1-0.2,1.5-0.3c1.1-0.3,1.8-1.4,1.5-2.5C36.2,51.2,35.1,50.5,34.1,50.8z"/>
	<path class="st1" d="M49.1,23.5c0.1,0.4,0.4,0.8,0.8,1c0.5,0.4,1.2,0.5,1.8,0.3c1.1-0.4,1.6-1.5,1.3-2.6c-0.2-0.5-0.3-1-0.5-1.4
		c-0.4-1-1.6-1.5-2.6-1.1c-1,0.4-1.5,1.6-1.1,2.6C48.8,22.7,48.9,23.1,49.1,23.5z"/>
	<path class="st1" d="M40.7,47.9c-0.4,0.2-0.7,0.5-1.1,0.7c-1,0.6-1.3,1.8-0.7,2.8c0.2,0.3,0.4,0.5,0.6,0.6c0.6,0.4,1.5,0.5,2.2,0.1
		c0.4-0.3,0.9-0.5,1.3-0.8c0.9-0.6,1.2-1.9,0.6-2.8C42.9,47.5,41.6,47.2,40.7,47.9z"/>
	<path class="st1" d="M54.2,29.2c0-1.1-1-2-2.1-2c-1.1,0-2,1-1.9,2.1c0,0.4,0,0.9,0,1.3c0,0.7,0.3,1.3,0.9,1.7
		c0.3,0.2,0.7,0.4,1.1,0.4c1.1,0,2.1-0.9,2.1-2C54.2,30.2,54.2,29.7,54.2,29.2z"/>
	<path class="st1" d="M48.8,42.5c-0.9-0.7-2.2-0.5-2.8,0.4c-0.3,0.3-0.5,0.7-0.8,1c-0.7,0.9-0.6,2.1,0.2,2.9c0,0,0.1,0.1,0.1,0.1
		c0.8,0.6,2,0.5,2.7-0.3c0.3-0.4,0.7-0.8,1-1.2C49.8,44.5,49.6,43.2,48.8,42.5z"/>
	<path class="st1" d="M51.7,35.2c-1.1-0.3-2.2,0.3-2.5,1.3c-0.1,0.4-0.3,0.8-0.4,1.2c-0.3,0.9,0,1.9,0.7,2.4
		c0.1,0.1,0.3,0.2,0.4,0.2c1,0.4,2.2-0.1,2.6-1.2c0.2-0.5,0.4-1,0.5-1.5C53.4,36.6,52.8,35.5,51.7,35.2z"/>
	<path class="st1" d="M25.2,51.1c-1.8-0.3-3.6-0.9-5.2-1.7c0,0,0,0-0.1,0c-0.4-0.2-0.8-0.4-1.2-0.6c0,0,0,0,0,0
		c-0.7-0.4-1.4-0.8-2-1.3c-9.6-6.7-11.9-20-5.1-29.5c1.5-2.1,3.2-3.8,5.2-5.2c0,0,0,0,0.1-0.1c7-4.8,16.4-5.1,23.8-0.2l-1.6,2.3
		c-0.4,0.6-0.2,1.1,0.6,1l6.9-0.6c0.8-0.1,1.2-0.7,1-1.5l-1.9-6.7c-0.2-0.7-0.7-0.8-1.2-0.2L43,9.2c-5.4-3.6-11.9-5-18.4-3.9
		c-0.7,0.1-1.3,0.3-1.9,0.4c0,0,0,0,0,0c0,0,0,0-0.1,0C17.1,7.2,12.2,10.4,8.7,15c0,0-0.1,0.1-0.1,0.1c-0.1,0.2-0.2,0.3-0.3,0.5
		c-0.2,0.3-0.4,0.5-0.5,0.8c0,0,0,0.1-0.1,0.1c-2.9,4.4-4.2,9.6-4,14.8c0,0,0,0,0,0.1c0,0.5,0.1,1,0.1,1.5c0,0,0,0.1,0,0.1
		c0.1,0.5,0.1,1,0.2,1.5c0.9,5.2,3.4,9.9,7.1,13.6c0,0,0,0,0,0c0,0,0,0,0,0c1,1,2.1,1.9,3.2,2.7c3,2.1,6.4,3.6,10.1,4.2
		c1.1,0.2,2.2-0.5,2.4-1.6C27,52.3,26.3,51.3,25.2,51.1z"/>
	<path class="st1" d="M27.7,13.8c-0.9,0-1.6,0.7-1.6,1.6v16.4l15,7.7c0.2,0.1,0.5,0.2,0.8,0.2c0.6,0,1.2-0.3,1.5-0.9
		c0.4-0.8,0.1-1.8-0.7-2.2l-13.2-6.8V15.4C29.3,14.5,28.6,13.8,27.7,13.8z"/>
</g>
</svg>
