<?xml version="1.0" encoding="utf-8"?>
<!-- Generator: Adobe Illustrator 22.1.0, SVG Export Plug-In . SVG Version: 6.00 Build 0)  -->
<svg version="1.1" id="Capa_1" xmlns="http://www.w3.org/2000/svg" xmlns:xlink="http://www.w3.org/1999/xlink" x="0px" y="0px"
	 viewBox="0 0 60 60" style="enable-background:new 0 0 60 60;" xml:space="preserve">
<style type="text/css">
	.st0{fill:#FFFFFF;}
	.st1{fill:#151515;}
	.st2{fill:#030101;}
	.st3{fill:none;stroke:#000000;stroke-miterlimit:10;}
	.st4{stroke:#000000;stroke-miterlimit:10;}
	.st5{fill:none;stroke:#272525;stroke-width:2;stroke-linecap:round;stroke-linejoin:round;stroke-miterlimit:10;}
	.st6{fill:#272525;stroke:#272525;stroke-width:3;stroke-miterlimit:10;}
	.st7{opacity:0;clip-path:url(#SVGID_2_);fill-rule:evenodd;clip-rule:evenodd;fill:#FFFFFF;}
	.st8{clip-path:url(#SVGID_4_);}
	.st9{clip-path:url(#SVGID_6_);}
	.st10{fill:#211915;}
	.st11{fill:none;}
</style>
<path d="M51,9.1H18c-0.8,0-1.5-0.7-1.5-1.5V5.1c0-0.8,0.7-1.5,1.5-1.5H51c0.8,0,1.5,0.7,1.5,1.5v2.5C52.4,8.4,51.8,9.1,51,9.1z"/>
<path d="M51,21.9H7.3c-0.8,0-1.5-0.7-1.5-1.5V18c0-0.8,0.7-1.5,1.5-1.5H51c0.8,0,1.5,0.7,1.5,1.5v2.5C52.4,21.3,51.8,21.9,51,21.9z"
	/>
<path d="M51,34.4H18c-0.8,0-1.5-0.7-1.5-1.5v-2.5c0-0.8,0.7-1.5,1.5-1.5H51c0.8,0,1.5,0.7,1.5,1.5v2.5C52.4,33.7,51.8,34.4,51,34.4z
	"/>
<path d="M51,58.7H18c-0.8,0-1.5-0.7-1.5-1.5v-2.5c0-0.8,0.7-1.5,1.5-1.5H51c0.8,0,1.5,0.7,1.5,1.5v2.5C52.4,58,51.8,58.7,51,58.7z"
	/>
<path d="M51,47.2H7.3c-0.8,0-1.5-0.7-1.5-1.5v-2.5c0-0.8,0.7-1.5,1.5-1.5H51c0.8,0,1.5,0.7,1.5,1.5v2.5C52.4,46.6,51.8,47.2,51,47.2
	z"/>
</svg>
