<?xml version="1.0" encoding="utf-8"?>
<!-- Generator: Adobe Illustrator 22.1.0, SVG Export Plug-In . SVG Version: 6.00 Build 0)  -->
<svg version="1.1" id="Capa_1" xmlns="http://www.w3.org/2000/svg" xmlns:xlink="http://www.w3.org/1999/xlink" x="0px" y="0px"
	 viewBox="0 0 60 60" style="enable-background:new 0 0 60 60;" xml:space="preserve">
<style type="text/css">
	.st0{fill:#FFFFFF;}
	.st1{fill:#151515;}
	.st2{fill:#030101;}
	.st3{fill:none;stroke:#000000;stroke-miterlimit:10;}
	.st4{stroke:#000000;stroke-miterlimit:10;}
	.st5{fill:none;stroke:#272525;stroke-width:2;stroke-linecap:round;stroke-linejoin:round;stroke-miterlimit:10;}
	.st6{fill:#272525;stroke:#272525;stroke-width:3;stroke-miterlimit:10;}
	.st7{opacity:0;clip-path:url(#SVGID_2_);fill-rule:evenodd;clip-rule:evenodd;fill:#FFFFFF;}
	.st8{clip-path:url(#SVGID_4_);}
	.st9{clip-path:url(#SVGID_6_);}
	.st10{fill:#211915;}
	.st11{fill:none;}
</style>
<path d="M29.4,2.4c0,1.4-0.6,3-1.1,3.9c-0.1,0.2-0.2,0.3-0.3,0.5c-0.6,1-2,0.6-2-0.5C25.9,4.7,27.1,3.3,29.4,2.4z"/>
<path d="M45.4,20.5c-0.7-2.3,1.3-3.8,0.6-6.4c-0.4-1.3-2.3-1.4-2.6,0C42.3,18.1,45,20.6,45.4,20.5z"/>
<g>
	<path d="M34.6,48.2c0,0.6,0.5,1,1.3,1c0.8,0,1.4-0.4,1.7-1.1v-0.8H36C35,47.3,34.6,47.7,34.6,48.2z"/>
	<path d="M41.6,14.3c-1,2.2-1.7,4.4-1.6,6.6c0.1,3.3,0.7,6.6,1.1,9.9c0.4,4.5-1,4.4-4.1,5.6c-0.3,0.1-0.6-0.2-0.5-0.5
		c1.7-4.6,3.1-6.9-2.7-11.1c0,1.9,0.1,3-0.1,3.9c-0.3,1.9-1.5,3.2-3.5,4.2c-1-1.6-2.5-3.1-2.7-4.8c-0.2-1.5,1-3.2,1.9-4.7
		c1.4-2.5,3.3-4.7,4.5-7.3c2.5-5.6,1.2-9.6-3.1-12.6c-1.3,2.6-2.4,5.5-4.1,8c-1.6,2.5-3.9,4.6-5.8,7c-5.4,6.6-6.7,11.8-5.2,15.1
		c-1.6-1.6-1.9,0.3-3.1-7c-6.3,10.4-2.8,26.8,7,30.6c6.6,2.6,13.4,2.5,20-0.1c6.2-2.4,9.3-8.2,10-14.9C50.7,31.8,44,23.8,41.6,14.3z
		 M20.6,50.6l-2.5-3.1L17,48.6v2h-2.3v-11H17v6.2l3.4-3.2h2.8L19.8,46l3.6,4.6H20.6z M28,48.9c0.7,0,1.4-0.3,1.8-1.1l1.8,1
		c-0.6,1.3-1.9,2-3.6,2c-2.6,0-4.4-1.7-4.4-4.1s1.9-4.1,4.4-4.1c1.7,0,3,0.7,3.6,2l-1.8,1c-0.4-0.8-1.1-1.1-1.8-1.1
		c-1.2,0-2.1,0.8-2.1,2.2S26.8,48.9,28,48.9z M39.9,50.6h-2.2v-1c-0.4,0.7-1.3,1.1-2.4,1.1c-1.9,0-3-1-3-2.4c0-1.4,1-2.4,3.4-2.4
		h1.8c0-1-0.6-1.6-1.8-1.6c-0.8,0-1.7,0.3-2.3,0.7l-0.8-1.6c0.9-0.6,2.2-1,3.4-1c2.4,0,3.8,1.1,3.8,3.5V50.6z M44.3,50.6H42v-11h2.3
		V50.6z"/>
</g>
</svg>
