<?xml version="1.0" encoding="utf-8"?>
<!-- Generator: Adobe Illustrator 22.1.0, SVG Export Plug-In . SVG Version: 6.00 Build 0)  -->
<svg version="1.1" id="Capa_1" xmlns="http://www.w3.org/2000/svg" xmlns:xlink="http://www.w3.org/1999/xlink" x="0px" y="0px"
	 viewBox="0 0 60 60" style="enable-background:new 0 0 60 60;" xml:space="preserve">
<style type="text/css">
	.st0{fill:#FFFFFF;}
	.st1{fill:#151515;}
	.st2{fill:#030101;}
	.st3{fill:none;stroke:#000000;stroke-miterlimit:10;}
	.st4{stroke:#000000;stroke-miterlimit:10;}
	.st5{fill:none;stroke:#272525;stroke-width:2;stroke-linecap:round;stroke-linejoin:round;stroke-miterlimit:10;}
	.st6{fill:#272525;stroke:#272525;stroke-width:3;stroke-miterlimit:10;}
	.st7{opacity:0;clip-path:url(#SVGID_2_);fill-rule:evenodd;clip-rule:evenodd;fill:#FFFFFF;}
	.st8{clip-path:url(#SVGID_4_);}
	.st9{clip-path:url(#SVGID_6_);}
	.st10{fill:#211915;}
	.st11{fill:none;}
</style>
<path d="M40.9,34.5l13.2-20c0.6-0.6,0.6-1.5,0-2c-0.6-0.6-1.5-0.6-2,0l-12.2,19l-5.6-5.6c-0.6-0.6-1.5-0.6-2,0s-0.6,1.5,0,2l6.5,6.5
	c0,0,0,0,0,0c0,0,0,0,0,0.1C39.5,35.1,40.4,35.1,40.9,34.5z"/>
<g>
	<path d="M19.9,22H16l-0.7,1.8h-2l3.7-8.4h1.9l3.8,8.4h-2L19.9,22z M19.3,20.5l-1.3-3.2l-1.3,3.2H19.3z"/>
	<path d="M31.2,21.5c0,1.5-1.2,2.3-3.4,2.3h-4.3v-8.4h4.1c2.1,0,3.2,0.9,3.2,2.2c0,0.8-0.4,1.5-1.1,1.8
		C30.6,19.7,31.2,20.4,31.2,21.5z M25.5,16.8v2h1.9c0.9,0,1.5-0.3,1.5-1c0-0.7-0.5-1-1.5-1H25.5z M29.3,21.3c0-0.7-0.5-1-1.5-1h-2.3
		v2.1h2.3C28.7,22.3,29.3,22,29.3,21.3z"/>
	<path d="M32.2,19.6c0-2.5,1.9-4.3,4.6-4.3c1.5,0,2.7,0.5,3.5,1.5L39,17.9c-0.6-0.6-1.3-1-2.1-1c-1.6,0-2.7,1.1-2.7,2.7
		c0,1.6,1.1,2.7,2.7,2.7c0.8,0,1.5-0.3,2.1-1l1.2,1.2c-0.8,1-2,1.5-3.5,1.5C34.1,23.9,32.2,22.1,32.2,19.6z"/>
</g>
</svg>
