<?xml version="1.0" encoding="utf-8"?>
<!-- Generator: Adobe Illustrator 22.1.0, SVG Export Plug-In . SVG Version: 6.00 Build 0)  -->
<svg version="1.1" id="Capa_1" xmlns="http://www.w3.org/2000/svg" xmlns:xlink="http://www.w3.org/1999/xlink" x="0px" y="0px"
	 viewBox="0 0 60 60" style="enable-background:new 0 0 60 60;" xml:space="preserve">
<style type="text/css">
	.st0{fill:#FFFFFF;}
	.st1{fill:#151515;}
	.st2{fill:#030101;}
	.st3{fill:none;stroke:#000000;stroke-miterlimit:10;}
	.st4{stroke:#000000;stroke-miterlimit:10;}
	.st5{fill:none;stroke:#272525;stroke-width:2;stroke-linecap:round;stroke-linejoin:round;stroke-miterlimit:10;}
	.st6{fill:#272525;stroke:#272525;stroke-width:3;stroke-miterlimit:10;}
	.st7{opacity:0;clip-path:url(#SVGID_2_);fill-rule:evenodd;clip-rule:evenodd;fill:#FFFFFF;}
	.st8{clip-path:url(#SVGID_4_);}
	.st9{clip-path:url(#SVGID_6_);}
	.st10{fill:#211915;}
	.st11{fill:none;}
</style>
<g>
	<path d="M26.6,38.7c-0.2,0.3-0.6,0.7-1,0.7c-0.4,0-0.4-0.2-0.4-0.6V32h-1.6v7.4c0,1.8,1.2,1.8,2.1,1.3c0.3-0.2,0.6-0.5,0.9-0.8v1
		h1.6V32h-1.6V38.7z"/>
	<polygon points="23.6,28.9 17.9,28.9 17.9,30.6 19.8,30.6 19.8,40.9 21.6,40.9 21.6,30.6 23.6,30.6 	"/>
	<path d="M33,31.9c-0.6,0-1.1,0.4-1.5,0.8v-3.9h-1.7v12h1.7v-0.7c0.5,0.6,1,0.8,1.6,0.8c1.1,0,1.5-0.9,1.5-1.9v-4.9
		C34.6,32.9,34.2,31.9,33,31.9z M32.9,38.8c0,0.3,0,0.5-0.1,0.6c-0.2,0.2-0.6,0.2-0.8,0.1c-0.1-0.1-0.3-0.2-0.4-0.3v-5.5
		c0.1-0.1,0.2-0.2,0.3-0.3c0.3-0.1,0.7-0.1,0.9,0.1c0.1,0.2,0.2,0.4,0.2,0.7V38.8z"/>
	<path d="M28.1,22.3c0.5,0,0.7-0.4,0.7-0.9v-4.3c0-0.5-0.2-0.9-0.8-0.9c-0.5,0-0.7,0.4-0.7,0.9v4.3C27.3,21.9,27.6,22.3,28.1,22.3z"
		/>
	<path d="M29.1,1.6C14.8,1.6,3.2,13.2,3.2,27.5c0,14.3,11.6,25.9,25.9,25.9C43.4,53.4,55,41.8,55,27.5C55,13.2,43.4,1.6,29.1,1.6z
		 M32,14.5h1.7v7.1c0,0.4,0.1,0.6,0.5,0.6c0.3,0,0.8-0.4,1-0.7v-7.1H37v9.3h-1.7v-1c-0.7,0.9-1.5,1.2-2,1.2c-0.9,0-1.2-0.7-1.2-1.7
		V14.5z M28.1,14.4c1.4,0,2.5,1,2.5,2.5v4.6c0,1.6-1.1,2.5-2.5,2.5c-1.7,0-2.5-0.9-2.5-2.5v-4.6C25.6,15.4,26.6,14.4,28.1,14.4z
		 M21.1,11.2l1.3,5l1.2-5h2l-2.3,7.5v5.1h-1.9v-5.1l-2.3-7.5H21.1z M43.3,39.9c0,2.2-1.8,4-4,4H18.9c-2.2,0-4-1.8-4-4v-10
		c0-2.2,1.8-4,4-4h20.4c2.2,0,4,1.8,4,4V39.9z"/>
	<path d="M38.3,31.8c-1.5,0-2.5,1.1-2.5,2.6v4c0,1.6,0.8,2.7,2.4,2.7c1.7,0,2.5-1,2.5-2.7v-0.7H39v0.6c0,0.8,0,1.2-0.7,1.2
		c-0.7,0-0.7-0.6-0.7-1.2v-1.7h3.1v-2.3C40.7,32.8,39.9,31.8,38.3,31.8z M39,35.3h-1.5v-0.9c0-0.6,0.1-1,0.7-1c0.6,0,0.7,0.4,0.7,1
		V35.3z"/>
</g>
</svg>
