<?xml version="1.0" encoding="utf-8"?>
<!-- Generator: Adobe Illustrator 22.1.0, SVG Export Plug-In . SVG Version: 6.00 Build 0)  -->
<svg version="1.1" id="Capa_1" xmlns="http://www.w3.org/2000/svg" xmlns:xlink="http://www.w3.org/1999/xlink" x="0px" y="0px"
	 viewBox="0 0 60 60" style="enable-background:new 0 0 60 60;" xml:space="preserve">
<style type="text/css">
	.st0{fill:#FFFFFF;}
	.st1{fill:#151515;}
	.st2{fill:#030101;}
	.st3{fill:none;stroke:#000000;stroke-miterlimit:10;}
	.st4{stroke:#000000;stroke-miterlimit:10;}
	.st5{fill:none;stroke:#272525;stroke-width:2;stroke-linecap:round;stroke-linejoin:round;stroke-miterlimit:10;}
	.st6{fill:#272525;stroke:#272525;stroke-width:3;stroke-miterlimit:10;}
	.st7{opacity:0;clip-path:url(#SVGID_2_);fill-rule:evenodd;clip-rule:evenodd;fill:#FFFFFF;}
	.st8{clip-path:url(#SVGID_4_);}
	.st9{clip-path:url(#SVGID_6_);}
	.st10{fill:#211915;}
	.st11{fill:none;}
</style>
<g>
	<path d="M51.8,11v5.2c-0.4-0.6-0.8-1.3-1.2-1.9c-1.5-2.2-3.4-4.1-5.5-5.6c-2.1-1.6-4.5-2.9-7-3.7c-2.6-0.9-5.3-1.3-8.1-1.3
		c-2.9,0-5.7,0.5-8.4,1.5c-2.6,0.9-5,2.3-7.2,4c-2.2,1.7-4,3.8-5.5,6.1c-1.5,2.4-2.6,4.9-3.3,7.7c-0.4,1.7,0.7,3.5,2.4,3.9
		c0.3,0.1,0.5,0.1,0.8,0.1c1.5,0,2.8-1,3.2-2.5c1-4,3.3-7.6,6.5-10.2c1.6-1.3,3.4-2.3,5.3-3c2-0.7,4.1-1.1,6.3-1.1
		c4.1,0,7.9,1.3,11.2,3.7c2.2,1.7,4,3.8,5.3,6.2h-3.6c-1.8,0-3.3,1.5-3.3,3.3c0,1.8,1.5,3.3,3.3,3.3H55c1.8,0,3.3-1.5,3.3-3.3V11
		c0-1.8-1.5-3.3-3.3-3.3C53.2,7.8,51.8,9.2,51.8,11z"/>
	<path d="M5,49.8c1.8,0,3.3-1.5,3.3-3.3v-5.2c1.9,3.4,4.6,6.3,7.9,8.4c4.1,2.7,8.9,4.2,13.8,4.2c0,0,0,0,0,0c0,0,0,0,0,0
		c0,0,0,0,0,0c0,0,0,0,0,0c2.9,0,5.7-0.5,8.4-1.5c2.6-0.9,5-2.3,7.2-4c2.2-1.7,4-3.8,5.5-6.1c1.5-2.4,2.6-4.9,3.3-7.7
		c0.4-1.7-0.7-3.5-2.4-3.9c-1.7-0.4-3.5,0.7-3.9,2.4c-1,4-3.3,7.6-6.5,10.2c-1.6,1.3-3.4,2.3-5.3,3c-2,0.7-4.1,1.1-6.2,1.1
		c-3.7,0-7.2-1.1-10.3-3.1c-2.6-1.7-4.8-4.1-6.2-6.9h3.6c1.8,0,3.3-1.5,3.3-3.3c0-1.8-1.5-3.3-3.3-3.3H5c-1.8,0-3.3,1.5-3.3,3.3
		v12.3C1.7,48.3,3.2,49.8,5,49.8z"/>
</g>
</svg>
