<?xml version="1.0" encoding="utf-8"?>
<!-- Generator: Adobe Illustrator 22.1.0, SVG Export Plug-In . SVG Version: 6.00 Build 0)  -->
<svg version="1.1" id="Capa_1" xmlns="http://www.w3.org/2000/svg" xmlns:xlink="http://www.w3.org/1999/xlink" x="0px" y="0px"
	 viewBox="0 0 60 60" style="enable-background:new 0 0 60 60;" xml:space="preserve">
<style type="text/css">
	.st0{fill:#FFFFFF;}
	.st1{fill:#151515;}
	.st2{fill:#030101;}
	.st3{fill:none;stroke:#000000;stroke-miterlimit:10;}
	.st4{stroke:#000000;stroke-miterlimit:10;}
	.st5{fill:none;stroke:#272525;stroke-width:2;stroke-linecap:round;stroke-linejoin:round;stroke-miterlimit:10;}
	.st6{fill:#272525;stroke:#272525;stroke-width:3;stroke-miterlimit:10;}
	.st7{opacity:0;clip-path:url(#SVGID_2_);fill-rule:evenodd;clip-rule:evenodd;fill:#FFFFFF;}
	.st8{clip-path:url(#SVGID_4_);}
	.st9{clip-path:url(#SVGID_6_);}
	.st10{fill:#211915;}
	.st11{fill:none;}
</style>
<path d="M52.1,7.8h-4.3V1.3h-6.3v6.5H19V1.3h-6.3v6.5H10c-2.5,0-4.5,2-4.5,4.5v39.8c0,2.5,2,4.5,4.5,4.5h42.1c2.5,0,4.5-2,4.5-4.5
	V12.3C56.5,9.8,54.5,7.8,52.1,7.8z M51.6,49.7H10.5V14.1h41.1V49.7z"/>
<g>
	<path d="M27.5,40.7l0-8.4l-4.1,6.9h-1.5l-4.1-6.8v8.3h-3.1V26.6h2.7l5.3,8.7l5.2-8.7h2.7l0,14.1H27.5z"/>
</g>
<g>
	<path d="M45.4,40.7l0-8.4l-4.1,6.9h-1.5l-4.1-6.8v8.3h-3.1V26.6h2.7l5.3,8.7l5.2-8.7h2.7l0,14.1H45.4z"/>
</g>
</svg>
