<?xml version="1.0" encoding="utf-8"?>
<!-- Generator: Adobe Illustrator 22.1.0, SVG Export Plug-In . SVG Version: 6.00 Build 0)  -->
<svg version="1.1" id="Capa_1" xmlns="http://www.w3.org/2000/svg" xmlns:xlink="http://www.w3.org/1999/xlink" x="0px" y="0px"
	 viewBox="0 0 60 60" style="enable-background:new 0 0 60 60;" xml:space="preserve">
<style type="text/css">
	.st0{fill:#FFFFFF;}
	.st1{fill:#151515;}
	.st2{fill:#030101;}
	.st3{fill:none;stroke:#000000;stroke-miterlimit:10;}
	.st4{stroke:#000000;stroke-miterlimit:10;}
	.st5{fill:none;stroke:#272525;stroke-width:2;stroke-linecap:round;stroke-linejoin:round;stroke-miterlimit:10;}
	.st6{fill:#272525;stroke:#272525;stroke-width:3;stroke-miterlimit:10;}
	.st7{opacity:0;clip-path:url(#SVGID_2_);fill-rule:evenodd;clip-rule:evenodd;fill:#FFFFFF;}
	.st8{clip-path:url(#SVGID_4_);}
	.st9{clip-path:url(#SVGID_6_);}
	.st10{fill:#211915;}
	.st11{fill:none;}
</style>
<g>
	<path class="st10" d="M44.8,5.1h-3.6c0.2,0.3,0.4,0.5,0.4,0.8h3.2c2.6,0,4.7,2.1,4.7,4.7v41.8c0,2.6-2.1,4.7-4.7,4.7H15.2
		c-2.6,0-4.7-2.1-4.7-4.7V10.6C10.5,8,12.6,6,15.2,6h3c0,0,0,0,0,0c0.2-0.3,0.5-0.6,0.7-0.8h-3.7c-3,0-5.5,2.5-5.5,5.5v41.8
		c0,3,2.5,5.5,5.5,5.5h29.6c3,0,5.5-2.5,5.5-5.5V10.6C50.3,7.6,47.8,5.1,44.8,5.1z"/>
</g>
<g>
	<g>
		<path class="st10" d="M22.1,24.7c-1.6,0-3-1.3-3-3c0-1.6,1.3-3,3-3c1.6,0,3,1.3,3,3C25,23.3,23.7,24.7,22.1,24.7z M22.1,19.6
			c-1.2,0-2.1,0.9-2.1,2.1c0,1.2,0.9,2.1,2.1,2.1c1.2,0,2.1-0.9,2.1-2.1C24.2,20.5,23.2,19.6,22.1,19.6z"/>
	</g>
	<g>
		<path class="st10" d="M22.1,33.3c-1.6,0-3-1.3-3-3c0-1.6,1.3-3,3-3c1.6,0,3,1.3,3,3C25,31.9,23.7,33.3,22.1,33.3z M22.1,28.2
			c-1.2,0-2.1,0.9-2.1,2.1c0,1.2,0.9,2.1,2.1,2.1c1.2,0,2.1-0.9,2.1-2.1C24.2,29.1,23.2,28.2,22.1,28.2z"/>
	</g>
	<g>
		<path class="st10" d="M22.1,41.8c-1.6,0-3-1.3-3-3c0-1.6,1.3-3,3-3c1.6,0,3,1.3,3,3C25,40.5,23.7,41.8,22.1,41.8z M22.1,36.8
			c-1.2,0-2.1,0.9-2.1,2.1c0,1.2,0.9,2.1,2.1,2.1c1.2,0,2.1-0.9,2.1-2.1C24.2,37.7,23.2,36.8,22.1,36.8z"/>
	</g>
	<g>
		<path class="st10" d="M41.7,23.4H27.4v-4.6h14.3V23.4z M28.3,22.5h12.6v-2.9H28.3V22.5z"/>
	</g>
	<g>
		<path class="st10" d="M41.7,32H27.4v-4.6h14.3V32z M28.3,31.1h12.6v-2.9H28.3V31.1z"/>
	</g>
	<g>
		<path class="st10" d="M41.7,40.5H27.4v-4.6h14.3V40.5z M28.3,39.7h12.6v-2.9H28.3V39.7z"/>
	</g>
	<g>
		<path class="st10" d="M41.7,10.1c-0.2,0.3-0.4,0.6-0.8,0.8h3.7v40.3H15.4V11h3.4c-0.2-0.2-0.3-0.5-0.4-0.8h-3.9v42h30.9v-42H41.7z
			"/>
	</g>
</g>
<g>
	<g>
		<path class="st11" d="M38.2,4.1h-3.7c-0.6-1.8-2.4-3.2-4.5-3.2c-2.1,0-3.8,1.3-4.5,3.2h-3.7c-2.3,0-4.1,1.9-4.1,4.1
			s1.9,4.1,4.1,4.1h16.4c2.3,0,4.1-1.9,4.1-4.1S40.5,4.1,38.2,4.1z M30,4.9c-0.6,0-1.1-0.5-1.1-1.1c0-0.6,0.5-1.1,1.1-1.1
			c0.6,0,1.1,0.5,1.1,1.1C31.1,4.4,30.6,4.9,30,4.9z"/>
		<path class="st10" d="M38.2,12.7H21.8c-2.5,0-4.5-2-4.5-4.5s2-4.5,4.5-4.5h3.4C26,1.7,27.9,0.5,30,0.5c2.1,0,4,1.3,4.8,3.2h3.4
			c2.5,0,4.5,2,4.5,4.5S40.7,12.7,38.2,12.7z M21.8,4.5c-2,0-3.7,1.7-3.7,3.7s1.7,3.7,3.7,3.7h16.4c2,0,3.7-1.7,3.7-3.7
			s-1.7-3.7-3.7-3.7h-4l-0.1-0.3c-0.6-1.7-2.2-2.9-4.1-2.9c-1.8,0-3.5,1.2-4.1,2.9l-0.1,0.3H21.8z M30,5.3c-0.8,0-1.5-0.7-1.5-1.5
			s0.7-1.5,1.5-1.5s1.5,0.7,1.5,1.5S30.8,5.3,30,5.3z M30,3.1c-0.4,0-0.7,0.3-0.7,0.7c0,0.4,0.3,0.7,0.7,0.7c0.4,0,0.7-0.3,0.7-0.7
			C30.7,3.4,30.4,3.1,30,3.1z"/>
	</g>
	<g>
		<rect x="20.4" y="9.2" class="st10" width="19.2" height="0.8"/>
	</g>
</g>
</svg>
