<?xml version="1.0" encoding="utf-8"?>
<!-- Generator: Adobe Illustrator 22.1.0, SVG Export Plug-In . SVG Version: 6.00 Build 0)  -->
<svg version="1.1" id="Capa_1" xmlns="http://www.w3.org/2000/svg" xmlns:xlink="http://www.w3.org/1999/xlink" x="0px" y="0px"
	 viewBox="0 0 60 60" style="enable-background:new 0 0 60 60;" xml:space="preserve">
<style type="text/css">
	.st0{fill:#FFFFFF;}
	.st1{fill:#151515;}
	.st2{fill:#030101;}
	.st3{fill:none;stroke:#000000;stroke-miterlimit:10;}
	.st4{stroke:#000000;stroke-miterlimit:10;}
	.st5{fill:none;stroke:#272525;stroke-width:2;stroke-linecap:round;stroke-linejoin:round;stroke-miterlimit:10;}
	.st6{fill:#272525;stroke:#272525;stroke-width:3;stroke-miterlimit:10;}
	.st7{opacity:0;clip-path:url(#SVGID_2_);fill-rule:evenodd;clip-rule:evenodd;fill:#FFFFFF;}
	.st8{clip-path:url(#SVGID_4_);}
	.st9{clip-path:url(#SVGID_6_);}
	.st10{fill:#211915;}
	.st11{fill:none;}
</style>
<g>
	<path d="M21.6,26.7c5.6,0,11.2,0,17.2,0c0-3.7,0-7.5,0-11.2c0-1.4-0.3-3.3,1.5-3.5c2.1-0.2,4.2,0.2,6.3,0.5c0.3,0.1,0.6,1.3,0.7,2
		c0,10.3,0,20.7,0,31c0,1.9-0.8,2.8-2.7,2.8c-0.2,0-0.3,0-0.5,0c-5.3,0.2-5.3,0.1-5.4-5.1c0-3.1,0-6.2-0.1-9.3
		c0-0.1-0.1-0.3-0.3-0.6c-5.6,0-11.2,0-17.2,0c0,3.8,0.1,7.5-0.1,11.2c0,1.2-0.6,3.3-1.2,3.4c-2.1,0.3-4.4,0-6.6-0.3
		c-0.3,0-0.7-1.4-0.7-2.2c0-10.3,0-20.5,0-30.8c0-2,0.9-2.9,2.9-2.9c0.8,0,1.5,0,2.3,0c2.8,0,3.4,0.6,3.4,3.4c0,3.7,0,7.3,0.1,11
		C21.3,26.2,21.5,26.4,21.6,26.7z"/>
	<path d="M47.9,43.7c0-9.1,0-18.2,0-27.4c3.4-0.5,4-0.1,4,2.9c0,2.4,0,4.8,0,7.1c4.2,0.9,4.5,1.1,4.4,4c0,1.7-0.7,2.8-2.5,2.7
		c-1.6-0.1-2,0.6-1.9,2.1c0.1,1.8,0,3.7,0,5.5C51.8,43.7,51.2,44.2,47.9,43.7z"/>
	<path d="M11.7,16.4c0,9.1,0,18.2,0,27.4c-3.4,0.5-4,0.1-4-2.9c0-2.4,0-4.8,0-7.1c-4.2-0.9-4.5-1.1-4.4-4c0-1.7,0.7-2.8,2.5-2.7
		c1.6,0.1,2-0.6,1.9-2.1c-0.1-1.8,0-3.7,0-5.5C7.7,16.4,8.4,15.9,11.7,16.4z"/>
</g>
</svg>
