<?xml version="1.0" encoding="utf-8"?>
<!-- Generator: Adobe Illustrator 22.1.0, SVG Export Plug-In . SVG Version: 6.00 Build 0)  -->
<svg version="1.1" id="Capa_1" xmlns="http://www.w3.org/2000/svg" xmlns:xlink="http://www.w3.org/1999/xlink" x="0px" y="0px"
	 viewBox="0 0 60 60" style="enable-background:new 0 0 60 60;" xml:space="preserve">
<style type="text/css">
	.st0{fill:#FFFFFF;}
	.st1{fill:#151515;}
	.st2{fill:#030101;}
	.st3{fill:none;stroke:#000000;stroke-miterlimit:10;}
	.st4{stroke:#000000;stroke-miterlimit:10;}
	.st5{fill:none;stroke:#272525;stroke-width:2;stroke-linecap:round;stroke-linejoin:round;stroke-miterlimit:10;}
	.st6{fill:#272525;stroke:#272525;stroke-width:3;stroke-miterlimit:10;}
	.st7{opacity:0;clip-path:url(#SVGID_2_);fill-rule:evenodd;clip-rule:evenodd;fill:#FFFFFF;}
	.st8{clip-path:url(#SVGID_4_);}
	.st9{clip-path:url(#SVGID_6_);}
	.st10{fill:#211915;}
	.st11{fill:none;}
</style>
<path d="M47.8,38.9c-2.7-2.7-7.3-4.3-10.2-5.1c4-3.2,6.7-8.6,6.7-14.7c0-9.8-6.8-17.7-15.2-17.7c-8.4,0-15.2,8-15.2,17.7
	c0,6.1,2.6,11.5,6.7,14.7c-2.9,0.8-7.5,2.4-10.2,5.1C6,43.1,4.4,51,8.6,55.2c3,3,10.2,3.7,18.3,3.8c0.1,0,0.2,0,0.3,0
	c0.6,0,1.2,0,1.9,0c0.6,0,1.2,0,1.9,0c0.1,0,0.2,0,0.3,0c8.1-0.1,15.3-0.8,18.3-3.8C53.7,51,52.1,43.1,47.8,38.9z"/>
</svg>
