<?xml version="1.0" encoding="utf-8"?>
<!-- Generator: Adobe Illustrator 22.1.0, SVG Export Plug-In . SVG Version: 6.00 Build 0)  -->
<svg version="1.1" id="Capa_1" xmlns="http://www.w3.org/2000/svg" xmlns:xlink="http://www.w3.org/1999/xlink" x="0px" y="0px"
	 viewBox="0 0 60 60" style="enable-background:new 0 0 60 60;" xml:space="preserve">
<style type="text/css">
	.st0{fill:#FFFFFF;}
	.st1{fill:#151515;}
	.st2{fill:#030101;}
	.st3{fill:none;stroke:#000000;stroke-miterlimit:10;}
	.st4{stroke:#000000;stroke-miterlimit:10;}
	.st5{fill:none;stroke:#272525;stroke-width:2;stroke-linecap:round;stroke-linejoin:round;stroke-miterlimit:10;}
	.st6{fill:#272525;stroke:#272525;stroke-width:3;stroke-miterlimit:10;}
	.st7{opacity:0;clip-path:url(#SVGID_2_);fill-rule:evenodd;clip-rule:evenodd;fill:#FFFFFF;}
	.st8{clip-path:url(#SVGID_4_);}
	.st9{clip-path:url(#SVGID_6_);}
	.st10{fill:#211915;}
	.st11{fill:none;}
</style>
<g>
	<path d="M57.1,30.7c-2.4,0-4.9,0.1-7.3,0c-1,0-1.4,0.3-1.6,1.2c-0.7,2.3-1.5,4.6-2.1,7c-0.3,1-0.7,1.8-1.8,1.9
		c-1.2,0.1-1.6-0.8-1.9-1.7c-1.8-4.2-3.6-8.4-5.5-12.8c-0.8,2.4-1.6,4.6-2.4,6.7c-0.7,2-1.4,4.1-2.1,6.1c-0.3,0.9-0.7,1.7-1.8,1.7
		c-1,0-1.4-0.8-1.8-1.6c-1.4-3.8-2.8-7.7-4.2-11.5c-0.1-0.3-0.2-0.6-0.4-1.1c-0.9,2.6-1.8,5-2.6,7.4c-0.6,1.8-1.3,3.6-1.9,5.3
		c-0.3,0.8-0.8,1.5-1.7,1.5c-1,0-1.5-0.6-1.8-1.5c-1-2.4-2-4.9-2.9-7.3c-0.3-0.9-0.8-1.3-1.9-1.3c-2.4,0.1-4.9,0-7.3,0
		c0-1.1,0-2.2,0-3.3c3.1,0,6.2,0,9.3,0c1.2,0,1.8,0.5,2.2,1.5c0.7,1.7,1.4,3.4,2.2,5.4c0.3-0.7,0.5-1.2,0.7-1.7
		c1.3-3.7,2.7-7.4,4-11.1c0.3-0.9,0.7-1.6,1.8-1.6c1.1,0,1.5,0.8,1.9,1.7c1.4,3.9,2.8,7.7,4.3,11.6c0.1,0.2,0.2,0.4,0.4,0.8
		c1.1-3.2,2.2-6.2,3.2-9.2c0.4-1.1,0.8-2.2,1.2-3.3c0.3-0.8,0.7-1.5,1.7-1.5c1,0,1.5,0.6,1.8,1.4c1.7,4,3.4,7.9,5.1,11.9
		c0.1,0.2,0.2,0.5,0.5,0.9c0.6-1.8,1.1-3.5,1.6-5.1c0.3-1.1,1-1.7,2.2-1.7c3.1,0,6.2,0,9.3,0C57.1,28.5,57.1,29.6,57.1,30.7z"/>
</g>
</svg>
