<?xml version="1.0" encoding="utf-8"?>
<!-- Generator: Adobe Illustrator 22.1.0, SVG Export Plug-In . SVG Version: 6.00 Build 0)  -->
<svg version="1.1" id="Capa_1" xmlns="http://www.w3.org/2000/svg" xmlns:xlink="http://www.w3.org/1999/xlink" x="0px" y="0px"
	 viewBox="0 0 60 60" style="enable-background:new 0 0 60 60;" xml:space="preserve">
<style type="text/css">
	.st0{fill:#FFFFFF;}
	.st1{fill:#151515;}
	.st2{fill:#030101;}
	.st3{fill:none;stroke:#000000;stroke-miterlimit:10;}
	.st4{stroke:#000000;stroke-miterlimit:10;}
	.st5{fill:none;stroke:#272525;stroke-width:2;stroke-linecap:round;stroke-linejoin:round;stroke-miterlimit:10;}
	.st6{fill:#272525;stroke:#272525;stroke-width:3;stroke-miterlimit:10;}
	.st7{opacity:0;clip-path:url(#SVGID_2_);fill-rule:evenodd;clip-rule:evenodd;fill:#FFFFFF;}
	.st8{clip-path:url(#SVGID_4_);}
	.st9{clip-path:url(#SVGID_6_);}
	.st10{fill:#211915;}
	.st11{fill:none;}
</style>
<g id="XMLID_4_">
	<path id="XMLID_27_" d="M12.3,42.3c-2,0-3.5,1.7-3.5,3.8v6.6c0,2.1,1.5,3.8,3.5,3.8h4.8c2,0,3.5-1.7,3.5-3.8v-6.6
		c0-2.1-1.5-3.8-3.5-3.8H12.3z M18.5,46.1v6.6c0,1.1-0.7,2-1.5,2h-4.8c-0.8,0-1.5-0.9-1.5-2v-6.6c0-1.1,0.7-2,1.5-2h4.8
		C17.9,44.1,18.5,45,18.5,46.1z"/>
	<path id="XMLID_24_" d="M26.7,36.1c-2,0-3.5,1.7-3.5,3.8v12.8c0,2.1,1.5,3.8,3.5,3.8h4.8c2,0,3.5-1.7,3.5-3.8V39.9
		c0-2.1-1.5-3.8-3.5-3.8H26.7z M33,39.9v12.8c0,1.1-0.7,2-1.5,2h-4.8c-0.8,0-1.5-0.9-1.5-2V39.9c0-1.1,0.7-2,1.5-2h4.8
		C32.3,37.9,33,38.8,33,39.9z"/>
	<path id="XMLID_7_" d="M47.4,28.7h-4.8c-2,0-3.5,1.7-3.5,3.8v20.2c0,2.1,1.5,3.8,3.5,3.8h4.8c2,0,3.5-1.7,3.5-3.8V32.5
		C50.9,30.4,49.4,28.7,47.4,28.7z M48.9,52.7c0,1.1-0.7,2-1.5,2h-4.8c-0.8,0-1.5-0.9-1.5-2V32.5c0-1.1,0.7-2,1.5-2h4.8
		c0.8,0,1.5,0.9,1.5,2V52.7z"/>
</g>
<path d="M48.2,5.9c-2.3,4.6-4.5,9.1-6.8,13.7c-1.5,3-3,8.3-5.7,10.4c-0.5,0.4-1.4,0.6-1.8,0c-3.6-4.6-7.6-8.8-11.9-12.7
	c-2.2,5.2-3.8,10.6-4.8,16.2c-0.2,1-1.7,1.1-2.2,0.3c-1.3-2.1-2.3-4.2-3.1-6.5c-0.6,0.7-1.1,1.3-1.7,2c0.3,0.4,0.5,0.8,0.5,1.3
	c0,1.2-1,2.2-2.2,2.2s-2.2-1-2.2-2.2c0-1.2,1-2.2,2.2-2.2c0,0,0.1,0,0.1,0c0.9-1.3,1.8-2.6,2.7-4c0.5-0.8,1.7-0.7,2,0.3
	c0.6,1.8,1.3,3.4,2.1,5c1.1-4.8,2.6-9.5,4.5-14.1c-0.3-0.4-0.4-0.8-0.4-1.3c0-1.2,1-2.2,2.2-2.2c1.2,0,2.2,1,2.2,2.2
	c0,0.4-0.1,0.7-0.3,1.1c4,3.6,7.7,7.5,11.1,11.6c0.9-1.3,1.4-3.1,2-4.3c1-2,2-4.1,3-6.1c1.8-3.7,3.7-7.5,5.6-11.2
	c-0.3-0.4-0.5-0.9-0.5-1.4c0-1.2,1-2.2,2.2-2.2c1.2,0,2.2,1,2.2,2.2C49.2,4.9,48.8,5.5,48.2,5.9z"/>
<g>
	<defs>
		<rect id="SVGID_1_" x="8.9" y="23" width="33" height="36"/>
	</defs>
	<clipPath id="SVGID_2_">
		<use xlink:href="#SVGID_1_"  style="overflow:visible;"/>
	</clipPath>
	<rect x="8.9" y="23" class="st7" width="33" height="36"/>
</g>
</svg>
