<?xml version="1.0" encoding="utf-8"?>
<!-- Generator: Adobe Illustrator 22.1.0, SVG Export Plug-In . SVG Version: 6.00 Build 0)  -->
<svg version="1.1" id="Capa_1" xmlns="http://www.w3.org/2000/svg" xmlns:xlink="http://www.w3.org/1999/xlink" x="0px" y="0px"
	 viewBox="0 0 60 60" style="enable-background:new 0 0 60 60;" xml:space="preserve">
<style type="text/css">
	.st0{fill:#FFFFFF;}
	.st1{fill:#151515;}
	.st2{fill:#030101;}
	.st3{fill:none;stroke:#000000;stroke-miterlimit:10;}
	.st4{stroke:#000000;stroke-miterlimit:10;}
	.st5{fill:none;stroke:#272525;stroke-width:2;stroke-linecap:round;stroke-linejoin:round;stroke-miterlimit:10;}
	.st6{fill:#272525;stroke:#272525;stroke-width:3;stroke-miterlimit:10;}
	.st7{opacity:0;clip-path:url(#SVGID_2_);fill-rule:evenodd;clip-rule:evenodd;fill:#FFFFFF;}
	.st8{clip-path:url(#SVGID_4_);}
	.st9{clip-path:url(#SVGID_6_);}
	.st10{fill:#211915;}
	.st11{fill:none;}
</style>
<g id="AggjNW.tif">
	<g>
		<path d="M51.4,31.2c0,2.5,0,4.7,0,6.9c0,4.9,0,9.9,0,14.8c0,2.1-0.7,3-2.9,3c-4-0.1-8,0-12.3,0c0-6.7,0-13.2,0-19.8
			c-4.3,0-8.2,0-12.4,0c0,6.6,0,13,0,19.8c-4.7,0-9.1,0.1-13.5,0c-1.6,0-1.8-1.5-1.8-2.8c0-6.3,0-12.5,0-18.8c0-0.9,0-1.7,0-2.6
			c-0.4,0-0.7,0-0.9,0.1c-1.6,0.7-3,0.3-3.8-1.2c-0.9-1.7-0.2-3,1.2-4.1c3.6-3,7.2-6.1,10.8-9.1c3.8-3.2,7.6-6.5,11.5-9.7
			c2.4-2,3.1-2,5.5,0c7.2,6.1,14.4,12.3,21.7,18.3c1.4,1.2,2.7,2.4,1.8,4.3C55.3,32.2,53.6,32.2,51.4,31.2z"/>
	</g>
</g>
</svg>
