<?xml version="1.0" encoding="utf-8"?>
<!-- Generator: Adobe Illustrator 22.1.0, SVG Export Plug-In . SVG Version: 6.00 Build 0)  -->
<svg version="1.1" id="Capa_1" xmlns="http://www.w3.org/2000/svg" xmlns:xlink="http://www.w3.org/1999/xlink" x="0px" y="0px"
	 viewBox="0 0 60 60" style="enable-background:new 0 0 60 60;" xml:space="preserve">
<style type="text/css">
	.st0{fill:#FFFFFF;}
	.st1{fill:#151515;}
	.st2{fill:#030101;}
	.st3{fill:none;stroke:#000000;stroke-miterlimit:10;}
	.st4{stroke:#000000;stroke-miterlimit:10;}
	.st5{fill:none;stroke:#272525;stroke-width:2;stroke-linecap:round;stroke-linejoin:round;stroke-miterlimit:10;}
	.st6{fill:#272525;stroke:#272525;stroke-width:3;stroke-miterlimit:10;}
	.st7{opacity:0;clip-path:url(#SVGID_2_);fill-rule:evenodd;clip-rule:evenodd;fill:#FFFFFF;}
	.st8{clip-path:url(#SVGID_4_);}
	.st9{clip-path:url(#SVGID_6_);}
	.st10{fill:#211915;}
	.st11{fill:none;}
</style>
<path d="M44.2,12.5c0,2.8,0,5.4,0,8.1c0,1.1,0,2.1,0,3.2c-0.1,1.5,0.2,2.8,0.9,4.2c1.4,2.7,1.4,5.5,0.1,8.3
	c-0.4,0.8-0.2,1.2,0.4,1.8c1.8,1.7,3.5,3.5,5.2,5.2c1.1,1.1,1.1,2.5,0,3.6c-1.1,1.1-2.5,1.2-3.6,0.1c-0.9-0.9-1.6-1.9-2.4-2.9
	c-0.2,0.1-0.4,0.2-0.6,0.3c0,1.4,0,2.8,0,4.3c0,1.1-0.1,2.2,0,3.4c0.1,1-0.4,1.4-1.4,1.3c-1.9-0.1-3.9,0-5.8,0c-7.8,0-15.7,0-23.5,0
	c-3.5,0-5-1.5-5-4.9c0-12.7,0.1-25.4-0.1-38.2c0-3,2-4.9,4.9-4.9C23,5.5,32.8,5.4,42.5,5.4c0.5,0,1,0,1.5,0c0.4,1.3,0.1,1.8-1.2,1.8
	c-9.9,0-19.9,0-29.8,0c-1.3,0-2.3,0.4-2.6,1.6c-0.4,1.3-0.3,2.6,1.1,3.3c0.6,0.3,1.3,0.4,2,0.4c9.7,0,19.3,0,29,0
	C42.9,12.5,43.4,12.5,44.2,12.5z M13.2,14.3C13.1,14.6,13,14.8,13,15c0,11.8,0,23.7,0,35.5c0,0.9,0.4,1.1,1.2,1.1c1.6,0,3.1,0,4.7,0
	c7.4,0,14.7,0,22.1,0c1.2,0,1.5-0.3,1.5-1.5c-0.1-2.3,0-4.7,0-7c0-1.6-0.9-2.2-2.4-1.7c-3.3,1.3-6.5,1-9.5-0.9
	c-4.1-2.6-5.6-8.3-3.4-12.8c2.2-4.5,7.7-6.7,12.4-4.9c0.9,0.3,1.8,0.8,2.8,1.3c0-3.3,0-6.5,0-9.8C32.6,14.3,22.9,14.3,13.2,14.3z
	 M27.8,32.1c0,4.4,3.8,8.3,8.2,8.4c4.4,0,8.4-3.9,8.3-8.3c0-4.4-3.8-8.2-8.2-8.2C31.7,23.9,27.9,27.7,27.8,32.1z M10.4,13.7
	c-0.1,0.2-0.2,0.3-0.2,0.4c0,11.7,0,23.5,0,35.2c0,1.1,0.6,1.8,1.8,2c0-12.4,0-24.7,0-37C11.5,14.1,11,14,10.4,13.7z M42.4,39.8
	c2.1,2,3.9,3.9,5.7,5.6c0.3,0.3,0.9,0.2,1.4,0.2c0-0.4,0.1-1-0.1-1.3c-1.8-2-3.6-3.8-5.6-5.9C43.3,39,42.9,39.3,42.4,39.8z"/>
<path d="M44.1,10.7c-1.2,0.7-30.4,0.6-31.3-0.1C14,10,43.3,10.1,44.1,10.7z"/>
<path d="M40.6,37.5c-1.3,0.4-2,0.1-2.3-1.2c-0.3-1.6-1.6-1.1-2.6-1.1c-0.9-0.1-1.6,0-1.8,1.2c-0.2,1.2-0.9,1.6-2.3,1.1
	c0.9-2.5,1.8-4.9,2.6-7.4c0.2-0.6,0.3-1.2,0.6-1.8c0.2-0.4,0.7-0.9,1.1-0.9c0.4,0,1.1,0.4,1.3,0.8C38.5,31.2,39.5,34.3,40.6,37.5z
	 M36.3,30.8c-0.1,0-0.2,0.1-0.4,0.1c-0.2,0.7-0.4,1.5-0.7,2.3c0.7,0,1.2,0,1.9,0C36.8,32.2,36.5,31.5,36.3,30.8z"/>
</svg>
