<?xml version="1.0" encoding="utf-8"?>
<!-- Generator: Adobe Illustrator 22.1.0, SVG Export Plug-In . SVG Version: 6.00 Build 0)  -->
<svg version="1.1" id="Capa_1" xmlns="http://www.w3.org/2000/svg" xmlns:xlink="http://www.w3.org/1999/xlink" x="0px" y="0px"
	 viewBox="0 0 60 60" style="enable-background:new 0 0 60 60;" xml:space="preserve">
<style type="text/css">
	.st0{fill:#FFFFFF;}
	.st1{fill:#151515;}
	.st2{fill:#030101;}
	.st3{fill:none;stroke:#000000;stroke-miterlimit:10;}
	.st4{stroke:#000000;stroke-miterlimit:10;}
	.st5{fill:none;stroke:#272525;stroke-width:2;stroke-linecap:round;stroke-linejoin:round;stroke-miterlimit:10;}
	.st6{fill:#272525;stroke:#272525;stroke-width:3;stroke-miterlimit:10;}
	.st7{opacity:0;clip-path:url(#SVGID_2_);fill-rule:evenodd;clip-rule:evenodd;fill:#FFFFFF;}
	.st8{clip-path:url(#SVGID_4_);}
	.st9{clip-path:url(#SVGID_6_);}
	.st10{fill:#211915;}
	.st11{fill:none;}
</style>
<g>
	<path d="M8.6,27c0.6,0,1.1,0,1.7,0c0.5,0,0.9,0.3,0.8,0.8c0,0.5-0.4,0.7-0.9,0.7c-1.1,0-2.3,0-3.4,0c-0.6,0-1-0.5-0.7-1.1
		C6.2,27.2,6.5,27,6.8,27c0,0,0.1,0,0.1,0C7.5,27,8,27,8.6,27z"/>
	<path d="M15.8,41.2c-0.6,0.6-1.2,1.3-1.9,1.9c-0.3,0.3-0.8,0.3-1.1,0c-0.3-0.3-0.3-0.8,0-1.1c0.6-0.6,1.2-1.2,1.9-1.9
		C15.7,39.3,16.4,40.6,15.8,41.2z"/>
	<path d="M15.8,14.4c-0.7-0.6-1.3-1.3-2-2c-0.3-0.3-0.2-0.7,0-1c0.3-0.3,0.7-0.4,1-0.1c0.7,0.7,1.4,1.4,2.1,2.1
		C17.4,13.9,16.7,15.1,15.8,14.4z"/>
	<path d="M29.9,7.6c0,0.4,0,0.9,0,1.3c0,0.5-0.3,0.8-0.8,0.8c-0.4,0-0.7-0.3-0.7-0.8c0-0.9,0-1.7,0-2.6c0-0.5,0.3-0.8,0.7-0.8
		c0.5,0,0.7,0.3,0.8,0.8C30,6.8,29.9,7.2,29.9,7.6z"/>
	<path d="M50,27c-0.6,0-1.1,0-1.7,0c-0.5,0-0.9,0.3-0.8,0.8c0,0.5,0.4,0.7,0.9,0.7c1.1,0,2.3,0,3.4,0c0.6,0,1-0.5,0.7-1.1
		c-0.1-0.3-0.4-0.4-0.7-0.4c0,0-0.1,0-0.1,0C51.2,27,50.6,27,50,27z"/>
	<path d="M42.8,41.2c0.6,0.6,1.2,1.3,1.9,1.9c0.3,0.3,0.8,0.3,1.1,0c0.3-0.3,0.3-0.8,0-1.1c-0.6-0.6-1.2-1.2-1.9-1.9
		C43.2,39.4,41.8,40.2,42.8,41.2z"/>
	<path d="M42.8,14.4c0.7-0.6,1.3-1.3,2-2c0.3-0.3,0.2-0.7,0-1c-0.3-0.3-0.7-0.4-1-0.1c-0.7,0.7-1.4,1.4-2.1,2.1
		C41.3,13.9,42,15.1,42.8,14.4z"/>
</g>
<path d="M22.2,44.7c0.2-2.5-0.3-4.7-2.7-6.9c-4.5-4.1-5.1-11-2.2-16.3c3-5.4,9-8.2,15.3-7c5.6,1.1,10.4,6.3,11,12.1
	c0.5,5-1.2,9.3-5.2,12.4c-1.1,0.8-1.5,1.7-1.4,3c0.1,2.4,0.2,4.9-0.1,7.3c-0.5,4.1-3.5,6.1-8.2,5.9c-3.5-0.2-6.2-2.9-6.4-6.6
	C22.1,47.5,22.2,46.3,22.2,44.7z M35.2,43.5c0-0.7,0.1-1.1,0.1-1.6C35,40.2,35.6,39.1,37,38c5.8-4.4,6.5-12.4,1.8-17.9
	c-4.6-5.2-12.8-5.6-17.7-0.9c-5.2,5-5.4,13.4,0,18c2.1,1.7,3.1,3.4,2.8,6c0,0.1,0.1,0.2,0.2,0.4C27.7,43.5,31.3,43.5,35.2,43.5z
	 M24,45.3c-0.2,3-0.5,5.9,2.4,7.7c1.8,1.1,5.1,1,6.8-0.4c2.5-1.9,2.1-4.6,1.9-7.4C31.4,45.3,27.8,45.3,24,45.3z"/>
<path d="M30.2,20.5c2.9,0.3,4.9,1.4,6.1,3.7c0.5,0.9-0.8,1.7-1.3,0.9c-1.1-1.7-2.6-3-4.7-2.9C28.9,22.2,29.2,20.5,30.2,20.5z"/>
<path d="M33,48.5h-6.4c-0.4,0-0.8-0.4-0.8-0.8v0c0-0.4,0.4-0.8,0.8-0.8H33c0.4,0,0.8,0.4,0.8,0.8v0C33.8,48.1,33.4,48.5,33,48.5z"/>
<path d="M32.2,51.1h-4.9c-0.4,0-0.8-0.4-0.8-0.8l0,0c0-0.4,0.4-0.8,0.8-0.8h4.9c0.4,0,0.8,0.4,0.8,0.8l0,0
	C33,50.8,32.6,51.1,32.2,51.1z"/>
</svg>
