<svg id="Capa_1" data-name="Capa 1" xmlns="http://www.w3.org/2000/svg" viewBox="0 0 27.99 28.88"><title>icon_zoom-mas</title><path d="M16.7,11.8H13.1V8.2a1,1,0,0,0-2,0v3.6H7.5a1,1,0,0,0-1,1h0a1,1,0,0,0,1,1h3.6v3.6a1,1,0,0,0,2,0V13.8h3.6a1,1,0,0,0,1-1h0A.94.94,0,0,0,16.7,11.8Z"/><path d="M27.7,26.3l-5.4-6.4h0a12.3,12.3,0,0,0,2.5-7.5A12.46,12.46,0,0,0,12.4,0,12.46,12.46,0,0,0,0,12.4,12.46,12.46,0,0,0,12.4,24.8a12.39,12.39,0,0,0,7.5-2.6l5.3,6.2a1.4,1.4,0,0,0,1.9.2l.5-.4A1.51,1.51,0,0,0,27.7,26.3ZM2,12.4a10.4,10.4,0,1,1,20.8,0A10.39,10.39,0,0,1,12.3,22.7,10.29,10.29,0,0,1,2,12.4Z"/></svg>