<?xml version="1.0" encoding="utf-8"?>
<!-- Generator: Adobe Illustrator 22.1.0, SVG Export Plug-In . SVG Version: 6.00 Build 0)  -->
<svg version="1.1" id="Capa_1" xmlns="http://www.w3.org/2000/svg" xmlns:xlink="http://www.w3.org/1999/xlink" x="0px" y="0px"
	 viewBox="0 0 60 60" style="enable-background:new 0 0 60 60;" xml:space="preserve">
<style type="text/css">
	.st0{fill:#FFFFFF;}
	.st1{fill:#151515;}
	.st2{fill:#030101;}
	.st3{fill:none;stroke:#000000;stroke-miterlimit:10;}
	.st4{stroke:#000000;stroke-miterlimit:10;}
	.st5{fill:none;stroke:#272525;stroke-width:2;stroke-linecap:round;stroke-linejoin:round;stroke-miterlimit:10;}
	.st6{fill:#272525;stroke:#272525;stroke-width:3;stroke-miterlimit:10;}
	.st7{opacity:0;clip-path:url(#SVGID_2_);fill-rule:evenodd;clip-rule:evenodd;fill:#FFFFFF;}
	.st8{clip-path:url(#SVGID_4_);}
	.st9{clip-path:url(#SVGID_6_);}
	.st10{fill:#211915;}
	.st11{fill:none;}
</style>
<path d="M41.5,9.1H8.6c-0.8,0-1.5-0.7-1.5-1.5V5.1c0-0.8,0.7-1.5,1.5-1.5h32.9c0.8,0,1.5,0.7,1.5,1.5v2.5C43,8.4,42.3,9.1,41.5,9.1z
	"/>
<path d="M52.2,21.9H8.6c-0.8,0-1.5-0.7-1.5-1.5V18c0-0.8,0.7-1.5,1.5-1.5h43.6c0.8,0,1.5,0.7,1.5,1.5v2.5
	C53.7,21.3,53,21.9,52.2,21.9z"/>
<path d="M41.5,34.4H8.6c-0.8,0-1.5-0.7-1.5-1.5v-2.5c0-0.8,0.7-1.5,1.5-1.5h32.9c0.8,0,1.5,0.7,1.5,1.5v2.5
	C43,33.7,42.3,34.4,41.5,34.4z"/>
<path d="M41.5,58.7H8.6c-0.8,0-1.5-0.7-1.5-1.5v-2.5c0-0.8,0.7-1.5,1.5-1.5h32.9c0.8,0,1.5,0.7,1.5,1.5v2.5
	C43,58,42.3,58.7,41.5,58.7z"/>
<path d="M52.2,47.2H8.6c-0.8,0-1.5-0.7-1.5-1.5v-2.5c0-0.8,0.7-1.5,1.5-1.5h43.6c0.8,0,1.5,0.7,1.5,1.5v2.5
	C53.7,46.6,53,47.2,52.2,47.2z"/>
</svg>
