<?xml version="1.0" encoding="utf-8"?>
<!-- Generator: Adobe Illustrator 22.1.0, SVG Export Plug-In . SVG Version: 6.00 Build 0)  -->
<svg version="1.1" id="Capa_1" xmlns="http://www.w3.org/2000/svg" xmlns:xlink="http://www.w3.org/1999/xlink" x="0px" y="0px"
	 viewBox="0 0 60 60" style="enable-background:new 0 0 60 60;" xml:space="preserve">
<style type="text/css">
	.st0{fill:#FFFFFF;}
	.st1{fill:#151515;}
	.st2{fill:#030101;}
	.st3{fill:none;stroke:#000000;stroke-miterlimit:10;}
	.st4{stroke:#000000;stroke-miterlimit:10;}
	.st5{fill:none;stroke:#272525;stroke-width:2;stroke-linecap:round;stroke-linejoin:round;stroke-miterlimit:10;}
	.st6{fill:#272525;stroke:#272525;stroke-width:3;stroke-miterlimit:10;}
	.st7{opacity:0;clip-path:url(#SVGID_2_);fill-rule:evenodd;clip-rule:evenodd;fill:#FFFFFF;}
	.st8{clip-path:url(#SVGID_4_);}
	.st9{clip-path:url(#SVGID_6_);}
	.st10{fill:#211915;}
	.st11{fill:none;}
</style>
<path d="M34.6,14.7H19.3c-0.4,0-0.7-0.3-0.7-0.7v0c0-0.4,0.3-0.7,0.7-0.7h15.3c0.4,0,0.7,0.3,0.7,0.7v0C35.3,14.4,35,14.7,34.6,14.7
	z"/>
<path d="M34.6,19.8H19.3c-0.4,0-0.7-0.3-0.7-0.7v0c0-0.4,0.3-0.7,0.7-0.7h15.3c0.4,0,0.7,0.3,0.7,0.7v0C35.3,19.5,35,19.8,34.6,19.8
	z"/>
<path d="M34.6,24.9H19.3c-0.4,0-0.7-0.3-0.7-0.7v0c0-0.4,0.3-0.7,0.7-0.7h15.3c0.4,0,0.7,0.3,0.7,0.7v0C35.3,24.5,35,24.9,34.6,24.9
	z"/>
<path d="M34.6,32.8h-8.2c-0.4,0-0.7-0.3-0.7-0.7l0,0c0-0.4,0.3-0.7,0.7-0.7h8.2c0.4,0,0.7,0.3,0.7,0.7l0,0
	C35.3,32.4,35,32.8,34.6,32.8z"/>
<path d="M58.3,18.7C58.3,18.7,58.3,18.7,58.3,18.7c0-0.1,0-0.2,0-0.2c0,0,0-0.1,0-0.1c0,0,0-0.1,0-0.1c0,0,0,0,0-0.1
	c0,0,0-0.1,0-0.1c0,0,0,0,0,0c-0.1-0.2-0.2-0.4-0.4-0.6L43.2,2.9c-0.4-0.4-0.9-0.6-1.5-0.6H12.1c-1.2,0-2.1,0.9-2.1,2.1v33.7H3.9
	c-1.2,0-2.1,0.9-2.1,2.1v8.2c0,5.2,3.8,9.3,8.6,9.3h39.4c4.7,0,8.6-4.2,8.6-9.3V18.9C58.3,18.8,58.3,18.8,58.3,18.7z M43.8,9.4
	l7.4,7.4h-7.4V9.4z M6,48.3v-6.1h35.2v6.1c0,1.9,0.5,3.7,1.4,5.2H10.4C7.9,53.5,6,51.2,6,48.3z M49.7,53.5c-2.4,0-4.4-2.3-4.4-5.2
	v-8.2c0-1.2-0.9-2.1-2.1-2.1H14.1V6.5h25.5v12.4c0,1.2,0.9,2.1,2.1,2.1h12.4v27.4C54.1,51.2,52.1,53.5,49.7,53.5z"/>
</svg>
