<?xml version="1.0" encoding="utf-8"?>
<!-- Generator: Adobe Illustrator 22.1.0, SVG Export Plug-In . SVG Version: 6.00 Build 0)  -->
<svg version="1.1" id="Capa_1" xmlns="http://www.w3.org/2000/svg" xmlns:xlink="http://www.w3.org/1999/xlink" x="0px" y="0px"
	 viewBox="0 0 60 60" style="enable-background:new 0 0 60 60;" xml:space="preserve">
<style type="text/css">
	.st0{fill:#FFFFFF;}
	.st1{fill:#151515;}
	.st2{fill:#030101;}
	.st3{fill:none;stroke:#000000;stroke-miterlimit:10;}
	.st4{stroke:#000000;stroke-miterlimit:10;}
	.st5{fill:none;stroke:#272525;stroke-width:2;stroke-linecap:round;stroke-linejoin:round;stroke-miterlimit:10;}
	.st6{fill:#272525;stroke:#272525;stroke-width:3;stroke-miterlimit:10;}
	.st7{opacity:0;clip-path:url(#SVGID_2_);fill-rule:evenodd;clip-rule:evenodd;fill:#FFFFFF;}
	.st8{clip-path:url(#SVGID_4_);}
	.st9{clip-path:url(#SVGID_6_);}
	.st10{fill:#211915;}
	.st11{fill:none;}
</style>
<g>
	<path d="M51,8.8h-4.3V2.3h-6.3v6.5H18V2.3h-6.3v6.5H9c-2.5,0-4.5,2-4.5,4.5v39.8c0,2.5,2,4.5,4.5,4.5H51c2.5,0,4.5-2,4.5-4.5V13.3
		C55.5,10.8,53.5,8.8,51,8.8z M50.5,50.7H9.5V20.1h41.1V50.7z"/>
	<rect x="12" y="22.4" width="3.5" height="3.5"/>
	<rect x="17.4" y="22.4" width="3.5" height="3.5"/>
	<rect x="22.8" y="22.4" width="3.5" height="3.5"/>
	<rect x="28.2" y="22.4" width="3.5" height="3.5"/>
	<rect x="33.6" y="22.4" width="3.5" height="3.5"/>
	<rect x="39" y="22.4" width="3.5" height="3.5"/>
	<rect x="44.4" y="22.4" width="3.5" height="3.5"/>
</g>
</svg>
