<?xml version="1.0" standalone="no"?>
<!DOCTYPE svg PUBLIC "-//W3C//DTD SVG 1.1//EN" "http://www.w3.org/Graphics/SVG/1.1/DTD/svg11.dtd">
<svg xmlns:xlink="http://www.w3.org/1999/xlink" version="1.1" class="highcharts-root" style="font-family:&quot;Lucida Grande&quot;, &quot;Lucida Sans Unicode&quot;, Arial, Helvetica, sans-serif;font-size:12px;" xmlns="http://www.w3.org/2000/svg" width="600" height="400" viewBox="0 0 600 400">
<desc>Created with Highmaps 7.0.3</desc>
<defs>
<linearGradient x1="0" y1="0" x2="1" y2="0" id="highcharts-eh75mva-34">
<stop offset="0" stop-color="#e6ebf5" stop-opacity="1"></stop>
<stop offset="1" stop-color="#003399" stop-opacity="1"></stop>
</linearGradient>
<clipPath id="highcharts-eh75mva-35">
<rect x="0" y="0" width="580" height="263" fill="none"></rect>
</clipPath></defs><rect fill="#ffffff" class="highcharts-background" x="0" y="0" width="600" height="400" rx="0" ry="0"></rect><rect fill="none" class="highcharts-plot-background" x="10" y="63" width="580" height="263"></rect><rect fill="none" class="highcharts-plot-border" data-z-index="1" x="10" y="63" width="580" height="263"></rect><g class="highcharts-series-group" data-z-index="3"><g data-z-index="0.1" class="highcharts-series highcharts-series-0 highcharts-map-series highcharts-color-0 " transform="translate(10,63) scale(1 1)" stroke-width="1" clip-path="url(#highcharts-eh75mva-35)"><g transform="translate(0,0) scale(1 1)"><path fill="rgb(230,235,245)" d="M 289.6364055299539 220.33824884792625 L 288.06082949308757 219.1989861751152 288.3759447004608 218.52027649769585 287.0427649769585 217.64764976958526 287.35788018433175 217.0174193548387 285.6853456221198 216.1447926267281 284.3764055299539 214.03594470046082 283.067465437788 212.41188940092167 279.0436866359447 210.13336405529952 277.7832258064516 209.04258064516128 277.7347465437788 208.04875576036866 277.0802764976958 206.35198156682029 274.80175115207373 204.43705069124422 275.31078341013824 204.12193548387097 274.7290322580645 202.9584331797235 273.323133640553 201.86764976958526 273.0322580645161 202.61907834101382 272.74138248847925 200.89806451612904 272.9352995391705 198.95889400921658 271.3112442396313 198.42562211981567 271.74755760368663 196.92276497695852 272.66866359447 196.8015668202765 273.15345622119816 197.7711520737327 274.26847926267277 193.16562211981565 273.71096774193546 190.54774193548386 273.323133640553 190.03870967741935 274.82599078341013 188.09953917050692 276.83788018433177 186.45124423963134 277.5650691244239 185.4331797235023 278.704331797235 185.893732718894 280.98285714285714 185.67557603686635 281.92820276497696 185.19078341013824 281.8554838709677 186.03917050691243 280.8131797235023 187.00875576036867 280.95861751152074 188.5358525345622 280.2556682027649 189.14184331797236 279.601198156682 191.00829493087556 281.39493087557605 191.27493087557605 284.0370506912442 192.12331797235024 283.14018433179723 193.79585253456221 283.60073732718894 195.0805529953917 282.946267281106 196.17133640552996 283.5037788018433 198.30442396313364 285.9035023041474 199.22552995391706 287.84267281105986 200.8495852534562 289.0304147465438 201.06774193548387 289.83032258064515 201.81917050691243 289.90304147465434 203.4917050691244 288.9092165898617 205.47935483870967 290.0727188940092 206.933732718894 290 208.46082949308754 290.896866359447 208.48506912442397 292.13308755760363 207.73364055299538 292.86027649769585 209.26073732718893 293.90258064516127 210.23032258064515 294.1692165898617 211.53926267281105 294.99336405529954 212.89668202764977 294.5085714285714 215.36912442396314 291.23622119815667 217.5022119815668 289.6364055299539 220.33824884792625 Z" stroke="#cccccc" stroke-width="inherit" class="highcharts-point highcharts-color-0 highcharts-name-ica highcharts-key-pe-ic"></path><path fill="rgb(222,229,242)" d="M 330.7710599078341 161.65410138248848 L 330.4317050691244 163.27815668202766 328.56525345622117 166.6959447004608 327.7895852534562 170.0652534562212 328.3955760368664 171.8105069124424 330.72258064516126 173.1921658986175 331.3528110599078 175.22829493087556 333.29198156682025 176.270599078341 334.6009216589862 179.56718894009217 334.26156682027647 181.14276497695852 335.0614746543779 182.71834101382487 338.45502304147465 184.0757603686636 340.03059907834097 184.0757603686636 342.4303225806451 185.19078341013824 344.56341013824886 185.8210138248848 346.5268202764977 187.1299539170507 351.5201843317972 188.0268202764977 353.7259907834101 187.71170506912443 352.97456221198155 186.86331797235022 353.3139170506912 186.3785253456221 356.10147465437785 186.669400921659 355.64092165898614 188.77824884792625 355.71364055299534 190.35382488479263 355.10764976958524 191.46884792626727 352.9018433179723 194.01400921658987 351.25354838709677 197.52875576036865 349.33861751152074 198.0377880184332 348.82958525345623 200.70414746543779 349.38709677419354 201.91612903225806 349.0235023041474 203.8068202764977 348.1508755760368 206.40046082949308 346.8904147465438 206.8610138248848 346.6237788018433 208.82442396313363 344.80580645161285 210.25456221198155 345.67843317972347 211.3211059907834 346.5025806451613 211.51502304147465 346.6480184331797 213.9147465437788 346.2117050691244 214.69041474654378 346.2117050691244 216.26599078341013 346.6722580645161 217.8658064516129 346.4783410138249 219.34442396313364 345.8965898617511 219.6352995391705 343.83622119815664 217.79308755760368 343.9574193548387 216.5083870967742 343.10903225806453 215.80543778801842 342.3333640552995 216.36294930875576 339.2791705069124 214.98129032258063 339.2306912442396 215.73271889400922 337.0733640552995 216.26599078341013 334.38276497695847 215.2236866359447 334.4797235023041 213.72082949308756 335.1584331797235 212.67852534562212 334.21308755760367 212.33917050691244 332.97686635944694 210.27880184331798 332.24967741935484 209.79400921658987 332.1527188940092 211.56350230414745 331.546728110599 212.79972350230415 330.1408294930875 211.63622119815668 327.838064516129 212.2422119815668 326.62608294930874 211.80589861751153 325.7776958525345 210.69087557603686 325.7776958525345 209.76976958525344 325.5595391705069 208.2426728110599 325.923133640553 207.51548387096773 327.3532718894009 206.5216589861751 328.734930875576 206.13382488479263 331.11041474654377 203.29778801843318 331.546728110599 201.79493087557603 331.5709677419355 199.29824884792626 330.4559447004608 197.09244239631337 328.9773271889401 195.78350230414748 327.54718894009216 195.4683870967742 326.7957603686636 194.35336405529952 324.3475576036866 193.82009216589861 321.5842396313364 191.95364055299538 319.35419354838706 191.39612903225807 317.4635023041474 192.24451612903226 315.74248847926265 191.68700460829493 314.6032258064516 190.7658986175115 313.10036866359445 188.63281105990782 310.96728110599076 186.93603686635944 311.1854377880184 186.52396313364056 309.44018433179724 180.9730875576037 308.2524423963133 180.24589861751153 306.91926267281104 178.47640552995392 306.87078341013824 177.5552995391705 305.4891244239631 175.20405529953916 307.42829493087555 175.13133640552996 309.7795391705069 174.35566820276497 310.40976958525346 173.2164055299539 310.57944700460826 171.4226728110599 311.9611059907834 169.41078341013824 312.058064516129 167.35041474654378 309.48866359447004 166.30811059907833 311.4278341013825 164.61133640552995 313.02764976958525 161.62986175115208 317.29382488479257 161.24202764976957 318.28764976958524 160.95115207373271 319.30571428571426 159.90884792626727 320.0813824884792 161.48442396313365 321.681198156682 162.38129032258064 323.2567741935484 162.18737327188938 324.51723502304145 163.1327188940092 325.6080184331797 163.20543778801843 327.52294930875576 161.89649769585253 329.26820276497693 161.38746543778802 330.52866359447 161.55714285714285 330.7710599078341 161.65410138248848 330.7710599078341 161.65410138248848 Z" stroke="#cccccc" stroke-width="inherit" class="highcharts-point highcharts-color-0 highcharts-name-cusco highcharts-key-pe-cs"></path><path fill="rgb(215,223,239)" d="M 330.7710599078341 161.65410138248848 L 329.26820276497693 161.38746543778802 327.52294930875576 161.89649769585253 325.6080184331797 163.20543778801843 324.51723502304145 163.1327188940092 323.2567741935484 162.18737327188938 321.681198156682 162.38129032258064 320.0813824884792 161.48442396313365 319.30571428571426 159.90884792626727 318.28764976958524 160.95115207373271 317.29382488479257 161.24202764976957 313.02764976958525 161.62986175115208 311.8883870967742 159.472534562212 312.20350230414743 156.9516129032258 311.2339170506912 155.06092165898616 310.264331797235 154.01861751152074 308.4948387096774 153.4853456221198 306.676866359447 156.0789861751152 299.62313364055296 157.60608294930876 298.3626728110599 156.75769585253457 297.9021198156682 154.7215668202765 299.2595391705069 153.75198156682026 300.9805529953917 152.05520737327188 302.65308755760367 151.2310599078341 302.16829493087556 150.30995391705068 300.8835944700461 149.70396313364054 299.9140092165899 147.08608294930875 300.0594470046083 144.56516129032258 298.96866359447006 141.92304147465438 298.9201843317972 140.39594470046083 297.56276497695853 137.55990783410138 295.2357603686636 134.19059907834102 294.99336405529954 133.22101382488478 295.55087557603684 131.40304147465437 295.57511520737324 129.24571428571429 296.3023041474654 127.79133640552995 296.49622119815666 125.90064516129031 297.8778801843318 124.80986175115207 297.82940092165893 123.6221198156682 297.2476497695852 123.01612903225806 295.62359447004604 122.82221198156682 293.85410138248847 123.37972350230415 290.4847926267281 125.92488479262673 288.7880184331797 128.25188940092167 286.80036866359444 131.5242396313364 284.8127188940092 132.2999078341014 283.0917050691244 133.73004608294931 281.8070046082949 134.02092165898617 279.9890322580645 131.74239631336405 279.6739170506912 129.53658986175114 278.43769585253455 128.05797235023041 278.2437788018433 125.56129032258065 277.1772350230415 123.16156682027649 278.6073732718894 122.48285714285714 281.90396313364056 119.52562211981567 282.6796313364055 119.47714285714285 284.9339170506912 120.81032258064516 285.0066359447004 120.08313364055299 283.7946543778802 118.09548387096774 283.9885714285714 117.29557603686635 285.3459907834101 116.81078341013824 285.9035023041474 115.59880184331797 288.4244239631336 115.59880184331797 292.2300460829493 113.9747465437788 295.4539170506912 113.44147465437788 297.00525345622117 112.6658064516129 297.4415668202765 111.84165898617512 297.3203686635944 107.86635944700461 296.6901382488479 105.10304147465438 296.95677419354837 104.3516129032258 297.950599078341 104.3273732718894 299.3080184331797 105.17576036866359 302.0713364055299 105.6363133640553 304.39834101382485 106.5089400921659 305.5860829493087 107.26036866359446 305.0770506912442 107.45428571428572 307.6464516129032 109.9994470046083 309.44018433179724 110.99327188940092 309.41594470046084 112.10829493087557 308.2524423963133 112.2052534562212 308.470599078341 113.34451612903226 310.04617511520735 114.21714285714286 310.99152073732716 115.98663594470045 310.91880184331796 116.78654377880184 312.0338248847926 119.35594470046082 314.4577880184332 120.90728110599078 314.5305069124424 122.60405529953917 315.66976958525345 123.81603686635944 317.0271889400922 124.37354838709678 318.5058064516129 126.87023041474654 319.81474654377877 128.20341013824884 320.0571428571428 129.63354838709677 318.77244239631335 131.69391705069125 318.1664516129032 131.88783410138248 316.3727188940092 134.23907834101382 322.0932718894009 134.31179723502305 327.52294930875576 135.3783410138249 329.26820276497693 136.25096774193548 329.8984331797235 138.0689400921659 329.8257142857143 139.42635944700461 330.8195391705069 140.05658986175115 331.304331797235 141.24433179723502 330.7710599078341 142.916866359447 342.2121658986175 143.08654377880185 344.99972350230416 142.16543778801844 345.5087557603687 141.24433179723502 347.5933640552995 140.44442396313363 349.6294930875576 138.21437788018432 352.4170506912442 136.3479262672811 353.7744700460829 135.1117050691244 354.6713364055299 134.99050691244238 353.89566820276497 136.59032258064516 353.2169585253456 136.90543778801842 354.3319815668202 139.25668202764976 353.0957603686636 140.44442396313363 352.9260829493087 142.50479262672812 350.33244239631335 144.56516129032258 349.58101382488474 148.46774193548387 347.73880184331796 150.7220276497696 344.68460829493085 152.9520737327189 342.6242396313364 153.75198156682026 336.2734562211981 156.903133640553 333.82525345622116 157.07281105990782 331.71640552995393 156.22442396313363 331.3285714285714 156.78193548387097 332.1284792626728 158.40599078341015 331.0619354838709 160.24820276497695 330.7710599078341 161.65410138248848 Z" stroke="#cccccc" stroke-width="inherit" class="highcharts-point highcharts-color-0 highcharts-name-ucayali highcharts-key-pe-uc"></path><path fill="rgb(207,217,236)" d="M 331.0619354838709 160.24820276497695 L 332.1284792626728 158.40599078341015 331.3285714285714 156.78193548387097 331.71640552995393 156.22442396313363 333.82525345622116 157.07281105990782 336.2734562211981 156.903133640553 342.6242396313364 153.75198156682026 344.68460829493085 152.9520737327189 347.73880184331796 150.7220276497696 349.58101382488474 148.46774193548387 350.33244239631335 144.56516129032258 352.9260829493087 142.50479262672812 352.6352073732719 157.65456221198156 354.1623041474654 156.66073732718894 355.51972350230415 158.09087557603686 357.604331797235 158.52718894009217 358.9132718894009 158.2120737327189 362.37953917050686 156.5395391705069 364.4883870967742 156.68497695852534 365.7246082949308 157.26672811059908 367.7607373271889 157.12129032258065 379.88055299539167 179.76110599078342 378.30497695852534 181.40940092165897 378.98368663594465 182.08811059907833 378.52313364055294 182.8395391705069 377.3596313364055 183.13041474654378 375.5416589861751 184.89990783410138 375.5658986175115 187.27539170506913 366.54875576036864 191.49308755760367 365.94276497695853 191.46884792626727 356.58626728110596 186.54820276497696 356.10147465437785 186.669400921659 353.3139170506912 186.3785253456221 352.97456221198155 186.86331797235022 353.7259907834101 187.71170506912443 351.5201843317972 188.0268202764977 346.5268202764977 187.1299539170507 344.56341013824886 185.8210138248848 342.4303225806451 185.19078341013824 340.03059907834097 184.0757603686636 338.45502304147465 184.0757603686636 335.0614746543779 182.71834101382487 334.26156682027647 181.14276497695852 334.6009216589862 179.56718894009217 333.29198156682025 176.270599078341 331.3528110599078 175.22829493087556 330.72258064516126 173.1921658986175 328.3955760368664 171.8105069124424 327.7895852534562 170.0652534562212 328.56525345622117 166.6959447004608 330.4317050691244 163.27815668202766 330.7710599078341 161.65410138248848 330.7710599078341 161.65410138248848 331.0619354838709 160.24820276497695 Z" stroke="#cccccc" stroke-width="inherit" class="highcharts-point highcharts-color-0 highcharts-name-madre-de-dios highcharts-key-pe-md"></path><path fill="rgb(199,210,233)" d="M 251.89529953917048 99.57640552995392 L 251.43474654377877 99.09161290322581 251.9437788018433 94.6315207373272 252.91336405529952 93.58921658986175 254.41622119815668 94.19520737327188 256.11299539170506 94.19520737327188 257.5916129032258 93.56497695852535 258.0764055299539 92.28027649769585 259.79741935483867 90.68046082949309 260.1367741935484 89.75935483870967 258.85207373271885 87.06875576036866 257.3734562211981 86.3415668202765 254.94949308755758 85.71133640552995 253.97990783410137 84.79023041474655 252.23465437788016 81.39668202764977 252.3558525345622 77.61529953917051 253.301198156682 76.54875576036866 254.6101382488479 77.61529953917051 257.2280184331797 78.73032258064516 258.9975115207373 80.37861751152073 259.9670967741935 80.76645161290323 262.9485714285714 80.91188940092165 264.86350230414746 81.9784331797235 266.2936405529954 85.00838709677419 267.166267281106 85.75981566820276 269.22663594470043 85.73557603686636 271.3112442396313 84.25695852534562 272.28082949308754 84.20847926267281 274.5351152073732 86.51124423963134 275.6016589861751 87.02027649769585 279.01944700460825 86.87483870967742 281.56460829493085 87.43235023041474 282.8735483870968 88.03834101382488 283.8673732718894 89.0321658986175 284.4491244239631 90.43806451612903 284.0128110599078 94.53456221198157 283.60073732718894 96.74036866359447 282.12211981566816 98.77649769585253 281.3464516129032 98.55834101382489 280.1102304147465 97.00700460829493 278.1225806451613 96.08589861751152 276.6439631336405 96.54645161290323 275.48046082949304 98.75225806451613 275.23806451612904 99.77032258064516 275.6016589861751 101.17622119815668 275.40774193548384 104.3273732718894 275.98949308755755 106.79981566820277 279.43152073732716 114.12018433179723 279.91631336405527 115.57456221198156 279.6739170506912 117.0531797235023 278.3164976958525 118.70147465437788 277.46811059907833 122.04654377880185 276.42580645161286 122.87069124423962 275.6743778801843 124.15539170506912 274.341198156682 123.88875576036867 273.9048847926267 122.14350230414746 272.1596313364055 119.35594470046082 271.72331797235023 119.79225806451613 271.6263594470046 121.80414746543778 270.29317972350225 122.50709677419354 265.8088479262673 121.63447004608295 264.6211059907834 121.876866359447 264.2817511520737 121.24663594470046 263.821198156682 117.46525345622119 262.1729032258064 115.91391705069124 259.23990783410136 114.96857142857142 257.4219354838709 114.92009216589861 256.7917050691244 113.90202764976958 256.8401843317972 112.52036866359447 255.82211981566817 110.58119815668202 256.11299539170506 107.8421198156682 254.05262672811057 105.41815668202764 253.54359447004606 103.69714285714285 253.6647926267281 102.09732718894008 252.7679262672811 101.41861751152074 251.89529953917048 99.57640552995392 Z" stroke="#cccccc" stroke-width="inherit" class="highcharts-point highcharts-color-0 highcharts-name-san-martín highcharts-key-pe-sm"></path><path fill="rgb(192,204,230)" d="M 253.301198156682 76.54875576036866 L 252.3558525345622 77.61529953917051 252.23465437788016 81.39668202764977 253.97990783410137 84.79023041474655 254.94949308755758 85.71133640552995 257.3734562211981 86.3415668202765 258.85207373271885 87.06875576036866 260.1367741935484 89.75935483870967 259.79741935483867 90.68046082949309 258.0764055299539 92.28027649769585 257.5916129032258 93.56497695852535 256.11299539170506 94.19520737327188 254.41622119815668 94.19520737327188 252.91336405529952 93.58921658986175 251.9437788018433 94.6315207373272 251.43474654377877 99.09161290322581 251.89529953917048 99.57640552995392 250.02884792626725 99.47944700460829 248.35631336405527 99.86728110599078 247.92 98.80073732718894 247.84728110599076 95.96470046082949 246.48986175115206 93.12866359447004 245.68995391705067 91.96516129032258 243.1932718894009 90.41382488479263 241.73889400921658 87.55354838709677 239.2906912442396 86.26884792626728 237.08488479262672 83.04497695852534 237.8120737327189 80.71797235023041 239.43612903225804 78.29400921658986 239.43612903225804 76.40331797235022 238.8058986175115 73.2036866359447 239.70276497695852 71.07059907834102 239.72700460829492 69.59198156682028 239.12101382488476 68.57391705069124 238.68470046082948 66.70746543778802 237.93327188940088 65.18036866359446 238.95133640552993 63.02304147465438 238.296866359447 61.471705069124425 239.79972350230412 58.22359447004608 239.94516129032257 56.72073732718894 240.9389861751152 56.066267281105986 241.30258064516127 54.345253456221194 242.12672811059906 53.52110599078341 241.9570506912442 52.33336405529954 242.85391705069122 49.473087557603684 242.85391705069122 48.30958525345622 244.18709677419352 48.18838709677419 244.81732718894006 49.71548387096774 245.71419354838707 49.27917050691244 245.22940092165896 47.65511520737327 247.43520737327188 45.18267281105991 248.8895852534562 43.24350230414746 250.78027649769584 41.98304147465438 251.5317050691244 46.56433179723502 252.8164055299539 49.32764976958525 253.47087557603686 53.71502304147465 254.39198156682025 55.339078341013824 254.77981566820273 57.06009216589862 254.41622119815668 58.175115207373274 254.1495852534562 63.02304147465438 252.91336405529952 65.49548387096775 251.82258064516128 66.80442396313364 251.31354838709674 68.91327188940092 252.283133640553 74.31870967741935 253.301198156682 76.54875576036866 Z" stroke="#cccccc" stroke-width="inherit" class="highcharts-point highcharts-color-0 highcharts-name-amazonas highcharts-key-pe-am"></path><path fill="rgb(184,198,227)" d="M 277.46811059907833 122.04654377880185 L 278.3164976958525 118.70147465437788 279.6739170506912 117.0531797235023 279.91631336405527 115.57456221198156 279.43152073732716 114.12018433179723 275.98949308755755 106.79981566820277 275.40774193548384 104.3273732718894 275.6016589861751 101.17622119815668 275.23806451612904 99.77032258064516 275.48046082949304 98.75225806451613 276.6439631336405 96.54645161290323 278.1225806451613 96.08589861751152 280.1102304147465 97.00700460829493 281.3464516129032 98.55834101382489 282.12211981566816 98.77649769585253 283.60073732718894 96.74036866359447 284.0128110599078 94.53456221198157 284.4491244239631 90.43806451612903 283.8673732718894 89.0321658986175 282.8735483870968 88.03834101382488 281.56460829493085 87.43235023041474 279.01944700460825 86.87483870967742 275.6016589861751 87.02027649769585 274.5351152073732 86.51124423963134 272.28082949308754 84.20847926267281 271.3112442396313 84.25695852534562 269.22663594470043 85.73557603686636 267.166267281106 85.75981566820276 266.2936405529954 85.00838709677419 264.86350230414746 81.9784331797235 262.9485714285714 80.91188940092165 259.9670967741935 80.76645161290323 258.9975115207373 80.37861751152073 257.2280184331797 78.73032258064516 254.6101382488479 77.61529953917051 253.301198156682 76.54875576036866 252.283133640553 74.31870967741935 251.31354838709674 68.91327188940092 251.82258064516128 66.80442396313364 252.91336405529952 65.49548387096775 254.1495852534562 63.02304147465438 254.41622119815668 58.175115207373274 254.77981566820273 57.06009216589862 254.39198156682025 55.339078341013824 253.47087557603686 53.71502304147465 252.8164055299539 49.32764976958525 251.5317050691244 46.56433179723502 250.78027649769584 41.98304147465438 266.9723502304147 36.33520737327189 267.8207373271889 35.82617511520737 275.50470046082944 29.98442396313364 283.14018433179723 21.015760368663592 285.2490322580645 12.750046082949309 286.17013824884793 13.477235023041475 287.9153917050691 13.404516129032258 286.9215668202765 10.229124423963134 287.5275576036866 8.459631336405529 287.28516129032255 7.053732718894009 284.9581566820276 5.308479262672811 284.23096774193544 3.0784331797235023 282.291797235023 2.1330875576036865 282.02516129032256 1.13926267281106 284.64304147465435 1.8422119815668203 286.63069124423964 1.502857142857143 288.0123502304147 0 289.1516129032258 0.1696774193548387 290.4605529953917 1.4543778801843317 293.02995391705065 2.7148387096774194 293.7329032258064 1.9634101382488478 294.7267281105991 3.5147465437788017 294.2176958525346 3.9995391705069125 296.3507834101382 4.387373271889401 299.64737327188936 7.732442396313364 300.3503225806451 9.211059907834102 300.1564055299539 10.0836866359447 301.24718894009214 10.762396313364055 300.641198156682 11.8289400921659 302.14405529953916 13.646912442396314 303.86506912442394 14.131705069124424 304.66497695852536 13.865069124423963 305.34368663594466 15.149769585253456 306.7495852534562 15.464884792626728 307.3070967741935 16.579907834101384 308.44635944700457 17.04046082949309 309.12506912442393 16.458709677419353 310.8218433179723 17.501013824884794 311.8883870967742 19.173548387096773 311.59751152073727 19.585622119815667 312.833732718894 20.70064516129032 313.0034101382488 22.033824884792626 312.3489400921659 23.488202764976958 315.0880184331797 25.184976958525347 316.421198156682 24.482027649769584 317.29382488479257 25.306175115207374 317.5604608294931 27.58470046082949 318.38460829493084 29.208755760368664 317.1241474654378 31.22064516129032 317.6816589861751 32.359907834101385 318.77244239631335 33.111336405529954 319.1602764976958 32.456866359447005 320.39649769585253 33.281013824884795 320.784331797235 34.1778801843318 322.7962211981567 33.59612903225806 324.03244239631334 34.202119815668205 325.0989861751152 32.96589861751152 326.26248847926263 33.66884792626728 328.00774193548386 33.98396313364055 328.66221198156677 34.58995391705069 332.0557603686636 34.00820276497696 333.098064516129 32.94165898617511 334.8675576036866 32.91741935483871 336.685529953917 30.929769585253457 338.16414746543774 30.178341013824884 341.04866359447 31.414562211981565 341.63041474654375 32.74774193548387 342.2364055299539 31.87511520737327 342.721198156682 33.62036866359447 344.24829493087555 33.014377880184334 345.62995391705067 33.13557603686636 346.7449769585253 31.9963133640553 348.5144700460829 31.947834101382487 348.92654377880183 31.07520737327189 350.6233179723502 31.535760368663595 351.8837788018433 32.67502304147465 353.04728110599075 32.96589861751152 353.89566820276497 34.73539170506913 354.8894930875576 34.08092165898618 356.63474654377876 35.34138248847926 358.0891244239631 35.26866359447005 358.0406451612903 36.33520737327189 358.9617511520737 35.971612903225804 359.8343778801843 37.2563133640553 361.19179723502305 37.86230414746544 361.87050691244235 37.37751152073733 362.5007373271889 38.5652534562212 352.53824884792624 53.83622119815668 355.27732718894003 55.048202764976956 356.8044239631336 55.09668202764977 357.6770506912442 54.39373271889401 358.64663594470045 54.56341013824885 360.0040552995391 55.94506912442396 360.3918894009216 57.447926267281105 362.23410138248846 58.58718894009216 363.64 60.841474654377876 362.74313364055297 61.90801843317972 361.70082949308755 60.86571428571428 360.82820276497694 60.9141935483871 360.1252534562212 61.95649769585253 358.67087557603685 60.744516129032256 358.622396313364 59.459815668202765 356.90138248847927 58.92654377880184 354.6470967741935 59.77493087557603 353.99262672811057 58.68414746543779 352.8291244239631 59.43557603686636 351.0838709677419 59.53253456221198 350.93843317972346 60.380921658986175 349.120460829493 62.489769585253455 346.2117050691244 62.15041474654378 345.58147465437787 62.82912442396313 344.51493087557606 62.392811059907835 343.4241474654377 63.507834101382485 341.3637788018433 63.33815668202765 341.09714285714284 63.871428571428574 339.06101382488475 64.16230414746543 337.50967741935483 63.79870967741935 335.8371428571428 64.23502304147465 334.5282027649769 65.22884792626728 333.21926267281106 65.54396313364055 332.41935483870964 66.61050691244239 330.62562211981566 67.72552995391705 328.5167741935484 68.38 328.4198156682028 69.15566820276497 325.1959447004608 71.48267281105991 324.8081105990783 72.06442396313363 323.47493087557604 71.94322580645161 321.00248847926264 73.03400921658987 321.31760368663595 75.02165898617511 320.2025806451613 77.80921658986175 320.37225806451613 79.14239631336406 319.76626728110597 81.27548387096775 317.77861751152074 83.69944700460829 316.3969585253456 86.53548387096774 317.22110599078337 88.32921658986174 317.85133640552993 91.67428571428572 316.8817511520737 93.24986175115207 314.4093087557603 93.78313364055299 309.90073732718895 97.00700460829493 308.7372350230414 98.34018433179723 308.0585253456221 101.17622119815668 309.46442396313364 104.06073732718893 306.7738248847926 105.03032258064516 305.6103225806452 104.78792626728111 306.1435944700461 106.1211059907834 305.5860829493087 107.26036866359446 304.39834101382485 106.5089400921659 302.0713364055299 105.6363133640553 299.3080184331797 105.17576036866359 297.950599078341 104.3273732718894 296.95677419354837 104.3516129032258 296.6901382488479 105.10304147465438 297.3203686635944 107.86635944700461 297.4415668202765 111.84165898617512 297.00525345622117 112.6658064516129 295.4539170506912 113.44147465437788 292.2300460829493 113.9747465437788 288.4244239631336 115.59880184331797 285.9035023041474 115.59880184331797 285.3459907834101 116.81078341013824 283.9885714285714 117.29557603686635 283.7946543778802 118.09548387096774 285.0066359447004 120.08313364055299 284.9339170506912 120.81032258064516 282.6796313364055 119.47714285714285 281.90396313364056 119.52562211981567 278.6073732718894 122.48285714285714 277.1772350230415 123.16156682027649 277.46811059907833 122.04654377880185 Z" stroke="#cccccc" stroke-width="inherit" class="highcharts-point highcharts-color-0 highcharts-name-loreto highcharts-key-pe-lo"></path><path fill="rgb(176,192,224)" d="M 294.5085714285714 215.36912442396314 L 294.99336405529954 212.89668202764977 294.1692165898617 211.53926267281105 293.90258064516127 210.23032258064515 292.86027649769585 209.26073732718893 292.13308755760363 207.73364055299538 290.896866359447 208.48506912442397 290 208.46082949308754 290.0727188940092 206.933732718894 288.9092165898617 205.47935483870967 289.90304147465434 203.4917050691244 289.83032258064515 201.81917050691243 290.896866359447 201.06774193548387 294.1934562211981 200.63142857142856 294.484331797235 200.07391705069125 294.53281105990783 197.64995391705068 293.70866359447 195.5411059907834 293.6844239631336 193.98976958525344 291.8179723502304 191.83244239631335 292.2300460829493 190.49926267281106 293.6117050691244 189.96599078341015 294.3873732718894 190.6931797235023 295.7932718894009 191.0567741935484 296.3265437788018 190.35382488479263 295.2357603686636 189.62663594470047 296.7386175115207 188.19649769585254 298.65354838709675 188.19649769585254 299.23529953917046 187.59050691244238 299.06562211981566 186.08764976958525 299.865529953917 185.72405529953917 300.9078341013825 186.13612903225805 300.1564055299539 183.17889400921658 300.68967741935484 182.08811059907833 300.0594470046083 179.736866359447 298.8717050691244 177.8946543778802 297.9021198156682 177.77345622119816 297.1506912442396 176.80387096774194 297.8536405529954 174.81622119815668 299.50193548387097 173.31336405529953 300.0836866359447 174.30718894009217 302.4834101382488 175.71308755760367 303.86506912442394 174.9858986175115 305.4891244239631 175.20405529953916 306.87078341013824 177.5552995391705 306.91926267281104 178.47640552995392 308.2524423963133 180.24589861751153 309.44018433179724 180.9730875576037 311.1854377880184 186.52396313364056 310.96728110599076 186.93603686635944 313.10036866359445 188.63281105990782 314.6032258064516 190.7658986175115 315.74248847926265 191.68700460829493 315.30617511520734 192.48691244239632 312.3247004608295 191.92940092165898 311.1369585253456 190.98405529953916 307.5494930875576 188.68129032258065 306.91926267281104 190.98405529953916 307.6222119815668 194.5957603686636 308.5190783410138 195.20175115207374 309.12506912442393 196.29253456221198 308.34940092165897 196.92276497695852 309.90073732718895 199.9284792626728 310.38552995391706 201.98884792626728 311.161198156682 203.17658986175115 311.3066359447005 204.99456221198156 311.11271889400916 207.10341013824885 311.6459907834101 208.12147465437786 311.3308755760369 209.64857142857142 310.60368663594465 209.84248847926267 311.3308755760369 211.68470046082948 312.5428571428571 211.44230414746542 313.53668202764976 210.06064516129032 314.77290322580643 210.25456221198155 317.85133640552993 209.4546543778802 318.1664516129032 208.99410138248848 320.7116129032258 210.52119815668203 320.85705069124424 211.44230414746542 318.6027649769585 211.83013824884793 318.0694930875576 213.0421198156682 318.4573271889401 213.79354838709676 318.0452534562212 216.1932718894009 316.10608294930876 218.56875576036865 314.5789861751152 218.37483870967742 314.5305069124424 219.95041474654377 312.10654377880184 219.48986175115206 310.48248847926266 220.19281105990783 305.8042396313364 220.77456221198156 304.83465437788016 222.3016589861751 303.33179723502303 222.6894930875576 303.1136405529954 220.70184331797233 301.3926267281106 221.23511520737327 300.4472811059908 220.8715207373272 299.7928110599078 219.65953917050692 298.99290322580646 219.29594470046084 298.09603686635944 216.9204608294931 294.7024884792627 215.92663594470045 294.5085714285714 215.36912442396314 Z" stroke="#cccccc" stroke-width="inherit" class="highcharts-point highcharts-color-0 highcharts-name-ayacucho highcharts-key-pe-ay"></path><path fill="rgb(169,186,220)" d="M 265.5664516129032 178.4279262672811 L 265.6876497695852 176.6099539170507 264.79078341013826 175.49493087557605 262.1971428571428 174.08903225806452 261.9789861751152 172.80433179723502 261.1063594470046 172.3195391705069 261.130599078341 171.4226728110599 260.7427649769585 171.15603686635944 259.9428571428571 167.85944700460828 259.9186175115207 166.59898617511521 260.6942857142857 166.2111520737327 261.5669124423963 164.8052534562212 262.14866359447 165.36276497695852 262.0759447004608 166.35658986175116 263.1909677419355 167.37465437788018 264.7423041474654 167.35041474654378 263.3606451612903 168.7320737327189 263.57880184331793 170.28341013824885 264.7423041474654 170.23493087557603 265.9058064516129 169.14414746543778 266.99658986175115 170.42884792626728 266.2209216589862 171.51963133640552 267.04506912442395 172.07714285714286 266.4875576036866 172.58617511520737 267.7480184331797 174.59806451612903 267.2389861751152 176.48875576036866 266.2451612903226 177.0705069124424 265.5664516129032 178.4279262672811 Z" stroke="#cccccc" stroke-width="inherit" class="highcharts-point highcharts-color-0 highcharts-name-lima-province highcharts-key-pe-145"></path><path fill="rgb(161,180,217)" d="M 299.50193548387097 173.31336405529953 L 297.8536405529954 174.81622119815668 297.1506912442396 176.80387096774194 297.9021198156682 177.77345622119816 298.8717050691244 177.8946543778802 300.0594470046083 179.736866359447 300.68967741935484 182.08811059907833 300.1564055299539 183.17889400921658 300.9078341013825 186.13612903225805 299.865529953917 185.72405529953917 299.06562211981566 186.08764976958525 299.23529953917046 187.59050691244238 298.65354838709675 188.19649769585254 296.7386175115207 188.19649769585254 295.2357603686636 189.62663594470047 296.3265437788018 190.35382488479263 295.7932718894009 191.0567741935484 294.3873732718894 190.6931797235023 293.6117050691244 189.96599078341015 292.2300460829493 190.49926267281106 291.8179723502304 191.83244239631335 293.6844239631336 193.98976958525344 293.70866359447 195.5411059907834 294.53281105990783 197.64995391705068 294.484331797235 200.07391705069125 294.1934562211981 200.63142857142856 290.896866359447 201.06774193548387 289.83032258064515 201.81917050691243 289.0304147465438 201.06774193548387 287.84267281105986 200.8495852534562 285.9035023041474 199.22552995391706 283.5037788018433 198.30442396313364 282.946267281106 196.17133640552996 283.60073732718894 195.0805529953917 283.14018433179723 193.79585253456221 284.0370506912442 192.12331797235024 281.39493087557605 191.27493087557605 279.601198156682 191.00829493087556 280.2556682027649 189.14184331797236 280.95861751152074 188.5358525345622 280.8131797235023 187.00875576036867 281.8554838709677 186.03917050691243 281.92820276497696 185.19078341013824 282.50995391705067 183.37281105990783 283.60073732718894 182.52442396313364 284.2794470046083 180.9730875576037 285.4671889400921 179.05815668202766 287.8911520737327 176.90082949308754 289.1273732718894 176.51299539170506 288.5456221198157 175.3494930875576 289.1758525345622 175.15557603686636 290 173.87087557603687 289.224331797235 171.78626728110598 290.0242396313364 170.84092165898616 291.30894009216587 171.78626728110598 293.92682027649766 171.73778801843318 295.4054377880184 170.9378801843318 297.73244239631333 171.73778801843318 299.50193548387097 173.31336405529953 Z" stroke="#cccccc" stroke-width="inherit" class="highcharts-point highcharts-color-0 highcharts-name-huancavelica highcharts-key-pe-hv"></path><path fill="rgb(153,174,214)" d="M 297.9021198156682 154.7215668202765 L 298.3626728110599 156.75769585253457 299.62313364055296 157.60608294930876 306.676866359447 156.0789861751152 308.4948387096774 153.4853456221198 310.264331797235 154.01861751152074 311.2339170506912 155.06092165898616 312.20350230414743 156.9516129032258 311.8883870967742 159.472534562212 313.02764976958525 161.62986175115208 311.4278341013825 164.61133640552995 309.48866359447004 166.30811059907833 312.058064516129 167.35041474654378 311.9611059907834 169.41078341013824 310.57944700460826 171.4226728110599 310.40976958525346 173.2164055299539 309.7795391705069 174.35566820276497 307.42829493087555 175.13133640552996 305.4891244239631 175.20405529953916 303.86506912442394 174.9858986175115 302.4834101382488 175.71308755760367 300.0836866359447 174.30718894009217 299.50193548387097 173.31336405529953 297.73244239631333 171.73778801843318 295.4054377880184 170.9378801843318 293.92682027649766 171.73778801843318 291.30894009216587 171.78626728110598 290.0242396313364 170.84092165898616 289.224331797235 171.78626728110598 290 173.87087557603687 289.1758525345622 175.15557603686636 288.5456221198157 175.3494930875576 289.1273732718894 176.51299539170506 287.8911520737327 176.90082949308754 285.4671889400921 179.05815668202766 284.2794470046083 180.9730875576037 282.8735483870968 180.02774193548387 283.3098617511521 177.0947465437788 281.7585253456221 173.701198156682 282.00092165898616 173.1921658986175 281.17677419354834 172.2710599078341 278.3649769585253 170.9621198156682 276.6197235023041 171.3499539170507 275.77133640552995 169.75013824884792 274.89870967741933 169.09566820276498 273.8564055299539 167.37465437788018 273.68672811059906 165.33852534562212 272.6201843317972 165.1930875576037 271.4809216589862 164.02958525345622 270.7779723502304 161.99345622119816 270.09926267281105 161.3147465437788 269.9053456221198 158.2363133640553 272.8625806451613 158.01815668202764 272.9352995391705 155.47299539170507 275.0441474654378 155.47299539170507 276.30460829493086 154.69732718894008 276.91059907834097 155.25483870967741 280.2799078341014 155.1821198156682 284.64304147465435 153.89741935483872 286.0247004608295 153.8731797235023 289.2000921658986 153.0247926267281 290.6059907834101 152.29760368663594 292.2300460829493 153.07327188940093 294.0480184331797 154.3579723502304 295.4054377880184 154.7458064516129 297.9021198156682 154.7215668202765 Z" stroke="#cccccc" stroke-width="inherit" class="highcharts-point highcharts-color-0 highcharts-name-junín highcharts-key-pe-ju"></path><path fill="rgb(146,168,211)" d="M 269.9053456221198 158.2363133640553 L 270.09926267281105 161.3147465437788 270.7779723502304 161.99345622119816 271.4809216589862 164.02958525345622 272.6201843317972 165.1930875576037 273.68672811059906 165.33852534562212 273.8564055299539 167.37465437788018 274.89870967741933 169.09566820276498 275.77133640552995 169.75013824884792 276.6197235023041 171.3499539170507 278.3649769585253 170.9621198156682 281.17677419354834 172.2710599078341 282.00092165898616 173.1921658986175 281.7585253456221 173.701198156682 283.3098617511521 177.0947465437788 282.8735483870968 180.02774193548387 284.2794470046083 180.9730875576037 283.60073732718894 182.52442396313364 282.50995391705067 183.37281105990783 281.92820276497696 185.19078341013824 280.98285714285714 185.67557603686635 278.704331797235 185.893732718894 277.5650691244239 185.4331797235023 276.83788018433177 186.45124423963134 274.82599078341013 188.09953917050692 273.323133640553 190.03870967741935 270.02654377880185 185.96645161290323 269.56599078341014 183.5909677419355 267.96617511520736 181.89419354838708 267.2389861751152 180.00350230414747 265.5664516129032 178.4279262672811 266.2451612903226 177.0705069124424 267.2389861751152 176.48875576036866 267.7480184331797 174.59806451612903 266.4875576036866 172.58617511520737 267.04506912442395 172.07714285714286 266.2209216589862 171.51963133640552 266.99658986175115 170.42884792626728 265.9058064516129 169.14414746543778 264.7423041474654 170.23493087557603 263.57880184331793 170.28341013824885 263.3606451612903 168.7320737327189 264.7423041474654 167.35041474654378 263.1909677419355 167.37465437788018 262.0759447004608 166.35658986175116 262.14866359447 165.36276497695852 261.5669124423963 164.8052534562212 260.6942857142857 166.2111520737327 259.9186175115207 166.59898617511521 258.68239631336405 165.09612903225806 258.17336405529954 163.9326267281106 253.54359447004606 161.07235023041474 253.6405529953917 159.9573271889401 254.27078341013822 159.25437788018434 253.3254377880184 157.09705069124425 253.17999999999998 155.86082949308755 252.0164976958525 154.2610138248848 251.84682027649768 153.4853456221198 250.05308755760367 151.2310599078341 251.28930875576035 150.01907834101382 251.507465437788 147.95870967741936 252.71944700460827 147.8132718894009 253.13152073732718 148.41926267281104 252.08921658986173 150.16451612903225 253.17999999999998 150.26147465437788 254.22230414746542 151.08562211981567 254.34350230414745 153.24294930875575 255.4585253456221 153.29142857142858 256.8644239631336 152.66119815668202 257.3492165898617 151.7400921658986 259.8458986175115 149.97059907834102 260.5246082949309 148.05566820276496 263.60304147465433 146.64976958525347 264.03935483870964 147.49815668202766 264.91198156682026 147.59511520737328 265.29981566820277 148.51622119815667 266.19668202764973 148.87981566820275 267.6268202764977 152.24912442396314 267.7722580645161 153.14599078341013 268.7176036866359 154.40645161290323 268.7418433179723 156.44258064516129 269.9053456221198 158.2363133640553 Z" stroke="#cccccc" stroke-width="inherit" class="highcharts-point highcharts-color-0 highcharts-name-lima highcharts-key-pe-lr"></path><path fill="rgb(138,161,208)" d="M 224.04396313364055 102.1458064516129 L 223.8015668202765 101.37013824884792 220.57769585253453 98.1947465437788 220.09290322580642 96.81308755760368 217.86285714285714 94.87391705069125 215.29345622119814 93.3710599078341 210.49400921658983 91.01981566820277 212.5058986175115 88.32921658986174 213.03917050691243 87.02027649769585 215.1237788018433 84.74175115207373 219.55963133640552 83.43281105990783 220.18986175115205 82.97225806451613 220.23834101382488 79.04543778801843 222.12903225806448 80.52405529953917 223.0501382488479 81.85723502304147 222.9774193548387 83.3358525345622 224.16516129032257 83.7479262672811 224.55299539170505 84.45087557603686 226.24976958525343 84.52359447004608 227.3647926267281 85.32350230414747 228.62525345622117 85.68709677419355 229.40092165898616 85.22654377880184 230.68562211981566 85.85677419354839 229.71603686635942 87.33539170506913 230.20082949308755 88.23225806451613 229.64331797235022 89.46847926267282 227.53447004608293 90.24414746543779 227.21935483870965 90.99557603686635 227.48599078341013 92.9347465437788 228.57677419354837 93.56497695852535 229.08580645161288 94.84967741935483 231.53400921658985 95.74654377880184 231.53400921658985 96.4252534562212 229.32820276497694 98.31594470046083 228.94036866359446 99.94 226.78304147465437 99.35824884792626 224.04396313364055 102.1458064516129 Z" stroke="#cccccc" stroke-width="inherit" class="highcharts-point highcharts-color-0 highcharts-name-lambayeque highcharts-key-pe-lb"></path><path fill="rgb(130,155,205)" d="M 204.04626728110597 58.15087557603687 L 205.01585253456219 56.5510599078341 206.8095852534562 55.12092165898618 207.02774193548385 54.17557603686636 208.19124423963132 52.769677419354835 210.46976958525343 51.41225806451613 211.56055299539167 49.812442396313365 213.98451612903224 49.23069124423963 214.37235023041472 48.18838709677419 215.46313364055297 48.6731797235023 215.36617511520734 49.5215668202765 216.0448847926267 51.02442396313364 216.11760368663593 53.56958525345622 216.94175115207372 55.14516129032258 214.92986175115206 56.963133640552996 213.4512442396313 56.64801843317972 212.38470046082946 56.890414746543776 211.94838709677418 57.83576036866359 209.4032258064516 59.94460829493087 207.53677419354835 59.31437788018433 205.961198156682 59.362857142857145 204.04626728110597 58.15087557603687 Z" stroke="#cccccc" stroke-width="inherit" class="highcharts-point highcharts-color-0 highcharts-name-tumbes highcharts-key-pe-tu"></path><path fill="rgb(123,149,202)" d="M 320.7116129032258 210.52119815668203 L 318.1664516129032 208.99410138248848 317.85133640552993 209.4546543778802 314.77290322580643 210.25456221198155 313.53668202764976 210.06064516129032 312.5428571428571 211.44230414746542 311.3308755760369 211.68470046082948 310.60368663594465 209.84248847926267 311.3308755760369 209.64857142857142 311.6459907834101 208.12147465437786 311.11271889400916 207.10341013824885 311.3066359447005 204.99456221198156 311.161198156682 203.17658986175115 310.38552995391706 201.98884792626728 309.90073732718895 199.9284792626728 308.34940092165897 196.92276497695852 309.12506912442393 196.29253456221198 308.5190783410138 195.20175115207374 307.6222119815668 194.5957603686636 306.91926267281104 190.98405529953916 307.5494930875576 188.68129032258065 311.1369585253456 190.98405529953916 312.3247004608295 191.92940092165898 315.30617511520734 192.48691244239632 315.74248847926265 191.68700460829493 317.4635023041474 192.24451612903226 319.35419354838706 191.39612903225807 321.5842396313364 191.95364055299538 324.3475576036866 193.82009216589861 326.7957603686636 194.35336405529952 327.54718894009216 195.4683870967742 328.9773271889401 195.78350230414748 330.4559447004608 197.09244239631337 331.5709677419355 199.29824884792626 331.546728110599 201.79493087557603 331.11041474654377 203.29778801843318 328.734930875576 206.13382488479263 327.3532718894009 206.5216589861751 325.923133640553 207.51548387096773 325.5595391705069 208.2426728110599 325.7776958525345 209.76976958525344 324.58995391705065 210.06064516129032 321.92359447004605 209.503133640553 320.7116129032258 210.52119815668203 Z" stroke="#cccccc" stroke-width="inherit" class="highcharts-point highcharts-color-0 highcharts-name-apurímac highcharts-key-pe-ap"></path><path fill="rgb(115,143,199)" d="M 320.7116129032258 210.52119815668203 L 321.92359447004605 209.503133640553 324.58995391705065 210.06064516129032 325.7776958525345 209.76976958525344 325.7776958525345 210.69087557603686 326.62608294930874 211.80589861751153 327.838064516129 212.2422119815668 330.1408294930875 211.63622119815668 331.546728110599 212.79972350230415 332.1527188940092 211.56350230414745 332.24967741935484 209.79400921658987 332.97686635944694 210.27880184331798 334.21308755760367 212.33917050691244 335.1584331797235 212.67852534562212 334.4797235023041 213.72082949308756 334.38276497695847 215.2236866359447 337.0733640552995 216.26599078341013 339.2306912442396 215.73271889400922 339.2791705069124 214.98129032258063 342.3333640552995 216.36294930875576 343.10903225806453 215.80543778801842 343.9574193548387 216.5083870967742 343.83622119815664 217.79308755760368 345.8965898617511 219.6352995391705 346.0905069124424 222.98036866359448 347.4964055299539 224.62866359447005 347.0358525345622 226.15576036866358 348.29631336405527 227.92525345622118 348.1751152073732 229.08875576036866 347.71456221198156 233.01557603686635 346.7207373271889 234.0336405529954 346.35714285714283 235.94857142857143 343.9331797235023 235.90009216589863 342.8181566820276 236.50608294930876 341.58193548387095 238.22709677419354 341.58193548387095 239.65723502304147 339.8609216589862 240.7480184331797 339.54580645161286 241.47520737327187 340.07907834101377 243.12350230414745 341.12138248847924 244.0930875576037 339.6427649769585 247.36543778801843 338.86709677419356 247.94718894009216 336.7824884792626 246.66248847926266 334.5282027649769 246.03225806451613 332.6132718894009 244.31124423963132 330.407465437788 243.53557603686636 329.21972350230413 241.9842396313364 327.9107834101382 241.45096774193547 326.98967741935485 239.7057142857143 325.26866359447 238.66341013824885 323.8870046082949 238.20285714285714 322.45686635944696 238.20285714285714 321.2206451612903 237.71806451612903 319.76626728110597 236.6272811059908 317.4150230414746 235.73041474654377 315.59705069124425 234.44571428571427 314.1669124423963 234.27603686635945 313.8760368663594 233.47612903225806 312.4701382488479 232.7731797235023 308.6160368663594 231.70663594470045 306.6526267281106 230.6158525345622 304.0347465437788 228.67668202764978 303.84082949308754 227.92525345622118 298.3869124423963 225.54976958525344 298.09603686635944 224.53170506912443 292.7875576036866 222.20470046082949 292.49668202764974 221.7926267281106 289.6364055299539 220.33824884792625 291.23622119815667 217.5022119815668 294.5085714285714 215.36912442396314 294.7024884792627 215.92663594470045 298.09603686635944 216.9204608294931 298.99290322580646 219.29594470046084 299.7928110599078 219.65953917050692 300.4472811059908 220.8715207373272 301.3926267281106 221.23511520737327 303.1136405529954 220.70184331797233 303.33179723502303 222.6894930875576 304.83465437788016 222.3016589861751 305.8042396313364 220.77456221198156 310.48248847926266 220.19281105990783 312.10654377880184 219.48986175115206 314.5305069124424 219.95041474654377 314.5789861751152 218.37483870967742 316.10608294930876 218.56875576036865 318.0452534562212 216.1932718894009 318.4573271889401 213.79354838709676 318.0694930875576 213.0421198156682 318.6027649769585 211.83013824884793 320.85705069124424 211.44230414746542 320.7116129032258 210.52119815668203 Z" stroke="#cccccc" stroke-width="inherit" class="highcharts-point highcharts-color-0 highcharts-name-arequipa highcharts-key-pe-ar"></path><path fill="rgb(107,137,196)" d="M 375.5658986175115 187.27539170506913 L 375.6386175115207 190.88709677419354 375.2023041474654 194.71695852534563 374.6205529953917 195.9289400921659 373.52976958525346 196.36525345622118 374.6932718894009 197.64995391705068 375.056866359447 200.8011059907834 375.9779723502304 201.6010138248848 376.5839631336405 203.51594470046084 376.3415668202765 204.2916129032258 374.5720737327189 204.7279262672811 374.79023041474653 206.66709677419354 372.29354838709673 208.36387096774195 372.17235023041474 209.4546543778802 371.08156682027646 209.64857142857142 370.7179723502304 211.90285714285713 369.4090322580645 212.38764976958524 368.9242396313364 214.93281105990783 370.2816589861751 216.9447004608295 372.19658986175114 218.90811059907833 371.3239631336405 219.29594470046084 370.03926267281105 220.75032258064516 368.9727188940092 222.93188940092165 368.00313364055296 222.54405529953917 367.56682027649765 221.59870967741935 366.1124423963133 220.43520737327188 365.2155760368663 220.31400921658985 364.39142857142855 218.85963133640553 364.2702304147465 219.44138248847926 361.79778801843315 219.73225806451612 362.9370506912442 220.19281105990783 361.14331797235025 220.5806451612903 360.92516129032254 221.11391705069124 362.71889400921657 224.4832258064516 362.9370506912442 225.7436866359447 360.99788018433173 223.36820276497696 361.070599078341 224.14387096774192 360.3191705069124 225.38009216589862 359.61622119815667 225.3316129032258 359.8343778801843 227.4889400921659 361.40995391705064 227.87677419354839 361.62811059907835 228.55548387096775 362.74313364055297 228.45852534562212 361.74930875576035 227.61013824884793 362.71889400921657 226.66479262672812 363.3006451612903 228.11917050691244 364.1005529953917 228.09493087557604 364.36718894009215 229.2584331797235 367.83345622119816 229.98562211981567 367.97889400921656 231.10064516129032 366.69419354838703 232.4095852534562 367.90617511520736 232.45806451612904 369.675668202765 233.6942857142857 371.6390783410138 233.62156682027648 372.8995391705069 233.01557603686635 374.3054377880184 233.2094930875576 373.77216589861746 233.93668202764977 372.60866359447004 233.79124423963134 373.23889400921655 234.4941935483871 373.09345622119815 235.92433179723503 372.31778801843313 237.0878341013825 373.09345622119815 237.91198156682026 373.4570506912442 239.12396313364056 373.04497695852535 239.63299539170507 370.8634101382488 240.60258064516128 370.3786175115207 241.66912442396313 367.7364976958525 244.43244239631335 367.42138248847925 245.4505069124424 366.2821198156682 245.76562211981567 364.6823041474654 246.7836866359447 364.0520737327189 248.23806451612901 362.985529953917 248.23806451612901 359.2526267281106 245.9110599078341 357.14377880184327 242.0084792626728 357.3134562211981 240.84497695852534 359.276866359447 239.7057142857143 355.73788018433174 236.3364055299539 354.96221198156684 234.22755760368662 355.27732718894003 233.01557603686635 354.3804608294931 231.70663594470045 353.96838709677417 230.1068202764977 352.07769585253453 229.50082949308756 350.40516129032255 230.1310599078341 348.1751152073732 229.08875576036866 348.29631336405527 227.92525345622118 347.0358525345622 226.15576036866358 347.4964055299539 224.62866359447005 346.0905069124424 222.98036866359448 345.8965898617511 219.6352995391705 346.4783410138249 219.34442396313364 346.6722580645161 217.8658064516129 346.2117050691244 216.26599078341013 346.2117050691244 214.69041474654378 346.6480184331797 213.9147465437788 346.5025806451613 211.51502304147465 345.67843317972347 211.3211059907834 344.80580645161285 210.25456221198155 346.6237788018433 208.82442396313363 346.8904147465438 206.8610138248848 348.1508755760368 206.40046082949308 349.0235023041474 203.8068202764977 349.38709677419354 201.91612903225806 348.82958525345623 200.70414746543779 349.33861751152074 198.0377880184332 351.25354838709677 197.52875576036865 352.9018433179723 194.01400921658987 355.10764976958524 191.46884792626727 355.71364055299534 190.35382488479263 355.64092165898614 188.77824884792625 356.10147465437785 186.669400921659 356.58626728110596 186.54820276497696 365.94276497695853 191.46884792626727 366.54875576036864 191.49308755760367 375.5658986175115 187.27539170506913 Z" stroke="#cccccc" stroke-width="inherit" class="highcharts-point highcharts-color-0 highcharts-name-callao highcharts-key-pe-cl"></path><path fill="rgb(100,131,193)" d="M 343.0120737327189 254.87972350230413 L 341.2668202764977 253.57078341013823 340.1760368663594 253.27990783410138 340.5396313364055 252.5042396313364 340.05483870967737 249.15917050691243 338.86709677419356 247.94718894009216 339.6427649769585 247.36543778801843 341.12138248847924 244.0930875576037 340.07907834101377 243.12350230414745 339.54580645161286 241.47520737327187 339.8609216589862 240.7480184331797 341.58193548387095 239.65723502304147 341.58193548387095 238.22709677419354 342.8181566820276 236.50608294930876 343.9331797235023 235.90009216589863 346.35714285714283 235.94857142857143 346.7207373271889 234.0336405529954 347.71456221198156 233.01557603686635 348.1751152073732 229.08875576036866 350.40516129032255 230.1310599078341 352.07769585253453 229.50082949308756 353.96838709677417 230.1068202764977 354.3804608294931 231.70663594470045 355.27732718894003 233.01557603686635 354.96221198156684 234.22755760368662 355.73788018433174 236.3364055299539 359.276866359447 239.7057142857143 357.3134562211981 240.84497695852534 357.14377880184327 242.0084792626728 356.44082949308756 242.97806451612902 355.8590783410138 242.8326267281106 355.15612903225804 241.47520737327187 354.1865437788018 241.16009216589862 353.12 242.0569585253456 352.7564055299539 243.3416589861751 352.9260829493087 244.6021198156682 351.20506912442397 246.61400921658986 349.77493087557605 247.2442396313364 348.4902304147465 249.013732718894 348.102396313364 250.20147465437788 346.4298617511521 252.52847926267282 343.71502304147464 253.86165898617512 343.0120737327189 254.87972350230413 Z" stroke="#cccccc" stroke-width="inherit" class="highcharts-point highcharts-color-0 highcharts-name-moquegua highcharts-key-pe-mq"></path><path fill="rgb(92,125,190)" d="M 357.14377880184327 242.0084792626728 L 359.2526267281106 245.9110599078341 362.985529953917 248.23806451612901 364.0520737327189 248.23806451612901 364.9731797235023 248.43198156682027 365.9670046082949 249.4742857142857 366.0882027649769 251.43769585253455 363.6157603686636 253.52230414746543 361.74930875576035 253.49806451612903 361.16755760368665 254.56460829493088 362.08866359447006 258.15207373271886 360.87668202764974 260.4548387096774 359.3738248847926 261.9334562211981 357.09529953917047 262.85456221198154 353.50783410138246 263 351.27778801843317 261.3032258064516 349.6294930875576 260.3578801843318 347.71456221198156 258.49142857142857 346.84193548387094 258.03087557603686 346.5510599078341 257.18248847926264 344.19981566820275 255.9947465437788 343.0120737327189 254.87972350230413 343.71502304147464 253.86165898617512 346.4298617511521 252.52847926267282 348.102396313364 250.20147465437788 348.4902304147465 249.013732718894 349.77493087557605 247.2442396313364 351.20506912442397 246.61400921658986 352.9260829493087 244.6021198156682 352.7564055299539 243.3416589861751 353.12 242.0569585253456 354.1865437788018 241.16009216589862 355.15612903225804 241.47520737327187 355.8590783410138 242.8326267281106 356.44082949308756 242.97806451612902 357.14377880184327 242.0084792626728 Z" stroke="#cccccc" stroke-width="inherit" class="highcharts-point highcharts-color-0 highcharts-name-tacna highcharts-key-pe-ta"></path><path fill="rgb(84,118,187)" d="M 250.05308755760367 151.2310599078341 L 247.67760368663593 147.59511520737328 246.97465437788017 145.5105069124424 246.10202764976958 144.6621198156682 245.93235023041473 143.23198156682028 245.10820276497694 141.94728110599078 245.18092165898616 139.69299539170507 243.1690322580645 137.14783410138247 243.1690322580645 136.29944700460828 242.32064516129032 134.36027649769585 242.49032258064514 133.53612903225806 240.8905069124424 132.20294930875576 241.30258064516127 131.0636866359447 240.42995391705068 130.9909677419355 240.52691244239628 131.83935483870968 239.6785253456221 130.89400921658986 240.28451612903223 129.85170506912442 239.2422119815668 129.17299539170506 239.12101382488476 127.83981566820276 239.58156682027646 127.54894009216589 239.84820276497695 125.85216589861751 240.69658986175114 124.85834101382488 244.72036866359446 123.42820276497696 244.9627649769585 121.75566820276498 246.02930875576035 120.15585253456221 246.73225806451612 118.3136405529954 248.9138248847926 116.44718894009216 249.7622119815668 114.92009216589861 251.0226728110599 115.06552995391705 253.3254377880184 114.12018433179723 253.93142857142857 116.1563133640553 255.67668202764975 117.53797235023042 257.5916129032258 120.18009216589861 257.9794470046083 121.58599078341014 258.44 123.74331797235023 259.5307834101382 124.78562211981567 259.5307834101382 125.51281105990783 260.6458064516129 126.79751152073733 261.5426728110599 127.1126267281106 262.6334562211981 128.4215668202765 265.7118894009216 130.1910599078341 266.269400921659 131.16064516129032 264.59686635944695 132.90589861751153 263.1667281105991 136.22672811059908 262.9728110599078 137.43870967741935 261.5911520737327 139.54755760368664 262.6334562211981 141.80184331797236 262.9000921658986 143.54709677419353 263.99087557603684 144.34700460829492 263.60304147465433 146.64976958525347 260.5246082949309 148.05566820276496 259.8458986175115 149.97059907834102 257.3492165898617 151.7400921658986 256.8644239631336 152.66119815668202 255.4585253456221 153.29142857142858 254.34350230414745 153.24294930875575 254.22230414746542 151.08562211981567 253.17999999999998 150.26147465437788 252.08921658986173 150.16451612903225 253.13152073732718 148.41926267281104 252.71944700460827 147.8132718894009 251.507465437788 147.95870967741936 251.28930875576035 150.01907834101382 250.05308755760367 151.2310599078341 Z" stroke="#cccccc" stroke-width="inherit" class="highcharts-point highcharts-color-0 highcharts-name-ancash highcharts-key-pe-an"></path><path fill="rgb(77,112,184)" d="M 228.94036866359446 99.94 L 229.32820276497694 98.31594470046083 231.53400921658985 96.4252534562212 231.53400921658985 95.74654377880184 229.08580645161288 94.84967741935483 228.57677419354837 93.56497695852535 227.48599078341013 92.9347465437788 227.21935483870965 90.99557603686635 227.53447004608293 90.24414746543779 229.64331797235022 89.46847926267282 230.20082949308755 88.23225806451613 229.71603686635942 87.33539170506913 230.68562211981566 85.85677419354839 229.40092165898616 85.22654377880184 228.62525345622117 85.68709677419355 227.3647926267281 85.32350230414747 228.7464516129032 84.1357603686636 227.80110599078338 81.5663594470046 228.18894009216586 78.29400921658986 229.13428571428568 78.31824884792627 229.06156682027648 76.06396313364056 228.55253456221197 75.4094930875576 228.31013824884792 73.37336405529953 229.81299539170504 71.77354838709677 230.41898617511518 70.65852534562212 232.261198156682 70.85244239631336 232.84294930875575 71.28875576036866 233.6186175115207 70.5615668202765 234.03069124423962 69.32534562211981 235.1941935483871 68.88903225806452 234.78211981566818 67.5073732718894 235.84866359447003 66.1499539170507 237.93327188940088 65.18036866359446 238.68470046082948 66.70746543778802 239.12101382488476 68.57391705069124 239.72700460829492 69.59198156682028 239.70276497695852 71.07059907834102 238.8058986175115 73.2036866359447 239.43612903225804 76.40331797235022 239.43612903225804 78.29400921658986 237.8120737327189 80.71797235023041 237.08488479262672 83.04497695852534 239.2906912442396 86.26884792626728 241.73889400921658 87.55354838709677 243.1932718894009 90.41382488479263 245.68995391705067 91.96516129032258 246.48986175115206 93.12866359447004 247.84728110599076 95.96470046082949 247.92 98.80073732718894 248.35631336405527 99.86728110599078 249.15622119815666 101.95188940092166 250.10156682027647 103.0184331797235 250.53788018433178 105.07880184331798 251.74986175115205 106.38774193548387 250.1985253456221 106.46046082949309 249.42285714285714 106.9694930875576 249.20470046082949 109.1510599078341 247.0473732718894 109.6358525345622 246.247465437788 109.32073732718894 244.86580645161288 110.53271889400922 244.0901382488479 110.70239631336405 243.94470046082947 109.80552995391704 242.49032258064514 108.90866359447004 241.25410138248844 108.88442396313364 239.89668202764975 107.93907834101383 238.3211059907834 108.10875576036867 237.23032258064515 107.67244239631336 234.83059907834098 108.44811059907833 234.03069124423962 109.82976958525346 233.1095852534562 109.22377880184331 233.0853456221198 107.76940092165898 232.6005529953917 106.82405529953917 231.14617511520734 105.53935483870967 228.94036866359446 104.93336405529953 228.43133640552992 104.47281105990783 229.03732718894008 103.18811059907834 228.79493087557603 102.1215668202765 228.94036866359446 99.94 Z" stroke="#cccccc" stroke-width="inherit" class="highcharts-point highcharts-color-0 highcharts-name-cajamarca highcharts-key-pe-cj"></path><path fill="rgb(69,106,181)" d="M 263.60304147465433 146.64976958525347 L 263.99087557603684 144.34700460829492 262.9000921658986 143.54709677419353 262.6334562211981 141.80184331797236 261.5911520737327 139.54755760368664 262.9728110599078 137.43870967741935 263.1667281105991 136.22672811059908 264.59686635944695 132.90589861751153 266.269400921659 131.16064516129032 265.7118894009216 130.1910599078341 262.6334562211981 128.4215668202765 261.5426728110599 127.1126267281106 260.6458064516129 126.79751152073733 259.5307834101382 125.51281105990783 259.5307834101382 124.78562211981567 258.44 123.74331797235023 257.9794470046083 121.58599078341014 260.1852534562212 121.56175115207373 262.0517050691244 121.07695852534562 262.6576958525345 122.55557603686636 264.2090322580645 122.57981566820277 264.6211059907834 121.876866359447 265.8088479262673 121.63447004608295 270.29317972350225 122.50709677419354 271.6263594470046 121.80414746543778 271.72331797235023 119.79225806451613 272.1596313364055 119.35594470046082 273.9048847926267 122.14350230414746 274.341198156682 123.88875576036867 275.6743778801843 124.15539170506912 276.42580645161286 122.87069124423962 277.46811059907833 122.04654377880185 277.1772350230415 123.16156682027649 278.2437788018433 125.56129032258065 278.43769585253455 128.05797235023041 279.6739170506912 129.53658986175114 279.9890322580645 131.74239631336405 281.8070046082949 134.02092165898617 283.0917050691244 133.73004608294931 284.8127188940092 132.2999078341014 286.80036866359444 131.5242396313364 288.7880184331797 128.25188940092167 290.4847926267281 125.92488479262673 293.85410138248847 123.37972350230415 295.62359447004604 122.82221198156682 297.2476497695852 123.01612903225806 297.82940092165893 123.6221198156682 297.8778801843318 124.80986175115207 296.49622119815666 125.90064516129031 296.3023041474654 127.79133640552995 295.57511520737324 129.24571428571429 295.55087557603684 131.40304147465437 294.99336405529954 133.22101382488478 295.2357603686636 134.19059907834102 297.56276497695853 137.55990783410138 294.363133640553 139.0385253456221 291.23622119815667 139.57179723502304 289.103133640553 139.3536405529954 286.38829493087553 140.63834101382488 283.964331797235 141.0746543778802 282.2433179723502 141.00193548387097 280.59502304147463 141.29281105990782 279.6496774193548 141.97152073732718 279.2376036866359 143.91069124423962 280.0617511520737 147.2557603686636 277.5650691244239 148.6131797235023 276.30460829493086 147.93447004608294 273.565529953917 147.7405529953917 272.4020276497696 146.60129032258064 269.54175115207374 146.26193548387096 268.4267281105991 146.67400921658987 267.50562211981565 147.95870967741936 266.19668202764973 148.87981566820275 265.29981566820277 148.51622119815667 264.91198156682026 147.59511520737328 264.03935483870964 147.49815668202766 263.60304147465433 146.64976958525347 Z" stroke="#cccccc" stroke-width="inherit" class="highcharts-point highcharts-color-0 highcharts-name-huánuco highcharts-key-pe-hc"></path><path fill="rgb(61,100,178)" d="M 261.1063594470046 172.3195391705069 L 260.2579723502304 172.1983410138249 260.7427649769585 171.15603686635944 261.130599078341 171.4226728110599 261.1063594470046 172.3195391705069 Z" stroke="#cccccc" stroke-width="inherit" class="highcharts-point highcharts-color-0 highcharts-name-callao highcharts-key-pe-3341"></path><path fill="rgb(54,94,174)" d="M 228.94036866359446 99.94 L 228.79493087557603 102.1215668202765 229.03732718894008 103.18811059907834 228.43133640552992 104.47281105990783 228.94036866359446 104.93336405529953 231.14617511520734 105.53935483870967 232.6005529953917 106.82405529953917 233.0853456221198 107.76940092165898 233.1095852534562 109.22377880184331 234.03069124423962 109.82976958525346 234.83059907834098 108.44811059907833 237.23032258064515 107.67244239631336 238.3211059907834 108.10875576036867 239.89668202764975 107.93907834101383 241.25410138248844 108.88442396313364 242.49032258064514 108.90866359447004 243.94470046082947 109.80552995391704 244.0901382488479 110.70239631336405 244.86580645161288 110.53271889400922 246.247465437788 109.32073732718894 247.0473732718894 109.6358525345622 249.20470046082949 109.1510599078341 249.42285714285714 106.9694930875576 250.1985253456221 106.46046082949309 251.74986175115205 106.38774193548387 250.53788018433178 105.07880184331798 250.10156682027647 103.0184331797235 249.15622119815666 101.95188940092166 248.35631336405527 99.86728110599078 250.02884792626725 99.47944700460829 251.89529953917048 99.57640552995392 252.7679262672811 101.41861751152074 253.6647926267281 102.09732718894008 253.54359447004606 103.69714285714285 254.05262672811057 105.41815668202764 256.11299539170506 107.8421198156682 255.82211981566817 110.58119815668202 256.8401843317972 112.52036866359447 256.7917050691244 113.90202764976958 257.4219354838709 114.92009216589861 259.23990783410136 114.96857142857142 262.1729032258064 115.91391705069124 263.821198156682 117.46525345622119 264.2817511520737 121.24663594470046 264.6211059907834 121.876866359447 264.2090322580645 122.57981566820277 262.6576958525345 122.55557603686636 262.0517050691244 121.07695852534562 260.1852534562212 121.56175115207373 257.9794470046083 121.58599078341014 257.5916129032258 120.18009216589861 255.67668202764975 117.53797235023042 253.93142857142857 116.1563133640553 253.3254377880184 114.12018433179723 251.0226728110599 115.06552995391705 249.7622119815668 114.92009216589861 248.9138248847926 116.44718894009216 246.73225806451612 118.3136405529954 246.02930875576035 120.15585253456221 244.9627649769585 121.75566820276498 244.72036866359446 123.42820276497696 240.69658986175114 124.85834101382488 239.84820276497695 125.85216589861751 239.58156682027646 127.54894009216589 239.12101382488476 127.83981566820276 238.63622119815665 126.6763133640553 237.4727188940092 125.14921658986175 237.76359447004606 124.64018433179723 237.521198156682 122.77373271889401 236.64857142857142 121.63447004608295 234.9275576036866 120.30129032258064 235.46082949308754 119.47714285714285 234.24884792626727 117.19861751152074 232.261198156682 115.38064516129032 232.23695852534559 115.01705069124424 229.74027649769585 113.24755760368663 227.34055299539168 110.07216589861751 227.77686635944698 109.46617511520738 225.6437788018433 106.46046082949309 225.76497695852532 105.36967741935484 225.1832258064516 103.64866359447005 224.04396313364055 102.1458064516129 226.78304147465437 99.35824884792626 228.94036866359446 99.94 Z" stroke="#cccccc" stroke-width="inherit" class="highcharts-point highcharts-color-0 highcharts-name-la-libertad highcharts-key-pe-ll"></path><path fill="rgb(46,88,171)" d="M 266.19668202764973 148.87981566820275 L 267.50562211981565 147.95870967741936 268.4267281105991 146.67400921658987 269.54175115207374 146.26193548387096 272.4020276497696 146.60129032258064 273.565529953917 147.7405529953917 276.30460829493086 147.93447004608294 277.5650691244239 148.6131797235023 280.0617511520737 147.2557603686636 279.2376036866359 143.91069124423962 279.6496774193548 141.97152073732718 280.59502304147463 141.29281105990782 282.2433179723502 141.00193548387097 283.964331797235 141.0746543778802 286.38829493087553 140.63834101382488 289.103133640553 139.3536405529954 291.23622119815667 139.57179723502304 294.363133640553 139.0385253456221 297.56276497695853 137.55990783410138 298.9201843317972 140.39594470046083 298.96866359447006 141.92304147465438 300.0594470046083 144.56516129032258 299.9140092165899 147.08608294930875 300.8835944700461 149.70396313364054 302.16829493087556 150.30995391705068 302.65308755760367 151.2310599078341 300.9805529953917 152.05520737327188 299.2595391705069 153.75198156682026 297.9021198156682 154.7215668202765 295.4054377880184 154.7458064516129 294.0480184331797 154.3579723502304 292.2300460829493 153.07327188940093 290.6059907834101 152.29760368663594 289.2000921658986 153.0247926267281 286.0247004608295 153.8731797235023 284.64304147465435 153.89741935483872 280.2799078341014 155.1821198156682 276.91059907834097 155.25483870967741 276.30460829493086 154.69732718894008 275.0441474654378 155.47299539170507 272.9352995391705 155.47299539170507 272.8625806451613 158.01815668202764 269.9053456221198 158.2363133640553 268.7418433179723 156.44258064516129 268.7176036866359 154.40645161290323 267.7722580645161 153.14599078341013 267.6268202764977 152.24912442396314 266.19668202764973 148.87981566820275 Z" stroke="#cccccc" stroke-width="inherit" class="highcharts-point highcharts-color-0 highcharts-name-pasco highcharts-key-pe-pa"></path><path fill="rgb(38,82,168)" d="M 230.41898617511518 70.65852534562212 L 229.81299539170504 71.77354838709677 228.31013824884792 73.37336405529953 228.55253456221197 75.4094930875576 229.06156682027648 76.06396313364056 229.13428571428568 78.31824884792627 228.18894009216586 78.29400921658986 227.80110599078338 81.5663594470046 228.7464516129032 84.1357603686636 227.3647926267281 85.32350230414747 226.24976958525343 84.52359447004608 224.55299539170505 84.45087557603686 224.16516129032257 83.7479262672811 222.9774193548387 83.3358525345622 223.0501382488479 81.85723502304147 222.12903225806448 80.52405529953917 220.23834101382488 79.04543778801843 220.18986175115205 82.97225806451613 219.55963133640552 83.43281105990783 215.1237788018433 84.74175115207373 213.03917050691243 87.02027649769585 212.5058986175115 88.32921658986174 210.49400921658983 91.01981566820277 208.19124423963132 89.92903225806451 207.2701382488479 89.08064516129032 203.6826728110599 86.70516129032258 202.95548387096773 85.32350230414747 202.95548387096773 83.99032258064516 204.02202764976957 82.60866359447004 205.9854377880184 83.50552995391705 207.05198156682025 81.9541935483871 207.14894009216587 80.62101382488478 206.05815668202763 77.95465437788019 204.02202764976957 75.89428571428572 203.14940092165898 75.62764976958525 202.17981566820274 74.31870967741935 202.56764976958524 72.57345622119816 203.82811059907831 72.45225806451613 204.0947465437788 71.62811059907834 201.76774193548385 68.54967741935484 200.11944700460828 66.73170506912442 200.57999999999998 66.22267281105991 200.2164055299539 63.82294930875576 200.91935483870967 62.659447004608296 200.701198156682 61.54442396313364 201.30718894009215 60.40516129032258 204.04626728110597 58.15087557603687 205.961198156682 59.362857142857145 207.53677419354835 59.31437788018433 209.4032258064516 59.94460829493087 211.94838709677418 57.83576036866359 212.57861751152072 59.96884792626728 214.37235023041472 59.75069124423963 212.31198156682026 62.586728110599076 213.4754838709677 63.75023041474654 215.89944700460828 62.19889400921659 216.38423963133638 61.15658986175115 217.3295852534562 60.9384331797235 219.60811059907832 62.44129032258064 220.723133640553 62.586728110599076 221.7654377880184 63.72599078341014 224.26211981566817 63.144239631336404 226.4436866359447 64.4531797235023 226.1528110599078 65.68940092165899 227.29207373271888 68.42847926267281 229.40092165898616 70.5858064516129 230.41898617511518 70.65852534562212 Z" stroke="#cccccc" stroke-width="inherit" class="highcharts-point highcharts-color-0 highcharts-name-piura highcharts-key-pe-pi"></path></g></g><g data-z-index="0.1" class="highcharts-markers highcharts-series-0 highcharts-map-series highcharts-color-0 " transform="translate(10,63) scale(1 1)" clip-path="none"></g></g><text x="300" text-anchor="middle" class="highcharts-title" data-z-index="4" style="color:#333333;font-size:18px;fill:#333333;" y="24"><tspan>Highmaps basic demo</tspan></text><text x="300" text-anchor="middle" class="highcharts-subtitle" data-z-index="4" style="color:#666666;fill:#666666;" y="46"><tspan>Source map: </tspan><tspan dx="0">Peru</tspan></text><g data-z-index="6" class="highcharts-data-labels highcharts-series-0 highcharts-map-series highcharts-color-0 " visibility="visible" transform="translate(10,63) scale(1 1)" clip-path="url(#highcharts-eh75mva-35)"><g class="highcharts-label highcharts-data-label highcharts-data-label-color-0 " data-z-index="1" transform="translate(274,196)"><text x="0" data-z-index="1" style="font-size:11px;font-weight:bold;color:#000000;fill:#000000;" y="11"><tspan x="0" y="11" class="highcharts-text-outline" fill="#FFFFFF" stroke="#FFFFFF" stroke-width="2px" stroke-linejoin="round" style="">Ica</tspan><tspan x="0" y="11">Ica</tspan></text></g><g class="highcharts-label highcharts-data-label highcharts-data-label-color-0 " data-z-index="1" transform="translate(312,182)"><text x="0" data-z-index="1" style="font-size:11px;font-weight:bold;color:#000000;fill:#000000;" y="11"><tspan x="0" y="11" class="highcharts-text-outline" fill="#FFFFFF" stroke="#FFFFFF" stroke-width="2px" stroke-linejoin="round" style="">Cusco</tspan><tspan x="0" y="11">Cusco</tspan></text></g><g class="highcharts-label highcharts-data-label highcharts-data-label-color-0 " data-z-index="1" transform="translate(300,144)"><text x="0" data-z-index="1" style="font-size:11px;font-weight:bold;color:#000000;fill:#000000;" y="11"><tspan x="0" y="11" class="highcharts-text-outline" fill="#FFFFFF" stroke="#FFFFFF" stroke-width="2px" stroke-linejoin="round" style="">Ucayali</tspan><tspan x="0" y="11">Ucayali</tspan></text></g><g class="highcharts-label highcharts-data-label highcharts-data-label-color-0 " data-z-index="1" transform="translate(308,164)"><text x="0" data-z-index="1" style="font-size:11px;font-weight:bold;color:#000000;fill:#000000;" y="11"><tspan x="0" y="11" class="highcharts-text-outline" fill="#FFFFFF" stroke="#FFFFFF" stroke-width="2px" stroke-linejoin="round" style="">Madre de Dios</tspan><tspan x="0" y="11">Madre de Dios</tspan></text></g><g class="highcharts-label highcharts-data-label highcharts-data-label-color-0 " data-z-index="1" transform="translate(232,98)"><text x="0" data-z-index="1" style="font-size:11px;font-weight:bold;color:#000000;fill:#000000;" y="11"><tspan x="0" y="11" class="highcharts-text-outline" fill="#FFFFFF" stroke="#FFFFFF" stroke-width="2px" stroke-linejoin="round" style="">San Martín</tspan><tspan x="0" y="11">San Martín</tspan></text></g><g class="highcharts-label highcharts-data-label highcharts-data-label-color-0 " data-z-index="1" transform="translate(213,63)" opacity="0" visibility="hidden"><text x="0" data-z-index="1" style="font-size:11px;font-weight:bold;color:#000000;fill:#000000;" y="11"><tspan x="0" y="11" class="highcharts-text-outline" fill="#FFFFFF" stroke="#FFFFFF" stroke-width="2px" stroke-linejoin="round" style="">Amazonas</tspan><tspan x="0" y="11">Amazonas</tspan></text></g><g class="highcharts-label highcharts-data-label highcharts-data-label-color-0 " data-z-index="1" transform="translate(273,52)"><text x="0" data-z-index="1" style="font-size:11px;font-weight:bold;color:#000000;fill:#000000;" y="11"><tspan x="0" y="11" class="highcharts-text-outline" fill="#FFFFFF" stroke="#FFFFFF" stroke-width="2px" stroke-linejoin="round" style="">Loreto</tspan><tspan x="0" y="11">Loreto</tspan></text></g><g class="highcharts-label highcharts-data-label highcharts-data-label-color-0 " data-z-index="1" transform="translate(272,194)" opacity="0" visibility="hidden"><text x="0" data-z-index="1" style="font-size:11px;font-weight:bold;color:#000000;fill:#000000;" y="11"><tspan x="0" y="11" class="highcharts-text-outline" fill="#FFFFFF" stroke="#FFFFFF" stroke-width="2px" stroke-linejoin="round" style="">Ayacucho</tspan><tspan x="0" y="11">Ayacucho</tspan></text></g><g class="highcharts-label highcharts-data-label highcharts-data-label-color-0 " data-z-index="1" transform="translate(219,162)" opacity="0" visibility="hidden"><text x="0" data-z-index="1" style="font-size:11px;font-weight:bold;color:#000000;fill:#000000;" y="11"><tspan x="0" y="11" class="highcharts-text-outline" fill="#FFFFFF" stroke="#FFFFFF" stroke-width="2px" stroke-linejoin="round" style="">Lima Province</tspan><tspan x="0" y="11">Lima Province</tspan></text></g><g class="highcharts-label highcharts-data-label highcharts-data-label-color-0 " data-z-index="1" transform="translate(250,179)" opacity="0" visibility="hidden"><text x="0" data-z-index="1" style="font-size:11px;font-weight:bold;color:#000000;fill:#000000;" y="11"><tspan x="0" y="11" class="highcharts-text-outline" fill="#FFFFFF" stroke="#FFFFFF" stroke-width="2px" stroke-linejoin="round" style="">Huancavelica</tspan><tspan x="0" y="11">Huancavelica</tspan></text></g><g class="highcharts-label highcharts-data-label highcharts-data-label-color-0 " data-z-index="1" transform="translate(276,158)" opacity="0" visibility="hidden"><text x="0" data-z-index="1" style="font-size:11px;font-weight:bold;color:#000000;fill:#000000;" y="11"><tspan x="0" y="11" class="highcharts-text-outline" fill="#FFFFFF" stroke="#FFFFFF" stroke-width="2px" stroke-linejoin="round" style="">Junín</tspan><tspan x="0" y="11">Junín</tspan></text></g><g class="highcharts-label highcharts-data-label highcharts-data-label-color-0 " data-z-index="1" transform="translate(248,156)"><text x="0" data-z-index="1" style="font-size:11px;font-weight:bold;color:#FFFFFF;fill:#FFFFFF;" y="11"><tspan x="0" y="11" class="highcharts-text-outline" fill="#000000" stroke="#000000" stroke-width="2px" stroke-linejoin="round" style="">Lima</tspan><tspan x="0" y="11">Lima</tspan></text></g><g class="highcharts-label highcharts-data-label highcharts-data-label-color-0 " data-z-index="1" transform="translate(182,82)"><text x="0" data-z-index="1" style="font-size:11px;font-weight:bold;color:#FFFFFF;fill:#FFFFFF;" y="11"><tspan x="0" y="11" class="highcharts-text-outline" fill="#000000" stroke="#000000" stroke-width="2px" stroke-linejoin="round" style="">Lambayeque</tspan><tspan x="0" y="11">Lambayeque</tspan></text></g><g class="highcharts-label highcharts-data-label highcharts-data-label-color-0 " data-z-index="1" transform="translate(186,48)"><text x="0" data-z-index="1" style="font-size:11px;font-weight:bold;color:#FFFFFF;fill:#FFFFFF;" y="11"><tspan x="0" y="11" class="highcharts-text-outline" fill="#000000" stroke="#000000" stroke-width="2px" stroke-linejoin="round" style="">Tumbes</tspan><tspan x="0" y="11">Tumbes</tspan></text></g><g class="highcharts-label highcharts-data-label highcharts-data-label-color-0 " data-z-index="1" transform="translate(289,194)" opacity="0" visibility="hidden"><text x="0" data-z-index="1" style="font-size:11px;font-weight:bold;color:#FFFFFF;fill:#FFFFFF;" y="11"><tspan x="0" y="11" class="highcharts-text-outline" fill="#000000" stroke="#000000" stroke-width="2px" stroke-linejoin="round" style="">Apurímac</tspan><tspan x="0" y="11">Apurímac</tspan></text></g><g class="highcharts-label highcharts-data-label highcharts-data-label-color-0 " data-z-index="1" transform="translate(301,221)"><text x="0" data-z-index="1" style="font-size:11px;font-weight:bold;color:#FFFFFF;fill:#FFFFFF;" y="11"><tspan x="0" y="11" class="highcharts-text-outline" fill="#000000" stroke="#000000" stroke-width="2px" stroke-linejoin="round" style="">Arequipa</tspan><tspan x="0" y="11">Arequipa</tspan></text></g><g class="highcharts-label highcharts-data-label highcharts-data-label-color-0 " data-z-index="1" transform="translate(340,205)"><text x="0" data-z-index="1" style="font-size:11px;font-weight:bold;color:#FFFFFF;fill:#FFFFFF;" y="11"><tspan x="0" y="11" class="highcharts-text-outline" fill="#000000" stroke="#000000" stroke-width="2px" stroke-linejoin="round" style="">Callao</tspan><tspan x="0" y="11">Callao</tspan></text></g><g class="highcharts-label highcharts-data-label highcharts-data-label-color-0 " data-z-index="1" transform="translate(317,233)" opacity="0" visibility="hidden"><text x="0" data-z-index="1" style="font-size:11px;font-weight:bold;color:#FFFFFF;fill:#FFFFFF;" y="11"><tspan x="0" y="11" class="highcharts-text-outline" fill="#000000" stroke="#000000" stroke-width="2px" stroke-linejoin="round" style="">Moquegua</tspan><tspan x="0" y="11">Moquegua</tspan></text></g><g class="highcharts-label highcharts-data-label highcharts-data-label-color-0 " data-z-index="1" transform="translate(337,246)"><text x="0" data-z-index="1" style="font-size:11px;font-weight:bold;color:#FFFFFF;fill:#FFFFFF;" y="11"><tspan x="0" y="11" class="highcharts-text-outline" fill="#000000" stroke="#000000" stroke-width="2px" stroke-linejoin="round" style="">Tacna</tspan><tspan x="0" y="11">Tacna</tspan></text></g><g class="highcharts-label highcharts-data-label highcharts-data-label-color-0 " data-z-index="1" transform="translate(231,129)" opacity="0" visibility="hidden"><text x="0" data-z-index="1" style="font-size:11px;font-weight:bold;color:#FFFFFF;fill:#FFFFFF;" y="11"><tspan x="0" y="11" class="highcharts-text-outline" fill="#000000" stroke="#000000" stroke-width="2px" stroke-linejoin="round" style="">Ancash</tspan><tspan x="0" y="11">Ancash</tspan></text></g><g class="highcharts-label highcharts-data-label highcharts-data-label-color-0 " data-z-index="1" transform="translate(207,91)" opacity="0" visibility="hidden"><text x="0" data-z-index="1" style="font-size:11px;font-weight:bold;color:#FFFFFF;fill:#FFFFFF;" y="11"><tspan x="0" y="11" class="highcharts-text-outline" fill="#000000" stroke="#000000" stroke-width="2px" stroke-linejoin="round" style="">Cajamarca</tspan><tspan x="0" y="11">Cajamarca</tspan></text></g><g class="highcharts-label highcharts-data-label highcharts-data-label-color-0 " data-z-index="1" transform="translate(244,127)"><text x="0" data-z-index="1" style="font-size:11px;font-weight:bold;color:#FFFFFF;fill:#FFFFFF;" y="11"><tspan x="0" y="11" class="highcharts-text-outline" fill="#000000" stroke="#000000" stroke-width="2px" stroke-linejoin="round" style="">Huánuco</tspan><tspan x="0" y="11">Huánuco</tspan></text></g><g class="highcharts-label highcharts-data-label highcharts-data-label-color-0 " data-z-index="1" transform="translate(241,165)" opacity="0" visibility="hidden"><text x="0" data-z-index="1" style="font-size:11px;font-weight:bold;color:#FFFFFF;fill:#FFFFFF;" y="11"><tspan x="0" y="11" class="highcharts-text-outline" fill="#000000" stroke="#000000" stroke-width="2px" stroke-linejoin="round">Callao</tspan><tspan x="0" y="11">Callao</tspan></text></g><g class="highcharts-label highcharts-data-label highcharts-data-label-color-0 " data-z-index="1" transform="translate(205,109)" opacity="0" visibility="hidden"><text x="0" data-z-index="1" style="font-size:11px;font-weight:bold;color:#FFFFFF;fill:#FFFFFF;" y="11"><tspan x="0" y="11" class="highcharts-text-outline" fill="#000000" stroke="#000000" stroke-width="2px" stroke-linejoin="round" style="">La Libertad</tspan><tspan x="0" y="11">La Libertad</tspan></text></g><g class="highcharts-label highcharts-data-label highcharts-data-label-color-0 " data-z-index="1" transform="translate(270,139)" opacity="0" visibility="hidden"><text x="0" data-z-index="1" style="font-size:11px;font-weight:bold;color:#FFFFFF;fill:#FFFFFF;" y="11"><tspan x="0" y="11" class="highcharts-text-outline" fill="#000000" stroke="#000000" stroke-width="2px" stroke-linejoin="round" style="">Pasco</tspan><tspan x="0" y="11">Pasco</tspan></text></g><g class="highcharts-label highcharts-data-label highcharts-data-label-color-0 " data-z-index="1" transform="translate(201,66)"><text x="0" data-z-index="1" style="font-size:11px;font-weight:bold;color:#FFFFFF;fill:#FFFFFF;" y="11"><tspan x="0" y="11" class="highcharts-text-outline" fill="#000000" stroke="#000000" stroke-width="2px" stroke-linejoin="round" style="">Piura</tspan><tspan x="0" y="11">Piura</tspan></text></g></g><g class="highcharts-legend" data-z-index="7" transform="translate(193,338)"><rect fill="none" class="highcharts-legend-box" rx="0" ry="0" x="0" y="0" width="214" height="47" visibility="visible"></rect><g data-z-index="1"><g><g class="highcharts-legend-item highcharts-undefined-series highcharts-color-undefined" data-z-index="1" transform="translate(8,3)"><rect x="0" y="4" width="200" height="12" fill="url(#highcharts-eh75mva-34)" data-z-index="1"></rect><g class="highcharts-grid highcharts-coloraxis-grid " data-z-index="1"><path fill="none" stroke="#e6e6e6" stroke-width="1" data-z-index="1" class="highcharts-grid-line" d="M -0.5 4 L -0.5 16" opacity="1"></path><path fill="none" stroke="#e6e6e6" stroke-width="1" data-z-index="1" class="highcharts-grid-line" d="M 66.5 4 L 66.5 16" opacity="1"></path><path fill="none" stroke="#e6e6e6" stroke-width="1" data-z-index="1" class="highcharts-grid-line" d="M 132.5 4 L 132.5 16" opacity="1"></path><path fill="none" stroke="#e6e6e6" stroke-width="1" data-z-index="1" class="highcharts-grid-line" d="M 200.5 4 L 200.5 16" opacity="1"></path></g><text x="21" style="color:#333333;cursor:pointer;font-size:12px;font-weight:bold;fill:#333333;" text-anchor="start" data-z-index="2" y="15"></text><g class="highcharts-axis highcharts-coloraxis " data-z-index="2"><path fill="none" class="highcharts-axis-line" data-z-index="7" d="M 0 16 L 200 16"></path></g><g class="highcharts-axis-labels highcharts-coloraxis-labels " data-z-index="7"><text x="3.5" style="color:#666666;cursor:default;font-size:11px;fill:#666666;" text-anchor="middle" transform="translate(0,0)" y="35" opacity="1">0</text><text x="66.666666666667" style="color:#666666;cursor:default;font-size:11px;fill:#666666;" text-anchor="middle" transform="translate(0,0)" y="35" opacity="1">10</text><text x="133.33333333333" style="color:#666666;cursor:default;font-size:11px;fill:#666666;" text-anchor="middle" transform="translate(0,0)" y="35" opacity="1">20</text><text x="193" style="color:#666666;cursor:default;font-size:11px;fill:#666666;" text-anchor="middle" transform="translate(0,0)" y="35" opacity="1">30</text></g></g></g></g></g><text x="590" class="highcharts-credits" text-anchor="end" data-z-index="8" style="cursor:pointer;color:#999999;font-size:9px;fill:#999999;" y="395"><tspan>Highcharts.com © </tspan><tspan dx="0">Natural Earth</tspan><title>Copyright (c) 2015 Highsoft AS, Based on data from Natural Earth</title></text></svg>