<?xml version="1.0" encoding="iso-8859-1"?>
<!-- Generator: Adobe Illustrator 21.0.0, SVG Export Plug-In . SVG Version: 6.00 Build 0)  -->
<svg xmlns="http://www.w3.org/2000/svg" xmlns:xlink="http://www.w3.org/1999/xlink" version="1.1" id="Capa_1" x="0px" y="0px" viewBox="0 0 512 512" style="enable-background:new 0 0 512 512;" xml:space="preserve" width="512" height="512">
<g>
	<path d="M480.938,177.596C479.116,128.293,434.894,91,385.558,91H376c-24.853,0-45-20.147-45-45V15c0-8.284-6.716-15-15-15H196   c-8.284,0-15,6.716-15,15v31c0,24.853-20.147,45-45,45h-9.558c-49.336,0-93.558,37.293-95.38,86.596   c-0.322,8.743,0.599,17.351,2.721,25.67C13.378,227.655,0,269.667,0,316v181c0,8.284,7.716,15,16,15h30.187   c6.438,0,12.156-4.107,14.214-10.206l41.316-123.529C94.724,352.268,91,325.565,91,298.568V226c0-11.558,1.875-23.203,5.581-34.629   c2.549-7.866,10.957-12.173,18.896-9.639c7.881,2.549,12.202,11.016,9.639,18.896c-2.726,8.427-4.118,16.97-4.116,25.382   c0.004,25.069,22.333,45.507,47.397,44.963c35.215-0.767,55.15-16.816,72.603-24.247v-74.517l-25.605-25.605   c-5.859-5.859-5.859-15.352,0-21.211s15.352-5.859,21.211,0L256,144.789l19.395-19.395c5.859-5.859,15.352-5.859,21.211,0   s5.859,15.352,0,21.211L271,172.211v74.517c17.329,7.379,37.495,23.483,72.603,24.247c25.063,0.544,47.393-19.894,47.397-44.963   c0.002-8.412-1.39-16.956-4.116-25.382c-2.563-7.881,1.758-16.348,9.639-18.896c7.939-2.534,16.362,1.772,18.896,9.639   C419.125,202.797,421,214.442,421,226v72.568c0,25.974-3.387,51.687-9.864,76.75l42.308,126.473   c2.058,6.101,7.776,10.208,14.214,10.208H497c8.284,0,15-6.716,15-15V316c0-46.333-13.378-88.345-33.783-112.734   C480.339,194.947,481.26,186.339,480.938,177.596z"/>
	<path d="M178.299,331c3.301-0.601,33.9,2.999,62.701-21.899V280.3c-6.233,2.43-32.981,20.7-75,20.7c-16.8,0-32.401-6-45-15.3v12.9   c0,80.7,29.399,97.601,30,183.401v15c0,8.401,6.599,15,15,15h180c8.401,0,15-6.599,15-15v-15c0.3-40.8,7.8-68.2,15.3-93.701   c7.5-25.8,14.7-50.999,14.7-89.7v-12.9c-12.599,9.3-28.2,15.3-45,15.3c-41.975,0-68.831-18.296-75-20.7v28.801   c29.099,25.499,59.7,21.299,62.701,21.899c8.099,0,15,6.599,15,15s-6.901,15-15,15c-3.301-0.3-30.3,2.999-62.701-15.3v23.401   c29.099,25.499,59.7,21.299,62.701,21.899c8.099,0,15,6.599,15,15s-6.901,15-15,15c-3.301-0.3-30.3,2.999-62.701-15.3V436   c0,8.401-6.599,15-15,15s-15-6.599-15-15v-30.3c-31.8,18.001-59.7,15-62.701,15.3c-8.099,0-15-6.599-15-15s6.901-15,15-15   c3.301-0.601,33.9,2.999,62.701-21.899V345.7c-31.8,18.001-59.7,15-62.701,15.3c-8.099,0-15-6.599-15-15S170.2,331,178.299,331z"/>
</g>
</svg>
